<svg width="102" height="127" viewBox="0 0 102 127" fill="none" xmlns="http://www.w3.org/2000/svg">
<path d="M101.4 68.8313C101.4 83.0312 95.6 95.8313 86.3 105.031C77.2 114.131 64.6 119.631 50.7 119.631C36.9 119.631 24.3 114.031 15.1 105.031C5.8 95.8313 0 83.0312 0 68.8313C0 40.7313 22.7 18.0312 50.7 18.0312C78.7 18.0313 101.4 40.8313 101.4 68.8313Z" fill="#F5F6FA"/>
<g filter="url(#filter0_dd_2324_7446)">
<path d="M86.8291 45.5422L87.6291 109.942C87.6291 112.142 85.8291 113.842 83.6291 113.842H20.8291C18.6291 113.842 16.8291 112.042 16.8291 109.942V27.1422C16.8291 24.9422 18.6291 23.2422 20.8291 23.2422H66.3291L86.8291 45.5422Z" fill="white"/>
</g>
<path d="M49.5292 36.7426H27.4292C26.7292 36.7426 26.1292 36.1426 26.1292 35.4426C26.1292 34.7426 26.7292 34.1426 27.4292 34.1426H49.5292C50.2292 34.1426 50.8292 34.7426 50.8292 35.4426C50.8292 36.1426 50.2292 36.7426 49.5292 36.7426Z" fill="#D5DAE5"/>
<path d="M39.0292 43.9418H27.4292C26.7292 43.9418 26.1292 43.3418 26.1292 42.6418C26.1292 41.9418 26.7292 41.3418 27.4292 41.3418H38.9292C39.6292 41.3418 40.2292 41.9418 40.2292 42.6418C40.2292 43.3418 39.6292 43.9418 39.0292 43.9418Z" fill="#D5DAE5"/>
<path d="M66.3293 23.2422V41.0422C66.3293 43.5422 68.5293 45.5422 71.0293 45.5422H86.8293" fill="#D5DAE5"/>
<path d="M36.0625 36.5071L40.8142 19.7471L60.3308 21.9951L53.5168 32.9175L58.7947 37.1342L47.4319 61.9879L48.065 42.7463L36.0625 36.5071Z" fill="#F5F6FA"/>
<path d="M40.2799 17.2969L36.4983 11.6045" stroke="#989FB0" stroke-width="2"/>
<path d="M50.365 14.4508L50.8093 0.03125" stroke="#989FB0" stroke-width="2"/>
<path d="M59.4069 17.4307L65.4436 4.32812" stroke="#989FB0" stroke-width="2"/>
<path d="M38.8711 89.4101C38.4511 89.4101 38.115 89.2421 37.779 88.99C37.1909 88.4019 37.1909 87.3938 37.779 86.8057C41.6435 83.0251 46.7683 80.9248 52.2291 80.9248C57.69 80.9248 62.8148 83.0251 66.6794 86.8057C67.2674 87.3938 67.2674 88.4019 66.6794 88.99C66.0913 89.5781 65.0831 89.5781 64.495 88.99C61.2185 85.7135 56.8499 83.9493 52.2291 83.9493C47.6084 83.9493 43.2398 85.7135 39.9633 88.99C39.6272 89.2421 39.2912 89.4101 38.8711 89.4101Z" fill="#989FB0"/>
<path d="M44.1642 66.8946L46.1805 64.8783C46.7686 64.2902 46.7686 63.2821 46.1805 62.694C45.5924 62.1059 44.5842 62.1059 43.9961 62.694L41.9798 64.7103L39.9635 62.694C39.3754 62.1059 38.3673 62.1059 37.7792 62.694C37.1911 63.2821 37.1911 64.2902 37.7792 64.8783L39.7955 66.8946L37.7792 68.9109C37.1911 69.499 37.1911 70.5072 37.7792 71.0953C38.1153 71.4313 38.4513 71.5153 38.8714 71.5153C39.2914 71.5153 39.6275 71.3473 39.9635 71.0953L41.9798 69.079L43.9961 71.0953C44.3322 71.4313 44.6682 71.5153 45.0883 71.5153C45.5084 71.5153 45.8444 71.3473 46.1805 71.0953C46.7686 70.5072 46.7686 69.499 46.1805 68.9109L44.1642 66.8946Z" fill="#989FB0"/>
<path d="M64.5792 66.8946L66.5955 64.8783C67.1836 64.2902 67.1836 63.2821 66.5955 62.694C66.0074 62.1059 64.9993 62.1059 64.4112 62.694L62.3949 64.7103L60.3786 62.694C59.7905 62.1059 58.7823 62.1059 58.1942 62.694C57.6062 63.2821 57.6062 64.2902 58.1942 64.8783L60.2105 66.8946L58.1942 68.9109C57.6062 69.499 57.6062 70.5072 58.1942 71.0953C58.5303 71.4313 58.8663 71.5153 59.2864 71.5153C59.7065 71.5153 60.0425 71.3473 60.3786 71.0953L62.3949 69.079L64.4112 71.0953C64.7472 71.4313 65.0833 71.5153 65.5033 71.5153C65.9234 71.5153 66.2595 71.3473 66.5955 71.0953C67.1836 70.5072 67.1836 69.499 66.5955 68.9109L64.5792 66.8946Z" fill="#989FB0"/>
<defs>
<filter id="filter0_dd_2324_7446" x="7.8291" y="18.2422" width="88.8" height="108.6" filterUnits="userSpaceOnUse" color-interpolation-filters="sRGB">
<feFlood flood-opacity="0" result="BackgroundImageFix"/>
<feColorMatrix in="SourceAlpha" type="matrix" values="0 0 0 0 0 0 0 0 0 0 0 0 0 0 0 0 0 0 127 0" result="hardAlpha"/>
<feOffset dy="4"/>
<feGaussianBlur stdDeviation="4.5"/>
<feColorMatrix type="matrix" values="0 0 0 0 0.397708 0 0 0 0 0.47749 0 0 0 0 0.575 0 0 0 0.15 0"/>
<feBlend mode="normal" in2="BackgroundImageFix" result="effect1_dropShadow_2324_7446"/>
<feColorMatrix in="SourceAlpha" type="matrix" values="0 0 0 0 0 0 0 0 0 0 0 0 0 0 0 0 0 0 127 0" result="hardAlpha"/>
<feOffset dy="1"/>
<feGaussianBlur stdDeviation="0.5"/>
<feComposite in2="hardAlpha" operator="out"/>
<feColorMatrix type="matrix" values="0 0 0 0 0 0 0 0 0 0 0 0 0 0 0 0 0 0 0.03 0"/>
<feBlend mode="normal" in2="effect1_dropShadow_2324_7446" result="effect2_dropShadow_2324_7446"/>
<feBlend mode="normal" in="SourceGraphic" in2="effect2_dropShadow_2324_7446" result="shape"/>
</filter>
</defs>
</svg>
