<svg width="416" height="185" viewBox="0 0 416 185" fill="none" xmlns="http://www.w3.org/2000/svg">
<g filter="url(#filter0_dddd_1807_7144)">
<g clip-path="url(#clip0_1807_7144)">
<rect x="16" y="4" width="384" height="148.47" rx="15.5466" fill="white"/>
<path d="M40.0012 24.4558C41.4003 24.4558 42.5477 24.9455 43.4292 25.911C44.3107 26.8764 44.7584 28.1357 44.7584 29.6748C44.7584 31.2279 44.3107 32.4872 43.4292 33.4526C42.5337 34.4181 41.3864 34.8938 39.9732 34.8938C38.546 34.8938 37.3847 34.4181 36.5032 33.4526C35.6217 32.5012 35.1879 31.2419 35.1879 29.6748C35.1879 28.1637 35.6077 26.9184 36.4752 25.939C37.3427 24.9595 38.518 24.4558 40.0012 24.4558ZM39.9732 25.925C39.0497 25.925 38.3221 26.2748 37.7764 26.9464C37.2168 27.618 36.9509 28.5275 36.9509 29.6468C36.9509 30.8081 37.2168 31.7316 37.7625 32.4032C38.3081 33.0888 39.0497 33.4246 40.0012 33.4246C40.8966 33.4246 41.6242 33.0888 42.1699 32.4032C42.7156 31.7176 42.9954 30.8081 42.9954 29.6608C42.9954 28.5275 42.7156 27.618 42.1699 26.9464C41.6242 26.2748 40.8966 25.925 39.9732 25.925ZM50.212 27.2962V28.8213C49.9321 28.7933 49.7362 28.7793 49.6523 28.7793C48.2531 28.7793 47.5675 29.6888 47.5675 31.4798V34.6559H45.9864V27.4361H47.4835V28.8773C47.9873 27.8139 48.7988 27.2682 49.9041 27.2682L50.212 27.2962ZM57.6635 27.4361V33.8164C57.6635 35.0617 57.3977 35.9851 56.866 36.5728C56.3343 37.1745 55.4528 37.4683 54.1935 37.4683C52.2067 37.4683 51.1293 36.7407 50.9614 35.2716H52.5565C52.6964 35.9991 53.2561 36.3489 54.2355 36.3489C54.8931 36.3489 55.3689 36.181 55.6767 35.8452C55.9845 35.5094 56.1384 34.9777 56.1384 34.2222V33.3687C55.6067 34.1802 54.8512 34.586 53.8437 34.586C52.8783 34.586 52.1087 34.2641 51.5491 33.6205C50.9894 32.9769 50.7096 32.0954 50.7096 30.99C50.7096 29.8707 51.0034 28.9612 51.591 28.2756C52.1787 27.59 52.9483 27.2402 53.9277 27.2402C54.4314 27.2402 54.8651 27.3381 55.2149 27.534C55.5508 27.7299 55.8726 28.0238 56.1804 28.4435V27.4361H57.6635ZM54.2075 28.5275C53.6059 28.5275 53.1302 28.7513 52.7943 29.1711C52.4585 29.6048 52.2906 30.2065 52.2906 30.9621C52.2906 31.6896 52.4585 32.2773 52.8083 32.697C53.1581 33.1308 53.6199 33.3407 54.2075 33.3407C54.7952 33.3407 55.2709 33.1308 55.6207 32.6831C55.9565 32.2353 56.1384 31.6337 56.1384 30.8781C56.1384 30.1505 55.9565 29.5769 55.6207 29.1571C55.2849 28.7373 54.8092 28.5275 54.2075 28.5275ZM59.2694 29.6608C59.4373 28.0377 60.4867 27.2122 62.4316 27.2122C63.3271 27.2122 64.0547 27.3941 64.5864 27.7439C65.118 28.1077 65.3979 28.6534 65.3979 29.395V33.0608C65.3979 33.2707 65.4119 33.4106 65.4678 33.4806C65.5238 33.5645 65.6218 33.5925 65.7757 33.5925C65.8876 33.5925 65.9995 33.5925 66.1395 33.5645V34.6839C65.7197 34.7958 65.3839 34.8378 65.1041 34.8378C64.4184 34.8378 64.0267 34.558 63.9287 33.9703C63.3131 34.558 62.4736 34.8378 61.3962 34.8378C60.6406 34.8378 60.053 34.6559 59.6192 34.2641C59.1715 33.8724 58.9616 33.3547 58.9616 32.6831C58.9616 32.4872 58.9756 32.2913 59.0316 32.1094C59.0735 31.9415 59.1295 31.7876 59.1855 31.6477C59.2414 31.5217 59.3394 31.3958 59.4793 31.2839C59.6192 31.1719 59.7312 31.088 59.8151 31.004C59.8991 30.9341 60.053 30.8641 60.2489 30.7941C60.4447 30.7382 60.5987 30.6822 60.6966 30.6542C60.7945 30.6262 60.9624 30.5843 61.2143 30.5423C61.4522 30.5143 61.6061 30.4863 61.69 30.4723C61.774 30.4583 61.9419 30.4304 62.1937 30.4024C62.7534 30.3324 63.1452 30.2764 63.3551 30.2205C63.551 30.1645 63.6909 30.0946 63.7748 29.9826C63.8308 29.9127 63.8728 29.7448 63.8728 29.4649C63.8728 28.7373 63.3691 28.3735 62.3896 28.3735C61.8579 28.3735 61.4801 28.4715 61.2423 28.6674C60.9904 28.8633 60.8365 29.1991 60.7806 29.6608H59.2694ZM63.8588 31.032C63.7328 31.102 63.5929 31.1579 63.439 31.2139C63.2711 31.2699 63.1452 31.2979 63.0472 31.3118C62.9493 31.3258 62.7954 31.3398 62.5855 31.3678C62.3756 31.3958 62.2357 31.4238 62.1797 31.4238C61.9839 31.4518 61.8299 31.4798 61.718 31.5077C61.6061 31.5357 61.4662 31.5637 61.2983 31.6197C61.1304 31.6756 61.0044 31.7456 60.9205 31.8295C60.8365 31.9135 60.7526 32.0114 60.6966 32.1514C60.6266 32.2913 60.5987 32.4452 60.5987 32.6271C60.5987 32.9769 60.7106 33.2427 60.9345 33.4246C61.1583 33.6205 61.4801 33.7045 61.8999 33.7045C62.5995 33.7045 63.1452 33.5226 63.537 33.1308C63.7468 32.9209 63.8588 32.5012 63.8588 31.8855V31.032ZM68.6393 27.4361V28.4995C69.213 27.66 70.0105 27.2402 71.0319 27.2402C71.8434 27.2402 72.4591 27.4641 72.8649 27.9118C73.2706 28.3596 73.4805 29.0032 73.4805 29.8427V34.6559H71.8854V30.4583C71.8854 30.1785 71.8714 29.9406 71.8434 29.7448C71.8155 29.5489 71.7455 29.353 71.6616 29.1571C71.5776 28.9612 71.4377 28.8213 71.2418 28.7233C71.0459 28.6254 70.7941 28.5694 70.4862 28.5694C69.3109 28.5694 68.7233 29.311 68.7233 30.7662V34.6559H67.1282V27.4361H68.6393ZM76.7857 24.6517V26.2188H75.1906V24.6517H76.7857ZM76.7857 27.4361V34.6559H75.1906V27.4361H76.7857ZM85.0718 31.9275C84.9599 32.823 84.5961 33.5226 84.0084 34.0543C83.4068 34.586 82.6512 34.8378 81.7557 34.8378C80.6644 34.8378 79.8109 34.502 79.1672 33.8164C78.5236 33.1308 78.2018 32.2353 78.2018 31.116C78.2018 29.9267 78.5236 28.9752 79.1672 28.2756C79.8109 27.576 80.6923 27.2122 81.7977 27.2122C82.7212 27.2122 83.4627 27.4501 84.0224 27.9118C84.5821 28.3875 84.9179 29.0312 85.0158 29.8567H83.4348C83.3368 29.409 83.1549 29.0592 82.8751 28.8073C82.5952 28.5694 82.2315 28.4435 81.8117 28.4435C81.1961 28.4435 80.7063 28.6814 80.3565 29.1431C79.9927 29.6048 79.8248 30.2345 79.8248 31.032C79.8248 31.8435 79.9927 32.4592 80.3286 32.9069C80.6644 33.3547 81.1401 33.5785 81.7557 33.5785C82.2315 33.5785 82.6092 33.4386 82.9171 33.1588C83.2249 32.8789 83.4208 32.4592 83.5047 31.9275H85.0718ZM95.9153 29.5349H94.3902C94.2923 28.7793 93.7746 28.3875 92.8231 28.3875C92.4034 28.3875 92.0955 28.4715 91.8717 28.6114C91.6478 28.7653 91.5359 28.9752 91.5359 29.2271C91.5359 29.311 91.5359 29.395 91.5498 29.4509C91.5638 29.5209 91.5918 29.5769 91.6338 29.6328C91.6758 29.6888 91.7177 29.7308 91.7457 29.7587C91.7737 29.8007 91.8437 29.8427 91.9276 29.8707C92.0116 29.9127 92.0675 29.9406 92.1235 29.9686C92.1795 29.9966 92.2634 30.0246 92.3894 30.0526C92.5013 30.0806 92.5992 30.1085 92.6692 30.1225C92.7392 30.1505 92.8511 30.1785 93.019 30.2065C93.1729 30.2345 93.2988 30.2625 93.3828 30.2764C93.7466 30.3604 93.9984 30.4304 94.1663 30.4723C94.3342 30.5143 94.5721 30.5983 94.8799 30.7242C95.1877 30.8501 95.4256 30.976 95.5795 31.116C95.7194 31.2559 95.8594 31.4378 95.9853 31.6756C96.1112 31.9135 96.1812 32.1793 96.1812 32.4872C96.1812 33.2147 95.8873 33.8024 95.3277 34.2222C94.754 34.6559 93.9844 34.8658 93.033 34.8658C91.9976 34.8658 91.214 34.6559 90.6684 34.2222C90.1087 33.8024 89.8148 33.1728 89.7869 32.3473H91.312C91.3959 33.2567 91.9696 33.7045 93.061 33.7045C93.5227 33.7045 93.9005 33.6205 94.1803 33.4246C94.4602 33.2287 94.6141 32.9769 94.6141 32.6551C94.6141 32.5012 94.5721 32.3612 94.5021 32.2493C94.4322 32.1374 94.3202 32.0534 94.1663 31.9695C93.9984 31.8855 93.8445 31.8295 93.7046 31.7876C93.5647 31.7456 93.3688 31.6896 93.1309 31.6337L93.047 31.6197C93.019 31.6197 93.005 31.6057 92.977 31.6057C92.949 31.6057 92.9211 31.5917 92.8931 31.5777C91.8577 31.3258 91.214 31.13 90.9342 30.99C90.2626 30.6822 89.9408 30.1505 89.9408 29.409C89.9408 28.7373 90.1926 28.2056 90.7243 27.8139C91.242 27.4221 91.9696 27.2262 92.8931 27.2262C93.7746 27.2262 94.5021 27.4221 95.0618 27.7999C95.6215 28.1917 95.9153 28.7653 95.9153 29.5349ZM99.0433 24.6937V28.4295C99.575 27.646 100.331 27.2542 101.324 27.2542C102.107 27.2542 102.709 27.4781 103.157 27.8978C103.591 28.3176 103.815 28.9472 103.815 29.7587V34.6559H102.205V30.2764C102.205 29.7308 102.107 29.311 101.912 29.0172C101.716 28.7373 101.352 28.5834 100.806 28.5834C100.191 28.5834 99.7429 28.7933 99.463 29.1851C99.1832 29.5908 99.0433 30.1225 99.0433 30.7802V34.6559H97.4622V24.6937H99.0433ZM111.947 32.4032C111.765 33.1868 111.373 33.8024 110.786 34.2362C110.198 34.6839 109.484 34.8938 108.673 34.8938C107.581 34.8938 106.714 34.544 106.07 33.8444C105.427 33.1448 105.119 32.2353 105.119 31.13C105.119 30.0106 105.441 29.0731 106.098 28.3316C106.756 27.604 107.595 27.2262 108.617 27.2262C109.666 27.2262 110.506 27.59 111.121 28.3176C111.737 29.0452 112.045 30.0246 112.045 31.2699V31.4378H106.714C106.728 32.1654 106.91 32.739 107.26 33.1308C107.595 33.5226 108.085 33.7185 108.701 33.7185C109.134 33.7185 109.484 33.6205 109.764 33.4106C110.044 33.2008 110.254 32.865 110.422 32.4032H111.947ZM110.45 30.3744C110.394 29.7727 110.212 29.297 109.876 28.9472C109.54 28.5974 109.121 28.4155 108.603 28.4155C108.071 28.4155 107.651 28.5834 107.33 28.9192C107.008 29.255 106.812 29.7448 106.742 30.3744H110.45ZM113.187 29.6608C113.355 28.0377 114.405 27.2122 116.35 27.2122C117.245 27.2122 117.973 27.3941 118.504 27.7439C119.036 28.1077 119.316 28.6534 119.316 29.395V33.0608C119.316 33.2707 119.33 33.4106 119.386 33.4806C119.442 33.5645 119.54 33.5925 119.694 33.5925C119.806 33.5925 119.918 33.5925 120.057 33.5645V34.6839C119.638 34.7958 119.302 34.8378 119.022 34.8378C118.336 34.8378 117.945 34.558 117.847 33.9703C117.231 34.558 116.392 34.8378 115.314 34.8378C114.559 34.8378 113.971 34.6559 113.537 34.2641C113.09 33.8724 112.88 33.3547 112.88 32.6831C112.88 32.4872 112.894 32.2913 112.95 32.1094C112.992 31.9415 113.048 31.7876 113.103 31.6477C113.159 31.5217 113.257 31.3958 113.397 31.2839C113.537 31.1719 113.649 31.088 113.733 31.004C113.817 30.9341 113.971 30.8641 114.167 30.7941C114.363 30.7382 114.517 30.6822 114.615 30.6542C114.713 30.6262 114.88 30.5843 115.132 30.5423C115.37 30.5143 115.524 30.4863 115.608 30.4723C115.692 30.4583 115.86 30.4304 116.112 30.4024C116.671 30.3324 117.063 30.2764 117.273 30.2205C117.469 30.1645 117.609 30.0946 117.693 29.9826C117.749 29.9127 117.791 29.7448 117.791 29.4649C117.791 28.7373 117.287 28.3735 116.308 28.3735C115.776 28.3735 115.398 28.4715 115.16 28.6674C114.908 28.8633 114.755 29.1991 114.699 29.6608H113.187ZM117.777 31.032C117.651 31.102 117.511 31.1579 117.357 31.2139C117.189 31.2699 117.063 31.2979 116.965 31.3118C116.867 31.3258 116.713 31.3398 116.504 31.3678C116.294 31.3958 116.154 31.4238 116.098 31.4238C115.902 31.4518 115.748 31.4798 115.636 31.5077C115.524 31.5357 115.384 31.5637 115.216 31.6197C115.048 31.6756 114.922 31.7456 114.838 31.8295C114.755 31.9135 114.671 32.0114 114.615 32.1514C114.545 32.2913 114.517 32.4452 114.517 32.6271C114.517 32.9769 114.629 33.2427 114.852 33.4246C115.076 33.6205 115.398 33.7045 115.818 33.7045C116.518 33.7045 117.063 33.5226 117.455 33.1308C117.665 32.9209 117.777 32.5012 117.777 31.8855V31.032ZM126.522 24.6937V28.3735C127.053 27.632 127.837 27.2542 128.886 27.2542C129.838 27.2542 130.607 27.604 131.195 28.2756C131.782 28.9612 132.076 29.8707 132.076 30.99C132.076 32.1654 131.768 33.1028 131.181 33.8024C130.579 34.502 129.782 34.8518 128.802 34.8518C127.711 34.8518 126.913 34.46 126.438 33.6765V34.6559H124.94V24.6937H126.522ZM128.48 28.5275C127.851 28.5275 127.361 28.7513 126.997 29.1991C126.633 29.6468 126.466 30.2764 126.466 31.06C126.466 31.8435 126.633 32.4452 126.997 32.8929C127.361 33.3407 127.851 33.5645 128.48 33.5645C129.068 33.5645 129.558 33.3407 129.922 32.8789C130.285 32.4172 130.467 31.8016 130.467 31.018C130.467 30.2625 130.285 29.6468 129.922 29.1991C129.558 28.7513 129.082 28.5275 128.48 28.5275ZM139.818 27.4361V34.6559H138.321V33.5785C137.706 34.432 136.922 34.8518 135.943 34.8518C135.145 34.8518 134.529 34.6279 134.11 34.1802C133.69 33.7324 133.48 33.0748 133.48 32.2213V27.4361H135.075V31.5637C135.075 31.8156 135.075 32.0254 135.089 32.1793C135.089 32.3333 135.117 32.5012 135.173 32.697C135.229 32.8929 135.299 33.0329 135.397 33.1308C135.495 33.2427 135.635 33.3267 135.817 33.3966C135.999 33.4806 136.222 33.5086 136.488 33.5086C137.076 33.5086 137.524 33.2987 137.804 32.8789C138.083 32.4592 138.223 31.9135 138.223 31.2559V27.4361H139.818ZM145.04 27.4361V28.5974H143.585V32.4032C143.585 32.6271 143.585 32.795 143.599 32.8789C143.599 32.9629 143.627 33.0608 143.683 33.1728C143.725 33.2847 143.809 33.3547 143.921 33.3827C144.033 33.4246 144.201 33.4386 144.411 33.4386C144.663 33.4386 144.873 33.4386 145.04 33.4106V34.6699C144.719 34.7119 144.355 34.7259 143.963 34.7259C143.683 34.7259 143.431 34.7119 143.222 34.6699C143.012 34.6279 142.844 34.572 142.704 34.516C142.564 34.46 142.438 34.3761 142.354 34.2362C142.256 34.0962 142.186 33.9843 142.13 33.9004C142.074 33.8164 142.046 33.6485 142.018 33.4246C141.99 33.2008 141.99 33.0329 141.99 32.9209V32.3053V32.2213V32.1374V32.0394V28.5974H140.787V27.4361H141.99V25.2673H143.585V27.4361H145.04ZM149.7 27.4361V28.5974H148.245V32.4032C148.245 32.6271 148.245 32.795 148.259 32.8789C148.259 32.9629 148.287 33.0608 148.343 33.1728C148.385 33.2847 148.469 33.3547 148.581 33.3827C148.692 33.4246 148.86 33.4386 149.07 33.4386C149.322 33.4386 149.532 33.4386 149.7 33.4106V34.6699C149.378 34.7119 149.014 34.7259 148.622 34.7259C148.343 34.7259 148.091 34.7119 147.881 34.6699C147.671 34.6279 147.503 34.572 147.363 34.516C147.223 34.46 147.097 34.3761 147.013 34.2362C146.915 34.0962 146.846 33.9843 146.79 33.9004C146.734 33.8164 146.706 33.6485 146.678 33.4246C146.65 33.2008 146.65 33.0329 146.65 32.9209V32.3053V32.2213V32.1374V32.0394V28.5974H145.446V27.4361H146.65V25.2673H148.245V27.4361H149.7ZM157.298 32.4032C157.116 33.1868 156.724 33.8024 156.136 34.2362C155.549 34.6839 154.835 34.8938 154.023 34.8938C152.932 34.8938 152.065 34.544 151.421 33.8444C150.777 33.1448 150.47 32.2353 150.47 31.13C150.47 30.0106 150.791 29.0731 151.449 28.3316C152.107 27.604 152.946 27.2262 153.968 27.2262C155.017 27.2262 155.856 27.59 156.472 28.3176C157.088 29.0452 157.396 30.0246 157.396 31.2699V31.4378H152.065C152.079 32.1654 152.26 32.739 152.61 33.1308C152.946 33.5226 153.436 33.7185 154.051 33.7185C154.485 33.7185 154.835 33.6205 155.115 33.4106C155.395 33.2008 155.605 32.865 155.772 32.4032H157.298ZM155.8 30.3744C155.744 29.7727 155.563 29.297 155.227 28.9472C154.891 28.5974 154.471 28.4155 153.954 28.4155C153.422 28.4155 153.002 28.5834 152.68 28.9192C152.358 29.255 152.163 29.7448 152.093 30.3744H155.8ZM162.694 27.2962V28.8213C162.414 28.7933 162.218 28.7793 162.134 28.7793C160.735 28.7793 160.049 29.6888 160.049 31.4798V34.6559H158.468V27.4361H159.965V28.8773C160.469 27.8139 161.281 27.2682 162.386 27.2682L162.694 27.2962Z" fill="black"/>
<rect x="34.6562" y="46.6519" width="63.5466" height="19.2186" rx="9.60931" fill="#E0FAEC"/>
<path d="M43.2459 51.0128H46.1951C46.7283 51.0128 47.1963 51.0781 47.6098 51.1869C48.0125 51.2957 48.3825 51.5025 48.7307 51.8072C49.4925 52.4928 49.8734 53.4722 49.8734 54.7564C49.8734 56.1276 49.5034 57.1832 48.7851 57.9014C48.4586 58.2279 48.1104 58.4456 47.7404 58.5762C47.3704 58.7068 46.8807 58.7612 46.2712 58.7612H43.2459V51.0128ZM44.5953 52.1663V57.6185H46.1951C47.0439 57.6185 47.6424 57.3791 47.9907 56.8785C48.3389 56.3888 48.5131 55.7032 48.5131 54.8217C48.5131 53.9946 48.3172 53.3416 47.9254 52.8737C47.5336 52.4057 46.9242 52.1663 46.108 52.1663H44.5953ZM55.9641 57.0091C55.8227 57.6185 55.518 58.0973 55.0609 58.4347C54.6038 58.7829 54.0488 58.9462 53.4176 58.9462C52.5688 58.9462 51.8941 58.6741 51.3935 58.13C50.8929 57.5858 50.6534 56.8785 50.6534 56.0188C50.6534 55.1481 50.9037 54.419 51.4152 53.8422C51.9267 53.2763 52.5797 52.9825 53.3741 52.9825C54.1903 52.9825 54.8432 53.2655 55.3221 53.8314C55.8009 54.3973 56.0403 55.159 56.0403 56.1276V56.2582H51.8941C51.9049 56.8241 52.0464 57.2703 52.3185 57.575C52.5797 57.8797 52.9606 58.032 53.4394 58.032C53.7767 58.032 54.0488 57.9559 54.2665 57.7926C54.4841 57.6294 54.6474 57.3682 54.7779 57.0091H55.9641ZM54.7997 55.4311C54.7562 54.9631 54.6147 54.5931 54.3535 54.3211C54.0923 54.049 53.7659 53.9075 53.3632 53.9075C52.9497 53.9075 52.6232 54.0381 52.3729 54.2993C52.1226 54.5605 51.9702 54.9414 51.9158 55.4311H54.7997ZM58.2567 51.0128V58.7612H57.027V51.0128H58.2567ZM60.8817 50.9801V52.199H59.6411V50.9801H60.8817ZM60.8817 53.1458V58.7612H59.6411V53.1458H60.8817ZM61.6676 53.1458H63.017L64.4535 57.4661L65.8356 53.1458H67.1197L65.1065 58.7721H63.7135L61.6676 53.1458ZM72.9044 57.0091C72.763 57.6185 72.4582 58.0973 72.0012 58.4347C71.5441 58.7829 70.9891 58.9462 70.3579 58.9462C69.5091 58.9462 68.8343 58.6741 68.3337 58.13C67.8331 57.5858 67.5937 56.8785 67.5937 56.0188C67.5937 55.1481 67.844 54.419 68.3555 53.8422C68.867 53.2763 69.5199 52.9825 70.3144 52.9825C71.1306 52.9825 71.7835 53.2655 72.2624 53.8314C72.7412 54.3973 72.9806 55.159 72.9806 56.1276V56.2582H68.8343C68.8452 56.8241 68.9867 57.2703 69.2588 57.575C69.5199 57.8797 69.9008 58.032 70.3797 58.032C70.717 58.032 70.9891 57.9559 71.2067 57.7926C71.4244 57.6294 71.5876 57.3682 71.7182 57.0091H72.9044ZM71.74 55.4311C71.6965 54.9631 71.555 54.5931 71.2938 54.3211C71.0326 54.049 70.7061 53.9075 70.3035 53.9075C69.89 53.9075 69.5635 54.0381 69.3132 54.2993C69.0629 54.5605 68.9105 54.9414 68.8561 55.4311H71.74ZM77.1015 53.0369V54.2231C76.8838 54.2014 76.7314 54.1905 76.6661 54.1905C75.5779 54.1905 75.0446 54.8978 75.0446 56.2908V58.7612H73.8149V53.1458H74.9793V54.2667C75.3711 53.4396 76.0023 53.0152 76.862 53.0152L77.1015 53.0369ZM82.5861 57.0091C82.4446 57.6185 82.1399 58.0973 81.6829 58.4347C81.2258 58.7829 80.6708 58.9462 80.0396 58.9462C79.1907 58.9462 78.516 58.6741 78.0154 58.13C77.5148 57.5858 77.2754 56.8785 77.2754 56.0188C77.2754 55.1481 77.5257 54.419 78.0372 53.8422C78.5487 53.2763 79.2016 52.9825 79.9961 52.9825C80.8122 52.9825 81.4652 53.2655 81.944 53.8314C82.4229 54.3973 82.6623 55.159 82.6623 56.1276V56.2582H78.516C78.5269 56.8241 78.6684 57.2703 78.9404 57.575C79.2016 57.8797 79.5825 58.032 80.0613 58.032C80.3987 58.032 80.6708 57.9559 80.8884 57.7926C81.1061 57.6294 81.2693 57.3682 81.3999 57.0091H82.5861ZM81.4217 55.4311C81.3781 54.9631 81.2367 54.5931 80.9755 54.3211C80.7143 54.049 80.3878 53.9075 79.9852 53.9075C79.5716 53.9075 79.2452 54.0381 78.9949 54.2993C78.7446 54.5605 78.5922 54.9414 78.5378 55.4311H81.4217ZM88.927 51.0128V58.7612H87.7626V57.9885C87.4034 58.6088 86.8049 58.9135 85.9669 58.9135C85.1725 58.9135 84.5413 58.6523 84.0734 58.1082C83.6054 57.575 83.3769 56.8567 83.3769 55.9426C83.3769 55.0502 83.6054 54.332 84.0625 53.7987C84.5196 53.2655 85.1399 52.9934 85.9234 52.9934C86.707 52.9934 87.3055 53.2872 87.7082 53.8749V51.0128H88.927ZM86.1519 53.9946C85.6731 53.9946 85.3031 54.1687 85.031 54.517C84.759 54.8652 84.6284 55.3332 84.6284 55.9208C84.6284 56.5411 84.759 57.0308 85.0419 57.3791C85.3249 57.7382 85.7058 57.9123 86.1955 57.9123C86.6743 57.9123 87.0552 57.7382 87.3273 57.39C87.5993 57.0417 87.7408 56.5629 87.7408 55.9426C87.7408 55.3332 87.5993 54.8543 87.3164 54.5061C87.0334 54.1687 86.6525 53.9946 86.1519 53.9946Z" fill="#0BA352"/>
<rect x="325.377" y="31.2065" width="64.6559" height="27.4372" rx="7.77328" fill="#009933"/>
<path d="M343.225 45.0546C343.138 46.1491 342.752 47.0197 342.055 47.6665C341.359 48.3132 340.464 48.6366 339.369 48.6366C338.113 48.6366 337.105 48.2137 336.359 47.368C335.601 46.5222 335.227 45.4029 335.227 43.9975C335.227 43.1517 335.389 42.3931 335.712 41.6966C336.036 41.0001 336.521 40.4404 337.168 40.0176C337.814 39.5947 338.573 39.3708 339.444 39.3708C340.376 39.3708 341.197 39.632 341.894 40.1544C342.59 40.6767 343.001 41.423 343.15 42.3931H341.608C341.496 41.8707 341.247 41.4478 340.862 41.1494C340.464 40.8509 339.991 40.6892 339.419 40.6892C338.822 40.6892 338.324 40.8633 337.914 41.1867C337.503 41.5225 337.217 41.9329 337.043 42.4179C336.869 42.903 336.795 43.4254 336.795 43.9975C336.795 44.4328 336.844 44.8432 336.944 45.2163C337.043 45.6019 337.193 45.9501 337.392 46.2735C337.591 46.5969 337.852 46.8456 338.2 47.0322C338.548 47.2312 338.946 47.3182 339.406 47.3182C340.725 47.3182 341.471 46.572 341.67 45.0546H343.225ZM347.4 41.821C348.37 41.821 349.153 42.1319 349.738 42.7413C350.31 43.3632 350.608 44.184 350.608 45.2163C350.608 46.2611 350.31 47.0944 349.738 47.7038C349.166 48.3256 348.382 48.6241 347.4 48.6241C346.392 48.6241 345.596 48.3256 345.012 47.7038C344.415 47.0944 344.129 46.2611 344.129 45.2163C344.129 44.184 344.415 43.3632 345.012 42.7413C345.609 42.1319 346.405 41.821 347.4 41.821ZM347.375 42.9403C346.803 42.9403 346.367 43.1517 346.044 43.5497C345.72 43.9602 345.559 44.5198 345.559 45.2163C345.559 45.9377 345.72 46.5098 346.044 46.9078C346.367 47.3182 346.815 47.5172 347.387 47.5172C347.934 47.5172 348.37 47.3182 348.693 46.9078C349.016 46.4974 349.178 45.9253 349.178 45.2039C349.178 44.5074 349.016 43.9477 348.693 43.5497C348.37 43.1517 347.934 42.9403 347.375 42.9403ZM353.155 42.0075V42.9528C353.665 42.2065 354.374 41.8334 355.282 41.8334C356.003 41.8334 356.551 42.0324 356.911 42.4304C357.272 42.8284 357.458 43.4005 357.458 44.1467V48.4251H356.041V44.694C356.041 44.4452 356.028 44.2338 356.003 44.0597C355.978 43.8855 355.916 43.7114 355.842 43.5373C355.767 43.3632 355.643 43.2388 355.468 43.1517C355.294 43.0647 355.07 43.0149 354.797 43.0149C353.752 43.0149 353.23 43.6741 353.23 44.9676V48.4251H351.812V42.0075H353.155ZM362.896 40.8882V39.5449H364.314V40.8882H362.896ZM358.307 43.0522V41.9951H359.364V41.4603C359.364 40.714 359.513 40.2166 359.837 39.9429C360.16 39.6818 360.595 39.5449 361.143 39.5449C361.603 39.5449 361.939 39.5823 362.138 39.632V40.7389C361.939 40.6892 361.727 40.6643 361.478 40.6643C361.006 40.6643 360.782 40.8882 360.782 41.3359V41.9951H361.988V43.0522H360.782V48.4251H359.364V43.0522H358.307ZM362.896 48.4251V41.9951H364.314V48.4251H362.896ZM369.484 41.8831V43.2388C369.235 43.2139 369.061 43.2015 368.986 43.2015C367.743 43.2015 367.133 44.0099 367.133 45.6019V48.4251H365.728V42.0075H367.059V43.2886C367.506 42.3433 368.228 41.8583 369.21 41.8583L369.484 41.8831ZM371.58 42.0075V42.9154C372.103 42.1941 372.774 41.8334 373.595 41.8334C374.018 41.8334 374.379 41.9329 374.69 42.1195C375 42.3185 375.237 42.5796 375.386 42.9279C375.896 42.2065 376.592 41.8334 377.463 41.8334C378.06 41.8334 378.57 42.02 378.968 42.3806C379.366 42.7413 379.565 43.2388 379.565 43.8731V48.4251H378.147V44.4825C378.147 44.0348 378.06 43.6741 377.911 43.4129C377.749 43.1642 377.451 43.0274 377.003 43.0274C376.543 43.0274 376.194 43.1766 375.958 43.4627C375.709 43.7487 375.597 44.1467 375.597 44.6567V48.4251H374.18V44.4079C374.18 43.9602 374.105 43.6119 373.968 43.3756C373.831 43.1517 373.545 43.0274 373.122 43.0274C372.637 43.0274 372.277 43.1891 372.028 43.5C371.779 43.8109 371.655 44.2214 371.655 44.7313V48.4251H370.237V42.0075H371.58Z" fill="white"/>
<rect x="-8.87402" y="84.8422" width="432.194" height="93.2794" fill="#F5F5F6"/>
<line x1="35.4336" y1="122.154" x2="382.899" y2="122.154" stroke="#B9B9B9" stroke-width="1.55466" stroke-linecap="round"/>
<rect x="169.134" y="118.267" width="76.9555" height="9.32794" rx="4.66397" fill="#D9D9D9"/>
<g filter="url(#filter1_dddd_1807_7144)">
<circle cx="61.862" cy="122.931" r="15.5466" fill="white"/>
</g>
<g clip-path="url(#clip1_1807_7144)">
<path fill-rule="evenodd" clip-rule="evenodd" d="M61.6114 120.599C61.8679 120.91 62.2099 120.832 62.4742 120.553C62.5663 120.418 62.6024 120.252 62.5748 120.091C62.5473 119.93 62.4582 119.786 62.3265 119.69C62.2048 119.617 62.0605 119.59 61.9207 119.616C61.781 119.641 61.6554 119.717 61.5676 119.829C61.4798 119.941 61.4357 120.081 61.4438 120.222C61.4519 120.364 61.5115 120.498 61.6114 120.599ZM63.4692 120.599C63.7257 120.91 64.0677 120.832 64.332 120.553C64.4171 120.42 64.4492 120.26 64.4218 120.104C64.3945 119.949 64.3097 119.809 64.1843 119.713C64.0654 119.654 63.9299 119.637 63.8001 119.665C63.6703 119.694 63.554 119.765 63.4706 119.869C63.3872 119.972 63.3416 120.101 63.3413 120.234C63.3411 120.367 63.3862 120.496 63.4692 120.599ZM61.4792 116.566C61.7358 116.877 62.0778 116.807 62.3421 116.527C62.4323 116.391 62.4672 116.226 62.4398 116.066C62.4123 115.906 62.3245 115.762 62.1944 115.664C62.0735 115.597 61.9326 115.574 61.7969 115.601C61.6611 115.628 61.5394 115.702 61.4534 115.811C61.3674 115.919 61.3228 116.055 61.3275 116.193C61.3322 116.331 61.386 116.463 61.4792 116.566ZM64.1843 116.527C64.2745 116.391 64.3095 116.226 64.282 116.066C64.2546 115.906 64.1668 115.762 64.0366 115.664C63.9158 115.597 63.7749 115.574 63.6392 115.601C63.5034 115.628 63.3816 115.702 63.2956 115.811C63.2096 115.919 63.165 116.055 63.1698 116.193C63.1745 116.331 63.2283 116.463 63.3215 116.566C63.5936 116.877 63.9356 116.807 64.1843 116.527Z" fill="black"/>
<path fill-rule="evenodd" clip-rule="evenodd" d="M70.145 118.197C71.4276 117.537 71.5365 114.653 70.0518 113.969C68.7148 113.348 63.4756 113.69 62.0297 113.76C61.9645 113.771 61.9053 113.804 61.8625 113.855C61.8198 113.905 61.7964 113.969 61.7964 114.035C61.7964 114.102 61.8198 114.166 61.8625 114.216C61.9053 114.267 61.9645 114.3 62.0297 114.311C63.2657 114.311 68.5671 114.156 69.6787 114.716C70.3549 115.058 70.3316 116.395 70.0051 117.048C69.803 117.444 69.7953 117.444 67.9374 117.568C66.7404 117.638 62.0686 117.848 61.8043 117.848C61.4724 117.866 61.1402 117.821 60.8249 117.716C59.5198 117.079 59.9465 114.381 61.1669 114.459C61.1986 114.461 61.2303 114.457 61.2604 114.447C61.2904 114.437 61.3182 114.421 61.342 114.4C61.3658 114.379 61.3853 114.353 61.3993 114.325C61.4132 114.296 61.4215 114.265 61.4234 114.234C61.4623 113.658 59.7141 113.892 59.4576 115.889C59.3761 116.335 59.4219 116.794 59.5896 117.215C59.7574 117.636 60.0403 118.001 60.4059 118.268C59.1311 118.968 58.8512 121.626 60.4059 122.473C60.7091 122.615 61.0355 122.696 61.3698 122.714C62.0538 122.784 68.8943 122.714 69.9204 122.396C71.2333 121.929 71.5131 119.045 70.145 118.197ZM69.9352 121.183C69.7331 121.579 69.7253 121.579 67.8753 121.696C66.8181 121.758 61.9909 121.984 61.7344 121.976C61.4025 121.994 61.0702 121.949 60.7549 121.844C59.4342 121.206 59.8688 118.532 61.0814 118.587C62.1774 118.657 66.5227 118.587 67.6809 118.509C68.3422 118.518 68.998 118.63 69.6242 118.843C70.2927 119.185 70.2694 120.522 69.9352 121.183ZM56.4112 127.199C56.4334 126.788 56.3941 126.377 56.2946 125.978C55.906 124.812 54.74 125.162 54.1647 125.154C53.7372 125.154 52.4002 125.061 52.6101 125.59C52.6342 125.648 52.6804 125.695 52.7385 125.719C52.7967 125.744 52.8622 125.745 52.921 125.722C53.3066 125.67 53.6983 125.683 54.0792 125.761C54.8566 125.838 55.4007 125.629 55.4862 126.313V130.829C55.4862 131.365 55.4396 131.513 54.5767 131.606C54.0575 131.639 53.5363 131.615 53.0221 131.536C52.9869 131.53 52.9507 131.53 52.9156 131.537C52.8805 131.545 52.8472 131.559 52.8176 131.579C52.788 131.599 52.7627 131.625 52.7431 131.655C52.7235 131.685 52.71 131.719 52.7034 131.754C52.6967 131.789 52.6971 131.825 52.7044 131.86C52.7118 131.895 52.726 131.929 52.7462 131.958C52.7664 131.988 52.7922 132.013 52.8222 132.033C52.8522 132.052 52.8858 132.066 52.921 132.073C53.4773 132.197 54.0456 132.259 54.6156 132.259C55.3929 132.259 55.9215 132.143 56.1702 131.482C56.4501 131.427 56.4112 127.276 56.4112 127.199ZM68.8469 127.953C68.7563 127.743 68.6082 127.563 68.4198 127.434C68.2314 127.305 68.0103 127.231 67.782 127.222C67.8219 126.962 67.791 126.696 67.6925 126.452C67.594 126.209 67.4315 125.996 67.2222 125.837C67.0128 125.678 66.7644 125.578 66.5032 125.548C66.2419 125.518 65.9774 125.559 65.7376 125.667C65.0113 126.013 64.3551 126.49 63.8021 127.074C63.4134 127.401 62.6905 127.922 62.3718 128.155L62.2707 128.24C61.7204 128.226 61.1755 128.129 60.6539 127.953C60.5528 127.914 60.4518 127.914 60.4362 127.844C60.4207 127.774 60.4829 127.688 60.5761 127.564C61.54 126.25 62.7604 125.792 61.8976 124.455C61.2446 123.46 59.4964 124.408 58.5248 125.092L57.1023 125.963C57.0488 126.003 57.0112 126.06 56.9964 126.125C56.9815 126.19 56.9903 126.258 57.0213 126.317C57.0522 126.376 57.1032 126.422 57.1651 126.447C57.2269 126.472 57.2956 126.474 57.3588 126.453L58.8357 125.582C59.341 125.255 60.9811 124.323 61.2843 124.805C61.8051 125.652 60.8878 125.815 59.924 127.059C59.442 127.673 59.5508 128.093 59.8385 128.388C60.2677 128.694 60.7631 128.893 61.2843 128.971C63.111 129.43 66.1815 128.411 66.85 128.271C67.3863 128.163 67.775 127.914 68.0082 128.357C68.2414 128.8 67.2308 129.352 66.8344 129.593C64.5879 131.148 60.6624 131.093 58.0817 130.495C58.004 130.495 58.0351 130.495 57.0945 130.712C56.3172 131.101 56.5504 131.357 57.0945 131.241L58.0117 131.039C60.8645 131.769 64.8056 131.933 67.3397 130.339C68.2802 129.741 69.3599 128.971 68.8469 127.953ZM67.1687 127.284C65.6684 127.603 64.9066 127.937 63.5696 128.116C63.4997 128.116 63.7173 128.054 64.2692 127.735C65.0466 127.245 66.0882 126.18 66.6867 126.421C66.8562 126.483 66.9968 126.606 67.0815 126.765C67.1661 126.924 67.1889 127.109 67.1453 127.284H67.1687Z" fill="black"/>
</g>
<g filter="url(#filter2_dddd_1807_7144)">
<circle cx="123.271" cy="122.931" r="15.5466" fill="white"/>
</g>
<path d="M127.935 127.984C127.626 127.984 127.329 127.861 127.111 127.642C126.892 127.424 126.769 127.127 126.769 126.818C126.769 126.509 126.892 126.212 127.111 125.993C127.329 125.775 127.626 125.652 127.935 125.652C128.245 125.652 128.541 125.775 128.76 125.993C128.978 126.212 129.101 126.509 129.101 126.818C129.101 127.127 128.978 127.424 128.76 127.642C128.541 127.861 128.245 127.984 127.935 127.984ZM129.101 120.988L130.625 122.931H127.158V120.988M118.607 127.984C118.298 127.984 118.002 127.861 117.783 127.642C117.564 127.424 117.441 127.127 117.441 126.818C117.441 126.509 117.564 126.212 117.783 125.993C118.002 125.775 118.298 125.652 118.607 125.652C118.917 125.652 119.213 125.775 119.432 125.993C119.65 126.212 119.773 126.509 119.773 126.818C119.773 127.127 119.65 127.424 119.432 127.642C119.213 127.861 118.917 127.984 118.607 127.984ZM129.49 119.822H127.158V116.713H116.275C115.413 116.713 114.721 117.404 114.721 118.267V126.818H116.275C116.275 127.436 116.521 128.029 116.958 128.467C117.396 128.904 117.989 129.15 118.607 129.15C119.226 129.15 119.819 128.904 120.256 128.467C120.694 128.029 120.939 127.436 120.939 126.818H125.603C125.603 127.436 125.849 128.029 126.286 128.467C126.724 128.904 127.317 129.15 127.935 129.15C128.554 129.15 129.147 128.904 129.584 128.467C130.022 128.029 130.267 127.436 130.267 126.818H131.822V122.931L129.49 119.822Z" fill="black"/>
<g filter="url(#filter3_dddd_1807_7144)">
<circle cx="291.952" cy="122.931" r="15.5466" fill="white"/>
</g>
<path fill-rule="evenodd" clip-rule="evenodd" d="M287.287 117.101C287.287 116.792 287.41 116.495 287.629 116.277C287.847 116.058 288.144 115.935 288.453 115.935H295.449C295.758 115.935 296.055 116.058 296.274 116.277C296.492 116.495 296.615 116.792 296.615 117.101V121.765H287.287V117.101ZM291.951 119.433V117.101H293.117V119.433H291.951Z" fill="black"/>
<path d="M284.955 122.931V128.761C284.955 129.07 285.078 129.367 285.297 129.586C285.515 129.804 285.812 129.927 286.121 129.927H297.781C298.09 129.927 298.387 129.804 298.605 129.586C298.824 129.367 298.947 129.07 298.947 128.761V122.931H295.449V125.263H294.283V122.931H289.619V125.263H288.453V122.931H284.955Z" fill="black"/>
<g filter="url(#filter4_dddd_1807_7144)">
<circle cx="353.36" cy="122.931" r="15.5466" fill="white"/>
</g>
<path d="M348.696 115.935C348.308 115.935 347.997 116.091 347.763 116.402L346.753 117.645C346.52 117.956 346.364 118.267 346.364 118.656V128.372C346.364 129.228 347.064 129.927 347.919 129.927H354.371C354.215 129.461 354.138 128.917 354.138 128.372C354.138 125.807 356.236 123.709 358.802 123.709C359.346 123.709 359.89 123.786 360.356 123.942V118.656C360.356 118.267 360.201 117.956 359.967 117.645L358.879 116.324C358.724 116.091 358.413 115.935 358.024 115.935H348.696ZM348.619 116.713H357.946L358.646 117.49H347.997L348.619 116.713ZM348.696 125.263H353.36V127.595H348.696V125.263ZM360.589 125.885L357.791 128.683L356.547 127.44L355.692 128.372L357.869 130.704L361.6 126.973L360.589 125.885Z" fill="black"/>
</g>
<rect x="16.3887" y="4.38866" width="383.223" height="147.692" rx="15.1579" stroke="#F5F5F6" stroke-width="0.777328"/>
</g>
<defs>
<filter id="filter0_dddd_1807_7144" x="0" y="0" width="416" height="184.47" filterUnits="userSpaceOnUse" color-interpolation-filters="sRGB">
<feFlood flood-opacity="0" result="BackgroundImageFix"/>
<feColorMatrix in="SourceAlpha" type="matrix" values="0 0 0 0 0 0 0 0 0 0 0 0 0 0 0 0 0 0 127 0" result="hardAlpha"/>
<feOffset dy="1"/>
<feGaussianBlur stdDeviation="1.5"/>
<feComposite in2="hardAlpha" operator="out"/>
<feColorMatrix type="matrix" values="0 0 0 0 0 0 0 0 0 0 0 0 0 0 0 0 0 0 0.03 0"/>
<feBlend mode="normal" in2="BackgroundImageFix" result="effect1_dropShadow_1807_7144"/>
<feColorMatrix in="SourceAlpha" type="matrix" values="0 0 0 0 0 0 0 0 0 0 0 0 0 0 0 0 0 0 127 0" result="hardAlpha"/>
<feOffset dy="4"/>
<feGaussianBlur stdDeviation="4"/>
<feComposite in2="hardAlpha" operator="out"/>
<feColorMatrix type="matrix" values="0 0 0 0 0 0 0 0 0 0 0 0 0 0 0 0 0 0 0.04 0"/>
<feBlend mode="normal" in2="effect1_dropShadow_1807_7144" result="effect2_dropShadow_1807_7144"/>
<feColorMatrix in="SourceAlpha" type="matrix" values="0 0 0 0 0 0 0 0 0 0 0 0 0 0 0 0 0 0 127 0" result="hardAlpha"/>
<feOffset dy="14"/>
<feGaussianBlur stdDeviation="6"/>
<feComposite in2="hardAlpha" operator="out"/>
<feColorMatrix type="matrix" values="0 0 0 0 0 0 0 0 0 0 0 0 0 0 0 0 0 0 0.02 0"/>
<feBlend mode="normal" in2="effect2_dropShadow_1807_7144" result="effect3_dropShadow_1807_7144"/>
<feColorMatrix in="SourceAlpha" type="matrix" values="0 0 0 0 0 0 0 0 0 0 0 0 0 0 0 0 0 0 127 0" result="hardAlpha"/>
<feOffset dy="16"/>
<feGaussianBlur stdDeviation="8"/>
<feComposite in2="hardAlpha" operator="out"/>
<feColorMatrix type="matrix" values="0 0 0 0 0 0 0 0 0 0 0 0 0 0 0 0 0 0 0.03 0"/>
<feBlend mode="normal" in2="effect3_dropShadow_1807_7144" result="effect4_dropShadow_1807_7144"/>
<feBlend mode="normal" in="SourceGraphic" in2="effect4_dropShadow_1807_7144" result="shape"/>
</filter>
<filter id="filter1_dddd_1807_7144" x="27.6596" y="91.8381" width="68.4045" height="68.4049" filterUnits="userSpaceOnUse" color-interpolation-filters="sRGB">
<feFlood flood-opacity="0" result="BackgroundImageFix"/>
<feColorMatrix in="SourceAlpha" type="matrix" values="0 0 0 0 0 0 0 0 0 0 0 0 0 0 0 0 0 0 127 0" result="hardAlpha"/>
<feOffset dy="4.66397"/>
<feGaussianBlur stdDeviation="3.10931"/>
<feComposite in2="hardAlpha" operator="out"/>
<feColorMatrix type="matrix" values="0 0 0 0 1 0 0 0 0 1 0 0 0 0 1 0 0 0 1 0"/>
<feBlend mode="normal" in2="BackgroundImageFix" result="effect1_dropShadow_1807_7144"/>
<feColorMatrix in="SourceAlpha" type="matrix" values="0 0 0 0 0 0 0 0 0 0 0 0 0 0 0 0 0 0 127 0" result="hardAlpha"/>
<feOffset dy="0.777328"/>
<feGaussianBlur stdDeviation="0.388664"/>
<feComposite in2="hardAlpha" operator="out"/>
<feColorMatrix type="matrix" values="0 0 0 0 0 0 0 0 0 0 0 0 0 0 0 0 0 0 0.09 0"/>
<feBlend mode="normal" in2="effect1_dropShadow_1807_7144" result="effect2_dropShadow_1807_7144"/>
<feColorMatrix in="SourceAlpha" type="matrix" values="0 0 0 0 0 0 0 0 0 0 0 0 0 0 0 0 0 0 127 0" result="hardAlpha"/>
<feOffset dy="3.10931"/>
<feGaussianBlur stdDeviation="1.55466"/>
<feComposite in2="hardAlpha" operator="out"/>
<feColorMatrix type="matrix" values="0 0 0 0 0 0 0 0 0 0 0 0 0 0 0 0 0 0 0.03 0"/>
<feBlend mode="normal" in2="effect2_dropShadow_1807_7144" result="effect3_dropShadow_1807_7144"/>
<feColorMatrix in="SourceAlpha" type="matrix" values="0 0 0 0 0 0 0 0 0 0 0 0 0 0 0 0 0 0 127 0" result="hardAlpha"/>
<feOffset dy="3.10931"/>
<feGaussianBlur stdDeviation="9.32794"/>
<feComposite in2="hardAlpha" operator="out"/>
<feColorMatrix type="matrix" values="0 0 0 0 0 0 0 0 0 0 0 0 0 0 0 0 0 0 0.03 0"/>
<feBlend mode="normal" in2="effect3_dropShadow_1807_7144" result="effect4_dropShadow_1807_7144"/>
<feBlend mode="normal" in="SourceGraphic" in2="effect4_dropShadow_1807_7144" result="shape"/>
</filter>
<filter id="filter2_dddd_1807_7144" x="89.0687" y="91.8381" width="68.4045" height="68.4049" filterUnits="userSpaceOnUse" color-interpolation-filters="sRGB">
<feFlood flood-opacity="0" result="BackgroundImageFix"/>
<feColorMatrix in="SourceAlpha" type="matrix" values="0 0 0 0 0 0 0 0 0 0 0 0 0 0 0 0 0 0 127 0" result="hardAlpha"/>
<feOffset dy="4.66397"/>
<feGaussianBlur stdDeviation="3.10931"/>
<feComposite in2="hardAlpha" operator="out"/>
<feColorMatrix type="matrix" values="0 0 0 0 1 0 0 0 0 1 0 0 0 0 1 0 0 0 1 0"/>
<feBlend mode="normal" in2="BackgroundImageFix" result="effect1_dropShadow_1807_7144"/>
<feColorMatrix in="SourceAlpha" type="matrix" values="0 0 0 0 0 0 0 0 0 0 0 0 0 0 0 0 0 0 127 0" result="hardAlpha"/>
<feOffset dy="0.777328"/>
<feGaussianBlur stdDeviation="0.388664"/>
<feComposite in2="hardAlpha" operator="out"/>
<feColorMatrix type="matrix" values="0 0 0 0 0 0 0 0 0 0 0 0 0 0 0 0 0 0 0.09 0"/>
<feBlend mode="normal" in2="effect1_dropShadow_1807_7144" result="effect2_dropShadow_1807_7144"/>
<feColorMatrix in="SourceAlpha" type="matrix" values="0 0 0 0 0 0 0 0 0 0 0 0 0 0 0 0 0 0 127 0" result="hardAlpha"/>
<feOffset dy="3.10931"/>
<feGaussianBlur stdDeviation="1.55466"/>
<feComposite in2="hardAlpha" operator="out"/>
<feColorMatrix type="matrix" values="0 0 0 0 0 0 0 0 0 0 0 0 0 0 0 0 0 0 0.03 0"/>
<feBlend mode="normal" in2="effect2_dropShadow_1807_7144" result="effect3_dropShadow_1807_7144"/>
<feColorMatrix in="SourceAlpha" type="matrix" values="0 0 0 0 0 0 0 0 0 0 0 0 0 0 0 0 0 0 127 0" result="hardAlpha"/>
<feOffset dy="3.10931"/>
<feGaussianBlur stdDeviation="9.32794"/>
<feComposite in2="hardAlpha" operator="out"/>
<feColorMatrix type="matrix" values="0 0 0 0 0 0 0 0 0 0 0 0 0 0 0 0 0 0 0.03 0"/>
<feBlend mode="normal" in2="effect3_dropShadow_1807_7144" result="effect4_dropShadow_1807_7144"/>
<feBlend mode="normal" in="SourceGraphic" in2="effect4_dropShadow_1807_7144" result="shape"/>
</filter>
<filter id="filter3_dddd_1807_7144" x="257.749" y="91.8381" width="68.4045" height="68.4049" filterUnits="userSpaceOnUse" color-interpolation-filters="sRGB">
<feFlood flood-opacity="0" result="BackgroundImageFix"/>
<feColorMatrix in="SourceAlpha" type="matrix" values="0 0 0 0 0 0 0 0 0 0 0 0 0 0 0 0 0 0 127 0" result="hardAlpha"/>
<feOffset dy="4.66397"/>
<feGaussianBlur stdDeviation="3.10931"/>
<feComposite in2="hardAlpha" operator="out"/>
<feColorMatrix type="matrix" values="0 0 0 0 1 0 0 0 0 1 0 0 0 0 1 0 0 0 1 0"/>
<feBlend mode="normal" in2="BackgroundImageFix" result="effect1_dropShadow_1807_7144"/>
<feColorMatrix in="SourceAlpha" type="matrix" values="0 0 0 0 0 0 0 0 0 0 0 0 0 0 0 0 0 0 127 0" result="hardAlpha"/>
<feOffset dy="0.777328"/>
<feGaussianBlur stdDeviation="0.388664"/>
<feComposite in2="hardAlpha" operator="out"/>
<feColorMatrix type="matrix" values="0 0 0 0 0 0 0 0 0 0 0 0 0 0 0 0 0 0 0.09 0"/>
<feBlend mode="normal" in2="effect1_dropShadow_1807_7144" result="effect2_dropShadow_1807_7144"/>
<feColorMatrix in="SourceAlpha" type="matrix" values="0 0 0 0 0 0 0 0 0 0 0 0 0 0 0 0 0 0 127 0" result="hardAlpha"/>
<feOffset dy="3.10931"/>
<feGaussianBlur stdDeviation="1.55466"/>
<feComposite in2="hardAlpha" operator="out"/>
<feColorMatrix type="matrix" values="0 0 0 0 0 0 0 0 0 0 0 0 0 0 0 0 0 0 0.03 0"/>
<feBlend mode="normal" in2="effect2_dropShadow_1807_7144" result="effect3_dropShadow_1807_7144"/>
<feColorMatrix in="SourceAlpha" type="matrix" values="0 0 0 0 0 0 0 0 0 0 0 0 0 0 0 0 0 0 127 0" result="hardAlpha"/>
<feOffset dy="3.10931"/>
<feGaussianBlur stdDeviation="9.32794"/>
<feComposite in2="hardAlpha" operator="out"/>
<feColorMatrix type="matrix" values="0 0 0 0 0 0 0 0 0 0 0 0 0 0 0 0 0 0 0.03 0"/>
<feBlend mode="normal" in2="effect3_dropShadow_1807_7144" result="effect4_dropShadow_1807_7144"/>
<feBlend mode="normal" in="SourceGraphic" in2="effect4_dropShadow_1807_7144" result="shape"/>
</filter>
<filter id="filter4_dddd_1807_7144" x="319.158" y="91.8381" width="68.4045" height="68.4049" filterUnits="userSpaceOnUse" color-interpolation-filters="sRGB">
<feFlood flood-opacity="0" result="BackgroundImageFix"/>
<feColorMatrix in="SourceAlpha" type="matrix" values="0 0 0 0 0 0 0 0 0 0 0 0 0 0 0 0 0 0 127 0" result="hardAlpha"/>
<feOffset dy="4.66397"/>
<feGaussianBlur stdDeviation="3.10931"/>
<feComposite in2="hardAlpha" operator="out"/>
<feColorMatrix type="matrix" values="0 0 0 0 1 0 0 0 0 1 0 0 0 0 1 0 0 0 1 0"/>
<feBlend mode="normal" in2="BackgroundImageFix" result="effect1_dropShadow_1807_7144"/>
<feColorMatrix in="SourceAlpha" type="matrix" values="0 0 0 0 0 0 0 0 0 0 0 0 0 0 0 0 0 0 127 0" result="hardAlpha"/>
<feOffset dy="0.777328"/>
<feGaussianBlur stdDeviation="0.388664"/>
<feComposite in2="hardAlpha" operator="out"/>
<feColorMatrix type="matrix" values="0 0 0 0 0 0 0 0 0 0 0 0 0 0 0 0 0 0 0.09 0"/>
<feBlend mode="normal" in2="effect1_dropShadow_1807_7144" result="effect2_dropShadow_1807_7144"/>
<feColorMatrix in="SourceAlpha" type="matrix" values="0 0 0 0 0 0 0 0 0 0 0 0 0 0 0 0 0 0 127 0" result="hardAlpha"/>
<feOffset dy="3.10931"/>
<feGaussianBlur stdDeviation="1.55466"/>
<feComposite in2="hardAlpha" operator="out"/>
<feColorMatrix type="matrix" values="0 0 0 0 0 0 0 0 0 0 0 0 0 0 0 0 0 0 0.03 0"/>
<feBlend mode="normal" in2="effect2_dropShadow_1807_7144" result="effect3_dropShadow_1807_7144"/>
<feColorMatrix in="SourceAlpha" type="matrix" values="0 0 0 0 0 0 0 0 0 0 0 0 0 0 0 0 0 0 127 0" result="hardAlpha"/>
<feOffset dy="3.10931"/>
<feGaussianBlur stdDeviation="9.32794"/>
<feComposite in2="hardAlpha" operator="out"/>
<feColorMatrix type="matrix" values="0 0 0 0 0 0 0 0 0 0 0 0 0 0 0 0 0 0 0.03 0"/>
<feBlend mode="normal" in2="effect3_dropShadow_1807_7144" result="effect4_dropShadow_1807_7144"/>
<feBlend mode="normal" in="SourceGraphic" in2="effect4_dropShadow_1807_7144" result="shape"/>
</filter>
<clipPath id="clip0_1807_7144">
<rect x="16" y="4" width="384" height="148.47" rx="15.5466" fill="white"/>
</clipPath>
<clipPath id="clip1_1807_7144">
<rect width="18.6559" height="18.6559" fill="white" transform="translate(52.5342 113.603)"/>
</clipPath>
</defs>
</svg>
