<svg width="40" height="40" viewBox="0 0 40 40" fill="none" xmlns="http://www.w3.org/2000/svg">
<path d="M15.7469 1.52295L8.88828 2.23631L3.12695 9.64365V13.759L7.51648 18.5875L12.5645 17.545L16.4055 18.3131L15.5824 21.2761L18.2161 26.0497L16.8993 29.3968L20.0079 38.4769L24.197 37.7919L28.0379 33.4572L28.367 30.4393L30.8362 28.5737L30.3423 23.1416L36.873 14.7827L32.8114 15.3501L26.6112 4.54084L16.8443 3.8824L15.7469 1.52295ZM35.4614 26.5073L34.3362 28.137L33.2887 28.1758C32.363 30.0758 32.3045 31.146 32.2023 33.3747L33.5603 33.724L35.2675 29.6501L35.4614 26.5073Z" fill="white"/>
</svg>
