<svg width="29" height="33" viewBox="0 0 29 33" fill="none" xmlns="http://www.w3.org/2000/svg">
<path opacity="0.15" d="M7.4834 27.238C7.4834 27.4762 8.20871 27.7046 9.49978 27.873C10.7908 28.0414 12.5419 28.136 14.3678 28.136C16.1936 28.136 17.9447 28.0414 19.2357 27.873C20.5268 27.7046 21.2521 27.4762 21.2521 27.238C21.2521 26.9999 20.5268 26.7715 19.2357 26.6031C17.9447 26.4347 16.1936 26.3401 14.3678 26.3401C12.5419 26.3401 10.7908 26.4347 9.49978 26.6031C8.20871 26.7715 7.4834 26.9999 7.4834 27.238Z" fill="#45413C"/>
<path d="M2.5918 13.6668C2.5918 16.7898 3.8324 19.7849 6.04068 21.9932C8.24897 24.2015 11.244 25.4421 14.367 25.4421C17.49 25.4421 20.4851 24.2015 22.6934 21.9932C24.9017 19.7849 26.1423 16.7898 26.1423 13.6668C26.1423 10.5439 24.9017 7.54877 22.6934 5.34049C20.4851 3.1322 17.49 1.8916 14.367 1.8916C11.244 1.8916 8.24897 3.1322 6.04068 5.34049C3.8324 7.54877 2.5918 10.5439 2.5918 13.6668Z" fill="#00B8F0"/>
<path d="M24.7474 8.11157C25.239 9.73245 25.3442 11.4459 25.0546 13.1148C24.765 14.7836 24.0886 16.3614 23.0796 17.7219C22.0705 19.0823 20.757 20.1876 19.244 20.9491C17.7311 21.7106 16.0608 22.1073 14.367 22.1073C12.6732 22.1073 11.003 21.7106 9.49006 20.9491C7.97712 20.1876 6.66353 19.0823 5.65451 17.7219C4.64549 16.3614 3.96908 14.7836 3.67945 13.1148C3.38982 11.4459 3.49502 9.73245 3.98663 8.11157C3.02585 9.90562 2.54644 11.9181 2.59517 13.9526C2.6439 15.9871 3.2191 17.9743 4.26467 19.7203C5.31023 21.4663 6.79047 22.9115 8.561 23.915C10.3315 24.9184 12.3319 25.4459 14.367 25.4459C16.4022 25.4459 18.4025 24.9184 20.1731 23.915C21.9436 22.9115 23.4238 21.4663 24.4694 19.7203C25.515 17.9743 26.0902 15.9871 26.1389 13.9526C26.1876 11.9181 25.7082 9.90562 24.7474 8.11157Z" fill="#009FD9"/>
<path d="M2.5918 13.6668C2.5918 16.7898 3.8324 19.7849 6.04068 21.9932C8.24897 24.2015 11.244 25.4421 14.367 25.4421C17.49 25.4421 20.4851 24.2015 22.6934 21.9932C24.9017 19.7849 26.1423 16.7898 26.1423 13.6668C26.1423 10.5439 24.9017 7.54877 22.6934 5.34049C20.4851 3.1322 17.49 1.8916 14.367 1.8916C11.244 1.8916 8.24897 3.1322 6.04068 5.34049C3.8324 7.54877 2.5918 10.5439 2.5918 13.6668Z" stroke="#45413C" stroke-width="0.598639" stroke-linecap="round" stroke-linejoin="round"/>
<path d="M19.5455 3.10682L17.2646 3.51389C17.2291 3.52067 17.1948 3.53278 17.1629 3.54981L14.4391 5.16015C14.392 5.18809 14.3381 5.20258 14.2834 5.20206H12.3259C12.2658 5.20281 12.2074 5.22158 12.1582 5.25593L8.8777 7.47689C8.83937 7.50464 8.80816 7.54108 8.78664 7.58322C8.76513 7.62537 8.75391 7.67202 8.75391 7.71934C8.75391 7.76666 8.76513 7.8133 8.78664 7.85545C8.80816 7.89759 8.83937 7.93404 8.8777 7.96179L9.47634 8.42274C9.52246 8.45337 9.57661 8.46971 9.63198 8.46971C9.68736 8.46971 9.7415 8.45337 9.78763 8.42274L12.0086 7.34519C12.0552 7.31896 12.1078 7.30519 12.1612 7.30519C12.2147 7.30519 12.2673 7.31896 12.3139 7.34519L13.1819 7.94383C13.2417 7.98698 13.3156 8.00601 13.3888 7.99714C13.462 7.98826 13.5292 7.95213 13.577 7.89593L13.8883 7.52478C13.9318 7.47472 13.9906 7.4405 14.0556 7.4275C14.1206 7.4145 14.1881 7.42345 14.2475 7.45294L15.4986 8.05158C15.5227 8.06185 15.545 8.07601 15.5645 8.09349L16.3248 8.76396C16.3579 8.79302 16.3973 8.81408 16.4398 8.82549C16.4824 8.83691 16.527 8.83839 16.5702 8.82981L17.3425 8.71008C17.3928 8.70172 17.4444 8.70634 17.4924 8.72352C17.5404 8.7407 17.5832 8.76987 17.6168 8.80825C17.6504 8.84662 17.6736 8.89295 17.6843 8.94282C17.6949 8.99269 17.6927 9.04446 17.6777 9.09321L17.4622 9.79362C17.445 9.8481 17.4437 9.90635 17.4586 9.96151C17.4735 10.0167 17.5038 10.0664 17.546 10.1049L19.4557 11.847C19.5102 11.8942 19.5445 11.9607 19.5514 12.0325L19.7131 13.2298C19.7192 13.2742 19.7353 13.3167 19.76 13.3541C19.7848 13.3915 19.8176 13.4228 19.8561 13.4458C19.8946 13.4688 19.9378 13.4828 19.9825 13.4869C20.0271 13.491 20.0721 13.4849 20.1142 13.4693L21.6646 12.8706C21.7193 12.8535 21.766 12.8174 21.7963 12.7689L22.6823 11.5716C22.7272 11.5157 22.7506 11.4456 22.7482 11.374L22.6045 10.6018C22.5942 10.5513 22.5971 10.4989 22.613 10.4498C22.6288 10.4008 22.6571 10.3566 22.695 10.3217C22.733 10.2868 22.7793 10.2622 22.8295 10.2505C22.8797 10.2387 22.9321 10.2401 22.9816 10.2546L24.137 10.5958C24.1889 10.61 24.2359 10.6381 24.2728 10.6772C24.3098 10.7162 24.3353 10.7647 24.3465 10.8173L24.8434 13.0323C24.8558 13.0874 24.8836 13.1379 24.9236 13.1779C24.9635 13.2179 25.0139 13.2457 25.0691 13.2583C25.1242 13.2708 25.1817 13.2674 25.235 13.2486C25.2883 13.2298 25.3352 13.1963 25.3702 13.152L26.0766 12.26C25.8381 10.3105 25.1156 8.45173 23.9748 6.85299C22.8341 5.25425 21.3114 3.9664 19.5455 3.10682ZM15.2173 2.75362L14.0739 2.43036C14.0025 2.40375 13.9238 2.40375 13.8524 2.43036L12.4336 3.22056C12.3882 3.24338 12.3495 3.27761 12.3213 3.3199C12.2931 3.36218 12.2763 3.41108 12.2727 3.46178C12.2691 3.51248 12.2787 3.56326 12.3006 3.60912C12.3225 3.65499 12.356 3.69437 12.3977 3.72342L12.8347 4.0407C12.8704 4.06458 12.9105 4.08111 12.9526 4.08934C12.9947 4.09756 13.0381 4.0973 13.0801 4.08859L14.3313 3.78927H14.4031L15.2772 3.3343C15.3373 3.30884 15.3877 3.26474 15.421 3.2085C15.4542 3.15225 15.4685 3.08683 15.4618 3.02184C15.4551 2.95685 15.4278 2.89572 15.3837 2.84744C15.3397 2.79916 15.2814 2.76628 15.2173 2.75362Z" fill="#6DD627" stroke="#45413C" stroke-width="0.598639" stroke-linecap="round" stroke-linejoin="round"/>
<path d="M16.8218 10.0332H13.3497C13.2741 10.031 13.1994 10.0169 13.1282 9.99132L11.7633 9.45853C11.6798 9.42493 11.5897 9.4106 11.4999 9.41662L9.14724 9.59621C8.82319 9.61887 8.51866 9.75942 8.29118 9.99132L6.79458 11.5298C6.68618 11.6423 6.62603 11.7927 6.62696 11.9489V13.7448C6.62779 13.8418 6.6522 13.9372 6.69808 14.0227C6.74397 14.1082 6.80996 14.1813 6.89037 14.2357L8.05173 15.0259C8.16822 15.1029 8.30799 15.1368 8.44683 15.1217L10.7755 14.9002C10.8944 14.8853 11.015 14.9065 11.1217 14.9609C11.2285 15.0153 11.3164 15.1005 11.3742 15.2055L12.9067 17.9592C12.9811 18.0944 13.0004 18.2531 12.9606 18.4022L12.6792 19.4798C12.6572 19.5615 12.6527 19.647 12.6661 19.7305C12.6795 19.8141 12.7105 19.8939 12.757 19.9646L14.1578 22.0778C14.2213 22.1751 14.3117 22.2518 14.418 22.2985C14.5243 22.3453 14.6419 22.3601 14.7565 22.3412L16.6063 22.0659C16.6935 22.0531 16.7768 22.0213 16.8502 21.9727C16.9237 21.9241 16.9855 21.8598 17.0313 21.7845L18.7853 18.8751C18.8354 18.777 18.8601 18.6679 18.8572 18.5578V16.9415C18.8572 16.8551 18.8759 16.7696 18.9121 16.6911C18.9482 16.6125 19.001 16.5428 19.0667 16.4866L20.5573 15.1935C20.6251 15.1373 20.6797 15.0669 20.7171 14.9872C20.7546 14.9075 20.774 14.8206 20.774 14.7325C20.774 14.6445 20.7546 14.5575 20.7171 14.4779C20.6797 14.3982 20.6251 14.3278 20.5573 14.2716L19.7551 13.667L17.7078 12.1464C17.6355 12.0937 17.5759 12.0255 17.5334 11.9468C17.4909 11.8681 17.4667 11.7808 17.4623 11.6915L17.4204 10.6079C17.4142 10.4533 17.3485 10.3071 17.2368 10.2C17.1252 10.0929 16.9765 10.0331 16.8218 10.0332ZM20.5633 18.2046L19.5695 19.6534C19.546 19.6869 19.5296 19.725 19.5214 19.7651C19.5131 19.8053 19.5132 19.8467 19.5217 19.8868L19.7072 20.8027C19.7166 20.85 19.7372 20.8942 19.7674 20.9318C19.7975 20.9693 19.8362 20.9991 19.8803 21.0184C19.9243 21.0378 19.9724 21.0463 20.0205 21.0431C20.0685 21.04 20.1151 21.0253 20.1562 21.0003L21.0003 20.4974C21.0669 20.4553 21.1142 20.3886 21.132 20.3119L21.6049 18.4501C21.6168 18.4059 21.6184 18.3595 21.6096 18.3146C21.6008 18.2696 21.5817 18.2273 21.554 18.1909C21.5262 18.1544 21.4905 18.1249 21.4495 18.1044C21.4085 18.084 21.3634 18.0732 21.3176 18.0729H20.8147C20.7656 18.0743 20.7173 18.0869 20.6738 18.1097C20.6302 18.1326 20.5924 18.165 20.5633 18.2046Z" fill="#6DD627" stroke="#45413C" stroke-width="0.598639" stroke-linecap="round" stroke-linejoin="round"/>
<path d="M18.5575 7.0101L18.2402 7.99187C18.2266 8.03363 18.2225 8.07785 18.2279 8.12142C18.2334 8.16498 18.2483 8.20681 18.2717 8.24394C18.2952 8.28107 18.3265 8.31259 18.3634 8.33628C18.4004 8.35996 18.4421 8.37522 18.4856 8.38098L19.8266 8.57255C19.8783 8.57812 19.9307 8.57063 19.9788 8.55076C20.0269 8.53089 20.0692 8.49928 20.102 8.45881L20.5509 7.86017C20.5793 7.82404 20.5988 7.78177 20.6078 7.73675C20.6168 7.69173 20.6152 7.64521 20.6029 7.60095C20.5907 7.55669 20.5682 7.51592 20.5374 7.48192C20.5065 7.44792 20.4681 7.42165 20.4252 7.4052L18.9586 6.80656C18.919 6.79075 18.8766 6.78356 18.8341 6.78545C18.7915 6.78735 18.7499 6.79829 18.712 6.81756C18.674 6.83682 18.6406 6.86396 18.6139 6.89716C18.5873 6.93036 18.5681 6.96887 18.5575 7.0101Z" fill="#00B8F0" stroke="#45413C" stroke-width="0.598639" stroke-linecap="round" stroke-linejoin="round"/>
</svg>
