<svg width="358" height="281" viewBox="0 0 358 281" fill="none" xmlns="http://www.w3.org/2000/svg">
<g filter="url(#filter0_dd_1805_7017)">
<rect x="16" width="326" height="73.7537" rx="8.02956" fill="#009933" fill-opacity="0.08" shape-rendering="crispEdges"/>
<rect x="16.4015" y="0.401478" width="325.197" height="72.9507" rx="7.62808" stroke="#009933" stroke-width="0.802956" shape-rendering="crispEdges"/>
<path d="M37.4121 28.3711H49.7241" stroke="#171717" stroke-width="1.60591" stroke-miterlimit="10" stroke-linecap="round" stroke-linejoin="round"/>
<path d="M41.6943 36.936H43.8356" stroke="#171717" stroke-width="1.60591" stroke-miterlimit="10" stroke-linecap="round" stroke-linejoin="round"/>
<path d="M46.5117 36.936H50.7941" stroke="#171717" stroke-width="1.60591" stroke-miterlimit="10" stroke-linecap="round" stroke-linejoin="round"/>
<path d="M58.8243 32.1503V36.5184C58.8243 40.2763 57.8714 41.2184 54.0708 41.2184H42.1656C38.365 41.2184 37.4121 40.2763 37.4121 36.5184V27.718C37.4121 23.9602 38.365 23.0181 42.1656 23.0181H49.7241" stroke="#171717" stroke-width="1.60591" stroke-linecap="round" stroke-linejoin="round"/>
<path d="M52.9355 25.9622H58.8239" stroke="#171717" stroke-width="1.60591" stroke-linecap="round"/>
<path d="M55.8799 28.9064V23.0181" stroke="#171717" stroke-width="1.60591" stroke-linecap="round"/>
<path d="M75.981 28.9189C75.8685 30.3321 75.3707 31.4563 74.4714 32.2913C73.5721 33.1264 72.4158 33.5439 71.0026 33.5439C69.3807 33.5439 68.0799 32.9979 67.1163 31.9059C66.1367 30.8139 65.655 29.3686 65.655 27.5539C65.655 26.4619 65.8637 25.4823 66.2813 24.583C66.6988 23.6836 67.3251 22.961 68.1602 22.415C68.9952 21.869 69.9749 21.5799 71.099 21.5799C72.3034 21.5799 73.3633 21.9171 74.2626 22.5916C75.1619 23.2661 75.6919 24.2297 75.8846 25.4823H73.8933C73.7487 24.8078 73.4276 24.2618 72.9297 23.8764C72.4158 23.4909 71.8056 23.2822 71.0669 23.2822C70.296 23.2822 69.6537 23.507 69.1237 23.9245C68.5938 24.3581 68.2244 24.8881 67.9996 25.5144C67.7748 26.1407 67.6784 26.8152 67.6784 27.5539C67.6784 28.116 67.7426 28.6459 67.8711 29.1277C67.9996 29.6255 68.1923 30.0752 68.4492 30.4927C68.7062 30.9102 69.0434 31.2314 69.4931 31.4723C69.9427 31.7293 70.4566 31.8417 71.0508 31.8417C72.7531 31.8417 73.7166 30.8781 73.9736 28.9189H75.981ZM77.4533 27.5378C77.646 25.675 78.8504 24.7275 81.0826 24.7275C82.1104 24.7275 82.9455 24.9363 83.5557 25.3377C84.166 25.7553 84.4871 26.3816 84.4871 27.2327V31.4402C84.4871 31.6811 84.5032 31.8417 84.5674 31.922C84.6317 32.0183 84.7441 32.0504 84.9207 32.0504C85.0492 32.0504 85.1777 32.0504 85.3383 32.0183V33.3031C84.8565 33.4315 84.4711 33.4797 84.1499 33.4797C83.363 33.4797 82.9134 33.1585 82.8009 32.484C82.0943 33.1585 81.1308 33.4797 79.8942 33.4797C79.0271 33.4797 78.3526 33.2709 77.8547 32.8213C77.3408 32.3716 77.1 31.7774 77.1 31.0066C77.1 30.7818 77.116 30.5569 77.1803 30.3482C77.2284 30.1555 77.2927 29.9788 77.3569 29.8182C77.4211 29.6737 77.5336 29.5292 77.6941 29.4007C77.8547 29.2722 77.9832 29.1759 78.0796 29.0795C78.1759 28.9992 78.3526 28.9189 78.5774 28.8386C78.8022 28.7744 78.9789 28.7102 79.0913 28.678C79.2037 28.6459 79.3964 28.5977 79.6855 28.5496C79.9585 28.5174 80.1351 28.4853 80.2315 28.4693C80.3278 28.4532 80.5205 28.4211 80.8096 28.389C81.452 28.3087 81.9016 28.2444 82.1425 28.1802C82.3673 28.116 82.5279 28.0357 82.6243 27.9072C82.6885 27.8269 82.7367 27.6342 82.7367 27.313C82.7367 26.4779 82.1586 26.0604 81.0344 26.0604C80.4242 26.0604 79.9906 26.1728 79.7176 26.3976C79.4285 26.6225 79.2519 27.0079 79.1876 27.5378H77.4533ZM82.7206 29.1116C82.5761 29.1919 82.4155 29.2562 82.2389 29.3204C82.0462 29.3846 81.9016 29.4168 81.7892 29.4328C81.6768 29.4489 81.5002 29.4649 81.2593 29.497C81.0184 29.5292 80.8578 29.5613 80.7936 29.5613C80.5687 29.5934 80.3921 29.6255 80.2636 29.6576C80.1351 29.6898 79.9745 29.7219 79.7818 29.7861C79.5891 29.8503 79.4446 29.9306 79.3482 30.027C79.2519 30.1234 79.1555 30.2358 79.0913 30.3964C79.011 30.5569 78.9789 30.7336 78.9789 30.9424C78.9789 31.3438 79.1073 31.649 79.3643 31.8577C79.6212 32.0826 79.9906 32.1789 80.4724 32.1789C81.2753 32.1789 81.9016 31.9702 82.3513 31.5205C82.5922 31.2796 82.7206 30.7978 82.7206 30.0912V29.1116ZM91.1463 24.8238V26.5743C90.8251 26.5422 90.6003 26.5261 90.5039 26.5261C88.898 26.5261 88.1111 27.57 88.1111 29.6255V33.2709H86.2964V24.9844H88.0148V26.6385C88.5929 25.418 89.5243 24.7917 90.793 24.7917L91.1463 24.8238ZM99.6734 21.8368V33.2709H97.9551V32.1307C97.4251 33.0461 96.5419 33.4958 95.3053 33.4958C94.133 33.4958 93.2016 33.1103 92.5111 32.3074C91.8205 31.5205 91.4833 30.4606 91.4833 29.1116C91.4833 27.7948 91.8205 26.7349 92.495 25.948C93.1695 25.1611 94.0849 24.7596 95.2411 24.7596C96.3974 24.7596 97.2806 25.1932 97.8748 26.0604V21.8368H99.6734ZM95.5784 26.237C94.8718 26.237 94.3257 26.494 93.9243 27.0079C93.5228 27.5218 93.3301 28.2123 93.3301 29.0795C93.3301 29.9949 93.5228 30.7175 93.9403 31.2314C94.3579 31.7614 94.9199 32.0183 95.6426 32.0183C96.3492 32.0183 96.9113 31.7614 97.3127 31.2475C97.7142 30.7336 97.923 30.027 97.923 29.1116C97.923 28.2123 97.7142 27.5057 97.2967 26.9918C96.8791 26.494 96.3171 26.237 95.5784 26.237ZM107.858 24.9844V26.0925C108.404 25.1932 109.303 24.7435 110.556 24.7435C111.696 24.7435 112.611 25.145 113.302 25.948C113.976 26.7509 114.33 27.8269 114.33 29.1598C114.33 30.4767 113.993 31.5205 113.318 32.3074C112.644 33.0943 111.76 33.4797 110.652 33.4797C109.464 33.4797 108.565 33.0461 107.954 32.1789V36.3382H106.14V24.9844H107.858ZM110.186 26.221C109.464 26.221 108.902 26.4779 108.5 26.9918C108.083 27.5057 107.89 28.2284 107.89 29.1277C107.89 30.027 108.083 30.7336 108.5 31.2475C108.918 31.7614 109.48 32.0183 110.219 32.0183C110.909 32.0183 111.455 31.7614 111.873 31.2475C112.274 30.7336 112.483 30.0431 112.483 29.1598C112.483 28.2605 112.274 27.5539 111.857 27.0239C111.439 26.494 110.893 26.221 110.186 26.221ZM115.845 27.5378C116.037 25.675 117.242 24.7275 119.474 24.7275C120.502 24.7275 121.337 24.9363 121.947 25.3377C122.557 25.7553 122.878 26.3816 122.878 27.2327V31.4402C122.878 31.6811 122.895 31.8417 122.959 31.922C123.023 32.0183 123.135 32.0504 123.312 32.0504C123.441 32.0504 123.569 32.0504 123.73 32.0183V33.3031C123.248 33.4315 122.862 33.4797 122.541 33.4797C121.754 33.4797 121.305 33.1585 121.192 32.484C120.486 33.1585 119.522 33.4797 118.286 33.4797C117.418 33.4797 116.744 33.2709 116.246 32.8213C115.732 32.3716 115.491 31.7774 115.491 31.0066C115.491 30.7818 115.507 30.5569 115.572 30.3482C115.62 30.1555 115.684 29.9788 115.748 29.8182C115.812 29.6737 115.925 29.5292 116.085 29.4007C116.246 29.2722 116.375 29.1759 116.471 29.0795C116.567 28.9992 116.744 28.9189 116.969 28.8386C117.194 28.7744 117.37 28.7102 117.483 28.678C117.595 28.6459 117.788 28.5977 118.077 28.5496C118.35 28.5174 118.526 28.4853 118.623 28.4693C118.719 28.4532 118.912 28.4211 119.201 28.389C119.843 28.3087 120.293 28.2444 120.534 28.1802C120.759 28.116 120.919 28.0357 121.016 27.9072C121.08 27.8269 121.128 27.6342 121.128 27.313C121.128 26.4779 120.55 26.0604 119.426 26.0604C118.816 26.0604 118.382 26.1728 118.109 26.3976C117.82 26.6225 117.643 27.0079 117.579 27.5378H115.845ZM121.112 29.1116C120.967 29.1919 120.807 29.2562 120.63 29.3204C120.437 29.3846 120.293 29.4168 120.181 29.4328C120.068 29.4489 119.891 29.4649 119.651 29.497C119.41 29.5292 119.249 29.5613 119.185 29.5613C118.96 29.5934 118.783 29.6255 118.655 29.6576C118.526 29.6898 118.366 29.7219 118.173 29.7861C117.98 29.8503 117.836 29.9306 117.74 30.027C117.643 30.1234 117.547 30.2358 117.483 30.3964C117.402 30.5569 117.37 30.7336 117.37 30.9424C117.37 31.3438 117.499 31.649 117.756 31.8577C118.013 32.0826 118.382 32.1789 118.864 32.1789C119.667 32.1789 120.293 31.9702 120.743 31.5205C120.983 31.2796 121.112 30.7978 121.112 30.0912V29.1116ZM132.155 24.9844L129.088 33.1103C129.056 33.1906 128.992 33.3512 128.911 33.5921C128.815 33.833 128.767 33.9936 128.735 34.0739C128.703 34.1702 128.638 34.3148 128.542 34.5235C128.446 34.7484 128.381 34.8929 128.333 34.9732L128.092 35.3586C127.98 35.5353 127.884 35.6637 127.787 35.728C127.691 35.8083 127.578 35.9046 127.45 36.017C127.321 36.1295 127.177 36.2098 127.048 36.2579C126.904 36.3061 126.743 36.3543 126.567 36.3864C126.39 36.4185 126.197 36.4346 126.005 36.4346C125.651 36.4346 125.234 36.4025 124.736 36.3382V34.7966C125.121 34.8769 125.443 34.909 125.699 34.909C125.828 34.909 125.94 34.8929 126.053 34.8608C126.149 34.8287 126.245 34.7644 126.342 34.6681C126.422 34.5717 126.502 34.4914 126.567 34.4111C126.631 34.3308 126.679 34.2184 126.743 34.0739C126.808 33.9294 126.856 33.8169 126.888 33.7367C126.92 33.6564 126.952 33.5279 127.016 33.3512C127.065 33.1906 127.097 33.0782 127.113 33.0301L123.933 24.9844H125.94L128.157 31.0869L130.244 24.9844H132.155ZM134.926 24.9844V26.1568C135.601 25.2253 136.468 24.7596 137.528 24.7596C138.074 24.7596 138.54 24.8881 138.941 25.129C139.343 25.3859 139.648 25.7232 139.84 26.1728C140.499 25.2414 141.398 24.7596 142.522 24.7596C143.293 24.7596 143.952 25.0005 144.465 25.4662C144.979 25.9319 145.236 26.5743 145.236 27.3933V33.2709H143.406V28.1802C143.406 27.6021 143.293 27.1364 143.1 26.7991C142.892 26.4779 142.506 26.3013 141.928 26.3013C141.334 26.3013 140.884 26.494 140.579 26.8634C140.258 27.2327 140.113 27.7466 140.113 28.405V33.2709H138.283V28.0838C138.283 27.5057 138.186 27.0561 138.01 26.7509C137.833 26.4619 137.464 26.3013 136.918 26.3013C136.291 26.3013 135.826 26.5101 135.504 26.9115C135.183 27.313 135.023 27.843 135.023 28.5014V33.2709H133.192V24.9844H134.926ZM154.568 30.6854C154.36 31.5847 153.91 32.2913 153.236 32.7892C152.561 33.3031 151.742 33.5439 150.811 33.5439C149.558 33.5439 148.562 33.1425 147.824 32.3395C147.085 31.5366 146.732 30.4927 146.732 29.224C146.732 27.9393 147.101 26.8634 147.856 26.0122C148.611 25.1771 149.574 24.7435 150.746 24.7435C151.951 24.7435 152.914 25.1611 153.621 25.9962C154.328 26.8312 154.681 27.9554 154.681 29.3846V29.5773H148.562C148.578 30.4124 148.787 31.0708 149.189 31.5205C149.574 31.9702 150.136 32.195 150.843 32.195C151.341 32.195 151.742 32.0826 152.063 31.8417C152.384 31.6008 152.625 31.2154 152.818 30.6854H154.568ZM152.85 28.3568C152.786 27.6663 152.577 27.1203 152.192 26.7188C151.806 26.3173 151.325 26.1086 150.73 26.1086C150.12 26.1086 149.638 26.3013 149.269 26.6867C148.9 27.0721 148.675 27.6342 148.595 28.3568H152.85ZM157.823 24.9844V26.2049C158.482 25.2414 159.397 24.7596 160.569 24.7596C161.501 24.7596 162.207 25.0166 162.673 25.5304C163.139 26.0443 163.38 26.7831 163.38 27.7466V33.2709H161.549V28.4532C161.549 28.132 161.533 27.859 161.501 27.6342C161.469 27.4094 161.388 27.1845 161.292 26.9597C161.196 26.7349 161.035 26.5743 160.81 26.4619C160.585 26.3495 160.296 26.2852 159.943 26.2852C158.594 26.2852 157.919 27.1364 157.919 28.8065V33.2709H156.089V24.9844H157.823ZM169.341 24.9844V26.3173H167.671V30.6854C167.671 30.9424 167.671 31.1351 167.687 31.2314C167.687 31.3278 167.719 31.4402 167.783 31.5687C167.831 31.6971 167.928 31.7774 168.056 31.8096C168.185 31.8577 168.377 31.8738 168.618 31.8738C168.907 31.8738 169.148 31.8738 169.341 31.8417V33.287C168.972 33.3352 168.554 33.3512 168.104 33.3512C167.783 33.3512 167.494 33.3352 167.253 33.287C167.012 33.2388 166.82 33.1746 166.659 33.1103C166.499 33.0461 166.354 32.9498 166.258 32.7892C166.145 32.6286 166.065 32.5001 166.001 32.4037C165.936 32.3074 165.904 32.1147 165.872 31.8577C165.84 31.6008 165.84 31.4081 165.84 31.2796V30.573V30.4767V30.3803V30.2679V26.3173H164.459V24.9844H165.84V22.4953H167.671V24.9844H169.341Z" fill="black"/>
<path d="M64.958 42.4789H66.1271L68.4316 49.4486L70.7585 42.4789H71.8714L69.0161 50.4828H67.8021L64.958 42.4789ZM73.3862 42.4789V43.648H72.4195V42.4789H73.3862ZM73.3862 44.6822V50.4828H72.4195V44.6822H73.3862ZM79.1719 46.3684H78.2164C78.149 45.6715 77.6768 45.3117 76.8 45.3117C76.429 45.3117 76.1367 45.3904 75.9344 45.5253C75.7208 45.6715 75.6196 45.8626 75.6196 46.0986C75.6196 46.1661 75.6196 46.2335 75.6421 46.301C75.6534 46.3684 75.6759 46.4246 75.7208 46.4696C75.7658 46.5146 75.7995 46.5595 75.8332 46.5932C75.867 46.6382 75.9232 46.6719 76.0019 46.7057C76.0805 46.7394 76.1367 46.7619 76.1817 46.7843C76.2267 46.8068 76.2941 46.8406 76.4065 46.863C76.519 46.8855 76.5976 46.908 76.6426 46.9192C76.6876 46.9305 76.7663 46.953 76.9012 46.9755C77.0361 47.0092 77.1147 47.0317 77.1597 47.0317C77.4295 47.0991 77.6431 47.1441 77.778 47.1778C77.9129 47.2228 78.104 47.2902 78.3513 47.3914C78.5986 47.4926 78.7785 47.5937 78.9134 47.7061C79.037 47.8186 79.1494 47.9647 79.2506 48.1558C79.3518 48.3469 79.408 48.5605 79.408 48.7966C79.408 49.3586 79.1832 49.8195 78.7447 50.1568C78.3063 50.494 77.7218 50.6626 77.0023 50.6626C76.2154 50.6626 75.6084 50.494 75.1812 50.1455C74.7541 49.8083 74.5292 49.3024 74.5067 48.6504H75.451C75.496 49.471 76.0243 49.8757 77.0248 49.8757C77.452 49.8757 77.7892 49.797 78.0478 49.6172C78.3063 49.4373 78.4412 49.2012 78.4412 48.909C78.4412 48.7179 78.3738 48.5605 78.2389 48.4256C78.104 48.3019 77.9466 48.212 77.7892 48.1558C77.6206 48.0996 77.3845 48.0321 77.081 47.9535C77.0361 47.9535 77.0023 47.9422 76.9799 47.931C76.9124 47.9197 76.7663 47.886 76.5414 47.841C76.3166 47.7961 76.1592 47.7511 76.0693 47.7174C75.9681 47.6949 75.822 47.6499 75.6421 47.5825C75.4623 47.515 75.3274 47.4476 75.2374 47.3801C75.1475 47.3127 75.0463 47.2228 74.9339 47.1103C74.8215 46.9979 74.7541 46.8743 74.7091 46.7281C74.6641 46.582 74.6416 46.4134 74.6416 46.2223C74.6416 45.7052 74.8327 45.2892 75.2374 44.9745C75.6421 44.671 76.1817 44.5136 76.8562 44.5136C77.5307 44.5136 78.0927 44.6822 78.5199 44.997C78.9471 45.323 79.1719 45.7839 79.1719 46.3684ZM85.6245 49.7183V50.4715C85.4221 50.539 85.2085 50.5839 84.9725 50.5839C84.4216 50.5839 84.1406 50.2917 84.1294 49.7296C83.5785 50.3366 82.8816 50.6514 82.0272 50.6514C81.4539 50.6514 81.0043 50.5052 80.667 50.213C80.3298 49.9207 80.1724 49.516 80.1724 49.0101C80.1724 47.9759 80.8581 47.3689 82.2296 47.2003C82.3195 47.1778 82.4432 47.1666 82.623 47.1553C83.275 47.0766 83.6685 46.9867 83.8259 46.8968C83.9945 46.7731 84.0844 46.5708 84.0844 46.2785C84.0844 45.6377 83.646 45.323 82.7692 45.323C82.3195 45.323 81.971 45.4129 81.7462 45.5928C81.5101 45.7726 81.3752 46.0761 81.3303 46.5033H80.3972C80.4085 45.8738 80.6333 45.3904 81.0605 45.0532C81.4876 44.7047 82.0722 44.5361 82.8254 44.5361C83.6347 44.5361 84.2418 44.7159 84.6465 45.0981C84.7701 45.2106 84.8601 45.3679 84.9275 45.5703C84.9837 45.7614 85.0174 45.9188 85.0287 46.0424C85.0287 46.1661 85.0399 46.3572 85.0399 46.6045C85.0399 46.8855 85.0287 47.3127 85.0174 47.886C84.995 48.4706 84.995 48.8977 84.995 49.1788C84.995 49.3923 85.0174 49.5385 85.0736 49.6284C85.1299 49.7183 85.231 49.7521 85.3884 49.7521C85.4446 49.7521 85.5233 49.7408 85.6245 49.7183ZM84.0844 47.4813C84.017 47.5263 83.9383 47.5712 83.8708 47.6162C83.7921 47.6499 83.691 47.6837 83.5785 47.7061C83.4661 47.7286 83.3874 47.7399 83.3425 47.7511C83.2975 47.7623 83.2076 47.7736 83.0502 47.7961C82.8928 47.8186 82.8029 47.8298 82.8029 47.8298C82.5668 47.8523 82.4094 47.8748 82.342 47.886C82.2745 47.8972 82.1396 47.931 81.9373 47.9872C81.735 48.0321 81.6001 48.0996 81.5214 48.167C81.4314 48.2345 81.3527 48.3244 81.2741 48.4593C81.1954 48.5942 81.1616 48.7516 81.1616 48.9315C81.1616 49.2237 81.2628 49.4598 81.4652 49.6397C81.6675 49.8083 81.9598 49.8982 82.3195 49.8982C82.7692 49.8982 83.1851 49.7633 83.5448 49.4935C83.9045 49.2237 84.0844 48.8977 84.0844 48.538V47.4813ZM87.9864 49.235L87.9751 49.9994C87.9751 50.2917 87.9639 50.5277 87.9414 50.7301C87.9189 50.9324 87.8627 51.1235 87.7728 51.3259C87.6941 51.5282 87.5705 51.7081 87.4018 51.843C87.222 51.9779 87.0084 52.079 86.7386 52.1465V51.5844C87.1433 51.4495 87.3456 51.0898 87.3569 50.4828H86.7386V49.235H87.9864ZM93.6817 44.6822L93.6705 45.5366C93.929 45.1881 94.1988 44.9408 94.4911 44.7834C94.7834 44.626 95.1431 44.5473 95.559 44.5473C96.3572 44.5473 96.8968 44.8733 97.1778 45.5478C97.6724 44.8733 98.3132 44.5361 99.1001 44.5361C99.6959 44.5361 100.146 44.6935 100.46 45.0307C100.775 45.3679 100.932 45.8288 100.932 46.4359V50.494H99.9769V46.8406C99.9769 46.3572 99.8982 45.9975 99.7521 45.7501C99.5947 45.5028 99.2912 45.3904 98.819 45.3904C97.8298 45.3904 97.3352 45.9862 97.3352 47.2003V50.494H96.3797V46.7731C96.3797 46.3235 96.301 45.9862 96.1548 45.7501C96.0087 45.5141 95.7277 45.4017 95.3117 45.4017C94.7159 45.4017 94.3 45.5815 94.0752 45.9412C93.8504 46.301 93.7379 46.7956 93.7379 47.4139V50.4828H92.7824V44.6822H93.6817ZM107.503 49.7183V50.4715C107.301 50.539 107.088 50.5839 106.851 50.5839C106.301 50.5839 106.02 50.2917 106.008 49.7296C105.458 50.3366 104.761 50.6514 103.906 50.6514C103.333 50.6514 102.883 50.5052 102.546 50.213C102.209 49.9207 102.051 49.516 102.051 49.0101C102.051 47.9759 102.737 47.3689 104.109 47.2003C104.198 47.1778 104.322 47.1666 104.502 47.1553C105.154 47.0766 105.547 46.9867 105.705 46.8968C105.873 46.7731 105.963 46.5708 105.963 46.2785C105.963 45.6377 105.525 45.323 104.648 45.323C104.198 45.323 103.85 45.4129 103.625 45.5928C103.389 45.7726 103.254 46.0761 103.209 46.5033H102.276C102.287 45.8738 102.512 45.3904 102.939 45.0532C103.367 44.7047 103.951 44.5361 104.704 44.5361C105.514 44.5361 106.121 44.7159 106.525 45.0981C106.649 45.2106 106.739 45.3679 106.806 45.5703C106.863 45.7614 106.896 45.9188 106.908 46.0424C106.908 46.1661 106.919 46.3572 106.919 46.6045C106.919 46.8855 106.908 47.3127 106.896 47.886C106.874 48.4706 106.874 48.8977 106.874 49.1788C106.874 49.3923 106.896 49.5385 106.953 49.6284C107.009 49.7183 107.11 49.7521 107.267 49.7521C107.324 49.7521 107.402 49.7408 107.503 49.7183ZM105.963 47.4813C105.896 47.5263 105.817 47.5712 105.75 47.6162C105.671 47.6499 105.57 47.6837 105.458 47.7061C105.345 47.7286 105.266 47.7399 105.221 47.7511C105.176 47.7623 105.087 47.7736 104.929 47.7961C104.772 47.8186 104.682 47.8298 104.682 47.8298C104.446 47.8523 104.288 47.8748 104.221 47.886C104.154 47.8972 104.019 47.931 103.816 47.9872C103.614 48.0321 103.479 48.0996 103.4 48.167C103.31 48.2345 103.232 48.3244 103.153 48.4593C103.074 48.5942 103.041 48.7516 103.041 48.9315C103.041 49.2237 103.142 49.4598 103.344 49.6397C103.546 49.8083 103.839 49.8982 104.198 49.8982C104.648 49.8982 105.064 49.7633 105.424 49.4935C105.784 49.2237 105.963 48.8977 105.963 48.538V47.4813ZM112.709 46.3684H111.754C111.686 45.6715 111.214 45.3117 110.338 45.3117C109.967 45.3117 109.674 45.3904 109.472 45.5253C109.258 45.6715 109.157 45.8626 109.157 46.0986C109.157 46.1661 109.157 46.2335 109.18 46.301C109.191 46.3684 109.213 46.4246 109.258 46.4696C109.303 46.5146 109.337 46.5595 109.371 46.5932C109.404 46.6382 109.461 46.6719 109.539 46.7057C109.618 46.7394 109.674 46.7619 109.719 46.7843C109.764 46.8068 109.832 46.8406 109.944 46.863C110.056 46.8855 110.135 46.908 110.18 46.9192C110.225 46.9305 110.304 46.953 110.439 46.9755C110.574 47.0092 110.652 47.0317 110.697 47.0317C110.967 47.0991 111.181 47.1441 111.316 47.1778C111.45 47.2228 111.642 47.2902 111.889 47.3914C112.136 47.4926 112.316 47.5937 112.451 47.7061C112.575 47.8186 112.687 47.9647 112.788 48.1558C112.889 48.3469 112.946 48.5605 112.946 48.7966C112.946 49.3586 112.721 49.8195 112.282 50.1568C111.844 50.494 111.259 50.6626 110.54 50.6626C109.753 50.6626 109.146 50.494 108.719 50.1455C108.292 49.8083 108.067 49.3024 108.044 48.6504H108.989C109.034 49.471 109.562 49.8757 110.562 49.8757C110.99 49.8757 111.327 49.797 111.585 49.6172C111.844 49.4373 111.979 49.2012 111.979 48.909C111.979 48.7179 111.911 48.5605 111.776 48.4256C111.642 48.3019 111.484 48.212 111.327 48.1558C111.158 48.0996 110.922 48.0321 110.619 47.9535C110.574 47.9535 110.54 47.9422 110.517 47.931C110.45 47.9197 110.304 47.886 110.079 47.841C109.854 47.7961 109.697 47.7511 109.607 47.7174C109.506 47.6949 109.36 47.6499 109.18 47.5825C109 47.515 108.865 47.4476 108.775 47.3801C108.685 47.3127 108.584 47.2228 108.471 47.1103C108.359 46.9979 108.292 46.8743 108.247 46.7281C108.202 46.582 108.179 46.4134 108.179 46.2223C108.179 45.7052 108.37 45.2892 108.775 44.9745C109.18 44.671 109.719 44.5136 110.394 44.5136C111.068 44.5136 111.63 44.6822 112.057 44.997C112.485 45.323 112.709 45.7839 112.709 46.3684ZM116.509 44.6822V45.4691H115.351V48.8528C115.351 49.0439 115.351 49.1675 115.351 49.2237C115.351 49.2912 115.374 49.3699 115.419 49.471C115.452 49.5722 115.52 49.6397 115.61 49.6621C115.7 49.6959 115.823 49.7071 115.992 49.7071C116.127 49.7071 116.307 49.6959 116.509 49.6734V50.494C116.239 50.5277 115.992 50.539 115.778 50.539C115.509 50.539 115.284 50.5165 115.104 50.449C114.924 50.3928 114.778 50.3254 114.688 50.2467C114.598 50.1792 114.531 50.0443 114.486 49.8532C114.441 49.6621 114.407 49.5048 114.407 49.3699C114.396 49.235 114.396 49.0214 114.396 48.7066V48.6617V48.6055V48.5492V45.4691H113.418V44.6822H114.396V42.9623H115.351V44.6822H116.509ZM122.528 48.6504C122.236 49.9994 121.393 50.6739 119.999 50.6739C119.144 50.6739 118.47 50.4153 117.986 49.8757C117.503 49.3474 117.267 48.6055 117.267 47.6612C117.267 46.7281 117.514 45.975 118.009 45.3904C118.504 44.8059 119.156 44.5136 119.965 44.5136C120.853 44.5136 121.516 44.8171 121.943 45.4241C122.371 46.0312 122.595 46.7843 122.595 47.7061V47.841H118.234L118.223 47.9085C118.223 48.5268 118.38 49.0101 118.706 49.3586C119.021 49.7183 119.47 49.887 120.032 49.887C120.448 49.887 120.774 49.797 121.022 49.5947C121.269 49.4036 121.46 49.0888 121.595 48.6504H122.528ZM121.606 47.0654C121.561 46.5146 121.393 46.0874 121.1 45.7726C120.808 45.4579 120.415 45.3005 119.942 45.3005C119.47 45.3005 119.088 45.4579 118.785 45.7726C118.47 46.0874 118.29 46.5258 118.234 47.0654H121.606ZM126.632 44.5473L126.621 45.5478C126.554 45.5366 126.475 45.5366 126.374 45.5366C126.07 45.5366 125.8 45.5815 125.576 45.6715C125.351 45.7614 125.182 45.885 125.047 46.0312C124.912 46.1886 124.811 46.3684 124.721 46.5932C124.643 46.8181 124.586 47.0429 124.564 47.2677C124.541 47.4926 124.53 47.7511 124.53 48.0321V50.4828H123.575V44.6822H124.485V45.93C124.867 45.0082 125.576 44.5473 126.632 44.5473ZM135.472 48.3694C135.382 49.0663 135.123 49.6284 134.674 50.0331C134.224 50.449 133.651 50.6514 132.931 50.6514C132.054 50.6514 131.38 50.3816 130.896 49.842C130.424 49.3024 130.177 48.5717 130.177 47.6612C130.177 46.6944 130.436 45.93 130.93 45.3679C131.436 44.8059 132.111 44.5136 132.965 44.5136C133.684 44.5136 134.246 44.6935 134.674 45.0532C135.101 45.4129 135.359 45.9188 135.427 46.582H134.438C134.269 45.7389 133.786 45.323 132.987 45.323C132.425 45.323 131.987 45.5253 131.672 45.93C131.346 46.3347 131.189 46.8968 131.189 47.5937C131.189 48.2907 131.335 48.8528 131.65 49.2575C131.953 49.6621 132.38 49.8645 132.92 49.8645C133.347 49.8645 133.707 49.7296 133.977 49.4823C134.246 49.2237 134.426 48.8528 134.505 48.3694H135.472ZM141.656 49.7183V50.4715C141.453 50.539 141.24 50.5839 141.004 50.5839C140.453 50.5839 140.172 50.2917 140.161 49.7296C139.61 50.3366 138.913 50.6514 138.058 50.6514C137.485 50.6514 137.036 50.5052 136.698 50.213C136.361 49.9207 136.204 49.516 136.204 49.0101C136.204 47.9759 136.889 47.3689 138.261 47.2003C138.351 47.1778 138.474 47.1666 138.654 47.1553C139.306 47.0766 139.7 46.9867 139.857 46.8968C140.026 46.7731 140.116 46.5708 140.116 46.2785C140.116 45.6377 139.677 45.323 138.8 45.323C138.351 45.323 138.002 45.4129 137.777 45.5928C137.541 45.7726 137.406 46.0761 137.362 46.5033H136.428C136.44 45.8738 136.665 45.3904 137.092 45.0532C137.519 44.7047 138.103 44.5361 138.857 44.5361C139.666 44.5361 140.273 44.7159 140.678 45.0981C140.801 45.2106 140.891 45.3679 140.959 45.5703C141.015 45.7614 141.049 45.9188 141.06 46.0424C141.06 46.1661 141.071 46.3572 141.071 46.6045C141.071 46.8855 141.06 47.3127 141.049 47.886C141.026 48.4706 141.026 48.8977 141.026 49.1788C141.026 49.3923 141.049 49.5385 141.105 49.6284C141.161 49.7183 141.262 49.7521 141.42 49.7521C141.476 49.7521 141.555 49.7408 141.656 49.7183ZM140.116 47.4813C140.048 47.5263 139.97 47.5712 139.902 47.6162C139.823 47.6499 139.722 47.6837 139.61 47.7061C139.497 47.7286 139.419 47.7399 139.374 47.7511C139.329 47.7623 139.239 47.7736 139.081 47.7961C138.924 47.8186 138.834 47.8298 138.834 47.8298C138.598 47.8523 138.441 47.8748 138.373 47.886C138.306 47.8972 138.171 47.931 137.969 47.9872C137.766 48.0321 137.631 48.0996 137.553 48.167C137.463 48.2345 137.384 48.3244 137.305 48.4593C137.227 48.5942 137.193 48.7516 137.193 48.9315C137.193 49.2237 137.294 49.4598 137.496 49.6397C137.699 49.8083 137.991 49.8982 138.351 49.8982C138.8 49.8982 139.216 49.7633 139.576 49.4935C139.936 49.2237 140.116 48.8977 140.116 48.538V47.4813ZM145.58 44.5473L145.569 45.5478C145.502 45.5366 145.423 45.5366 145.322 45.5366C145.018 45.5366 144.748 45.5815 144.524 45.6715C144.299 45.7614 144.13 45.885 143.995 46.0312C143.86 46.1886 143.759 46.3684 143.669 46.5932C143.59 46.8181 143.534 47.0429 143.512 47.2677C143.489 47.4926 143.478 47.7511 143.478 48.0321V50.4828H142.523V44.6822H143.433V45.93C143.815 45.0082 144.524 44.5473 145.58 44.5473ZM151.329 42.4789V50.4828H150.43V49.6284C150.059 50.3029 149.418 50.6401 148.519 50.6401C147.687 50.6401 147.035 50.3703 146.552 49.8195C146.068 49.2687 145.832 48.5155 145.832 47.5712C145.832 46.6944 146.057 45.975 146.507 45.3904C146.956 44.8059 147.62 44.5136 148.474 44.5136C149.306 44.5136 149.935 44.8283 150.374 45.4579V42.4789H151.329ZM148.598 45.3342C148.047 45.3342 147.608 45.5366 147.294 45.93C146.979 46.3347 146.822 46.8743 146.822 47.5488C146.822 48.257 146.979 48.819 147.305 49.235C147.631 49.6509 148.069 49.8532 148.62 49.8532C149.171 49.8532 149.609 49.6621 149.924 49.2575C150.239 48.8528 150.396 48.3019 150.396 47.5825C150.396 46.953 150.239 46.4134 149.947 45.9862C149.654 45.559 149.205 45.3342 148.598 45.3342ZM161.032 49.7183V50.4715C160.829 50.539 160.616 50.5839 160.38 50.5839C159.829 50.5839 159.548 50.2917 159.537 49.7296C158.986 50.3366 158.289 50.6514 157.434 50.6514C156.861 50.6514 156.412 50.5052 156.074 50.213C155.737 49.9207 155.58 49.516 155.58 49.0101C155.58 47.9759 156.265 47.3689 157.637 47.2003C157.727 47.1778 157.85 47.1666 158.03 47.1553C158.682 47.0766 159.076 46.9867 159.233 46.8968C159.402 46.7731 159.492 46.5708 159.492 46.2785C159.492 45.6377 159.053 45.323 158.176 45.323C157.727 45.323 157.378 45.4129 157.153 45.5928C156.917 45.7726 156.782 46.0761 156.738 46.5033H155.804C155.816 45.8738 156.041 45.3904 156.468 45.0532C156.895 44.7047 157.479 44.5361 158.233 44.5361C159.042 44.5361 159.649 44.7159 160.054 45.0981C160.177 45.2106 160.267 45.3679 160.335 45.5703C160.391 45.7614 160.425 45.9188 160.436 46.0424C160.436 46.1661 160.447 46.3572 160.447 46.6045C160.447 46.8855 160.436 47.3127 160.425 47.886C160.402 48.4706 160.402 48.8977 160.402 49.1788C160.402 49.3923 160.425 49.5385 160.481 49.6284C160.537 49.7183 160.638 49.7521 160.796 49.7521C160.852 49.7521 160.931 49.7408 161.032 49.7183ZM159.492 47.4813C159.424 47.5263 159.346 47.5712 159.278 47.6162C159.199 47.6499 159.098 47.6837 158.986 47.7061C158.873 47.7286 158.795 47.7399 158.75 47.7511C158.705 47.7623 158.615 47.7736 158.457 47.7961C158.3 47.8186 158.21 47.8298 158.21 47.8298C157.974 47.8523 157.817 47.8748 157.749 47.886C157.682 47.8972 157.547 47.931 157.345 47.9872C157.142 48.0321 157.007 48.0996 156.929 48.167C156.839 48.2345 156.76 48.3244 156.681 48.4593C156.603 48.5942 156.569 48.7516 156.569 48.9315C156.569 49.2237 156.67 49.4598 156.872 49.6397C157.075 49.8083 157.367 49.8982 157.727 49.8982C158.176 49.8982 158.592 49.7633 158.952 49.4935C159.312 49.2237 159.492 48.8977 159.492 48.538V47.4813ZM162.832 44.6822V45.5815C163.304 44.8846 163.967 44.5248 164.81 44.5248C165.485 44.5248 165.979 44.7047 166.283 45.0644C166.586 45.4241 166.744 45.9412 166.744 46.627V50.4828H165.788V47.0654C165.788 46.7843 165.777 46.5595 165.754 46.4021C165.732 46.2448 165.687 46.0649 165.619 45.885C165.541 45.7052 165.417 45.5703 165.237 45.4803C165.057 45.4017 164.821 45.3567 164.54 45.3567C163.439 45.3567 162.888 46.0537 162.888 47.4476V50.4828H161.932V44.6822H162.832ZM173.406 42.4789V50.4828H172.507V49.6284C172.136 50.3029 171.495 50.6401 170.596 50.6401C169.764 50.6401 169.112 50.3703 168.628 49.8195C168.145 49.2687 167.909 48.5155 167.909 47.5712C167.909 46.6944 168.134 45.975 168.583 45.3904C169.033 44.8059 169.696 44.5136 170.551 44.5136C171.383 44.5136 172.012 44.8283 172.45 45.4579V42.4789H173.406ZM170.674 45.3342C170.123 45.3342 169.685 45.5366 169.37 45.93C169.056 46.3347 168.898 46.8743 168.898 47.5488C168.898 48.257 169.056 48.819 169.382 49.235C169.708 49.6509 170.146 49.8532 170.697 49.8532C171.248 49.8532 171.686 49.6621 172.001 49.2575C172.316 48.8528 172.473 48.3019 172.473 47.5825C172.473 46.953 172.316 46.4134 172.023 45.9862C171.731 45.559 171.281 45.3342 170.674 45.3342ZM177.409 44.6822H178.477L180.118 49.5497L181.714 44.6822H182.715L180.59 50.4828H179.567L177.409 44.6822ZM188.549 48.6504C188.257 49.9994 187.414 50.6739 186.02 50.6739C185.165 50.6739 184.491 50.4153 184.008 49.8757C183.524 49.3474 183.288 48.6055 183.288 47.6612C183.288 46.7281 183.535 45.975 184.03 45.3904C184.525 44.8059 185.177 44.5136 185.986 44.5136C186.874 44.5136 187.537 44.8171 187.965 45.4241C188.392 46.0312 188.617 46.7843 188.617 47.7061V47.841H184.255L184.244 47.9085C184.244 48.5268 184.401 49.0101 184.727 49.3586C185.042 49.7183 185.491 49.887 186.054 49.887C186.469 49.887 186.795 49.797 187.043 49.5947C187.29 49.4036 187.481 49.0888 187.616 48.6504H188.549ZM187.627 47.0654C187.582 46.5146 187.414 46.0874 187.121 45.7726C186.829 45.4579 186.436 45.3005 185.964 45.3005C185.491 45.3005 185.109 45.4579 184.806 45.7726C184.491 46.0874 184.311 46.5258 184.255 47.0654H187.627ZM192.653 44.5473L192.642 45.5478C192.575 45.5366 192.496 45.5366 192.395 45.5366C192.091 45.5366 191.822 45.5815 191.597 45.6715C191.372 45.7614 191.203 45.885 191.068 46.0312C190.934 46.1886 190.832 46.3684 190.742 46.5932C190.664 46.8181 190.608 47.0429 190.585 47.2677C190.563 47.4926 190.551 47.7511 190.551 48.0321V50.4828H189.596V44.6822H190.506V45.93C190.889 45.0082 191.597 44.5473 192.653 44.5473ZM192.811 44.6822H193.879L195.52 49.5497L197.116 44.6822H198.117L195.992 50.4828H194.969L192.811 44.6822ZM203.951 48.6504C203.659 49.9994 202.816 50.6739 201.422 50.6739C200.567 50.6739 199.893 50.4153 199.41 49.8757C198.926 49.3474 198.69 48.6055 198.69 47.6612C198.69 46.7281 198.937 45.975 199.432 45.3904C199.927 44.8059 200.579 44.5136 201.388 44.5136C202.276 44.5136 202.939 44.8171 203.367 45.4241C203.794 46.0312 204.019 46.7843 204.019 47.7061V47.841H199.657L199.646 47.9085C199.646 48.5268 199.803 49.0101 200.129 49.3586C200.444 49.7183 200.893 49.887 201.456 49.887C201.871 49.887 202.197 49.797 202.445 49.5947C202.692 49.4036 202.883 49.0888 203.018 48.6504H203.951ZM203.029 47.0654C202.984 46.5146 202.816 46.0874 202.523 45.7726C202.231 45.4579 201.838 45.3005 201.366 45.3005C200.893 45.3005 200.511 45.4579 200.208 45.7726C199.893 46.0874 199.713 46.5258 199.657 47.0654H203.029Z" fill="#959595"/>
</g>
<g filter="url(#filter1_dd_1805_7017)">
<rect x="16" y="86.601" width="326" height="73.7537" rx="8.02956" fill="#FAFAFB" shape-rendering="crispEdges"/>
<rect x="16.4015" y="87.0025" width="325.197" height="72.9507" rx="7.62808" stroke="#F5F5F6" stroke-width="0.802956" shape-rendering="crispEdges"/>
<path d="M37.4121 114.972H49.7241" stroke="#171717" stroke-width="1.60591" stroke-miterlimit="10" stroke-linecap="round" stroke-linejoin="round"/>
<path d="M41.6943 123.537H43.8356" stroke="#171717" stroke-width="1.60591" stroke-miterlimit="10" stroke-linecap="round" stroke-linejoin="round"/>
<path d="M46.5117 123.537H50.7941" stroke="#171717" stroke-width="1.60591" stroke-miterlimit="10" stroke-linecap="round" stroke-linejoin="round"/>
<path d="M58.8243 118.751V123.119C58.8243 126.877 57.8714 127.819 54.0708 127.819H42.1656C38.365 127.819 37.4121 126.877 37.4121 123.119V114.319C37.4121 110.561 38.365 109.619 42.1656 109.619H49.7241" stroke="#171717" stroke-width="1.60591" stroke-linecap="round" stroke-linejoin="round"/>
<path d="M52.9355 112.563H58.8239" stroke="#171717" stroke-width="1.60591" stroke-linecap="round"/>
<path d="M55.8799 115.507V109.619" stroke="#171717" stroke-width="1.60591" stroke-linecap="round"/>
<path d="M68.578 108.438H73.7972C74.9856 108.438 75.901 108.711 76.5433 109.225C77.1857 109.739 77.5069 110.445 77.5069 111.312C77.5069 111.858 77.3463 112.356 77.0572 112.79C76.7521 113.223 76.3506 113.529 75.8689 113.721C76.5273 113.882 77.0572 114.203 77.4427 114.685C77.8281 115.167 78.0208 115.777 78.0208 116.5C78.0208 117.511 77.6835 118.33 77.0091 118.94C76.3346 119.567 75.4674 119.872 74.4075 119.872H68.578V108.438ZM70.5372 110.06V113.207H73.2673C74.0381 113.207 74.6002 113.095 74.9696 112.854C75.3229 112.613 75.5156 112.212 75.5156 111.634C75.5156 110.991 75.3229 110.574 74.9374 110.365C74.552 110.172 74.0221 110.06 73.3315 110.06H70.5372ZM70.5372 114.653V118.234H73.5403C74.3111 118.234 74.9053 118.105 75.355 117.848C75.7886 117.592 76.0134 117.126 76.0134 116.451C76.0134 116.082 75.9331 115.777 75.8046 115.52C75.6762 115.263 75.4834 115.086 75.2265 114.958C74.9696 114.845 74.7126 114.765 74.4557 114.717C74.1827 114.685 73.8615 114.653 73.5082 114.653H70.5372ZM79.5801 114.139C79.7729 112.276 80.9773 111.328 83.2095 111.328C84.2373 111.328 85.0724 111.537 85.6826 111.939C86.2929 112.356 86.614 112.983 86.614 113.834V118.041C86.614 118.282 86.6301 118.443 86.6943 118.523C86.7586 118.619 86.871 118.651 87.0476 118.651C87.1761 118.651 87.3046 118.651 87.4652 118.619V119.904C86.9834 120.033 86.598 120.081 86.2768 120.081C85.4899 120.081 85.0402 119.76 84.9278 119.085C84.2212 119.76 83.2577 120.081 82.0211 120.081C81.1539 120.081 80.4795 119.872 79.9816 119.422C79.4677 118.973 79.2268 118.378 79.2268 117.608C79.2268 117.383 79.2429 117.158 79.3071 116.949C79.3553 116.756 79.4196 116.58 79.4838 116.419C79.548 116.275 79.6604 116.13 79.821 116.002C79.9816 115.873 80.1101 115.777 80.2065 115.68C80.3028 115.6 80.4795 115.52 80.7043 115.44C80.9291 115.375 81.1058 115.311 81.2182 115.279C81.3306 115.247 81.5233 115.199 81.8124 115.151C82.0854 115.118 82.262 115.086 82.3584 115.07C82.4547 115.054 82.6474 115.022 82.9365 114.99C83.5789 114.91 84.0285 114.845 84.2694 114.781C84.4942 114.717 84.6548 114.637 84.7512 114.508C84.8154 114.428 84.8636 114.235 84.8636 113.914C84.8636 113.079 84.2855 112.661 83.1613 112.661C82.5511 112.661 82.1175 112.774 81.8445 112.999C81.5554 113.223 81.3788 113.609 81.3145 114.139H79.5801ZM84.8475 115.713C84.703 115.793 84.5424 115.857 84.3658 115.921C84.1731 115.986 84.0285 116.018 83.9161 116.034C83.8037 116.05 83.627 116.066 83.3862 116.098C83.1453 116.13 82.9847 116.162 82.9204 116.162C82.6956 116.194 82.519 116.227 82.3905 116.259C82.262 116.291 82.1014 116.323 81.9087 116.387C81.716 116.451 81.5715 116.532 81.4751 116.628C81.3788 116.724 81.2824 116.837 81.2182 116.997C81.1379 117.158 81.1058 117.335 81.1058 117.543C81.1058 117.945 81.2342 118.25 81.4912 118.459C81.7481 118.684 82.1175 118.78 82.5993 118.78C83.4022 118.78 84.0285 118.571 84.4782 118.121C84.7191 117.881 84.8475 117.399 84.8475 116.692V115.713ZM90.3344 111.585V112.806C90.9928 111.842 91.9082 111.361 93.0805 111.361C94.0119 111.361 94.7185 111.618 95.1842 112.131C95.6499 112.645 95.8908 113.384 95.8908 114.348V119.872H94.0601V115.054C94.0601 114.733 94.044 114.46 94.0119 114.235C93.9798 114.01 93.8995 113.786 93.8031 113.561C93.7068 113.336 93.5462 113.175 93.3214 113.063C93.0965 112.95 92.8075 112.886 92.4542 112.886C91.1052 112.886 90.4307 113.737 90.4307 115.407V119.872H88.6V111.585H90.3344ZM105.16 111.585L101.981 114.621L105.449 119.872H103.217L100.696 115.873L99.604 116.901V119.872H97.8214V108.438H99.604V114.878L102.912 111.585H105.16ZM114.947 111.585V112.918H113.277V117.286C113.277 117.543 113.277 117.736 113.293 117.832C113.293 117.929 113.325 118.041 113.39 118.17C113.438 118.298 113.534 118.378 113.663 118.411C113.791 118.459 113.984 118.475 114.225 118.475C114.514 118.475 114.755 118.475 114.947 118.443V119.888C114.578 119.936 114.16 119.952 113.711 119.952C113.39 119.952 113.101 119.936 112.86 119.888C112.619 119.84 112.426 119.776 112.265 119.711C112.105 119.647 111.96 119.551 111.864 119.39C111.752 119.23 111.671 119.101 111.607 119.005C111.543 118.908 111.511 118.716 111.479 118.459C111.446 118.202 111.446 118.009 111.446 117.881V117.174V117.078V116.981V116.869V112.918H110.065V111.585H111.446V109.096H113.277V111.585H114.947ZM120.938 111.425V113.175C120.616 113.143 120.392 113.127 120.295 113.127C118.689 113.127 117.902 114.171 117.902 116.227V119.872H116.088V111.585H117.806V113.24C118.384 112.019 119.316 111.393 120.584 111.393L120.938 111.425ZM121.814 114.139C122.006 112.276 123.211 111.328 125.443 111.328C126.471 111.328 127.306 111.537 127.916 111.939C128.526 112.356 128.848 112.983 128.848 113.834V118.041C128.848 118.282 128.864 118.443 128.928 118.523C128.992 118.619 129.105 118.651 129.281 118.651C129.41 118.651 129.538 118.651 129.699 118.619V119.904C129.217 120.033 128.832 120.081 128.51 120.081C127.723 120.081 127.274 119.76 127.161 119.085C126.455 119.76 125.491 120.081 124.255 120.081C123.388 120.081 122.713 119.872 122.215 119.422C121.701 118.973 121.46 118.378 121.46 117.608C121.46 117.383 121.476 117.158 121.541 116.949C121.589 116.756 121.653 116.58 121.717 116.419C121.782 116.275 121.894 116.13 122.055 116.002C122.215 115.873 122.344 115.777 122.44 115.68C122.536 115.6 122.713 115.52 122.938 115.44C123.163 115.375 123.339 115.311 123.452 115.279C123.564 115.247 123.757 115.199 124.046 115.151C124.319 115.118 124.496 115.086 124.592 115.07C124.688 115.054 124.881 115.022 125.17 114.99C125.812 114.91 126.262 114.845 126.503 114.781C126.728 114.717 126.888 114.637 126.985 114.508C127.049 114.428 127.097 114.235 127.097 113.914C127.097 113.079 126.519 112.661 125.395 112.661C124.785 112.661 124.351 112.774 124.078 112.999C123.789 113.223 123.612 113.609 123.548 114.139H121.814ZM127.081 115.713C126.937 115.793 126.776 115.857 126.599 115.921C126.407 115.986 126.262 116.018 126.15 116.034C126.037 116.05 125.861 116.066 125.62 116.098C125.379 116.13 125.218 116.162 125.154 116.162C124.929 116.194 124.753 116.227 124.624 116.259C124.496 116.291 124.335 116.323 124.142 116.387C123.95 116.451 123.805 116.532 123.709 116.628C123.612 116.724 123.516 116.837 123.452 116.997C123.371 117.158 123.339 117.335 123.339 117.543C123.339 117.945 123.468 118.25 123.725 118.459C123.982 118.684 124.351 118.78 124.833 118.78C125.636 118.78 126.262 118.571 126.712 118.121C126.953 117.881 127.081 117.399 127.081 116.692V115.713ZM132.568 111.585V112.806C133.226 111.842 134.142 111.361 135.314 111.361C136.245 111.361 136.952 111.618 137.418 112.131C137.884 112.645 138.124 113.384 138.124 114.348V119.872H136.294V115.054C136.294 114.733 136.278 114.46 136.245 114.235C136.213 114.01 136.133 113.786 136.037 113.561C135.94 113.336 135.78 113.175 135.555 113.063C135.33 112.95 135.041 112.886 134.688 112.886C133.339 112.886 132.664 113.737 132.664 115.407V119.872H130.834V111.585H132.568ZM146.607 113.994H144.857C144.744 113.127 144.15 112.677 143.058 112.677C142.576 112.677 142.223 112.774 141.966 112.934C141.709 113.111 141.581 113.352 141.581 113.641C141.581 113.737 141.581 113.834 141.597 113.898C141.613 113.978 141.645 114.042 141.693 114.107C141.741 114.171 141.789 114.219 141.822 114.251C141.854 114.299 141.934 114.348 142.03 114.38C142.127 114.428 142.191 114.46 142.255 114.492C142.319 114.524 142.416 114.556 142.56 114.588C142.689 114.621 142.801 114.653 142.881 114.669C142.962 114.701 143.09 114.733 143.283 114.765C143.46 114.797 143.604 114.829 143.7 114.845C144.118 114.942 144.407 115.022 144.6 115.07C144.792 115.118 145.065 115.215 145.419 115.359C145.772 115.504 146.045 115.648 146.222 115.809C146.382 115.97 146.543 116.178 146.687 116.451C146.832 116.724 146.912 117.029 146.912 117.383C146.912 118.218 146.575 118.892 145.933 119.374C145.274 119.872 144.391 120.113 143.299 120.113C142.111 120.113 141.211 119.872 140.585 119.374C139.943 118.892 139.605 118.17 139.573 117.222H141.324C141.42 118.266 142.078 118.78 143.331 118.78C143.861 118.78 144.295 118.684 144.616 118.459C144.937 118.234 145.114 117.945 145.114 117.575C145.114 117.399 145.065 117.238 144.985 117.11C144.905 116.981 144.776 116.885 144.6 116.789C144.407 116.692 144.23 116.628 144.07 116.58C143.909 116.532 143.684 116.467 143.411 116.403L143.315 116.387C143.283 116.387 143.267 116.371 143.235 116.371C143.203 116.371 143.17 116.355 143.138 116.339C141.95 116.05 141.211 115.825 140.89 115.664C140.119 115.311 139.75 114.701 139.75 113.85C139.75 113.079 140.039 112.469 140.649 112.019C141.243 111.569 142.078 111.345 143.138 111.345C144.15 111.345 144.985 111.569 145.628 112.003C146.27 112.453 146.607 113.111 146.607 113.994ZM152.478 108.422V109.835C152.124 109.803 151.851 109.787 151.675 109.787C151.289 109.787 151.048 109.867 150.92 109.996C150.791 110.124 150.727 110.397 150.727 110.782V111.585H152.301V112.918H150.743V119.872H148.929V112.918H147.564V111.585H148.929V110.927C148.929 110.06 149.105 109.417 149.491 109C149.86 108.582 150.486 108.374 151.386 108.374C151.739 108.374 152.108 108.39 152.478 108.422ZM160.851 117.286C160.643 118.186 160.193 118.892 159.518 119.39C158.844 119.904 158.025 120.145 157.093 120.145C155.841 120.145 154.845 119.743 154.106 118.94C153.368 118.138 153.014 117.094 153.014 115.825C153.014 114.54 153.384 113.464 154.139 112.613C154.893 111.778 155.857 111.345 157.029 111.345C158.234 111.345 159.197 111.762 159.904 112.597C160.61 113.432 160.964 114.556 160.964 115.986V116.178H154.845C154.861 117.013 155.07 117.672 155.472 118.121C155.857 118.571 156.419 118.796 157.126 118.796C157.623 118.796 158.025 118.684 158.346 118.443C158.667 118.202 158.908 117.816 159.101 117.286H160.851ZM159.133 114.958C159.069 114.267 158.86 113.721 158.475 113.32C158.089 112.918 157.607 112.71 157.013 112.71C156.403 112.71 155.921 112.902 155.552 113.288C155.182 113.673 154.958 114.235 154.877 114.958H159.133ZM167.045 111.425V113.175C166.724 113.143 166.499 113.127 166.402 113.127C164.796 113.127 164.01 114.171 164.01 116.227V119.872H162.195V111.585H163.913V113.24C164.491 112.019 165.423 111.393 166.691 111.393L167.045 111.425Z" fill="black"/>
<path d="M68.2777 129.08H70.8745C72.2347 129.08 73.2352 129.395 73.8759 130.024C74.5279 130.654 74.8427 131.654 74.8427 133.014C74.8427 134.363 74.5504 135.375 73.9434 136.061C73.3476 136.747 72.3921 137.084 71.0768 137.084H68.2777V129.08ZM69.3232 129.99L69.3344 136.184H70.9419C71.9424 136.184 72.6731 135.937 73.1228 135.443C73.5724 134.948 73.7972 134.183 73.7972 133.138C73.7972 132.048 73.5836 131.249 73.134 130.744C72.6956 130.249 71.9424 129.99 70.8857 129.99H69.3232ZM77.0359 129.08V130.249H76.0691V129.08H77.0359ZM77.0359 131.283V137.084H76.0691V131.283H77.0359ZM81.5401 131.148L81.5288 132.149C81.4614 132.138 81.3827 132.138 81.2815 132.138C80.978 132.138 80.7082 132.183 80.4834 132.272C80.2586 132.362 80.0899 132.486 79.9551 132.632C79.8202 132.79 79.719 132.969 79.6291 133.194C79.5504 133.419 79.4942 133.644 79.4717 133.869C79.4492 134.094 79.4379 134.352 79.4379 134.633V137.084H78.4824V131.283H79.393V132.531C79.7752 131.609 80.4834 131.148 81.5401 131.148ZM87.0195 135.251C86.7272 136.6 85.8841 137.275 84.4902 137.275C83.6358 137.275 82.9613 137.016 82.478 136.477C81.9946 135.948 81.7585 135.206 81.7585 134.262C81.7585 133.329 82.0058 132.576 82.5004 131.991C82.9951 131.407 83.6471 131.115 84.4564 131.115C85.3445 131.115 86.0077 131.418 86.4349 132.025C86.8621 132.632 87.0869 133.385 87.0869 134.307V134.442H82.7253L82.714 134.509C82.714 135.128 82.8714 135.611 83.1974 135.96C83.5122 136.319 83.9618 136.488 84.5239 136.488C84.9398 136.488 85.2658 136.398 85.5131 136.196C85.7604 136.005 85.9515 135.69 86.0864 135.251H87.0195ZM86.0977 133.666C86.0527 133.116 85.8841 132.688 85.5918 132.374C85.2995 132.059 84.9061 131.901 84.434 131.901C83.9618 131.901 83.5796 132.059 83.2761 132.374C82.9613 132.688 82.7815 133.127 82.7253 133.666H86.0977ZM93.091 134.97C93.0011 135.667 92.7426 136.229 92.2929 136.634C91.8433 137.05 91.2699 137.252 90.5505 137.252C89.6737 137.252 88.9992 136.983 88.5158 136.443C88.0437 135.903 87.7964 135.173 87.7964 134.262C87.7964 133.295 88.0549 132.531 88.5495 131.969C89.0554 131.407 89.7299 131.115 90.5842 131.115C91.3037 131.115 91.8657 131.294 92.2929 131.654C92.7201 132.014 92.9786 132.52 93.0461 133.183H92.0568C91.8882 132.34 91.4048 131.924 90.6067 131.924C90.0446 131.924 89.6062 132.126 89.2915 132.531C88.9655 132.936 88.8081 133.498 88.8081 134.195C88.8081 134.892 88.9542 135.454 89.269 135.858C89.5725 136.263 89.9997 136.465 90.5393 136.465C90.9664 136.465 91.3261 136.331 91.5959 136.083C91.8657 135.825 92.0456 135.454 92.1243 134.97H93.091ZM96.6221 131.283V132.07H95.4642V135.454C95.4642 135.645 95.4642 135.769 95.4642 135.825C95.4642 135.892 95.4867 135.971 95.5317 136.072C95.5654 136.173 95.6328 136.241 95.7228 136.263C95.8127 136.297 95.9363 136.308 96.105 136.308C96.2399 136.308 96.4197 136.297 96.6221 136.274V137.095C96.3523 137.129 96.105 137.14 95.8914 137.14C95.6216 137.14 95.3968 137.117 95.2169 137.05C95.037 136.994 94.8909 136.926 94.801 136.848C94.711 136.78 94.6436 136.645 94.5986 136.454C94.5537 136.263 94.5199 136.106 94.5199 135.971C94.5087 135.836 94.5087 135.622 94.5087 135.308V135.263V135.206V135.15V132.07H93.5307V131.283H94.5087V129.563H95.4642V131.283H96.6221ZM101.757 129.08V132.081C102.172 131.452 102.813 131.126 103.679 131.126C104.466 131.126 105.106 131.407 105.579 131.958C106.051 132.509 106.298 133.239 106.298 134.161C106.298 135.105 106.051 135.847 105.567 136.409C105.073 136.971 104.432 137.252 103.623 137.252C102.701 137.252 102.06 136.915 101.7 136.241V137.084H100.801V129.08H101.757ZM103.533 131.935C102.914 131.935 102.454 132.16 102.161 132.598C101.869 133.048 101.723 133.588 101.723 134.228C101.723 134.914 101.88 135.454 102.206 135.858C102.532 136.263 102.971 136.454 103.533 136.454C104.061 136.454 104.488 136.252 104.814 135.836C105.14 135.42 105.309 134.869 105.309 134.172C105.309 133.498 105.14 132.947 104.825 132.542C104.499 132.138 104.072 131.935 103.533 131.935ZM112.613 136.319V137.073C112.411 137.14 112.197 137.185 111.961 137.185C111.41 137.185 111.129 136.893 111.118 136.331C110.567 136.938 109.87 137.252 109.016 137.252C108.443 137.252 107.993 137.106 107.656 136.814C107.319 136.522 107.161 136.117 107.161 135.611C107.161 134.577 107.847 133.97 109.218 133.801C109.308 133.779 109.432 133.768 109.612 133.756C110.264 133.678 110.657 133.588 110.815 133.498C110.983 133.374 111.073 133.172 111.073 132.879C111.073 132.239 110.635 131.924 109.758 131.924C109.308 131.924 108.96 132.014 108.735 132.194C108.499 132.374 108.364 132.677 108.319 133.104H107.386C107.397 132.475 107.622 131.991 108.049 131.654C108.476 131.306 109.061 131.137 109.814 131.137C110.623 131.137 111.231 131.317 111.635 131.699C111.759 131.812 111.849 131.969 111.916 132.171C111.972 132.362 112.006 132.52 112.017 132.643C112.017 132.767 112.029 132.958 112.029 133.205C112.029 133.487 112.017 133.914 112.006 134.487C111.984 135.072 111.984 135.499 111.984 135.78C111.984 135.993 112.006 136.139 112.062 136.229C112.119 136.319 112.22 136.353 112.377 136.353C112.433 136.353 112.512 136.342 112.613 136.319ZM111.073 134.082C111.006 134.127 110.927 134.172 110.86 134.217C110.781 134.251 110.68 134.285 110.567 134.307C110.455 134.33 110.376 134.341 110.331 134.352C110.286 134.363 110.196 134.375 110.039 134.397C109.882 134.42 109.792 134.431 109.792 134.431C109.556 134.453 109.398 134.476 109.331 134.487C109.263 134.498 109.128 134.532 108.926 134.588C108.724 134.633 108.589 134.701 108.51 134.768C108.42 134.835 108.341 134.925 108.263 135.06C108.184 135.195 108.15 135.353 108.15 135.532C108.15 135.825 108.252 136.061 108.454 136.241C108.656 136.409 108.949 136.499 109.308 136.499C109.758 136.499 110.174 136.364 110.534 136.095C110.893 135.825 111.073 135.499 111.073 135.139V134.082ZM114.413 131.283V132.183C114.885 131.486 115.548 131.126 116.392 131.126C117.066 131.126 117.561 131.306 117.864 131.665C118.168 132.025 118.325 132.542 118.325 133.228V137.084H117.37V133.666C117.37 133.385 117.358 133.161 117.336 133.003C117.313 132.846 117.268 132.666 117.201 132.486C117.122 132.306 116.999 132.171 116.819 132.081C116.639 132.003 116.403 131.958 116.122 131.958C115.02 131.958 114.469 132.655 114.469 134.049V137.084H113.514V131.283H114.413ZM124.639 131.283L122.334 133.385L124.808 137.084H123.593L121.604 134.049L120.693 134.892V137.084H119.76V129.08H120.693V133.813L123.357 131.283H124.639ZM131.202 131.283V132.07H130.045V135.454C130.045 135.645 130.045 135.769 130.045 135.825C130.045 135.892 130.067 135.971 130.112 136.072C130.146 136.173 130.213 136.241 130.303 136.263C130.393 136.297 130.517 136.308 130.685 136.308C130.82 136.308 131 136.297 131.202 136.274V137.095C130.933 137.129 130.685 137.14 130.472 137.14C130.202 137.14 129.977 137.117 129.797 137.05C129.617 136.994 129.471 136.926 129.381 136.848C129.291 136.78 129.224 136.645 129.179 136.454C129.134 136.263 129.1 136.106 129.1 135.971C129.089 135.836 129.089 135.622 129.089 135.308V135.263V135.206V135.15V132.07H128.111V131.283H129.089V129.563H130.045V131.283H131.202ZM135.288 131.148L135.277 132.149C135.209 132.138 135.131 132.138 135.029 132.138C134.726 132.138 134.456 132.183 134.231 132.272C134.006 132.362 133.838 132.486 133.703 132.632C133.568 132.79 133.467 132.969 133.377 133.194C133.298 133.419 133.242 133.644 133.22 133.869C133.197 134.094 133.186 134.352 133.186 134.633V137.084H132.23V131.283H133.141V132.531C133.523 131.609 134.231 131.148 135.288 131.148ZM141.145 136.319V137.073C140.942 137.14 140.729 137.185 140.493 137.185C139.942 137.185 139.661 136.893 139.65 136.331C139.099 136.938 138.402 137.252 137.548 137.252C136.974 137.252 136.525 137.106 136.187 136.814C135.85 136.522 135.693 136.117 135.693 135.611C135.693 134.577 136.378 133.97 137.75 133.801C137.84 133.779 137.963 133.768 138.143 133.756C138.795 133.678 139.189 133.588 139.346 133.498C139.515 133.374 139.605 133.172 139.605 132.879C139.605 132.239 139.166 131.924 138.289 131.924C137.84 131.924 137.491 132.014 137.267 132.194C137.03 132.374 136.896 132.677 136.851 133.104H135.918C135.929 132.475 136.154 131.991 136.581 131.654C137.008 131.306 137.593 131.137 138.346 131.137C139.155 131.137 139.762 131.317 140.167 131.699C140.29 131.812 140.38 131.969 140.448 132.171C140.504 132.362 140.538 132.52 140.549 132.643C140.549 132.767 140.56 132.958 140.56 133.205C140.56 133.487 140.549 133.914 140.538 134.487C140.515 135.072 140.515 135.499 140.515 135.78C140.515 135.993 140.538 136.139 140.594 136.229C140.65 136.319 140.751 136.353 140.909 136.353C140.965 136.353 141.044 136.342 141.145 136.319ZM139.605 134.082C139.537 134.127 139.459 134.172 139.391 134.217C139.312 134.251 139.211 134.285 139.099 134.307C138.986 134.33 138.908 134.341 138.863 134.352C138.818 134.363 138.728 134.375 138.571 134.397C138.413 134.42 138.323 134.431 138.323 134.431C138.087 134.453 137.93 134.476 137.862 134.487C137.795 134.498 137.66 134.532 137.458 134.588C137.255 134.633 137.12 134.701 137.042 134.768C136.952 134.835 136.873 134.925 136.794 135.06C136.716 135.195 136.682 135.353 136.682 135.532C136.682 135.825 136.783 136.061 136.985 136.241C137.188 136.409 137.48 136.499 137.84 136.499C138.289 136.499 138.705 136.364 139.065 136.095C139.425 135.825 139.605 135.499 139.605 135.139V134.082ZM142.945 131.283V132.183C143.417 131.486 144.08 131.126 144.923 131.126C145.598 131.126 146.092 131.306 146.396 131.665C146.699 132.025 146.857 132.542 146.857 133.228V137.084H145.901V133.666C145.901 133.385 145.89 133.161 145.867 133.003C145.845 132.846 145.8 132.666 145.732 132.486C145.654 132.306 145.53 132.171 145.35 132.081C145.17 132.003 144.934 131.958 144.653 131.958C143.552 131.958 143.001 132.655 143.001 134.049V137.084H142.045V131.283H142.945ZM152.597 132.969H151.642C151.574 132.272 151.102 131.913 150.225 131.913C149.854 131.913 149.562 131.991 149.36 132.126C149.146 132.272 149.045 132.464 149.045 132.7C149.045 132.767 149.045 132.835 149.067 132.902C149.079 132.969 149.101 133.026 149.146 133.071C149.191 133.116 149.225 133.161 149.259 133.194C149.292 133.239 149.348 133.273 149.427 133.307C149.506 133.34 149.562 133.363 149.607 133.385C149.652 133.408 149.719 133.442 149.832 133.464C149.944 133.487 150.023 133.509 150.068 133.52C150.113 133.531 150.192 133.554 150.326 133.576C150.461 133.61 150.54 133.633 150.585 133.633C150.855 133.7 151.068 133.745 151.203 133.779C151.338 133.824 151.529 133.891 151.777 133.992C152.024 134.094 152.204 134.195 152.339 134.307C152.462 134.42 152.575 134.566 152.676 134.757C152.777 134.948 152.833 135.161 152.833 135.398C152.833 135.96 152.608 136.421 152.17 136.758C151.732 137.095 151.147 137.264 150.428 137.264C149.641 137.264 149.034 137.095 148.607 136.747C148.179 136.409 147.955 135.903 147.932 135.251H148.876C148.921 136.072 149.45 136.477 150.45 136.477C150.877 136.477 151.215 136.398 151.473 136.218C151.732 136.038 151.867 135.802 151.867 135.51C151.867 135.319 151.799 135.161 151.664 135.027C151.529 134.903 151.372 134.813 151.215 134.757C151.046 134.701 150.81 134.633 150.506 134.554C150.461 134.554 150.428 134.543 150.405 134.532C150.338 134.521 150.192 134.487 149.967 134.442C149.742 134.397 149.585 134.352 149.495 134.318C149.393 134.296 149.247 134.251 149.067 134.183C148.888 134.116 148.753 134.049 148.663 133.981C148.573 133.914 148.472 133.824 148.359 133.711C148.247 133.599 148.179 133.475 148.134 133.329C148.089 133.183 148.067 133.014 148.067 132.823C148.067 132.306 148.258 131.89 148.663 131.575C149.067 131.272 149.607 131.115 150.281 131.115C150.956 131.115 151.518 131.283 151.945 131.598C152.372 131.924 152.597 132.385 152.597 132.969ZM156.532 129.057V129.889C156.363 129.867 156.183 129.844 156.003 129.844C155.7 129.844 155.497 129.901 155.408 129.99C155.318 130.092 155.273 130.305 155.273 130.62V131.283H156.386V132.07H155.273V137.084H154.306V132.07H153.328V131.283H154.306V130.508C154.306 129.99 154.441 129.608 154.711 129.372C154.98 129.136 155.374 129.012 155.913 129.012C156.071 129.012 156.284 129.035 156.532 129.057ZM162.196 135.251C161.904 136.6 161.061 137.275 159.667 137.275C158.813 137.275 158.138 137.016 157.655 136.477C157.171 135.948 156.935 135.206 156.935 134.262C156.935 133.329 157.183 132.576 157.677 131.991C158.172 131.407 158.824 131.115 159.633 131.115C160.521 131.115 161.184 131.418 161.612 132.025C162.039 132.632 162.264 133.385 162.264 134.307V134.442H157.902L157.891 134.509C157.891 135.128 158.048 135.611 158.374 135.96C158.689 136.319 159.139 136.488 159.701 136.488C160.117 136.488 160.443 136.398 160.69 136.196C160.937 136.005 161.128 135.69 161.263 135.251H162.196ZM161.274 133.666C161.229 133.116 161.061 132.688 160.769 132.374C160.476 132.059 160.083 131.901 159.611 131.901C159.139 131.901 158.756 132.059 158.453 132.374C158.138 132.688 157.958 133.127 157.902 133.666H161.274ZM166.301 131.148L166.289 132.149C166.222 132.138 166.143 132.138 166.042 132.138C165.738 132.138 165.469 132.183 165.244 132.272C165.019 132.362 164.85 132.486 164.715 132.632C164.581 132.79 164.479 132.969 164.389 133.194C164.311 133.419 164.255 133.644 164.232 133.869C164.21 134.094 164.198 134.352 164.198 134.633V137.084H163.243V131.283H164.153V132.531C164.536 131.609 165.244 131.148 166.301 131.148Z" fill="#959595"/>
</g>
<g filter="url(#filter2_dd_1805_7017)">
<rect x="16" y="173.202" width="326" height="73.7537" rx="8.02956" fill="#FAFAFB" shape-rendering="crispEdges"/>
<rect x="16.4015" y="173.603" width="325.197" height="72.9507" rx="7.62808" stroke="#F5F5F6" stroke-width="0.802956" shape-rendering="crispEdges"/>
<path d="M37.4121 201.573H49.7241" stroke="#171717" stroke-width="1.60591" stroke-miterlimit="10" stroke-linecap="round" stroke-linejoin="round"/>
<path d="M41.6943 210.138H43.8356" stroke="#171717" stroke-width="1.60591" stroke-miterlimit="10" stroke-linecap="round" stroke-linejoin="round"/>
<path d="M46.5117 210.138H50.7941" stroke="#171717" stroke-width="1.60591" stroke-miterlimit="10" stroke-linecap="round" stroke-linejoin="round"/>
<path d="M58.8243 205.352V209.72C58.8243 213.478 57.8714 214.42 54.0708 214.42H42.1656C38.365 214.42 37.4121 213.478 37.4121 209.72V200.92C37.4121 197.162 38.365 196.22 42.1656 196.22H49.7241" stroke="#171717" stroke-width="1.60591" stroke-linecap="round" stroke-linejoin="round"/>
<path d="M52.9355 199.164H58.8239" stroke="#171717" stroke-width="1.60591" stroke-linecap="round"/>
<path d="M55.8799 202.108V196.22" stroke="#171717" stroke-width="1.60591" stroke-linecap="round"/>
<path d="M73.5242 194.766C75.1301 194.766 76.447 195.328 77.4587 196.436C78.4704 197.544 78.9843 198.989 78.9843 200.756C78.9843 202.538 78.4704 203.984 77.4587 205.092C76.4309 206.2 75.1141 206.746 73.4921 206.746C71.8541 206.746 70.5212 206.2 69.5095 205.092C68.4977 204 67.9999 202.554 67.9999 200.756C67.9999 199.021 68.4817 197.592 69.4773 196.468C70.473 195.344 71.822 194.766 73.5242 194.766ZM73.4921 196.452C72.4322 196.452 71.5971 196.853 70.9708 197.624C70.3285 198.395 70.0233 199.439 70.0233 200.724C70.0233 202.057 70.3285 203.117 70.9548 203.887C71.5811 204.674 72.4322 205.06 73.5242 205.06C74.552 205.06 75.3871 204.674 76.0134 203.887C76.6397 203.1 76.9609 202.057 76.9609 200.74C76.9609 199.439 76.6397 198.395 76.0134 197.624C75.3871 196.853 74.552 196.452 73.4921 196.452ZM80.4741 200.74C80.6668 198.877 81.8712 197.929 84.1034 197.929C85.1312 197.929 85.9663 198.138 86.5765 198.54C87.1868 198.957 87.508 199.584 87.508 200.435V204.642C87.508 204.883 87.524 205.044 87.5883 205.124C87.6525 205.22 87.7649 205.252 87.9416 205.252C88.07 205.252 88.1985 205.252 88.3591 205.22V206.505C87.8773 206.633 87.4919 206.682 87.1707 206.682C86.3838 206.682 85.9342 206.36 85.8217 205.686C85.1151 206.36 84.1516 206.682 82.915 206.682C82.0479 206.682 81.3734 206.473 80.8755 206.023C80.3616 205.574 80.1208 204.979 80.1208 204.209C80.1208 203.984 80.1368 203.759 80.2011 203.55C80.2492 203.357 80.3135 203.181 80.3777 203.02C80.4419 202.876 80.5544 202.731 80.7149 202.603C80.8755 202.474 81.004 202.378 81.1004 202.281C81.1967 202.201 81.3734 202.121 81.5982 202.041C81.823 201.976 81.9997 201.912 82.1121 201.88C82.2245 201.848 82.4172 201.8 82.7063 201.752C82.9793 201.719 83.1559 201.687 83.2523 201.671C83.3486 201.655 83.5414 201.623 83.8304 201.591C84.4728 201.511 84.9224 201.446 85.1633 201.382C85.3882 201.318 85.5487 201.238 85.6451 201.109C85.7093 201.029 85.7575 200.836 85.7575 200.515C85.7575 199.68 85.1794 199.262 84.0552 199.262C83.445 199.262 83.0114 199.375 82.7384 199.6C82.4493 199.824 82.2727 200.21 82.2084 200.74H80.4741ZM85.7415 202.314C85.5969 202.394 85.4363 202.458 85.2597 202.522C85.067 202.587 84.9224 202.619 84.81 202.635C84.6976 202.651 84.521 202.667 84.2801 202.699C84.0392 202.731 83.8786 202.763 83.8144 202.763C83.5895 202.795 83.4129 202.827 83.2844 202.86C83.1559 202.892 82.9953 202.924 82.8026 202.988C82.6099 203.052 82.4654 203.133 82.369 203.229C82.2727 203.325 82.1763 203.438 82.1121 203.598C82.0318 203.759 81.9997 203.936 81.9997 204.144C81.9997 204.546 82.1282 204.851 82.3851 205.06C82.642 205.285 83.0114 205.381 83.4932 205.381C84.2961 205.381 84.9224 205.172 85.3721 204.722C85.613 204.482 85.7415 204 85.7415 203.293V202.314ZM96.046 200.595H94.2956C94.1832 199.728 93.589 199.278 92.4969 199.278C92.0152 199.278 91.6619 199.375 91.4049 199.535C91.148 199.712 91.0195 199.953 91.0195 200.242C91.0195 200.338 91.0195 200.435 91.0356 200.499C91.0516 200.579 91.0837 200.643 91.1319 200.708C91.1801 200.772 91.2283 200.82 91.2604 200.852C91.2925 200.9 91.3728 200.949 91.4692 200.981C91.5655 201.029 91.6298 201.061 91.694 201.093C91.7582 201.125 91.8546 201.157 91.9991 201.189C92.1276 201.222 92.24 201.254 92.3203 201.27C92.4006 201.302 92.5291 201.334 92.7218 201.366C92.8984 201.398 93.043 201.43 93.1393 201.446C93.5568 201.543 93.8459 201.623 94.0386 201.671C94.2313 201.719 94.5043 201.816 94.8576 201.96C95.2109 202.105 95.4839 202.249 95.6606 202.41C95.8212 202.571 95.9818 202.779 96.1263 203.052C96.2708 203.325 96.3511 203.63 96.3511 203.984C96.3511 204.819 96.0139 205.493 95.3715 205.975C94.7131 206.473 93.8299 206.714 92.7378 206.714C91.5495 206.714 90.6501 206.473 90.0238 205.975C89.3815 205.493 89.0442 204.771 89.0121 203.823H90.7626C90.8589 204.867 91.5173 205.381 92.7699 205.381C93.2999 205.381 93.7335 205.285 94.0547 205.06C94.3759 204.835 94.5525 204.546 94.5525 204.176C94.5525 204 94.5043 203.839 94.424 203.711C94.3437 203.582 94.2153 203.486 94.0386 203.39C93.8459 203.293 93.6693 203.229 93.5087 203.181C93.3481 203.133 93.1232 203.068 92.8502 203.004L92.7539 202.988C92.7218 202.988 92.7057 202.972 92.6736 202.972C92.6415 202.972 92.6094 202.956 92.5772 202.94C91.3889 202.651 90.6501 202.426 90.329 202.265C89.5581 201.912 89.1888 201.302 89.1888 200.451C89.1888 199.68 89.4778 199.07 90.0881 198.62C90.6823 198.17 91.5173 197.946 92.5772 197.946C93.589 197.946 94.424 198.17 95.0664 198.604C95.7088 199.054 96.046 199.712 96.046 200.595ZM99.6843 194.991V196.789H97.8535V194.991H99.6843ZM99.6843 198.186V206.473H97.8535V198.186H99.6843ZM108.247 200.595H106.497C106.384 199.728 105.79 199.278 104.698 199.278C104.216 199.278 103.863 199.375 103.606 199.535C103.349 199.712 103.221 199.953 103.221 200.242C103.221 200.338 103.221 200.435 103.237 200.499C103.253 200.579 103.285 200.643 103.333 200.708C103.381 200.772 103.429 200.82 103.462 200.852C103.494 200.9 103.574 200.949 103.67 200.981C103.767 201.029 103.831 201.061 103.895 201.093C103.959 201.125 104.056 201.157 104.2 201.189C104.329 201.222 104.441 201.254 104.521 201.27C104.602 201.302 104.73 201.334 104.923 201.366C105.1 201.398 105.244 201.43 105.34 201.446C105.758 201.543 106.047 201.623 106.24 201.671C106.432 201.719 106.705 201.816 107.059 201.96C107.412 202.105 107.685 202.249 107.862 202.41C108.022 202.571 108.183 202.779 108.327 203.052C108.472 203.325 108.552 203.63 108.552 203.984C108.552 204.819 108.215 205.493 107.573 205.975C106.914 206.473 106.031 206.714 104.939 206.714C103.751 206.714 102.851 206.473 102.225 205.975C101.583 205.493 101.245 204.771 101.213 203.823H102.964C103.06 204.867 103.719 205.381 104.971 205.381C105.501 205.381 105.935 205.285 106.256 205.06C106.577 204.835 106.754 204.546 106.754 204.176C106.754 204 106.705 203.839 106.625 203.711C106.545 203.582 106.416 203.486 106.24 203.39C106.047 203.293 105.87 203.229 105.71 203.181C105.549 203.133 105.324 203.068 105.051 203.004L104.955 202.988C104.923 202.988 104.907 202.972 104.875 202.972C104.843 202.972 104.811 202.956 104.778 202.94C103.59 202.651 102.851 202.426 102.53 202.265C101.759 201.912 101.39 201.302 101.39 200.451C101.39 199.68 101.679 199.07 102.289 198.62C102.883 198.17 103.719 197.946 104.778 197.946C105.79 197.946 106.625 198.17 107.268 198.604C107.91 199.054 108.247 199.712 108.247 200.595ZM109.926 200.74C110.119 198.877 111.323 197.929 113.556 197.929C114.583 197.929 115.418 198.138 116.029 198.54C116.639 198.957 116.96 199.584 116.96 200.435V204.642C116.96 204.883 116.976 205.044 117.04 205.124C117.105 205.22 117.217 205.252 117.394 205.252C117.522 205.252 117.651 205.252 117.811 205.22V206.505C117.329 206.633 116.944 206.682 116.623 206.682C115.836 206.682 115.386 206.36 115.274 205.686C114.567 206.36 113.604 206.682 112.367 206.682C111.5 206.682 110.826 206.473 110.328 206.023C109.814 205.574 109.573 204.979 109.573 204.209C109.573 203.984 109.589 203.759 109.653 203.55C109.701 203.357 109.766 203.181 109.83 203.02C109.894 202.876 110.007 202.731 110.167 202.603C110.328 202.474 110.456 202.378 110.553 202.281C110.649 202.201 110.826 202.121 111.05 202.041C111.275 201.976 111.452 201.912 111.564 201.88C111.677 201.848 111.869 201.8 112.158 201.752C112.431 201.719 112.608 201.687 112.704 201.671C112.801 201.655 112.994 201.623 113.283 201.591C113.925 201.511 114.375 201.446 114.615 201.382C114.84 201.318 115.001 201.238 115.097 201.109C115.161 201.029 115.21 200.836 115.21 200.515C115.21 199.68 114.632 199.262 113.507 199.262C112.897 199.262 112.464 199.375 112.191 199.6C111.901 199.824 111.725 200.21 111.661 200.74H109.926ZM115.194 202.314C115.049 202.394 114.888 202.458 114.712 202.522C114.519 202.587 114.375 202.619 114.262 202.635C114.15 202.651 113.973 202.667 113.732 202.699C113.491 202.731 113.331 202.763 113.267 202.763C113.042 202.795 112.865 202.827 112.737 202.86C112.608 202.892 112.448 202.924 112.255 202.988C112.062 203.052 111.918 203.133 111.821 203.229C111.725 203.325 111.628 203.438 111.564 203.598C111.484 203.759 111.452 203.936 111.452 204.144C111.452 204.546 111.58 204.851 111.837 205.06C112.094 205.285 112.464 205.381 112.945 205.381C113.748 205.381 114.375 205.172 114.824 204.722C115.065 204.482 115.194 204 115.194 203.293V202.314ZM123.041 195.023V196.436C122.688 196.404 122.415 196.388 122.238 196.388C121.853 196.388 121.612 196.468 121.483 196.597C121.355 196.725 121.291 196.998 121.291 197.383V198.186H122.864V199.519H121.307V206.473H119.492V199.519H118.127V198.186H119.492V197.528C119.492 196.661 119.669 196.018 120.054 195.601C120.423 195.183 121.05 194.975 121.949 194.975C122.302 194.975 122.672 194.991 123.041 195.023ZM128.685 198.026V199.776C128.364 199.744 128.139 199.728 128.042 199.728C126.437 199.728 125.65 200.772 125.65 202.827V206.473H123.835V198.186H125.553V199.84C126.131 198.62 127.063 197.994 128.331 197.994L128.685 198.026ZM131.52 194.991V196.789H129.689V194.991H131.52ZM131.52 198.186V206.473H129.689V198.186H131.52ZM140.87 198.186L137.69 201.222L141.159 206.473H138.927L136.406 202.474L135.314 203.502V206.473H133.531V195.039H135.314V201.479L138.622 198.186H140.87ZM145.775 195.039H147.814L149.902 203.743L152.247 195.039H154.286L156.551 203.743L158.703 195.039H160.742L157.578 206.473H155.539L153.226 197.689L150.866 206.473H148.794L145.775 195.039ZM161.099 200.74C161.292 198.877 162.496 197.929 164.728 197.929C165.756 197.929 166.591 198.138 167.201 198.54C167.812 198.957 168.133 199.584 168.133 200.435V204.642C168.133 204.883 168.149 205.044 168.213 205.124C168.277 205.22 168.39 205.252 168.566 205.252C168.695 205.252 168.823 205.252 168.984 205.22V206.505C168.502 206.633 168.117 206.682 167.796 206.682C167.009 206.682 166.559 206.36 166.447 205.686C165.74 206.36 164.777 206.682 163.54 206.682C162.673 206.682 161.998 206.473 161.5 206.023C160.987 205.574 160.746 204.979 160.746 204.209C160.746 203.984 160.762 203.759 160.826 203.55C160.874 203.357 160.938 203.181 161.003 203.02C161.067 202.876 161.179 202.731 161.34 202.603C161.5 202.474 161.629 202.378 161.725 202.281C161.822 202.201 161.998 202.121 162.223 202.041C162.448 201.976 162.625 201.912 162.737 201.88C162.849 201.848 163.042 201.8 163.331 201.752C163.604 201.719 163.781 201.687 163.877 201.671C163.974 201.655 164.166 201.623 164.455 201.591C165.098 201.511 165.547 201.446 165.788 201.382C166.013 201.318 166.174 201.238 166.27 201.109C166.334 201.029 166.382 200.836 166.382 200.515C166.382 199.68 165.804 199.262 164.68 199.262C164.07 199.262 163.636 199.375 163.363 199.6C163.074 199.824 162.898 200.21 162.833 200.74H161.099ZM166.366 202.314C166.222 202.394 166.061 202.458 165.885 202.522C165.692 202.587 165.547 202.619 165.435 202.635C165.323 202.651 165.146 202.667 164.905 202.699C164.664 202.731 164.504 202.763 164.439 202.763C164.214 202.795 164.038 202.827 163.909 202.86C163.781 202.892 163.62 202.924 163.428 202.988C163.235 203.052 163.09 203.133 162.994 203.229C162.898 203.325 162.801 203.438 162.737 203.598C162.657 203.759 162.625 203.936 162.625 204.144C162.625 204.546 162.753 204.851 163.01 205.06C163.267 205.285 163.636 205.381 164.118 205.381C164.921 205.381 165.547 205.172 165.997 204.722C166.238 204.482 166.366 204 166.366 203.293V202.314ZM171.982 195.039V206.473H170.167V195.039H171.982ZM175.855 195.039V206.473H174.041V195.039H175.855ZM185.269 203.887C185.061 204.787 184.611 205.493 183.936 205.991C183.262 206.505 182.443 206.746 181.511 206.746C180.259 206.746 179.263 206.344 178.524 205.541C177.786 204.739 177.432 203.695 177.432 202.426C177.432 201.141 177.802 200.065 178.557 199.214C179.311 198.379 180.275 197.946 181.447 197.946C182.652 197.946 183.615 198.363 184.322 199.198C185.028 200.033 185.382 201.157 185.382 202.587V202.779H179.263C179.279 203.614 179.488 204.273 179.89 204.722C180.275 205.172 180.837 205.397 181.544 205.397C182.041 205.397 182.443 205.285 182.764 205.044C183.085 204.803 183.326 204.417 183.519 203.887H185.269ZM183.551 201.559C183.487 200.868 183.278 200.322 182.893 199.921C182.507 199.519 182.025 199.311 181.431 199.311C180.821 199.311 180.339 199.503 179.97 199.889C179.6 200.274 179.376 200.836 179.295 201.559H183.551ZM190.82 198.186V199.519H189.15V203.887C189.15 204.144 189.15 204.337 189.166 204.433C189.166 204.53 189.198 204.642 189.263 204.771C189.311 204.899 189.407 204.979 189.536 205.012C189.664 205.06 189.857 205.076 190.098 205.076C190.387 205.076 190.628 205.076 190.82 205.044V206.489C190.451 206.537 190.033 206.553 189.584 206.553C189.263 206.553 188.974 206.537 188.733 206.489C188.492 206.441 188.299 206.377 188.139 206.312C187.978 206.248 187.833 206.152 187.737 205.991C187.625 205.831 187.544 205.702 187.48 205.606C187.416 205.509 187.384 205.317 187.352 205.06C187.319 204.803 187.319 204.61 187.319 204.482V203.775V203.679V203.582V203.47V199.519H185.938V198.186H187.319V195.697H189.15V198.186H190.82Z" fill="black"/>
<path d="M73.5499 215.681V216.603H69.3456V219.098H73.0553V219.986H69.3456V223.685H68.289V215.681H73.5499ZM79.7014 222.92V223.673C79.4991 223.741 79.2855 223.786 79.0494 223.786C78.4986 223.786 78.2176 223.494 78.2063 222.932C77.6555 223.539 76.9585 223.853 76.1042 223.853C75.5309 223.853 75.0812 223.707 74.744 223.415C74.4067 223.123 74.2493 222.718 74.2493 222.212C74.2493 221.178 74.9351 220.571 76.3065 220.402C76.3965 220.38 76.5201 220.369 76.7 220.357C77.352 220.279 77.7454 220.189 77.9028 220.099C78.0714 219.975 78.1613 219.773 78.1613 219.48C78.1613 218.84 77.7229 218.525 76.8461 218.525C76.3965 218.525 76.048 218.615 75.8231 218.795C75.5871 218.975 75.4522 219.278 75.4072 219.705H74.4742C74.4854 219.076 74.7102 218.592 75.1374 218.255C75.5646 217.907 76.1491 217.738 76.9023 217.738C77.7117 217.738 78.3187 217.918 78.7234 218.3C78.8471 218.413 78.937 218.57 79.0045 218.772C79.0607 218.963 79.0944 219.121 79.1056 219.244C79.1056 219.368 79.1169 219.559 79.1169 219.806C79.1169 220.087 79.1056 220.515 79.0944 221.088C79.0719 221.673 79.0719 222.1 79.0719 222.381C79.0719 222.594 79.0944 222.74 79.1506 222.83C79.2068 222.92 79.308 222.954 79.4653 222.954C79.5216 222.954 79.6002 222.943 79.7014 222.92ZM78.1613 220.683C78.0939 220.728 78.0152 220.773 77.9478 220.818C77.8691 220.852 77.7679 220.886 77.6555 220.908C77.5431 220.931 77.4644 220.942 77.4194 220.953C77.3745 220.964 77.2845 220.976 77.1271 220.998C76.9698 221.021 76.8798 221.032 76.8798 221.032C76.6438 221.054 76.4864 221.077 76.4189 221.088C76.3515 221.099 76.2166 221.133 76.0142 221.189C75.8119 221.234 75.677 221.302 75.5983 221.369C75.5084 221.436 75.4297 221.526 75.351 221.661C75.2723 221.796 75.2386 221.954 75.2386 222.133C75.2386 222.426 75.3398 222.662 75.5421 222.842C75.7445 223.01 76.0367 223.1 76.3965 223.1C76.8461 223.1 77.262 222.965 77.6218 222.695C77.9815 222.426 78.1613 222.1 78.1613 221.74V220.683ZM84.9074 219.57H83.9519C83.8844 218.873 83.4123 218.514 82.5355 218.514C82.1645 218.514 81.8722 218.592 81.6699 218.727C81.4563 218.873 81.3551 219.065 81.3551 219.301C81.3551 219.368 81.3551 219.435 81.3776 219.503C81.3889 219.57 81.4113 219.627 81.4563 219.672C81.5013 219.717 81.535 219.761 81.5687 219.795C81.6024 219.84 81.6586 219.874 81.7373 219.908C81.816 219.941 81.8722 219.964 81.9172 219.986C81.9622 220.009 82.0296 220.043 82.142 220.065C82.2544 220.087 82.3331 220.11 82.3781 220.121C82.4231 220.132 82.5018 220.155 82.6366 220.177C82.7715 220.211 82.8502 220.234 82.8952 220.234C83.165 220.301 83.3786 220.346 83.5135 220.38C83.6484 220.425 83.8395 220.492 84.0868 220.593C84.3341 220.695 84.514 220.796 84.6489 220.908C84.7725 221.021 84.8849 221.167 84.9861 221.358C85.0873 221.549 85.1435 221.762 85.1435 221.999C85.1435 222.561 84.9186 223.021 84.4802 223.359C84.0418 223.696 83.4573 223.865 82.7378 223.865C81.9509 223.865 81.3439 223.696 80.9167 223.347C80.4895 223.01 80.2647 222.504 80.2422 221.852H81.1865C81.2315 222.673 81.7598 223.078 82.7603 223.078C83.1875 223.078 83.5247 222.999 83.7833 222.819C84.0418 222.639 84.1767 222.403 84.1767 222.111C84.1767 221.92 84.1093 221.762 83.9744 221.628C83.8395 221.504 83.6821 221.414 83.5247 221.358C83.3561 221.302 83.12 221.234 82.8165 221.155C82.7715 221.155 82.7378 221.144 82.7153 221.133C82.6479 221.122 82.5018 221.088 82.2769 221.043C82.0521 220.998 81.8947 220.953 81.8048 220.919C81.7036 220.897 81.5575 220.852 81.3776 220.784C81.1978 220.717 81.0629 220.65 80.9729 220.582C80.883 220.515 80.7818 220.425 80.6694 220.312C80.557 220.2 80.4895 220.076 80.4446 219.93C80.3996 219.784 80.3771 219.615 80.3771 219.424C80.3771 218.907 80.5682 218.491 80.9729 218.176C81.3776 217.873 81.9172 217.716 82.5917 217.716C83.2662 217.716 83.8282 217.884 84.2554 218.199C84.6826 218.525 84.9074 218.986 84.9074 219.57ZM88.707 217.884V218.671H87.5491V222.055C87.5491 222.246 87.5491 222.369 87.5491 222.426C87.5491 222.493 87.5716 222.572 87.6166 222.673C87.6503 222.774 87.7178 222.842 87.8077 222.864C87.8976 222.898 88.0213 222.909 88.1899 222.909C88.3248 222.909 88.5046 222.898 88.707 222.875V223.696C88.4372 223.73 88.1899 223.741 87.9763 223.741C87.7065 223.741 87.4817 223.718 87.3018 223.651C87.122 223.595 86.9758 223.527 86.8859 223.449C86.796 223.381 86.7285 223.246 86.6835 223.055C86.6386 222.864 86.6049 222.707 86.6049 222.572C86.5936 222.437 86.5936 222.223 86.5936 221.909V221.864V221.807V221.751V218.671H85.6156V217.884H86.5936V216.164H87.5491V217.884H88.707ZM98.0345 222.92V223.673C97.8322 223.741 97.6186 223.786 97.3825 223.786C96.8317 223.786 96.5507 223.494 96.5394 222.932C95.9886 223.539 95.2916 223.853 94.4373 223.853C93.864 223.853 93.4143 223.707 93.0771 223.415C92.7398 223.123 92.5825 222.718 92.5825 222.212C92.5825 221.178 93.2682 220.571 94.6396 220.402C94.7296 220.38 94.8532 220.369 95.0331 220.357C95.6851 220.279 96.0785 220.189 96.2359 220.099C96.4045 219.975 96.4945 219.773 96.4945 219.48C96.4945 218.84 96.056 218.525 95.1792 218.525C94.7296 218.525 94.3811 218.615 94.1563 218.795C93.9202 218.975 93.7853 219.278 93.7403 219.705H92.8073C92.8185 219.076 93.0434 218.592 93.4705 218.255C93.8977 217.907 94.4823 217.738 95.2354 217.738C96.0448 217.738 96.6518 217.918 97.0565 218.3C97.1802 218.413 97.2701 218.57 97.3376 218.772C97.3938 218.963 97.4275 219.121 97.4387 219.244C97.4387 219.368 97.45 219.559 97.45 219.806C97.45 220.087 97.4387 220.515 97.4275 221.088C97.405 221.673 97.405 222.1 97.405 222.381C97.405 222.594 97.4275 222.74 97.4837 222.83C97.5399 222.92 97.6411 222.954 97.7985 222.954C97.8547 222.954 97.9334 222.943 98.0345 222.92ZM96.4945 220.683C96.427 220.728 96.3483 220.773 96.2809 220.818C96.2022 220.852 96.101 220.886 95.9886 220.908C95.8762 220.931 95.7975 220.942 95.7525 220.953C95.7076 220.964 95.6176 220.976 95.4603 220.998C95.3029 221.021 95.2129 221.032 95.2129 221.032C94.9769 221.054 94.8195 221.077 94.752 221.088C94.6846 221.099 94.5497 221.133 94.3474 221.189C94.145 221.234 94.0101 221.302 93.9314 221.369C93.8415 221.436 93.7628 221.526 93.6841 221.661C93.6054 221.796 93.5717 221.954 93.5717 222.133C93.5717 222.426 93.6729 222.662 93.8752 222.842C94.0776 223.01 94.3698 223.1 94.7296 223.1C95.1792 223.1 95.5951 222.965 95.9549 222.695C96.3146 222.426 96.4945 222.1 96.4945 221.74V220.683ZM99.8344 217.884V218.783C100.307 218.087 100.97 217.727 101.813 217.727C102.487 217.727 102.982 217.907 103.285 218.266C103.589 218.626 103.746 219.143 103.746 219.829V223.685H102.791V220.267C102.791 219.986 102.78 219.761 102.757 219.604C102.735 219.447 102.69 219.267 102.622 219.087C102.544 218.907 102.42 218.772 102.24 218.682C102.06 218.604 101.824 218.559 101.543 218.559C100.441 218.559 99.8906 219.256 99.8906 220.65V223.685H98.9351V217.884H99.8344ZM110.409 215.681V223.685H109.509V222.83C109.138 223.505 108.498 223.842 107.598 223.842C106.767 223.842 106.115 223.572 105.631 223.021C105.148 222.471 104.912 221.717 104.912 220.773C104.912 219.896 105.137 219.177 105.586 218.592C106.036 218.008 106.699 217.716 107.553 217.716C108.385 217.716 109.015 218.03 109.453 218.66V215.681H110.409ZM107.677 218.536C107.126 218.536 106.688 218.739 106.373 219.132C106.058 219.537 105.901 220.076 105.901 220.751C105.901 221.459 106.058 222.021 106.384 222.437C106.71 222.853 107.149 223.055 107.7 223.055C108.25 223.055 108.689 222.864 109.004 222.459C109.318 222.055 109.476 221.504 109.476 220.784C109.476 220.155 109.318 219.615 109.026 219.188C108.734 218.761 108.284 218.536 107.677 218.536ZM119.279 219.57H118.324C118.256 218.873 117.784 218.514 116.907 218.514C116.536 218.514 116.244 218.592 116.042 218.727C115.828 218.873 115.727 219.065 115.727 219.301C115.727 219.368 115.727 219.435 115.749 219.503C115.761 219.57 115.783 219.627 115.828 219.672C115.873 219.717 115.907 219.761 115.941 219.795C115.974 219.84 116.03 219.874 116.109 219.908C116.188 219.941 116.244 219.964 116.289 219.986C116.334 220.009 116.401 220.043 116.514 220.065C116.626 220.087 116.705 220.11 116.75 220.121C116.795 220.132 116.874 220.155 117.008 220.177C117.143 220.211 117.222 220.234 117.267 220.234C117.537 220.301 117.75 220.346 117.885 220.38C118.02 220.425 118.211 220.492 118.459 220.593C118.706 220.695 118.886 220.796 119.021 220.908C119.144 221.021 119.257 221.167 119.358 221.358C119.459 221.549 119.515 221.762 119.515 221.999C119.515 222.561 119.29 223.021 118.852 223.359C118.414 223.696 117.829 223.865 117.11 223.865C116.323 223.865 115.716 223.696 115.289 223.347C114.861 223.01 114.637 222.504 114.614 221.852H115.558C115.603 222.673 116.132 223.078 117.132 223.078C117.559 223.078 117.897 222.999 118.155 222.819C118.414 222.639 118.549 222.403 118.549 222.111C118.549 221.92 118.481 221.762 118.346 221.628C118.211 221.504 118.054 221.414 117.897 221.358C117.728 221.302 117.492 221.234 117.188 221.155C117.143 221.155 117.11 221.144 117.087 221.133C117.02 221.122 116.874 221.088 116.649 221.043C116.424 220.998 116.267 220.953 116.177 220.919C116.075 220.897 115.929 220.852 115.749 220.784C115.57 220.717 115.435 220.65 115.345 220.582C115.255 220.515 115.154 220.425 115.041 220.312C114.929 220.2 114.861 220.076 114.816 219.93C114.771 219.784 114.749 219.615 114.749 219.424C114.749 218.907 114.94 218.491 115.345 218.176C115.749 217.873 116.289 217.716 116.964 217.716C117.638 217.716 118.2 217.884 118.627 218.199C119.054 218.525 119.279 218.986 119.279 219.57ZM125.552 221.852C125.26 223.201 124.417 223.876 123.023 223.876C122.168 223.876 121.494 223.617 121.01 223.078C120.527 222.549 120.291 221.807 120.291 220.863C120.291 219.93 120.538 219.177 121.033 218.592C121.528 218.008 122.18 217.716 122.989 217.716C123.877 217.716 124.54 218.019 124.967 218.626C125.395 219.233 125.619 219.986 125.619 220.908V221.043H121.258L121.246 221.11C121.246 221.729 121.404 222.212 121.73 222.561C122.045 222.92 122.494 223.089 123.056 223.089C123.472 223.089 123.798 222.999 124.046 222.797C124.293 222.606 124.484 222.291 124.619 221.852H125.552ZM124.63 220.267C124.585 219.717 124.417 219.289 124.124 218.975C123.832 218.66 123.439 218.502 122.966 218.502C122.494 218.502 122.112 218.66 121.809 218.975C121.494 219.289 121.314 219.728 121.258 220.267H124.63ZM131.624 221.571C131.534 222.268 131.275 222.83 130.825 223.235C130.376 223.651 129.802 223.853 129.083 223.853C128.206 223.853 127.532 223.584 127.048 223.044C126.576 222.504 126.329 221.774 126.329 220.863C126.329 219.896 126.587 219.132 127.082 218.57C127.588 218.008 128.262 217.716 129.117 217.716C129.836 217.716 130.398 217.895 130.825 218.255C131.253 218.615 131.511 219.121 131.579 219.784H130.589C130.421 218.941 129.937 218.525 129.139 218.525C128.577 218.525 128.139 218.727 127.824 219.132C127.498 219.537 127.341 220.099 127.341 220.796C127.341 221.493 127.487 222.055 127.801 222.459C128.105 222.864 128.532 223.066 129.072 223.066C129.499 223.066 129.859 222.932 130.128 222.684C130.398 222.426 130.578 222.055 130.657 221.571H131.624ZM137.481 217.884L137.47 223.685H136.582V222.774C136.088 223.494 135.424 223.842 134.581 223.842C133.974 223.842 133.491 223.673 133.154 223.336C132.816 222.999 132.648 222.516 132.648 221.875V217.884H133.603V221.616C133.603 222.077 133.693 222.426 133.873 222.662C134.053 222.898 134.368 223.01 134.829 223.01C135.953 223.01 136.526 222.313 136.526 220.919V217.884H137.481ZM141.941 217.749L141.929 218.75C141.862 218.739 141.783 218.739 141.682 218.739C141.378 218.739 141.109 218.783 140.884 218.873C140.659 218.963 140.49 219.087 140.356 219.233C140.221 219.391 140.119 219.57 140.03 219.795C139.951 220.02 139.895 220.245 139.872 220.47C139.85 220.695 139.838 220.953 139.838 221.234V223.685H138.883V217.884H139.793V219.132C140.176 218.21 140.884 217.749 141.941 217.749ZM147.42 221.852C147.128 223.201 146.285 223.876 144.891 223.876C144.036 223.876 143.362 223.617 142.878 223.078C142.395 222.549 142.159 221.807 142.159 220.863C142.159 219.93 142.406 219.177 142.901 218.592C143.396 218.008 144.048 217.716 144.857 217.716C145.745 217.716 146.408 218.019 146.835 218.626C147.263 219.233 147.487 219.986 147.487 220.908V221.043H143.126L143.114 221.11C143.114 221.729 143.272 222.212 143.598 222.561C143.913 222.92 144.362 223.089 144.924 223.089C145.34 223.089 145.666 222.999 145.914 222.797C146.161 222.606 146.352 222.291 146.487 221.852H147.42ZM146.498 220.267C146.453 219.717 146.285 219.289 145.992 218.975C145.7 218.66 145.307 218.502 144.834 218.502C144.362 218.502 143.98 218.66 143.677 218.975C143.362 219.289 143.182 219.728 143.126 220.267H146.498Z" fill="#959595"/>
</g>
<defs>
<filter id="filter0_dd_1805_7017" x="0" y="0" width="358" height="107.754" filterUnits="userSpaceOnUse" color-interpolation-filters="sRGB">
<feFlood flood-opacity="0" result="BackgroundImageFix"/>
<feColorMatrix in="SourceAlpha" type="matrix" values="0 0 0 0 0 0 0 0 0 0 0 0 0 0 0 0 0 0 127 0" result="hardAlpha"/>
<feOffset dy="8"/>
<feGaussianBlur stdDeviation="3"/>
<feComposite in2="hardAlpha" operator="out"/>
<feColorMatrix type="matrix" values="0 0 0 0 0 0 0 0 0 0 0 0 0 0 0 0 0 0 0.04 0"/>
<feBlend mode="normal" in2="BackgroundImageFix" result="effect1_dropShadow_1805_7017"/>
<feColorMatrix in="SourceAlpha" type="matrix" values="0 0 0 0 0 0 0 0 0 0 0 0 0 0 0 0 0 0 127 0" result="hardAlpha"/>
<feOffset dy="18"/>
<feGaussianBlur stdDeviation="8"/>
<feComposite in2="hardAlpha" operator="out"/>
<feColorMatrix type="matrix" values="0 0 0 0 0 0 0 0 0 0 0 0 0 0 0 0 0 0 0.02 0"/>
<feBlend mode="normal" in2="effect1_dropShadow_1805_7017" result="effect2_dropShadow_1805_7017"/>
<feBlend mode="normal" in="SourceGraphic" in2="effect2_dropShadow_1805_7017" result="shape"/>
</filter>
<filter id="filter1_dd_1805_7017" x="0" y="86.601" width="358" height="107.754" filterUnits="userSpaceOnUse" color-interpolation-filters="sRGB">
<feFlood flood-opacity="0" result="BackgroundImageFix"/>
<feColorMatrix in="SourceAlpha" type="matrix" values="0 0 0 0 0 0 0 0 0 0 0 0 0 0 0 0 0 0 127 0" result="hardAlpha"/>
<feOffset dy="8"/>
<feGaussianBlur stdDeviation="3"/>
<feComposite in2="hardAlpha" operator="out"/>
<feColorMatrix type="matrix" values="0 0 0 0 0 0 0 0 0 0 0 0 0 0 0 0 0 0 0.04 0"/>
<feBlend mode="normal" in2="BackgroundImageFix" result="effect1_dropShadow_1805_7017"/>
<feColorMatrix in="SourceAlpha" type="matrix" values="0 0 0 0 0 0 0 0 0 0 0 0 0 0 0 0 0 0 127 0" result="hardAlpha"/>
<feOffset dy="18"/>
<feGaussianBlur stdDeviation="8"/>
<feComposite in2="hardAlpha" operator="out"/>
<feColorMatrix type="matrix" values="0 0 0 0 0 0 0 0 0 0 0 0 0 0 0 0 0 0 0.02 0"/>
<feBlend mode="normal" in2="effect1_dropShadow_1805_7017" result="effect2_dropShadow_1805_7017"/>
<feBlend mode="normal" in="SourceGraphic" in2="effect2_dropShadow_1805_7017" result="shape"/>
</filter>
<filter id="filter2_dd_1805_7017" x="0" y="173.202" width="358" height="107.754" filterUnits="userSpaceOnUse" color-interpolation-filters="sRGB">
<feFlood flood-opacity="0" result="BackgroundImageFix"/>
<feColorMatrix in="SourceAlpha" type="matrix" values="0 0 0 0 0 0 0 0 0 0 0 0 0 0 0 0 0 0 127 0" result="hardAlpha"/>
<feOffset dy="8"/>
<feGaussianBlur stdDeviation="3"/>
<feComposite in2="hardAlpha" operator="out"/>
<feColorMatrix type="matrix" values="0 0 0 0 0 0 0 0 0 0 0 0 0 0 0 0 0 0 0.04 0"/>
<feBlend mode="normal" in2="BackgroundImageFix" result="effect1_dropShadow_1805_7017"/>
<feColorMatrix in="SourceAlpha" type="matrix" values="0 0 0 0 0 0 0 0 0 0 0 0 0 0 0 0 0 0 127 0" result="hardAlpha"/>
<feOffset dy="18"/>
<feGaussianBlur stdDeviation="8"/>
<feComposite in2="hardAlpha" operator="out"/>
<feColorMatrix type="matrix" values="0 0 0 0 0 0 0 0 0 0 0 0 0 0 0 0 0 0 0.02 0"/>
<feBlend mode="normal" in2="effect1_dropShadow_1805_7017" result="effect2_dropShadow_1805_7017"/>
<feBlend mode="normal" in="SourceGraphic" in2="effect2_dropShadow_1805_7017" result="shape"/>
</filter>
</defs>
</svg>
