<svg width="425" height="147" viewBox="0 0 425 147" fill="none" xmlns="http://www.w3.org/2000/svg">
<g filter="url(#filter0_dddd_1805_6992)">
<path d="M22 17.882C22 10.7675 27.7674 5 34.8819 5H563.68C570.795 5 576.562 10.7674 576.562 17.8819V90.6521C576.562 97.7666 570.795 103.534 563.68 103.534H34.882C27.7675 103.534 22 97.7666 22 90.6521V17.882Z" fill="white" shape-rendering="crispEdges"/>
<path d="M34.8818 5.5H563.681C570.519 5.50026 576.062 11.0437 576.062 17.8818V90.6523C576.062 97.4904 570.519 103.034 563.681 103.034H34.8818C28.0436 103.034 22.5001 97.4905 22.5 90.6523V17.8818C22.5001 11.0436 28.0436 5.50006 34.8818 5.5Z" stroke="#F5F5F6" shape-rendering="crispEdges"/>
<path d="M38.3877 17.6987C39.9799 17.6987 41.2855 18.2559 42.2885 19.3545C43.2916 20.4531 43.8011 21.8861 43.8011 23.6374C43.8011 25.4048 43.2916 26.8377 42.2885 27.9363C41.2696 29.0349 39.964 29.5762 38.3559 29.5762C36.7319 29.5762 35.4104 29.0349 34.4073 27.9363C33.4043 26.8536 32.9107 25.4207 32.9107 23.6374C32.9107 21.9179 33.3883 20.5009 34.3755 19.3864C35.3626 18.2718 36.7 17.6987 38.3877 17.6987ZM38.3559 19.3704C37.3051 19.3704 36.4771 19.7685 35.8562 20.5327C35.2193 21.297 34.9168 22.3319 34.9168 23.6056C34.9168 24.9271 35.2193 25.9779 35.8403 26.7422C36.4612 27.5223 37.3051 27.9044 38.3877 27.9044C39.4067 27.9044 40.2346 27.5223 40.8556 26.7422C41.4765 25.962 41.795 24.9271 41.795 23.6215C41.795 22.3319 41.4765 21.297 40.8556 20.5327C40.2346 19.7685 39.4067 19.3704 38.3559 19.3704ZM50.0068 20.9308V22.6662C49.6884 22.6344 49.4655 22.6185 49.3699 22.6185C47.7778 22.6185 46.9976 23.6534 46.9976 25.6913V29.3056H45.1985V21.09H46.9021V22.7299C47.4753 21.5199 48.3987 20.8989 49.6565 20.8989L50.0068 20.9308ZM58.4861 21.09V28.3503C58.4861 29.7673 58.1836 30.8181 57.5786 31.4868C56.9735 32.1715 55.9705 32.5058 54.5375 32.5058C52.2766 32.5058 51.0507 31.6779 50.8596 30.0061H52.6747C52.8339 30.834 53.4708 31.2321 54.5853 31.2321C55.3336 31.2321 55.8749 31.041 56.2252 30.6589C56.5755 30.2768 56.7506 29.6718 56.7506 28.812V27.8408C56.1456 28.7642 55.2858 29.2259 54.1395 29.2259C53.0409 29.2259 52.1652 28.8597 51.5283 28.1274C50.8915 27.395 50.573 26.3919 50.573 25.1341C50.573 23.8603 50.9074 22.8254 51.5761 22.0453C52.2448 21.2651 53.1205 20.8671 54.235 20.8671C54.8082 20.8671 55.3018 20.9785 55.6998 21.2014C56.0819 21.4243 56.4481 21.7587 56.7984 22.2363V21.09H58.4861ZM54.5534 22.3319C53.8688 22.3319 53.3275 22.5866 52.9453 23.0643C52.5632 23.5578 52.3722 24.2425 52.3722 25.1022C52.3722 25.9302 52.5632 26.5989 52.9613 27.0765C53.3593 27.5701 53.8847 27.8089 54.5534 27.8089C55.2221 27.8089 55.7635 27.5701 56.1615 27.0606C56.5436 26.5511 56.7506 25.8665 56.7506 25.0067C56.7506 24.1788 56.5436 23.526 56.1615 23.0483C55.7794 22.5707 55.2381 22.3319 54.5534 22.3319ZM60.3135 23.6215C60.5045 21.7746 61.6987 20.8352 63.9118 20.8352C64.9307 20.8352 65.7587 21.0422 66.3637 21.4403C66.9687 21.8542 67.2872 22.4752 67.2872 23.319V27.4905C67.2872 27.7293 67.3031 27.8885 67.3668 27.9681C67.4304 28.0637 67.5419 28.0955 67.717 28.0955C67.8444 28.0955 67.9718 28.0955 68.131 28.0637V29.3374C67.6534 29.4648 67.2712 29.5125 66.9528 29.5125C66.1726 29.5125 65.7268 29.1941 65.6154 28.5254C64.9148 29.1941 63.9595 29.5125 62.7336 29.5125C61.8738 29.5125 61.2051 29.3056 60.7115 28.8597C60.202 28.4139 59.9632 27.8248 59.9632 27.0606C59.9632 26.8377 59.9791 26.6148 60.0428 26.4078C60.0906 26.2168 60.1543 26.0416 60.2179 25.8824C60.2816 25.7391 60.3931 25.5958 60.5523 25.4684C60.7115 25.3411 60.8389 25.2455 60.9344 25.15C61.0299 25.0704 61.2051 24.9908 61.428 24.9112C61.6509 24.8475 61.826 24.7838 61.9375 24.752C62.0489 24.7201 62.24 24.6724 62.5266 24.6246C62.7972 24.5927 62.9724 24.5609 63.0679 24.545C63.1634 24.5291 63.3545 24.4972 63.6411 24.4654C64.278 24.3858 64.7238 24.3221 64.9626 24.2584C65.1855 24.1947 65.3447 24.1151 65.4402 23.9877C65.5039 23.9081 65.5517 23.7171 65.5517 23.3986C65.5517 22.5707 64.9785 22.1567 63.864 22.1567C63.259 22.1567 62.8291 22.2682 62.5584 22.4911C62.2718 22.714 62.0967 23.0961 62.033 23.6215H60.3135ZM65.5358 25.1818C65.3925 25.2615 65.2333 25.3251 65.0581 25.3888C64.8671 25.4525 64.7238 25.4844 64.6123 25.5003C64.5009 25.5162 64.3257 25.5321 64.0869 25.564C63.8481 25.5958 63.6889 25.6277 63.6252 25.6277C63.4023 25.6595 63.2271 25.6913 63.0998 25.7232C62.9724 25.755 62.8132 25.7869 62.6221 25.8506C62.431 25.9142 62.2878 25.9939 62.1922 26.0894C62.0967 26.1849 62.0012 26.2964 61.9375 26.4556C61.8579 26.6148 61.826 26.7899 61.826 26.9969C61.826 27.395 61.9534 27.6975 62.2081 27.9044C62.4629 28.1274 62.8291 28.2229 63.3067 28.2229C64.1028 28.2229 64.7238 28.0159 65.1696 27.5701C65.4084 27.3313 65.5358 26.8536 65.5358 26.1531V25.1818ZM70.9756 21.09V22.3C71.6284 21.3447 72.5359 20.8671 73.6982 20.8671C74.6217 20.8671 75.3222 21.1218 75.784 21.6313C76.2457 22.1408 76.4845 22.8732 76.4845 23.8285V29.3056H74.6694V24.5291C74.6694 24.2106 74.6535 23.94 74.6217 23.7171C74.5898 23.4942 74.5102 23.2712 74.4147 23.0483C74.3192 22.8254 74.16 22.6662 73.9371 22.5548C73.7142 22.4433 73.4276 22.3796 73.0773 22.3796C71.7399 22.3796 71.0712 23.2235 71.0712 24.8793V29.3056H69.2561V21.09H70.9756ZM80.2455 17.9216V19.7048H78.4304V17.9216H80.2455ZM80.2455 21.09V29.3056H78.4304V21.09H80.2455ZM89.6745 26.2008C89.5471 27.2198 89.1332 28.0159 88.4644 28.6209C87.7798 29.2259 86.92 29.5125 85.9011 29.5125C84.6592 29.5125 83.6879 29.1304 82.9556 28.3503C82.2232 27.5701 81.857 26.5511 81.857 25.2774C81.857 23.924 82.2232 22.8414 82.9556 22.0453C83.6879 21.2492 84.691 20.8352 85.9488 20.8352C86.9997 20.8352 87.8435 21.1059 88.4804 21.6313C89.1172 22.1727 89.4994 22.9051 89.6108 23.8444H87.8117C87.7002 23.3349 87.4932 22.9369 87.1748 22.6503C86.8564 22.3796 86.4424 22.2363 85.9647 22.2363C85.2642 22.2363 84.7069 22.507 84.3089 23.0324C83.8949 23.5578 83.7039 24.2743 83.7039 25.1818C83.7039 26.1053 83.8949 26.8059 84.277 27.3153C84.6592 27.8248 85.2005 28.0796 85.9011 28.0796C86.4424 28.0796 86.8723 27.9204 87.2226 27.6019C87.5728 27.2835 87.7957 26.8059 87.8913 26.2008H89.6745ZM102.014 23.4782H100.278C100.167 22.6185 99.5775 22.1727 98.4948 22.1727C98.0172 22.1727 97.6669 22.2682 97.4122 22.4274C97.1574 22.6025 97.03 22.8414 97.03 23.128C97.03 23.2235 97.03 23.319 97.046 23.3827C97.0619 23.4623 97.0937 23.526 97.1415 23.5897C97.1893 23.6534 97.237 23.7011 97.2689 23.733C97.3007 23.7807 97.3803 23.8285 97.4758 23.8603C97.5714 23.9081 97.6351 23.94 97.6988 23.9718C97.7624 24.0036 97.858 24.0355 98.0013 24.0673C98.1286 24.0992 98.2401 24.131 98.3197 24.1469C98.3993 24.1788 98.5267 24.2106 98.7177 24.2425C98.8929 24.2743 99.0362 24.3062 99.1317 24.3221C99.5457 24.4176 99.8323 24.4972 100.023 24.545C100.214 24.5927 100.485 24.6883 100.835 24.8316C101.186 24.9749 101.456 25.1182 101.631 25.2774C101.791 25.4366 101.95 25.6436 102.093 25.9142C102.236 26.1849 102.316 26.4874 102.316 26.8377C102.316 27.6656 101.982 28.3343 101.345 28.812C100.692 29.3056 99.8163 29.5444 98.7337 29.5444C97.5555 29.5444 96.6638 29.3056 96.0429 28.812C95.406 28.3343 95.0717 27.6179 95.0398 26.6785H96.7753C96.8708 27.7134 97.5236 28.2229 98.7655 28.2229C99.2909 28.2229 99.7208 28.1274 100.039 27.9044C100.358 27.6815 100.533 27.395 100.533 27.0288C100.533 26.8536 100.485 26.6944 100.405 26.567C100.326 26.4397 100.198 26.3441 100.023 26.2486C99.8323 26.1531 99.6571 26.0894 99.4979 26.0416C99.3387 25.9939 99.1158 25.9302 98.8451 25.8665L98.7496 25.8506C98.7177 25.8506 98.7018 25.8346 98.67 25.8346C98.6381 25.8346 98.6063 25.8187 98.5744 25.8028C97.3962 25.5162 96.6638 25.2933 96.3454 25.1341C95.5812 24.7838 95.215 24.1788 95.215 23.3349C95.215 22.5707 95.5016 21.9657 96.1066 21.5199C96.6957 21.0741 97.5236 20.8512 98.5744 20.8512C99.5775 20.8512 100.405 21.0741 101.042 21.5039C101.679 21.9498 102.014 22.6025 102.014 23.4782ZM105.573 17.9693V22.2204C106.178 21.3288 107.038 20.883 108.168 20.883C109.06 20.883 109.744 21.1377 110.254 21.6154C110.747 22.093 111.002 22.8095 111.002 23.733V29.3056H109.171V24.3221C109.171 23.7011 109.06 23.2235 108.837 22.8891C108.614 22.5707 108.2 22.3956 107.579 22.3956C106.878 22.3956 106.369 22.6344 106.051 23.0802C105.732 23.5419 105.573 24.1469 105.573 24.8953V29.3056H103.774V17.9693H105.573ZM120.256 26.7422C120.049 27.6338 119.603 28.3343 118.935 28.8279C118.266 29.3374 117.454 29.5762 116.53 29.5762C115.289 29.5762 114.301 29.1782 113.569 28.3821C112.837 27.586 112.486 26.5511 112.486 25.2933C112.486 24.0196 112.853 22.9528 113.601 22.109C114.349 21.281 115.304 20.8512 116.467 20.8512C117.661 20.8512 118.616 21.2651 119.317 22.093C120.017 22.921 120.368 24.0355 120.368 25.4525V25.6436H114.301C114.317 26.4715 114.524 27.1243 114.922 27.5701C115.304 28.0159 115.862 28.2388 116.562 28.2388C117.056 28.2388 117.454 28.1274 117.772 27.8885C118.091 27.6497 118.33 27.2676 118.521 26.7422H120.256ZM118.553 24.4335C118.489 23.7489 118.282 23.2076 117.9 22.8095C117.518 22.4115 117.04 22.2045 116.451 22.2045C115.846 22.2045 115.368 22.3956 115.002 22.7777C114.636 23.1598 114.413 23.7171 114.333 24.4335H118.553ZM121.668 23.6215C121.859 21.7746 123.053 20.8352 125.266 20.8352C126.285 20.8352 127.113 21.0422 127.718 21.4403C128.323 21.8542 128.641 22.4752 128.641 23.319V27.4905C128.641 27.7293 128.657 27.8885 128.721 27.9681C128.785 28.0637 128.896 28.0955 129.071 28.0955C129.199 28.0955 129.326 28.0955 129.485 28.0637V29.3374C129.008 29.4648 128.626 29.5125 128.307 29.5125C127.527 29.5125 127.081 29.1941 126.97 28.5254C126.269 29.1941 125.314 29.5125 124.088 29.5125C123.228 29.5125 122.559 29.3056 122.066 28.8597C121.556 28.4139 121.318 27.8248 121.318 27.0606C121.318 26.8377 121.333 26.6148 121.397 26.4078C121.445 26.2168 121.509 26.0416 121.572 25.8824C121.636 25.7391 121.747 25.5958 121.907 25.4684C122.066 25.3411 122.193 25.2455 122.289 25.15C122.384 25.0704 122.559 24.9908 122.782 24.9112C123.005 24.8475 123.18 24.7838 123.292 24.752C123.403 24.7201 123.594 24.6724 123.881 24.6246C124.152 24.5927 124.327 24.5609 124.422 24.545C124.518 24.5291 124.709 24.4972 124.995 24.4654C125.632 24.3858 126.078 24.3221 126.317 24.2584C126.54 24.1947 126.699 24.1151 126.795 23.9877C126.858 23.9081 126.906 23.7171 126.906 23.3986C126.906 22.5707 126.333 22.1567 125.218 22.1567C124.613 22.1567 124.183 22.2682 123.913 22.4911C123.626 22.714 123.451 23.0961 123.387 23.6215H121.668ZM126.89 25.1818C126.747 25.2615 126.588 25.3251 126.412 25.3888C126.221 25.4525 126.078 25.4844 125.967 25.5003C125.855 25.5162 125.68 25.5321 125.441 25.564C125.202 25.5958 125.043 25.6277 124.98 25.6277C124.757 25.6595 124.581 25.6913 124.454 25.7232C124.327 25.755 124.168 25.7869 123.976 25.8506C123.785 25.9142 123.642 25.9939 123.547 26.0894C123.451 26.1849 123.356 26.2964 123.292 26.4556C123.212 26.6148 123.18 26.7899 123.18 26.9969C123.18 27.395 123.308 27.6975 123.562 27.9044C123.817 28.1274 124.183 28.2229 124.661 28.2229C125.457 28.2229 126.078 28.0159 126.524 27.5701C126.763 27.3313 126.89 26.8536 126.89 26.1531V25.1818ZM136.841 17.9693V22.1567C137.446 21.3129 138.338 20.883 139.532 20.883C140.614 20.883 141.49 21.281 142.159 22.0453C142.827 22.8254 143.162 23.8603 143.162 25.1341C143.162 26.4715 142.812 27.5383 142.143 28.3343C141.458 29.1304 140.551 29.5285 139.436 29.5285C138.194 29.5285 137.287 29.0827 136.745 28.191V29.3056H135.042V17.9693H136.841ZM139.07 22.3319C138.353 22.3319 137.796 22.5866 137.382 23.0961C136.968 23.6056 136.777 24.3221 136.777 25.2137C136.777 26.1053 136.968 26.7899 137.382 27.2994C137.796 27.8089 138.353 28.0637 139.07 28.0637C139.739 28.0637 140.296 27.8089 140.71 27.2835C141.124 26.7581 141.331 26.0575 141.331 25.1659C141.331 24.3062 141.124 23.6056 140.71 23.0961C140.296 22.5866 139.755 22.3319 139.07 22.3319ZM151.972 21.09V29.3056H150.268V28.0796C149.568 29.0508 148.676 29.5285 147.561 29.5285C146.654 29.5285 145.953 29.2737 145.476 28.7642C144.998 28.2547 144.759 27.5064 144.759 26.5352V21.09H146.574V25.7869C146.574 26.0735 146.574 26.3123 146.59 26.4874C146.59 26.6626 146.622 26.8536 146.686 27.0765C146.749 27.2994 146.829 27.4586 146.94 27.5701C147.052 27.6975 147.211 27.793 147.418 27.8726C147.625 27.9681 147.88 28 148.182 28C148.851 28 149.361 27.7612 149.679 27.2835C149.997 26.8059 150.157 26.1849 150.157 25.4366V21.09H151.972ZM157.914 21.09V22.4115H156.258V26.7422C156.258 26.9969 156.258 27.188 156.274 27.2835C156.274 27.379 156.306 27.4905 156.37 27.6179C156.417 27.7452 156.513 27.8248 156.64 27.8567C156.768 27.9044 156.959 27.9204 157.197 27.9204C157.484 27.9204 157.723 27.9204 157.914 27.8885V29.3215C157.548 29.3692 157.134 29.3852 156.688 29.3852C156.37 29.3852 156.083 29.3692 155.844 29.3215C155.605 29.2737 155.414 29.21 155.255 29.1463C155.096 29.0827 154.953 28.9871 154.857 28.8279C154.746 28.6687 154.666 28.5413 154.602 28.4458C154.539 28.3503 154.507 28.1592 154.475 27.9044C154.443 27.6497 154.443 27.4586 154.443 27.3313V26.6307V26.5352V26.4397V26.3282V22.4115H153.074V21.09H154.443V18.6221H156.258V21.09H157.914ZM163.216 21.09V22.4115H161.56V26.7422C161.56 26.9969 161.56 27.188 161.576 27.2835C161.576 27.379 161.608 27.4905 161.672 27.6179C161.719 27.7452 161.815 27.8248 161.942 27.8567C162.07 27.9044 162.261 27.9204 162.5 27.9204C162.786 27.9204 163.025 27.9204 163.216 27.8885V29.3215C162.85 29.3692 162.436 29.3852 161.99 29.3852C161.672 29.3852 161.385 29.3692 161.146 29.3215C160.907 29.2737 160.716 29.21 160.557 29.1463C160.398 29.0827 160.255 28.9871 160.159 28.8279C160.048 28.6687 159.968 28.5413 159.904 28.4458C159.841 28.3503 159.809 28.1592 159.777 27.9044C159.745 27.6497 159.745 27.4586 159.745 27.3313V26.6307V26.5352V26.4397V26.3282V22.4115H158.376V21.09H159.745V18.6221H161.56V21.09H163.216ZM171.862 26.7422C171.655 27.6338 171.209 28.3343 170.54 28.8279C169.871 29.3374 169.059 29.5762 168.136 29.5762C166.894 29.5762 165.907 29.1782 165.174 28.3821C164.442 27.586 164.092 26.5511 164.092 25.2933C164.092 24.0196 164.458 22.9528 165.206 22.109C165.955 21.281 166.91 20.8512 168.072 20.8512C169.266 20.8512 170.222 21.2651 170.922 22.093C171.623 22.921 171.973 24.0355 171.973 25.4525V25.6436H165.907C165.923 26.4715 166.13 27.1243 166.528 27.5701C166.91 28.0159 167.467 28.2388 168.168 28.2388C168.661 28.2388 169.059 28.1274 169.378 27.8885C169.696 27.6497 169.935 27.2676 170.126 26.7422H171.862ZM170.158 24.4335C170.094 23.7489 169.887 23.2076 169.505 22.8095C169.123 22.4115 168.645 22.2045 168.056 22.2045C167.451 22.2045 166.974 22.3956 166.607 22.7777C166.241 23.1598 166.018 23.7171 165.939 24.4335H170.158ZM178.002 20.9308V22.6662C177.684 22.6344 177.461 22.6185 177.365 22.6185C175.773 22.6185 174.993 23.6534 174.993 25.6913V29.3056H173.194V21.09H174.897V22.7299C175.47 21.5199 176.394 20.8989 177.652 20.8989L178.002 20.9308Z" fill="black"/>
<path d="M216.128 27.352L216.116 28.3056H210.395C210.42 27.8226 210.494 27.4016 210.618 27.0301C210.742 26.6709 210.94 26.349 211.2 26.0518C211.46 25.7546 211.708 25.5193 211.955 25.3211C212.203 25.1354 212.562 24.9001 213.008 24.6153C213.726 24.1695 214.184 23.8351 214.407 23.6122C214.878 23.1664 215.101 22.6587 215.101 22.1014C215.101 21.6185 214.952 21.2222 214.63 20.9126C214.32 20.603 213.912 20.442 213.404 20.442C212.81 20.442 212.376 20.6525 212.116 21.0736C211.856 21.4946 211.72 22.0147 211.695 22.6463H210.63V22.411C210.63 21.5442 210.89 20.8507 211.41 20.3182C211.93 19.7981 212.612 19.5256 213.454 19.5256C214.296 19.5256 214.952 19.7609 215.447 20.2191C215.943 20.6897 216.19 21.3089 216.19 22.0767C216.19 22.411 216.141 22.7206 216.029 23.0178C215.918 23.315 215.794 23.5503 215.658 23.7484C215.522 23.9466 215.311 24.1571 215.039 24.38C214.766 24.6029 214.531 24.7763 214.345 24.9001C214.172 25.0239 213.912 25.1849 213.565 25.383C212.896 25.7917 212.438 26.1013 212.215 26.3242C211.906 26.6462 211.708 26.9805 211.621 27.352H216.128ZM218.824 19.4885V22.8197C219.294 22.1138 219.988 21.7547 220.917 21.7547C222.353 21.7547 223.071 22.4853 223.071 23.9342V28.3056H222.019V24.1818C222.019 23.6989 221.907 23.3274 221.709 23.0673C221.511 22.8073 221.14 22.6711 220.619 22.6711C219.976 22.6711 219.505 22.8816 219.233 23.2902C218.96 23.7113 218.824 24.2933 218.824 25.0611V28.3056H217.771V19.4885H218.824ZM227.451 21.7299C228.417 21.7299 229.16 22.0271 229.705 22.6215C230.237 23.2036 230.51 24.0209 230.51 25.0735C230.51 26.1632 230.237 27.0053 229.705 27.5997C229.16 28.2065 228.405 28.5037 227.439 28.5037C226.46 28.5037 225.693 28.2065 225.148 27.6121C224.59 27.0177 224.318 26.2004 224.318 25.1354C224.318 24.0952 224.59 23.2655 225.16 22.6463C225.717 22.0395 226.485 21.7299 227.451 21.7299ZM227.426 22.6215C226.807 22.6215 226.312 22.8444 225.953 23.2902C225.581 23.7484 225.408 24.3552 225.408 25.1106C225.408 25.9032 225.581 26.5099 225.94 26.9558C226.299 27.4016 226.807 27.6121 227.451 27.6121C228.07 27.6121 228.553 27.3892 228.9 26.9434C229.247 26.4976 229.432 25.8908 229.432 25.0982C229.432 24.3428 229.247 23.736 228.888 23.2902C228.528 22.8444 228.045 22.6215 227.426 22.6215ZM237.063 21.9157L237.051 28.3056H236.073V27.3025C235.528 28.095 234.797 28.4789 233.868 28.4789C233.2 28.4789 232.667 28.2932 232.296 27.9217C231.924 27.5502 231.738 27.0177 231.738 26.3118V21.9157H232.791V26.027C232.791 26.5347 232.89 26.9186 233.088 27.1787C233.286 27.4387 233.633 27.5625 234.141 27.5625C235.379 27.5625 236.011 26.7948 236.011 25.2592V21.9157H237.063ZM241.975 21.7671L241.963 22.8692C241.889 22.8568 241.802 22.8568 241.691 22.8568C241.356 22.8568 241.059 22.9063 240.811 23.0054C240.564 23.1045 240.378 23.2407 240.229 23.4017C240.081 23.5751 239.969 23.7732 239.87 24.0209C239.784 24.2685 239.722 24.5162 239.697 24.7639C239.672 25.0115 239.66 25.2964 239.66 25.606V28.3056H238.607V21.9157H239.61V23.2902C240.031 22.2748 240.811 21.7671 241.975 21.7671ZM247.511 23.7732H246.458C246.384 23.0054 245.864 22.6091 244.898 22.6091C244.489 22.6091 244.167 22.6958 243.944 22.8444C243.709 23.0054 243.598 23.2159 243.598 23.476C243.598 23.5503 243.598 23.6246 243.623 23.6989C243.635 23.7732 243.66 23.8351 243.709 23.8846C243.759 23.9342 243.796 23.9837 243.833 24.0209C243.87 24.0704 243.932 24.1075 244.019 24.1447C244.105 24.1818 244.167 24.2066 244.217 24.2314C244.266 24.2561 244.341 24.2933 244.465 24.3181C244.588 24.3428 244.675 24.3676 244.725 24.38C244.774 24.3924 244.861 24.4171 245.009 24.4419C245.158 24.4791 245.245 24.5038 245.294 24.5038C245.591 24.5781 245.827 24.6277 245.975 24.6648C246.124 24.7143 246.335 24.7886 246.607 24.9001C246.879 25.0115 247.078 25.123 247.226 25.2468C247.362 25.3707 247.486 25.5317 247.598 25.7422C247.709 25.9527 247.771 26.188 247.771 26.448C247.771 27.0672 247.523 27.5749 247.04 27.9464C246.557 28.3179 245.913 28.5037 245.121 28.5037C244.254 28.5037 243.585 28.3179 243.115 27.9341C242.644 27.5625 242.397 27.0053 242.372 26.287H243.412C243.462 27.191 244.044 27.6368 245.146 27.6368C245.616 27.6368 245.988 27.5502 246.273 27.352C246.557 27.1539 246.706 26.8938 246.706 26.5719C246.706 26.3613 246.632 26.188 246.483 26.0394C246.335 25.9032 246.161 25.8041 245.988 25.7422C245.802 25.6803 245.542 25.606 245.208 25.5193C245.158 25.5193 245.121 25.5069 245.096 25.4945C245.022 25.4821 244.861 25.445 244.613 25.3954C244.366 25.3459 244.192 25.2964 244.093 25.2592C243.982 25.2344 243.821 25.1849 243.623 25.1106C243.424 25.0363 243.276 24.962 243.177 24.8877C243.078 24.8134 242.966 24.7143 242.842 24.5905C242.719 24.4667 242.644 24.3305 242.595 24.1695C242.545 24.0085 242.52 23.8227 242.52 23.6122C242.52 23.0426 242.731 22.5844 243.177 22.2376C243.623 21.9033 244.217 21.7299 244.96 21.7299C245.703 21.7299 246.322 21.9157 246.793 22.2624C247.263 22.6215 247.511 23.1293 247.511 23.7732ZM258.066 27.4635V28.2932C257.843 28.3675 257.607 28.417 257.347 28.417C256.741 28.417 256.431 28.095 256.419 27.4759C255.812 28.1446 255.044 28.4913 254.103 28.4913C253.471 28.4913 252.976 28.3303 252.605 28.0084C252.233 27.6864 252.06 27.2406 252.06 26.6833C252.06 25.544 252.815 24.8753 254.326 24.6896C254.425 24.6648 254.561 24.6524 254.759 24.64C255.478 24.5534 255.911 24.4543 256.084 24.3552C256.27 24.219 256.369 23.9961 256.369 23.6741C256.369 22.9683 255.886 22.6215 254.92 22.6215C254.425 22.6215 254.041 22.7206 253.793 22.9187C253.533 23.1169 253.385 23.4512 253.335 23.9218H252.307C252.32 23.2283 252.567 22.6958 253.038 22.3243C253.509 21.9404 254.152 21.7547 254.982 21.7547C255.874 21.7547 256.542 21.9528 256.988 22.3739C257.125 22.4977 257.224 22.6711 257.298 22.894C257.36 23.1045 257.397 23.2779 257.409 23.4141C257.409 23.5503 257.422 23.7608 257.422 24.0332C257.422 24.3428 257.409 24.8134 257.397 25.445C257.372 26.0889 257.372 26.5595 257.372 26.8691C257.372 27.1044 257.397 27.2653 257.459 27.3644C257.521 27.4635 257.632 27.5006 257.806 27.5006C257.868 27.5006 257.954 27.4882 258.066 27.4635ZM256.369 24.9992C256.295 25.0487 256.208 25.0982 256.134 25.1478C256.047 25.1849 255.936 25.2221 255.812 25.2468C255.688 25.2716 255.601 25.284 255.552 25.2964C255.502 25.3087 255.403 25.3211 255.23 25.3459C255.056 25.3707 254.957 25.383 254.957 25.383C254.697 25.4078 254.524 25.4326 254.45 25.445C254.375 25.4574 254.227 25.4945 254.004 25.5564C253.781 25.606 253.632 25.6803 253.546 25.7546C253.447 25.8289 253.36 25.9279 253.273 26.0765C253.187 26.2251 253.149 26.3985 253.149 26.5966C253.149 26.9186 253.261 27.1787 253.484 27.3768C253.707 27.5625 254.029 27.6616 254.425 27.6616C254.92 27.6616 255.378 27.513 255.775 27.2158C256.171 26.9186 256.369 26.5595 256.369 26.1632V24.9992ZM264.593 21.9157V27.6245C264.593 28.1693 264.556 28.6028 264.506 28.9C264.445 29.1972 264.333 29.482 264.172 29.742C263.702 30.5222 262.859 30.9061 261.646 30.9061C260.928 30.9061 260.321 30.7699 259.825 30.4727C259.33 30.1755 259.045 29.6925 258.959 29.0238H260.036C260.16 29.742 260.717 30.0888 261.683 30.0888C262.339 30.0888 262.81 29.9278 263.107 29.5934C263.404 29.2715 263.553 28.739 263.578 27.996L263.59 27.2158C263.181 27.996 262.5 28.3799 261.547 28.3799C260.692 28.3799 260.011 28.095 259.503 27.5006C258.996 26.9186 258.736 26.1261 258.736 25.1354C258.736 24.2066 258.996 23.4141 259.491 22.7454C259.999 22.0767 260.705 21.7423 261.609 21.7423C262.055 21.7423 262.451 21.8414 262.798 22.0271C263.144 22.2253 263.429 22.4977 263.627 22.8444V21.9157H264.593ZM261.658 22.6711C261.089 22.6711 260.63 22.8816 260.308 23.3274C259.986 23.7732 259.825 24.38 259.825 25.1601C259.825 25.8536 259.986 26.4233 260.333 26.8443C260.668 27.2653 261.113 27.4882 261.683 27.4882C262.265 27.4882 262.723 27.2653 263.058 26.8195C263.392 26.3737 263.565 25.7546 263.565 24.9868C263.565 24.2561 263.392 23.6865 263.058 23.2779C262.723 22.8692 262.253 22.6711 261.658 22.6711ZM268.967 21.7299C269.933 21.7299 270.676 22.0271 271.221 22.6215C271.753 23.2036 272.026 24.0209 272.026 25.0735C272.026 26.1632 271.753 27.0053 271.221 27.5997C270.676 28.2065 269.921 28.5037 268.955 28.5037C267.977 28.5037 267.209 28.2065 266.664 27.6121C266.107 27.0177 265.834 26.2004 265.834 25.1354C265.834 24.0952 266.107 23.2655 266.676 22.6463C267.234 22.0395 268.001 21.7299 268.967 21.7299ZM268.942 22.6215C268.323 22.6215 267.828 22.8444 267.469 23.2902C267.097 23.7484 266.924 24.3552 266.924 25.1106C266.924 25.9032 267.097 26.5099 267.456 26.9558C267.816 27.4016 268.323 27.6121 268.967 27.6121C269.586 27.6121 270.069 27.3892 270.416 26.9434C270.763 26.4976 270.949 25.8908 270.949 25.0982C270.949 24.3428 270.763 23.736 270.404 23.2902C270.045 22.8444 269.562 22.6215 268.942 22.6215Z" fill="#B9B9B9"/>
<path d="M39.1414 51.3664V52.3818H33.2963V43.5648H34.4604V51.3664H39.1414ZM42.778 45.8062C43.7439 45.8062 44.4869 46.1034 45.0318 46.6978C45.5642 47.2798 45.8367 48.0971 45.8367 49.1497C45.8367 50.2395 45.5642 51.0816 45.0318 51.676C44.4869 52.2828 43.7315 52.58 42.7656 52.58C41.7873 52.58 41.0195 52.2828 40.4746 51.6884C39.9174 51.094 39.6449 50.2766 39.6449 49.2117C39.6449 48.1715 39.9174 47.3418 40.487 46.7226C41.0443 46.1158 41.812 45.8062 42.778 45.8062ZM42.7532 46.6978C42.134 46.6978 41.6387 46.9207 41.2795 47.3665C40.908 47.8247 40.7347 48.4315 40.7347 49.1869C40.7347 49.9794 40.908 50.5862 41.2672 51.032C41.6263 51.4778 42.134 51.6884 42.778 51.6884C43.3971 51.6884 43.8801 51.4655 44.2268 51.0197C44.5736 50.5739 44.7593 49.9671 44.7593 49.1745C44.7593 48.4191 44.5736 47.8123 44.2144 47.3665C43.8553 46.9207 43.3724 46.6978 42.7532 46.6978ZM49.8888 45.8062C50.8547 45.8062 51.5977 46.1034 52.1426 46.6978C52.6751 47.2798 52.9475 48.0971 52.9475 49.1497C52.9475 50.2395 52.6751 51.0816 52.1426 51.676C51.5977 52.2828 50.8423 52.58 49.8764 52.58C48.8981 52.58 48.1303 52.2828 47.5855 51.6884C47.0282 51.094 46.7558 50.2766 46.7558 49.2117C46.7558 48.1715 47.0282 47.3418 47.5978 46.7226C48.1551 46.1158 48.9229 45.8062 49.8888 45.8062ZM49.864 46.6978C49.2449 46.6978 48.7495 46.9207 48.3904 47.3665C48.0189 47.8247 47.8455 48.4315 47.8455 49.1869C47.8455 49.9794 48.0189 50.5862 48.378 51.032C48.7371 51.4778 49.2449 51.6884 49.8888 51.6884C50.508 51.6884 50.9909 51.4655 51.3377 51.0197C51.6844 50.5739 51.8702 49.9671 51.8702 49.1745C51.8702 48.4191 51.6844 47.8123 51.3253 47.3665C50.9662 46.9207 50.4832 46.6978 49.864 46.6978ZM59.5754 45.992L57.0368 48.3077L59.7612 52.3818H58.4237L56.2319 49.0383L55.2288 49.9671V52.3818H54.201V43.5648H55.2288V48.7782L58.1637 45.992H59.5754ZM61.737 43.5648V44.8527H60.672V43.5648H61.737ZM61.737 45.992V52.3818H60.672V45.992H61.737ZM64.3583 45.992V46.9826C64.8784 46.2149 65.6091 45.8186 66.5378 45.8186C67.2809 45.8186 67.8257 46.0167 68.1601 46.413C68.4944 46.8093 68.6678 47.3789 68.6678 48.1343V52.3818H67.6152V48.6173C67.6152 48.3077 67.6028 48.06 67.5781 47.8866C67.5533 47.7133 67.5038 47.5151 67.4295 47.317C67.3428 47.1189 67.2065 46.9703 67.0084 46.8712C66.8103 46.7845 66.5502 46.735 66.2406 46.735C65.0271 46.735 64.4203 47.5027 64.4203 49.0383V52.3818H63.3677V45.992H64.3583ZM75.7842 45.992V51.7008C75.7842 52.2456 75.747 52.679 75.6975 52.9763C75.6356 53.2735 75.5241 53.5583 75.3631 53.8183C74.8925 54.5985 74.0505 54.9824 72.8369 54.9824C72.1186 54.9824 71.5119 54.8462 71.0165 54.549C70.5212 54.2518 70.2363 53.7688 70.1497 53.1001H71.227C71.3509 53.8183 71.9081 54.1651 72.874 54.1651C73.5304 54.1651 74.0009 54.0041 74.2981 53.6697C74.5953 53.3478 74.7439 52.8153 74.7687 52.0723L74.7811 51.2921C74.3724 52.0723 73.6913 52.4561 72.7378 52.4561C71.8834 52.4561 71.2023 52.1713 70.6945 51.5769C70.1868 50.9949 69.9268 50.2023 69.9268 49.2117C69.9268 48.2829 70.1868 47.4904 70.6822 46.8216C71.1899 46.1529 71.8957 45.8186 72.7997 45.8186C73.2455 45.8186 73.6418 45.9177 73.9886 46.1034C74.3353 46.3015 74.6201 46.574 74.8182 46.9207V45.992H75.7842ZM72.8493 46.7473C72.2796 46.7473 71.8214 46.9579 71.4995 47.4037C71.1775 47.8495 71.0165 48.4563 71.0165 49.2364C71.0165 49.9299 71.1775 50.4996 71.5242 50.9206C71.8586 51.3416 72.3044 51.5645 72.874 51.5645C73.4561 51.5645 73.9143 51.3416 74.2486 50.8958C74.583 50.45 74.7563 49.8308 74.7563 49.0631C74.7563 48.3324 74.583 47.7628 74.2486 47.3541C73.9143 46.9455 73.4437 46.7473 72.8493 46.7473ZM83.6915 43.54V44.4564C83.5058 44.4316 83.3076 44.4069 83.1095 44.4069C82.7751 44.4069 82.5522 44.4688 82.4532 44.5678C82.3541 44.6793 82.3046 44.9146 82.3046 45.2613V45.992H83.5305V46.8588H82.3046V52.3818H81.2396V46.8588H80.1622V45.992H81.2396V45.1375C81.2396 44.5678 81.3882 44.1468 81.6854 43.8868C81.9826 43.6267 82.416 43.4905 83.0104 43.4905C83.1838 43.4905 83.4191 43.5153 83.6915 43.54ZM87.2691 45.8062C88.235 45.8062 88.978 46.1034 89.5229 46.6978C90.0554 47.2798 90.3278 48.0971 90.3278 49.1497C90.3278 50.2395 90.0554 51.0816 89.5229 51.676C88.978 52.2828 88.2226 52.58 87.2567 52.58C86.2784 52.58 85.5106 52.2828 84.9658 51.6884C84.4085 51.094 84.1361 50.2766 84.1361 49.2117C84.1361 48.1715 84.4085 47.3418 84.9781 46.7226C85.5354 46.1158 86.3032 45.8062 87.2691 45.8062ZM87.2443 46.6978C86.6251 46.6978 86.1298 46.9207 85.7707 47.3665C85.3992 47.8247 85.2258 48.4315 85.2258 49.1869C85.2258 49.9794 85.3992 50.5862 85.7583 51.032C86.1174 51.4778 86.6251 51.6884 87.2691 51.6884C87.8883 51.6884 88.3712 51.4655 88.718 51.0197C89.0647 50.5739 89.2505 49.9671 89.2505 49.1745C89.2505 48.4191 89.0647 47.8123 88.7056 47.3665C88.3465 46.9207 87.8635 46.6978 87.2443 46.6978ZM94.9124 45.8434L94.9 46.9455C94.8257 46.9331 94.7391 46.9331 94.6276 46.9331C94.2932 46.9331 93.996 46.9826 93.7484 47.0817C93.5007 47.1808 93.315 47.317 93.1663 47.478C93.0177 47.6513 92.9063 47.8495 92.8072 48.0971C92.7205 48.3448 92.6586 48.5925 92.6339 48.8402C92.6091 49.0878 92.5967 49.3727 92.5967 49.6822V52.3818H91.5441V45.992H92.5472V47.3665C92.9682 46.3511 93.7484 45.8434 94.9124 45.8434ZM100.192 43.5648V46.8712C100.65 46.1777 101.356 45.8186 102.309 45.8186C103.176 45.8186 103.882 46.1282 104.402 46.735C104.922 47.3418 105.195 48.1467 105.195 49.1621C105.195 50.2023 104.922 51.0197 104.39 51.6388C103.845 52.258 103.139 52.5676 102.248 52.5676C101.232 52.5676 100.526 52.1961 100.13 51.4531V52.3818H99.1393V43.5648H100.192ZM102.148 46.7102C101.467 46.7102 100.96 46.9579 100.638 47.4408C100.316 47.9362 100.155 48.5306 100.155 49.2364C100.155 49.9918 100.328 50.5862 100.687 51.032C101.046 51.4778 101.529 51.6884 102.148 51.6884C102.73 51.6884 103.201 51.4655 103.56 51.0073C103.919 50.5491 104.105 49.9423 104.105 49.1745C104.105 48.4315 103.919 47.8247 103.573 47.3789C103.213 46.9331 102.743 46.7102 102.148 46.7102ZM111.792 45.992L111.78 52.3818H110.802V51.3788C110.257 52.1713 109.526 52.5552 108.597 52.5552C107.929 52.5552 107.396 52.3695 107.025 51.998C106.653 51.6264 106.467 51.094 106.467 50.3881V45.992H107.52V50.1033C107.52 50.611 107.619 50.9949 107.817 51.2549C108.015 51.515 108.362 51.6388 108.87 51.6388C110.108 51.6388 110.74 50.8711 110.74 49.3355V45.992H111.792ZM114.488 43.5648V52.3818H113.423V43.5648H114.488ZM121.493 45.992L118.954 48.3077L121.679 52.3818H120.341L118.149 49.0383L117.146 49.9671V52.3818H116.119V43.5648H117.146V48.7782L120.081 45.992H121.493ZM126.977 45.992V46.8959C127.435 46.1653 128.154 45.7938 129.132 45.7938C130.024 45.7938 130.729 46.1034 131.25 46.6978C131.77 47.3046 132.042 48.1219 132.042 49.1497C132.042 50.19 131.782 51.0073 131.262 51.6264C130.742 52.2456 130.048 52.5428 129.182 52.5428C128.265 52.5428 127.547 52.1961 127.039 51.4902V54.8462H125.987V45.992H126.977ZM128.971 46.673C128.352 46.673 127.869 46.8959 127.522 47.3418C127.175 47.7876 127.002 48.3944 127.002 49.1621C127.002 49.9423 127.175 50.5491 127.535 50.9949C127.894 51.4407 128.389 51.6636 129.008 51.6636C129.603 51.6636 130.086 51.4407 130.432 50.9949C130.779 50.5491 130.952 49.9423 130.952 49.1745C130.952 48.3944 130.767 47.7876 130.42 47.3418C130.073 46.8959 129.59 46.673 128.971 46.673ZM136.658 45.8434L136.646 46.9455C136.572 46.9331 136.485 46.9331 136.374 46.9331C136.039 46.9331 135.742 46.9826 135.494 47.0817C135.247 47.1808 135.061 47.317 134.912 47.478C134.764 47.6513 134.652 47.8495 134.553 48.0971C134.467 48.3448 134.405 48.5925 134.38 48.8402C134.355 49.0878 134.343 49.3727 134.343 49.6822V52.3818H133.29V45.992H134.293V47.3665C134.714 46.3511 135.494 45.8434 136.658 45.8434ZM138.566 43.5648V44.8527H137.501V43.5648H138.566ZM138.566 45.992V52.3818H137.501V45.992H138.566ZM145.694 50.0537C145.595 50.8215 145.311 51.4407 144.815 51.8865C144.32 52.3447 143.688 52.5676 142.896 52.5676C141.93 52.5676 141.187 52.2704 140.654 51.676C140.134 51.0816 139.862 50.2766 139.862 49.2736C139.862 48.2086 140.147 47.3665 140.692 46.7473C141.249 46.1282 141.992 45.8062 142.933 45.8062C143.726 45.8062 144.345 46.0043 144.815 46.4006C145.286 46.7969 145.571 47.3541 145.645 48.0848H144.555C144.369 47.156 143.837 46.6978 142.958 46.6978C142.339 46.6978 141.856 46.9207 141.509 47.3665C141.15 47.8123 140.976 48.4315 140.976 49.1993C140.976 49.9671 141.137 50.5862 141.484 51.032C141.818 51.4778 142.289 51.7008 142.883 51.7008C143.354 51.7008 143.75 51.5521 144.047 51.2797C144.345 50.9949 144.543 50.5862 144.629 50.0537H145.694ZM147.962 43.5648V44.8527H146.897V43.5648H147.962ZM147.962 45.992V52.3818H146.897V45.992H147.962ZM150.583 45.992V46.9826C151.103 46.2149 151.834 45.8186 152.763 45.8186C153.506 45.8186 154.051 46.0167 154.385 46.413C154.719 46.8093 154.893 47.3789 154.893 48.1343V52.3818H153.84V48.6173C153.84 48.3077 153.828 48.06 153.803 47.8866C153.778 47.7133 153.729 47.5151 153.654 47.317C153.568 47.1189 153.432 46.9703 153.233 46.8712C153.035 46.7845 152.775 46.735 152.466 46.735C151.252 46.735 150.645 47.5027 150.645 49.0383V52.3818H149.593V45.992H150.583ZM162.009 45.992V51.7008C162.009 52.2456 161.972 52.679 161.922 52.9763C161.861 53.2735 161.749 53.5583 161.588 53.8183C161.118 54.5985 160.275 54.9824 159.062 54.9824C158.344 54.9824 157.737 54.8462 157.242 54.549C156.746 54.2518 156.461 53.7688 156.375 53.1001H157.452C157.576 53.8183 158.133 54.1651 159.099 54.1651C159.755 54.1651 160.226 54.0041 160.523 53.6697C160.82 53.3478 160.969 52.8153 160.994 52.0723L161.006 51.2921C160.597 52.0723 159.916 52.4561 158.963 52.4561C158.108 52.4561 157.427 52.1713 156.92 51.5769C156.412 50.9949 156.152 50.2023 156.152 49.2117C156.152 48.2829 156.412 47.4904 156.907 46.8216C157.415 46.1529 158.121 45.8186 159.025 45.8186C159.471 45.8186 159.867 45.9177 160.214 46.1034C160.56 46.3015 160.845 46.574 161.043 46.9207V45.992H162.009ZM159.074 46.7473C158.505 46.7473 158.046 46.9579 157.724 47.4037C157.403 47.8495 157.242 48.4563 157.242 49.2364C157.242 49.9299 157.403 50.4996 157.749 50.9206C158.084 51.3416 158.529 51.5645 159.099 51.5645C159.681 51.5645 160.139 51.3416 160.474 50.8958C160.808 50.45 160.981 49.8308 160.981 49.0631C160.981 48.3324 160.808 47.7628 160.474 47.3541C160.139 46.9455 159.669 46.7473 159.074 46.7473ZM169.83 45.8062C170.796 45.8062 171.539 46.1034 172.084 46.6978C172.616 47.2798 172.889 48.0971 172.889 49.1497C172.889 50.2395 172.616 51.0816 172.084 51.676C171.539 52.2828 170.783 52.58 169.817 52.58C168.839 52.58 168.071 52.2828 167.527 51.6884C166.969 51.094 166.697 50.2766 166.697 49.2117C166.697 48.1715 166.969 47.3418 167.539 46.7226C168.096 46.1158 168.864 45.8062 169.83 45.8062ZM169.805 46.6978C169.186 46.6978 168.691 46.9207 168.331 47.3665C167.96 47.8247 167.787 48.4315 167.787 49.1869C167.787 49.9794 167.96 50.5862 168.319 51.032C168.678 51.4778 169.186 51.6884 169.83 51.6884C170.449 51.6884 170.932 51.4655 171.279 51.0197C171.625 50.5739 171.811 49.9671 171.811 49.1745C171.811 48.4191 171.625 47.8123 171.266 47.3665C170.907 46.9207 170.424 46.6978 169.805 46.6978ZM175.133 45.992V46.9826C175.653 46.2149 176.383 45.8186 177.312 45.8186C178.055 45.8186 178.6 46.0167 178.934 46.413C179.269 46.8093 179.442 47.3789 179.442 48.1343V52.3818H178.39V48.6173C178.39 48.3077 178.377 48.06 178.352 47.8866C178.328 47.7133 178.278 47.5151 178.204 47.317C178.117 47.1189 177.981 46.9703 177.783 46.8712C177.585 46.7845 177.325 46.735 177.015 46.735C175.801 46.735 175.195 47.5027 175.195 49.0383V52.3818H174.142V45.992H175.133ZM187.268 45.8062C188.234 45.8062 188.977 46.1034 189.522 46.6978C190.055 47.2798 190.327 48.0971 190.327 49.1497C190.327 50.2395 190.055 51.0816 189.522 51.676C188.977 52.2828 188.222 52.58 187.256 52.58C186.278 52.58 185.51 52.2828 184.965 51.6884C184.408 51.094 184.135 50.2766 184.135 49.2117C184.135 48.1715 184.408 47.3418 184.977 46.7226C185.535 46.1158 186.302 45.8062 187.268 45.8062ZM187.244 46.6978C186.624 46.6978 186.129 46.9207 185.77 47.3665C185.398 47.8247 185.225 48.4315 185.225 49.1869C185.225 49.9794 185.398 50.5862 185.758 51.032C186.117 51.4778 186.624 51.6884 187.268 51.6884C187.888 51.6884 188.37 51.4655 188.717 51.0197C189.064 50.5739 189.25 49.9671 189.25 49.1745C189.25 48.4191 189.064 47.8123 188.705 47.3665C188.346 46.9207 187.863 46.6978 187.244 46.6978ZM194.912 45.8434L194.899 46.9455C194.825 46.9331 194.738 46.9331 194.627 46.9331C194.292 46.9331 193.995 46.9826 193.748 47.0817C193.5 47.1808 193.314 47.317 193.166 47.478C193.017 47.6513 192.906 47.8495 192.806 48.0971C192.72 48.3448 192.658 48.5925 192.633 48.8402C192.608 49.0878 192.596 49.3727 192.596 49.6822V52.3818H191.543V45.992H192.546V47.3665C192.967 46.3511 193.748 45.8434 194.912 45.8434ZM200.889 45.992V51.7008C200.889 52.2456 200.852 52.679 200.802 52.9763C200.74 53.2735 200.629 53.5583 200.468 53.8183C199.997 54.5985 199.155 54.9824 197.942 54.9824C197.224 54.9824 196.617 54.8462 196.121 54.549C195.626 54.2518 195.341 53.7688 195.255 53.1001H196.332C196.456 53.8183 197.013 54.1651 197.979 54.1651C198.635 54.1651 199.106 54.0041 199.403 53.6697C199.7 53.3478 199.849 52.8153 199.874 52.0723L199.886 51.2921C199.477 52.0723 198.796 52.4561 197.843 52.4561C196.988 52.4561 196.307 52.1713 195.799 51.5769C195.292 50.9949 195.032 50.2023 195.032 49.2117C195.032 48.2829 195.292 47.4904 195.787 46.8216C196.295 46.1529 197.001 45.8186 197.905 45.8186C198.35 45.8186 198.747 45.9177 199.093 46.1034C199.44 46.3015 199.725 46.574 199.923 46.9207V45.992H200.889ZM197.954 46.7473C197.384 46.7473 196.926 46.9579 196.604 47.4037C196.282 47.8495 196.121 48.4563 196.121 49.2364C196.121 49.9299 196.282 50.4996 196.629 50.9206C196.963 51.3416 197.409 51.5645 197.979 51.5645C198.561 51.5645 199.019 51.3416 199.353 50.8958C199.688 50.45 199.861 49.8308 199.861 49.0631C199.861 48.3324 199.688 47.7628 199.353 47.3541C199.019 46.9455 198.549 46.7473 197.954 46.7473ZM208.124 51.5398V52.3695C207.901 52.4438 207.666 52.4933 207.405 52.4933C206.799 52.4933 206.489 52.1713 206.477 51.5521C205.87 52.2209 205.102 52.5676 204.161 52.5676C203.529 52.5676 203.034 52.4066 202.663 52.0846C202.291 51.7627 202.118 51.3169 202.118 50.7596C202.118 49.6203 202.873 48.9516 204.384 48.7659C204.483 48.7411 204.619 48.7287 204.817 48.7163C205.536 48.6296 205.969 48.5306 206.142 48.4315C206.328 48.2953 206.427 48.0724 206.427 47.7504C206.427 47.0446 205.944 46.6978 204.978 46.6978C204.483 46.6978 204.099 46.7969 203.851 46.995C203.591 47.1932 203.443 47.5275 203.393 47.9981H202.365C202.378 47.3046 202.625 46.7721 203.096 46.4006C203.567 46.0167 204.211 45.831 205.04 45.831C205.932 45.831 206.601 46.0291 207.046 46.4501C207.183 46.574 207.282 46.7473 207.356 46.9703C207.418 47.1808 207.455 47.3541 207.467 47.4904C207.467 47.6266 207.48 47.8371 207.48 48.1095C207.48 48.4191 207.467 48.8897 207.455 49.5213C207.43 50.1652 207.43 50.6358 207.43 50.9454C207.43 51.1806 207.455 51.3416 207.517 51.4407C207.579 51.5398 207.69 51.5769 207.864 51.5769C207.926 51.5769 208.012 51.5645 208.124 51.5398ZM206.427 49.0754C206.353 49.125 206.266 49.1745 206.192 49.224C206.105 49.2612 205.994 49.2983 205.87 49.3231C205.746 49.3479 205.659 49.3603 205.61 49.3727C205.56 49.385 205.461 49.3974 205.288 49.4222C205.115 49.447 205.015 49.4593 205.015 49.4593C204.755 49.4841 204.582 49.5089 204.508 49.5213C204.433 49.5336 204.285 49.5708 204.062 49.6327C203.839 49.6822 203.69 49.7565 203.604 49.8308C203.505 49.9051 203.418 50.0042 203.331 50.1528C203.245 50.3014 203.207 50.4748 203.207 50.6729C203.207 50.9949 203.319 51.2549 203.542 51.4531C203.765 51.6388 204.087 51.7379 204.483 51.7379C204.978 51.7379 205.436 51.5893 205.833 51.2921C206.229 50.9949 206.427 50.6358 206.427 50.2395V49.0754ZM210.106 45.992V46.9826C210.627 46.2149 211.357 45.8186 212.286 45.8186C213.029 45.8186 213.574 46.0167 213.908 46.413C214.243 46.8093 214.416 47.3789 214.416 48.1343V52.3818H213.363V48.6173C213.363 48.3077 213.351 48.06 213.326 47.8866C213.301 47.7133 213.252 47.5151 213.178 47.317C213.091 47.1189 212.955 46.9703 212.756 46.8712C212.558 46.7845 212.298 46.735 211.989 46.735C210.775 46.735 210.168 47.5027 210.168 49.0383V52.3818H209.116V45.992H210.106ZM217.111 43.5648V44.8527H216.046V43.5648H217.111ZM217.111 45.992V52.3818H216.046V45.992H217.111ZM224.24 50.0537C224.141 50.8215 223.856 51.4407 223.361 51.8865C222.866 52.3447 222.234 52.5676 221.442 52.5676C220.476 52.5676 219.733 52.2704 219.2 51.676C218.68 51.0816 218.408 50.2766 218.408 49.2736C218.408 48.2086 218.692 47.3665 219.237 46.7473C219.795 46.1282 220.538 45.8062 221.479 45.8062C222.271 45.8062 222.89 46.0043 223.361 46.4006C223.832 46.7969 224.116 47.3541 224.191 48.0848H223.101C222.915 47.156 222.383 46.6978 221.503 46.6978C220.884 46.6978 220.401 46.9207 220.055 47.3665C219.696 47.8123 219.522 48.4315 219.522 49.1993C219.522 49.9671 219.683 50.5862 220.03 51.032C220.364 51.4778 220.835 51.7008 221.429 51.7008C221.9 51.7008 222.296 51.5521 222.593 51.2797C222.89 50.9949 223.089 50.5862 223.175 50.0537H224.24ZM233.583 47.8495H232.53C232.456 47.0817 231.936 46.6854 230.97 46.6854C230.561 46.6854 230.239 46.7721 230.016 46.9207C229.781 47.0817 229.67 47.2922 229.67 47.5523C229.67 47.6266 229.67 47.7009 229.694 47.7752C229.707 47.8495 229.731 47.9114 229.781 47.9609C229.831 48.0105 229.868 48.06 229.905 48.0971C229.942 48.1467 230.004 48.1838 230.091 48.221C230.177 48.2581 230.239 48.2829 230.289 48.3077C230.338 48.3324 230.413 48.3696 230.536 48.3944C230.66 48.4191 230.747 48.4439 230.796 48.4563C230.846 48.4687 230.933 48.4934 231.081 48.5182C231.23 48.5553 231.317 48.5801 231.366 48.5801C231.663 48.6544 231.899 48.7039 232.047 48.7411C232.196 48.7906 232.406 48.8649 232.679 48.9764C232.951 49.0878 233.149 49.1993 233.298 49.3231C233.434 49.447 233.558 49.6079 233.669 49.8185C233.781 50.029 233.843 50.2643 233.843 50.5243C233.843 51.1435 233.595 51.6512 233.112 52.0227C232.629 52.3942 231.985 52.58 231.193 52.58C230.326 52.58 229.657 52.3942 229.187 52.0103C228.716 51.6388 228.468 51.0816 228.444 50.3633H229.484C229.533 51.2673 230.115 51.7131 231.217 51.7131C231.688 51.7131 232.06 51.6264 232.344 51.4283C232.629 51.2302 232.778 50.9701 232.778 50.6482C232.778 50.4376 232.704 50.2643 232.555 50.1157C232.406 49.9794 232.233 49.8804 232.06 49.8185C231.874 49.7565 231.614 49.6822 231.279 49.5956C231.23 49.5956 231.193 49.5832 231.168 49.5708C231.094 49.5584 230.933 49.5213 230.685 49.4717C230.437 49.4222 230.264 49.3727 230.165 49.3355C230.053 49.3107 229.892 49.2612 229.694 49.1869C229.496 49.1126 229.348 49.0383 229.249 48.964C229.149 48.8897 229.038 48.7906 228.914 48.6668C228.79 48.543 228.716 48.4067 228.666 48.2458C228.617 48.0848 228.592 47.899 228.592 47.6885C228.592 47.1189 228.803 46.6607 229.249 46.3139C229.694 45.9796 230.289 45.8062 231.032 45.8062C231.775 45.8062 232.394 45.992 232.865 46.3387C233.335 46.6978 233.583 47.2055 233.583 47.8495ZM236.084 43.5648V46.8959C236.555 46.1901 237.248 45.831 238.177 45.831C239.614 45.831 240.332 46.5616 240.332 48.0105V52.3818H239.279V48.2581C239.279 47.7752 239.168 47.4037 238.97 47.1436C238.771 46.8836 238.4 46.7473 237.88 46.7473C237.236 46.7473 236.765 46.9579 236.493 47.3665C236.22 47.7876 236.084 48.3696 236.084 49.1374V52.3818H235.032V43.5648H236.084ZM247.374 50.3633C247.052 51.8494 246.123 52.5924 244.588 52.5924C243.646 52.5924 242.903 52.3075 242.371 51.7131C241.838 51.1311 241.578 50.3138 241.578 49.2736C241.578 48.2458 241.851 47.4161 242.396 46.7721C242.941 46.1282 243.659 45.8062 244.55 45.8062C245.529 45.8062 246.259 46.1406 246.73 46.8093C247.2 47.478 247.448 48.3077 247.448 49.3231V49.4717H242.643L242.631 49.546C242.631 50.2271 242.804 50.7596 243.163 51.1435C243.51 51.5398 244.006 51.7255 244.625 51.7255C245.083 51.7255 245.442 51.6264 245.714 51.4035C245.987 51.193 246.197 50.8463 246.346 50.3633H247.374ZM246.358 48.6173C246.309 48.0105 246.123 47.5399 245.801 47.1932C245.479 46.8464 245.046 46.673 244.526 46.673C244.006 46.673 243.584 46.8464 243.25 47.1932C242.903 47.5399 242.705 48.0228 242.643 48.6173H246.358ZM254.223 51.5398V52.3695C254 52.4438 253.765 52.4933 253.505 52.4933C252.898 52.4933 252.589 52.1713 252.576 51.5521C251.969 52.2209 251.202 52.5676 250.261 52.5676C249.629 52.5676 249.134 52.4066 248.762 52.0846C248.391 51.7627 248.217 51.3169 248.217 50.7596C248.217 49.6203 248.973 48.9516 250.483 48.7659C250.582 48.7411 250.719 48.7287 250.917 48.7163C251.635 48.6296 252.069 48.5306 252.242 48.4315C252.428 48.2953 252.527 48.0724 252.527 47.7504C252.527 47.0446 252.044 46.6978 251.078 46.6978C250.582 46.6978 250.199 46.7969 249.951 46.995C249.691 47.1932 249.542 47.5275 249.493 47.9981H248.465C248.477 47.3046 248.725 46.7721 249.196 46.4006C249.666 46.0167 250.31 45.831 251.14 45.831C252.031 45.831 252.7 46.0291 253.146 46.4501C253.282 46.574 253.381 46.7473 253.455 46.9703C253.517 47.1808 253.555 47.3541 253.567 47.4904C253.567 47.6266 253.579 47.8371 253.579 48.1095C253.579 48.4191 253.567 48.8897 253.555 49.5213C253.53 50.1652 253.53 50.6358 253.53 50.9454C253.53 51.1806 253.555 51.3416 253.616 51.4407C253.678 51.5398 253.79 51.5769 253.963 51.5769C254.025 51.5769 254.112 51.5645 254.223 51.5398ZM252.527 49.0754C252.452 49.125 252.366 49.1745 252.291 49.224C252.205 49.2612 252.093 49.2983 251.969 49.3231C251.846 49.3479 251.759 49.3603 251.709 49.3727C251.66 49.385 251.561 49.3974 251.387 49.4222C251.214 49.447 251.115 49.4593 251.115 49.4593C250.855 49.4841 250.682 49.5089 250.607 49.5213C250.533 49.5336 250.384 49.5708 250.161 49.6327C249.939 49.6822 249.79 49.7565 249.703 49.8308C249.604 49.9051 249.518 50.0042 249.431 50.1528C249.344 50.3014 249.307 50.4748 249.307 50.6729C249.307 50.9949 249.418 51.2549 249.641 51.4531C249.864 51.6388 250.186 51.7379 250.582 51.7379C251.078 51.7379 251.536 51.5893 251.932 51.2921C252.329 50.9949 252.527 50.6358 252.527 50.2395V49.0754ZM259.702 43.5648V46.8712C260.16 46.1777 260.866 45.8186 261.82 45.8186C262.687 45.8186 263.392 46.1282 263.912 46.735C264.433 47.3418 264.705 48.1467 264.705 49.1621C264.705 50.2023 264.433 51.0197 263.9 51.6388C263.355 52.258 262.649 52.5676 261.758 52.5676C260.742 52.5676 260.036 52.1961 259.64 51.4531V52.3818H258.649V43.5648H259.702ZM261.659 46.7102C260.978 46.7102 260.47 46.9579 260.148 47.4408C259.826 47.9362 259.665 48.5306 259.665 49.2364C259.665 49.9918 259.838 50.5862 260.197 51.032C260.557 51.4778 261.04 51.6884 261.659 51.6884C262.241 51.6884 262.711 51.4655 263.07 51.0073C263.43 50.5491 263.615 49.9423 263.615 49.1745C263.615 48.4315 263.43 47.8247 263.083 47.3789C262.724 46.9331 262.253 46.7102 261.659 46.7102ZM271.303 45.992L271.29 52.3818H270.312V51.3788C269.767 52.1713 269.036 52.5552 268.108 52.5552C267.439 52.5552 266.906 52.3695 266.535 51.998C266.163 51.6264 265.978 51.094 265.978 50.3881V45.992H267.03V50.1033C267.03 50.611 267.129 50.9949 267.328 51.2549C267.526 51.515 267.872 51.6388 268.38 51.6388C269.618 51.6388 270.25 50.8711 270.25 49.3355V45.992H271.303ZM275.62 45.992V46.8588H274.345V50.5862C274.345 50.7968 274.345 50.933 274.345 50.9949C274.345 51.0692 274.37 51.1559 274.419 51.2673C274.456 51.3788 274.531 51.4531 274.63 51.4778C274.729 51.515 274.865 51.5274 275.051 51.5274C275.199 51.5274 275.397 51.515 275.62 51.4902V52.3942C275.323 52.4314 275.051 52.4438 274.815 52.4438C274.518 52.4438 274.271 52.419 274.072 52.3447C273.874 52.2828 273.713 52.2085 273.614 52.1218C273.515 52.0475 273.441 51.8989 273.391 51.6884C273.342 51.4778 273.305 51.3045 273.305 51.1559C273.292 51.0073 273.292 50.772 273.292 50.4252V50.3757V50.3138V50.2519V46.8588H272.215V45.992H273.292V44.0973H274.345V45.992H275.62ZM279.526 45.992V46.8588H278.251V50.5862C278.251 50.7968 278.251 50.933 278.251 50.9949C278.251 51.0692 278.276 51.1559 278.325 51.2673C278.362 51.3788 278.437 51.4531 278.536 51.4778C278.635 51.515 278.771 51.5274 278.957 51.5274C279.105 51.5274 279.304 51.515 279.526 51.4902V52.3942C279.229 52.4314 278.957 52.4438 278.722 52.4438C278.424 52.4438 278.177 52.419 277.978 52.3447C277.78 52.2828 277.619 52.2085 277.52 52.1218C277.421 52.0475 277.347 51.8989 277.297 51.6884C277.248 51.4778 277.211 51.3045 277.211 51.1559C277.198 51.0073 277.198 50.772 277.198 50.4252V50.3757V50.3138V50.2519V46.8588H276.121V45.992H277.198V44.0973H278.251V45.992H279.526ZM286.157 50.3633C285.835 51.8494 284.906 52.5924 283.371 52.5924C282.429 52.5924 281.686 52.3075 281.154 51.7131C280.622 51.1311 280.361 50.3138 280.361 49.2736C280.361 48.2458 280.634 47.4161 281.179 46.7721C281.724 46.1282 282.442 45.8062 283.333 45.8062C284.312 45.8062 285.042 46.1406 285.513 46.8093C285.984 47.478 286.231 48.3077 286.231 49.3231V49.4717H281.426L281.414 49.546C281.414 50.2271 281.587 50.7596 281.947 51.1435C282.293 51.5398 282.789 51.7255 283.408 51.7255C283.866 51.7255 284.225 51.6264 284.498 51.4035C284.77 51.193 284.98 50.8463 285.129 50.3633H286.157ZM285.141 48.6173C285.092 48.0105 284.906 47.5399 284.584 47.1932C284.262 46.8464 283.829 46.673 283.309 46.673C282.789 46.673 282.368 46.8464 282.033 47.1932C281.686 47.5399 281.488 48.0228 281.426 48.6173H285.141ZM290.678 45.8434L290.666 46.9455C290.592 46.9331 290.505 46.9331 290.393 46.9331C290.059 46.9331 289.762 46.9826 289.514 47.0817C289.267 47.1808 289.081 47.317 288.932 47.478C288.784 47.6513 288.672 47.8495 288.573 48.0971C288.486 48.3448 288.424 48.5925 288.4 48.8402C288.375 49.0878 288.363 49.3727 288.363 49.6822V52.3818H287.31V45.992H288.313V47.3665C288.734 46.3511 289.514 45.8434 290.678 45.8434ZM291.944 51.0073V52.3818H290.569V51.0073H291.944ZM297.364 43.5648H298.639L303.295 50.7225V43.5648H304.422V52.3818H303.109L298.478 45.3109V52.3818H297.364V43.5648ZM311.625 50.3633C311.303 51.8494 310.375 52.5924 308.839 52.5924C307.898 52.5924 307.155 52.3075 306.622 51.7131C306.09 51.1311 305.83 50.3138 305.83 49.2736C305.83 48.2458 306.102 47.4161 306.647 46.7721C307.192 46.1282 307.91 45.8062 308.802 45.8062C309.78 45.8062 310.511 46.1406 310.981 46.8093C311.452 47.478 311.7 48.3077 311.7 49.3231V49.4717H306.895L306.882 49.546C306.882 50.2271 307.056 50.7596 307.415 51.1435C307.762 51.5398 308.257 51.7255 308.876 51.7255C309.334 51.7255 309.694 51.6264 309.966 51.4035C310.238 51.193 310.449 50.8463 310.598 50.3633H311.625ZM310.61 48.6173C310.56 48.0105 310.375 47.5399 310.053 47.1932C309.731 46.8464 309.297 46.673 308.777 46.673C308.257 46.673 307.836 46.8464 307.502 47.1932C307.155 47.5399 306.957 48.0228 306.895 48.6173H310.61ZM318.277 50.3633C317.955 51.8494 317.026 52.5924 315.49 52.5924C314.549 52.5924 313.806 52.3075 313.274 51.7131C312.741 51.1311 312.481 50.3138 312.481 49.2736C312.481 48.2458 312.754 47.4161 313.298 46.7721C313.843 46.1282 314.562 45.8062 315.453 45.8062C316.432 45.8062 317.162 46.1406 317.633 46.8093C318.103 47.478 318.351 48.3077 318.351 49.3231V49.4717H313.546L313.534 49.546C313.534 50.2271 313.707 50.7596 314.066 51.1435C314.413 51.5398 314.908 51.7255 315.528 51.7255C315.986 51.7255 316.345 51.6264 316.617 51.4035C316.89 51.193 317.1 50.8463 317.249 50.3633H318.277ZM317.261 48.6173C317.212 48.0105 317.026 47.5399 316.704 47.1932C316.382 46.8464 315.949 46.673 315.428 46.673C314.908 46.673 314.487 46.8464 314.153 47.1932C313.806 47.5399 313.608 48.0228 313.546 48.6173H317.261ZM325.225 43.5648V52.3818H324.234V51.4407C323.826 52.1837 323.12 52.5552 322.129 52.5552C321.213 52.5552 320.495 52.258 319.962 51.6512C319.43 51.0444 319.17 50.2147 319.17 49.1745C319.17 48.2086 319.417 47.4161 319.913 46.7721C320.408 46.1282 321.139 45.8062 322.08 45.8062C322.996 45.8062 323.69 46.1529 324.173 46.8464V43.5648H325.225ZM322.216 46.7102C321.609 46.7102 321.126 46.9331 320.779 47.3665C320.433 47.8123 320.259 48.4067 320.259 49.1497C320.259 49.9299 320.433 50.5491 320.792 51.0073C321.151 51.4655 321.634 51.6884 322.241 51.6884C322.848 51.6884 323.33 51.4778 323.677 51.032C324.024 50.5862 324.197 49.9794 324.197 49.1869C324.197 48.4934 324.024 47.899 323.702 47.4284C323.38 46.9579 322.885 46.7102 322.216 46.7102ZM336.012 43.5648V52.3818H335.022V51.4407C334.613 52.1837 333.907 52.5552 332.916 52.5552C332 52.5552 331.282 52.258 330.749 51.6512C330.217 51.0444 329.957 50.2147 329.957 49.1745C329.957 48.2086 330.204 47.4161 330.7 46.7721C331.195 46.1282 331.926 45.8062 332.867 45.8062C333.783 45.8062 334.477 46.1529 334.96 46.8464V43.5648H336.012ZM333.003 46.7102C332.396 46.7102 331.913 46.9331 331.567 47.3665C331.22 47.8123 331.047 48.4067 331.047 49.1497C331.047 49.9299 331.22 50.5491 331.579 51.0073C331.938 51.4655 332.421 51.6884 333.028 51.6884C333.635 51.6884 334.118 51.4778 334.464 51.032C334.811 50.5862 334.985 49.9794 334.985 49.1869C334.985 48.4934 334.811 47.899 334.489 47.4284C334.167 46.9579 333.672 46.7102 333.003 46.7102ZM343.056 50.3633C342.734 51.8494 341.805 52.5924 340.269 52.5924C339.328 52.5924 338.585 52.3075 338.053 51.7131C337.52 51.1311 337.26 50.3138 337.26 49.2736C337.26 48.2458 337.533 47.4161 338.078 46.7721C338.622 46.1282 339.341 45.8062 340.232 45.8062C341.211 45.8062 341.941 46.1406 342.412 46.8093C342.882 47.478 343.13 48.3077 343.13 49.3231V49.4717H338.325L338.313 49.546C338.313 50.2271 338.486 50.7596 338.845 51.1435C339.192 51.5398 339.687 51.7255 340.307 51.7255C340.765 51.7255 341.124 51.6264 341.396 51.4035C341.669 51.193 341.879 50.8463 342.028 50.3633H343.056ZM342.04 48.6173C341.991 48.0105 341.805 47.5399 341.483 47.1932C341.161 46.8464 340.728 46.673 340.208 46.673C339.687 46.673 339.266 46.8464 338.932 47.1932C338.585 47.5399 338.387 48.0228 338.325 48.6173H342.04ZM345.36 43.5648V52.3818H344.295V43.5648H345.36ZM348.106 43.5648V44.8527H347.041V43.5648H348.106ZM348.106 45.992V52.3818H347.041V45.992H348.106ZM349.117 45.992H350.294L352.102 51.354L353.86 45.992H354.962L352.622 52.3818H351.495L349.117 45.992ZM361.389 50.3633C361.067 51.8494 360.138 52.5924 358.603 52.5924C357.662 52.5924 356.919 52.3075 356.386 51.7131C355.854 51.1311 355.594 50.3138 355.594 49.2736C355.594 48.2458 355.866 47.4161 356.411 46.7721C356.956 46.1282 357.674 45.8062 358.566 45.8062C359.544 45.8062 360.275 46.1406 360.745 46.8093C361.216 47.478 361.463 48.3077 361.463 49.3231V49.4717H356.659L356.646 49.546C356.646 50.2271 356.82 50.7596 357.179 51.1435C357.526 51.5398 358.021 51.7255 358.64 51.7255C359.098 51.7255 359.457 51.6264 359.73 51.4035C360.002 51.193 360.213 50.8463 360.361 50.3633H361.389ZM360.374 48.6173C360.324 48.0105 360.138 47.5399 359.816 47.1932C359.494 46.8464 359.061 46.673 358.541 46.673C358.021 46.673 357.6 46.8464 357.265 47.1932C356.919 47.5399 356.721 48.0228 356.659 48.6173H360.374ZM365.91 45.8434L365.898 46.9455C365.824 46.9331 365.737 46.9331 365.626 46.9331C365.291 46.9331 364.994 46.9826 364.746 47.0817C364.499 47.1808 364.313 47.317 364.164 47.478C364.016 47.6513 363.904 47.8495 363.805 48.0971C363.719 48.3448 363.657 48.5925 363.632 48.8402C363.607 49.0878 363.595 49.3727 363.595 49.6822V52.3818H362.542V45.992H363.545V47.3665C363.966 46.3511 364.746 45.8434 365.91 45.8434ZM371.991 45.992L369.254 53.1992C369.143 53.4964 369.044 53.7193 368.969 53.8802C368.895 54.0412 368.784 54.2146 368.635 54.4127C368.486 54.6109 368.313 54.7471 368.115 54.8338C367.917 54.9205 367.681 54.9576 367.409 54.9576C367.198 54.9576 366.938 54.9205 366.629 54.8462V53.905C366.926 54.0041 367.161 54.0412 367.31 54.0412C367.657 54.0412 367.904 53.8679 368.053 53.5087L368.548 52.3447L366.01 45.992H367.198L369.093 51.0816L370.889 45.992H371.991ZM379.078 45.992V46.8588H377.803V50.5862C377.803 50.7968 377.803 50.933 377.803 50.9949C377.803 51.0692 377.827 51.1559 377.877 51.2673C377.914 51.3788 377.988 51.4531 378.088 51.4778C378.187 51.515 378.323 51.5274 378.509 51.5274C378.657 51.5274 378.855 51.515 379.078 51.4902V52.3942C378.781 52.4314 378.509 52.4438 378.273 52.4438C377.976 52.4438 377.728 52.419 377.53 52.3447C377.332 52.2828 377.171 52.2085 377.072 52.1218C376.973 52.0475 376.899 51.8989 376.849 51.6884C376.8 51.4778 376.763 51.3045 376.763 51.1559C376.75 51.0073 376.75 50.772 376.75 50.4252V50.3757V50.3138V50.2519V46.8588H375.673V45.992H376.75V44.0973H377.803V45.992H379.078ZM383.046 45.8062C384.012 45.8062 384.755 46.1034 385.3 46.6978C385.833 47.2798 386.105 48.0971 386.105 49.1497C386.105 50.2395 385.833 51.0816 385.3 51.676C384.755 52.2828 384 52.58 383.034 52.58C382.056 52.58 381.288 52.2828 380.743 51.6884C380.186 51.094 379.913 50.2766 379.913 49.2117C379.913 48.1715 380.186 47.3418 380.755 46.7226C381.313 46.1158 382.08 45.8062 383.046 45.8062ZM383.021 46.6978C382.402 46.6978 381.907 46.9207 381.548 47.3665C381.176 47.8247 381.003 48.4315 381.003 49.1869C381.003 49.9794 381.176 50.5862 381.535 51.032C381.895 51.4778 382.402 51.6884 383.046 51.6884C383.665 51.6884 384.148 51.4655 384.495 51.0197C384.842 50.5739 385.028 49.9671 385.028 49.1745C385.028 48.4191 384.842 47.8123 384.483 47.3665C384.124 46.9207 383.641 46.6978 383.021 46.6978ZM396.848 51.3664V52.3818H391.003V43.5648H392.167V51.3664H396.848ZM403.345 51.5398V52.3695C403.122 52.4438 402.887 52.4933 402.627 52.4933C402.02 52.4933 401.711 52.1713 401.698 51.5521C401.092 52.2209 400.324 52.5676 399.383 52.5676C398.751 52.5676 398.256 52.4066 397.884 52.0846C397.513 51.7627 397.339 51.3169 397.339 50.7596C397.339 49.6203 398.095 48.9516 399.606 48.7659C399.705 48.7411 399.841 48.7287 400.039 48.7163C400.757 48.6296 401.191 48.5306 401.364 48.4315C401.55 48.2953 401.649 48.0724 401.649 47.7504C401.649 47.0446 401.166 46.6978 400.2 46.6978C399.705 46.6978 399.321 46.7969 399.073 46.995C398.813 47.1932 398.664 47.5275 398.615 47.9981H397.587C397.599 47.3046 397.847 46.7721 398.318 46.4006C398.788 46.0167 399.432 45.831 400.262 45.831C401.153 45.831 401.822 46.0291 402.268 46.4501C402.404 46.574 402.503 46.7473 402.578 46.9703C402.64 47.1808 402.677 47.3541 402.689 47.4904C402.689 47.6266 402.701 47.8371 402.701 48.1095C402.701 48.4191 402.689 48.8897 402.677 49.5213C402.652 50.1652 402.652 50.6358 402.652 50.9454C402.652 51.1806 402.677 51.3416 402.739 51.4407C402.8 51.5398 402.912 51.5769 403.085 51.5769C403.147 51.5769 403.234 51.5645 403.345 51.5398ZM401.649 49.0754C401.575 49.125 401.488 49.1745 401.414 49.224C401.327 49.2612 401.215 49.2983 401.092 49.3231C400.968 49.3479 400.881 49.3603 400.832 49.3727C400.782 49.385 400.683 49.3974 400.51 49.4222C400.336 49.447 400.237 49.4593 400.237 49.4593C399.977 49.4841 399.804 49.5089 399.729 49.5213C399.655 49.5336 399.506 49.5708 399.284 49.6327C399.061 49.6822 398.912 49.7565 398.825 49.8308C398.726 49.9051 398.64 50.0042 398.553 50.1528C398.466 50.3014 398.429 50.4748 398.429 50.6729C398.429 50.9949 398.541 51.2549 398.763 51.4531C398.986 51.6388 399.308 51.7379 399.705 51.7379C400.2 51.7379 400.658 51.5893 401.054 51.2921C401.451 50.9949 401.649 50.6358 401.649 50.2395V49.0754ZM409.873 45.992V51.7008C409.873 52.2456 409.836 52.679 409.786 52.9763C409.724 53.2735 409.613 53.5583 409.452 53.8183C408.981 54.5985 408.139 54.9824 406.926 54.9824C406.207 54.9824 405.6 54.8462 405.105 54.549C404.61 54.2518 404.325 53.7688 404.238 53.1001H405.316C405.44 53.8183 405.997 54.1651 406.963 54.1651C407.619 54.1651 408.09 54.0041 408.387 53.6697C408.684 53.3478 408.833 52.8153 408.857 52.0723L408.87 51.2921C408.461 52.0723 407.78 52.4561 406.826 52.4561C405.972 52.4561 405.291 52.1713 404.783 51.5769C404.275 50.9949 404.015 50.2023 404.015 49.2117C404.015 48.2829 404.275 47.4904 404.771 46.8216C405.279 46.1529 405.984 45.8186 406.888 45.8186C407.334 45.8186 407.73 45.9177 408.077 46.1034C408.424 46.3015 408.709 46.574 408.907 46.9207V45.992H409.873ZM406.938 46.7473C406.368 46.7473 405.91 46.9579 405.588 47.4037C405.266 47.8495 405.105 48.4563 405.105 49.2364C405.105 49.9299 405.266 50.4996 405.613 50.9206C405.947 51.3416 406.393 51.5645 406.963 51.5645C407.545 51.5645 408.003 51.3416 408.337 50.8958C408.672 50.45 408.845 49.8308 408.845 49.0631C408.845 48.3324 408.672 47.7628 408.337 47.3541C408.003 46.9455 407.532 46.7473 406.938 46.7473ZM414.247 45.8062C415.213 45.8062 415.956 46.1034 416.501 46.6978C417.033 47.2798 417.306 48.0971 417.306 49.1497C417.306 50.2395 417.033 51.0816 416.501 51.676C415.956 52.2828 415.2 52.58 414.235 52.58C413.256 52.58 412.488 52.2828 411.944 51.6884C411.386 51.094 411.114 50.2766 411.114 49.2117C411.114 48.1715 411.386 47.3418 411.956 46.7226C412.513 46.1158 413.281 45.8062 414.247 45.8062ZM414.222 46.6978C413.603 46.6978 413.108 46.9207 412.748 47.3665C412.377 47.8247 412.204 48.4315 412.204 49.1869C412.204 49.9794 412.377 50.5862 412.736 51.032C413.095 51.4778 413.603 51.6884 414.247 51.6884C414.866 51.6884 415.349 51.4655 415.696 51.0197C416.042 50.5739 416.228 49.9671 416.228 49.1745C416.228 48.4191 416.042 47.8123 415.683 47.3665C415.324 46.9207 414.841 46.6978 414.222 46.6978ZM423.302 47.8495H422.249C422.175 47.0817 421.655 46.6854 420.689 46.6854C420.28 46.6854 419.958 46.7721 419.736 46.9207C419.5 47.0817 419.389 47.2922 419.389 47.5523C419.389 47.6266 419.389 47.7009 419.414 47.7752C419.426 47.8495 419.451 47.9114 419.5 47.9609C419.55 48.0105 419.587 48.06 419.624 48.0971C419.661 48.1467 419.723 48.1838 419.81 48.221C419.897 48.2581 419.958 48.2829 420.008 48.3077C420.057 48.3324 420.132 48.3696 420.256 48.3944C420.379 48.4191 420.466 48.4439 420.516 48.4563C420.565 48.4687 420.652 48.4934 420.8 48.5182C420.949 48.5553 421.036 48.5801 421.085 48.5801C421.383 48.6544 421.618 48.7039 421.766 48.7411C421.915 48.7906 422.126 48.8649 422.398 48.9764C422.67 49.0878 422.869 49.1993 423.017 49.3231C423.153 49.447 423.277 49.6079 423.389 49.8185C423.5 50.029 423.562 50.2643 423.562 50.5243C423.562 51.1435 423.314 51.6512 422.831 52.0227C422.348 52.3942 421.704 52.58 420.912 52.58C420.045 52.58 419.376 52.3942 418.906 52.0103C418.435 51.6388 418.188 51.0816 418.163 50.3633H419.203C419.253 51.2673 419.835 51.7131 420.937 51.7131C421.407 51.7131 421.779 51.6264 422.064 51.4283C422.348 51.2302 422.497 50.9701 422.497 50.6482C422.497 50.4376 422.423 50.2643 422.274 50.1157C422.126 49.9794 421.952 49.8804 421.779 49.8185C421.593 49.7565 421.333 49.6822 420.999 49.5956C420.949 49.5956 420.912 49.5832 420.887 49.5708C420.813 49.5584 420.652 49.5213 420.404 49.4717C420.157 49.4222 419.983 49.3727 419.884 49.3355C419.773 49.3107 419.612 49.2612 419.414 49.1869C419.215 49.1126 419.067 49.0383 418.968 48.964C418.869 48.8897 418.757 48.7906 418.633 48.6668C418.51 48.543 418.435 48.4067 418.386 48.2458C418.336 48.0848 418.311 47.899 418.311 47.6885C418.311 47.1189 418.522 46.6607 418.968 46.3139C419.414 45.9796 420.008 45.8062 420.751 45.8062C421.494 45.8062 422.113 45.992 422.584 46.3387C423.054 46.6978 423.302 47.2055 423.302 47.8495ZM426.361 51.0073V52.3818H424.986V51.0073H426.361ZM429.807 51.0073V52.3818H428.433V51.0073H429.807ZM433.254 51.0073V52.3818H431.879V51.0073H433.254Z" fill="#848484"/>
<path d="M39.0918 72.7174V73.7328H34.4604V76.482H38.547V77.4602H34.4604V81.5344H33.2963V72.7174H39.0918ZM43.5402 74.9959L43.5278 76.0981C43.4535 76.0857 43.3668 76.0857 43.2554 76.0857C42.921 76.0857 42.6238 76.1352 42.3762 76.2343C42.1285 76.3334 41.9427 76.4696 41.7941 76.6306C41.6455 76.8039 41.5341 77.0021 41.435 77.2497C41.3483 77.4974 41.2864 77.7451 41.2616 77.9927C41.2369 78.2404 41.2245 78.5252 41.2245 78.8348V81.5344H40.1719V75.1445H41.175V76.5191C41.596 75.5037 42.3762 74.9959 43.5402 74.9959ZM46.9138 74.9588C47.8798 74.9588 48.6228 75.256 49.1676 75.8504C49.7001 76.4324 49.9726 77.2497 49.9726 78.3023C49.9726 79.3921 49.7001 80.2342 49.1676 80.8286C48.6228 81.4354 47.8674 81.7326 46.9015 81.7326C45.9232 81.7326 45.1554 81.4354 44.6105 80.8409C44.0533 80.2465 43.7808 79.4292 43.7808 78.3642C43.7808 77.324 44.0533 76.4943 44.6229 75.8752C45.1802 75.2684 45.9479 74.9588 46.9138 74.9588ZM46.8891 75.8504C46.2699 75.8504 45.7746 76.0733 45.4154 76.5191C45.0439 76.9773 44.8706 77.5841 44.8706 78.3395C44.8706 79.132 45.0439 79.7388 45.4031 80.1846C45.7622 80.6304 46.2699 80.8409 46.9138 80.8409C47.533 80.8409 48.016 80.618 48.3627 80.1722C48.7095 79.7264 48.8952 79.1196 48.8952 78.3271C48.8952 77.5717 48.7095 76.9649 48.3503 76.5191C47.9912 76.0733 47.5083 75.8504 46.8891 75.8504ZM52.2167 75.1445L52.2043 76.0857C52.4891 75.7018 52.7863 75.4294 53.1083 75.256C53.4303 75.0826 53.8266 74.9959 54.2847 74.9959C55.164 74.9959 55.7584 75.3551 56.068 76.0981C56.6128 75.3551 57.3187 74.9835 58.1856 74.9835C58.8419 74.9835 59.3372 75.1569 59.684 75.5284C60.0307 75.8999 60.2041 76.4077 60.2041 77.0764V81.5468H59.1515V77.5222C59.1515 76.9897 59.0648 76.5934 58.9038 76.321C58.7304 76.0485 58.3961 75.9247 57.876 75.9247C56.7862 75.9247 56.2413 76.581 56.2413 77.9184V81.5468H55.1887V77.4479C55.1887 76.9525 55.1021 76.581 54.9411 76.321C54.7801 76.0609 54.4705 75.9371 54.0123 75.9371C53.356 75.9371 52.8978 76.1352 52.6501 76.5315C52.4025 76.9278 52.2786 77.4726 52.2786 78.1537V81.5344H51.226V75.1445H52.2167ZM63.3933 80.1599V81.5344H62.0187V80.1599H63.3933ZM63.3933 75.1445V76.5191H62.0187V75.1445H63.3933Z" fill="#B9B9B9"/>
<path d="M72.565 72.7174L76.0076 81.5344H74.7074L73.7291 78.8348H70.0264L69.0233 81.5344H67.785L71.2524 72.7174H72.565ZM73.3823 77.9061L71.8839 73.8319L70.3608 77.9061H73.3823ZM77.6972 75.1445L77.6848 76.0857C77.9697 75.7018 78.2669 75.4294 78.5888 75.256C78.9108 75.0826 79.3071 74.9959 79.7653 74.9959C80.6445 74.9959 81.2389 75.3551 81.5485 76.0981C82.0934 75.3551 82.7992 74.9835 83.6661 74.9835C84.3224 74.9835 84.8177 75.1569 85.1645 75.5284C85.5112 75.8999 85.6846 76.4077 85.6846 77.0764V81.5468H84.632V77.5222C84.632 76.9897 84.5453 76.5934 84.3843 76.321C84.2109 76.0485 83.8766 75.9247 83.3565 75.9247C82.2667 75.9247 81.7219 76.581 81.7219 77.9184V81.5468H80.6693V77.4479C80.6693 76.9525 80.5826 76.581 80.4216 76.321C80.2606 76.0609 79.951 75.9371 79.4928 75.9371C78.8365 75.9371 78.3783 76.1352 78.1306 76.5315C77.883 76.9278 77.7591 77.4726 77.7591 78.1537V81.5344H76.7065V75.1445H77.6972ZM92.9232 80.6923V81.522C92.7003 81.5963 92.465 81.6459 92.205 81.6459C91.5982 81.6459 91.2886 81.3239 91.2762 80.7047C90.6694 81.3734 89.9017 81.7202 88.9605 81.7202C88.3289 81.7202 87.8336 81.5592 87.4621 81.2372C87.0906 80.9152 86.9172 80.4694 86.9172 79.9122C86.9172 78.7729 87.6726 78.1042 89.1834 77.9184C89.2825 77.8937 89.4187 77.8813 89.6168 77.8689C90.3351 77.7822 90.7685 77.6832 90.9419 77.5841C91.1276 77.4479 91.2267 77.225 91.2267 76.903C91.2267 76.1971 90.7437 75.8504 89.7778 75.8504C89.2825 75.8504 88.8986 75.9495 88.6509 76.1476C88.3909 76.3457 88.2423 76.6801 88.1927 77.1507H87.1649C87.1773 76.4572 87.425 75.9247 87.8955 75.5532C88.3661 75.1693 89.01 74.9835 89.8397 74.9835C90.7313 74.9835 91.4001 75.1817 91.8459 75.6027C91.9821 75.7266 92.0811 75.8999 92.1555 76.1228C92.2174 76.3334 92.2545 76.5067 92.2669 76.6429C92.2669 76.7792 92.2793 76.9897 92.2793 77.2621C92.2793 77.5717 92.2669 78.0423 92.2545 78.6738C92.2298 79.3178 92.2298 79.7883 92.2298 80.0979C92.2298 80.3332 92.2545 80.4942 92.3164 80.5933C92.3784 80.6923 92.4898 80.7295 92.6632 80.7295C92.7251 80.7295 92.8118 80.7171 92.9232 80.6923ZM91.2267 78.228C91.1524 78.2776 91.0657 78.3271 90.9914 78.3766C90.9047 78.4138 90.7933 78.4509 90.6694 78.4757C90.5456 78.5005 90.4589 78.5128 90.4094 78.5252C90.3598 78.5376 90.2608 78.55 90.0874 78.5748C89.914 78.5995 89.815 78.6119 89.815 78.6119C89.5549 78.6367 89.3815 78.6614 89.3072 78.6738C89.2329 78.6862 89.0843 78.7234 88.8614 78.7853C88.6385 78.8348 88.4899 78.9091 88.4032 78.9834C88.3042 79.0577 88.2175 79.1568 88.1308 79.3054C88.0441 79.454 88.007 79.6274 88.007 79.8255C88.007 80.1475 88.1184 80.4075 88.3413 80.6057C88.5642 80.7914 88.8862 80.8905 89.2825 80.8905C89.7778 80.8905 90.236 80.7419 90.6323 80.4447C91.0286 80.1475 91.2267 79.7883 91.2267 79.3921V78.228ZM97.2464 74.9959L97.234 76.0981C97.1597 76.0857 97.0731 76.0857 96.9616 76.0857C96.6272 76.0857 96.33 76.1352 96.0824 76.2343C95.8347 76.3334 95.649 76.4696 95.5003 76.6306C95.3517 76.8039 95.2403 77.0021 95.1412 77.2497C95.0545 77.4974 94.9926 77.7451 94.9679 77.9927C94.9431 78.2404 94.9307 78.5252 94.9307 78.8348V81.5344H93.8781V75.1445H94.8812V76.5191C95.3022 75.5037 96.0824 74.9959 97.2464 74.9959ZM103.698 80.6923V81.522C103.475 81.5963 103.24 81.6459 102.98 81.6459C102.373 81.6459 102.064 81.3239 102.051 80.7047C101.445 81.3734 100.677 81.7202 99.7356 81.7202C99.104 81.7202 98.6087 81.5592 98.2372 81.2372C97.8657 80.9152 97.6923 80.4694 97.6923 79.9122C97.6923 78.7729 98.4477 78.1042 99.9585 77.9184C100.058 77.8937 100.194 77.8813 100.392 77.8689C101.11 77.7822 101.544 77.6832 101.717 77.5841C101.903 77.4479 102.002 77.225 102.002 76.903C102.002 76.1971 101.519 75.8504 100.553 75.8504C100.058 75.8504 99.6737 75.9495 99.426 76.1476C99.166 76.3457 99.0174 76.6801 98.9678 77.1507H97.94C97.9524 76.4572 98.2001 75.9247 98.6706 75.5532C99.1412 75.1693 99.7851 74.9835 100.615 74.9835C101.506 74.9835 102.175 75.1817 102.621 75.6027C102.757 75.7266 102.856 75.8999 102.931 76.1228C102.992 76.3334 103.03 76.5067 103.042 76.6429C103.042 76.7792 103.054 76.9897 103.054 77.2621C103.054 77.5717 103.042 78.0423 103.03 78.6738C103.005 79.3178 103.005 79.7883 103.005 80.0979C103.005 80.3332 103.03 80.4942 103.092 80.5933C103.153 80.6923 103.265 80.7295 103.438 80.7295C103.5 80.7295 103.587 80.7171 103.698 80.6923ZM102.002 78.228C101.927 78.2776 101.841 78.3271 101.767 78.3766C101.68 78.4138 101.568 78.4509 101.445 78.4757C101.321 78.5005 101.234 78.5128 101.184 78.5252C101.135 78.5376 101.036 78.55 100.863 78.5748C100.689 78.5995 100.59 78.6119 100.59 78.6119C100.33 78.6367 100.157 78.6614 100.082 78.6738C100.008 78.6862 99.8594 78.7234 99.6365 78.7853C99.4136 78.8348 99.265 78.9091 99.1783 78.9834C99.0793 79.0577 98.9926 79.1568 98.9059 79.3054C98.8192 79.454 98.7821 79.6274 98.7821 79.8255C98.7821 80.1475 98.8935 80.4075 99.1164 80.6057C99.3393 80.7914 99.6613 80.8905 100.058 80.8905C100.553 80.8905 101.011 80.7419 101.407 80.4447C101.804 80.1475 102.002 79.7883 102.002 79.3921V78.228ZM112.038 72.5068C113.375 72.5068 114.415 72.9279 115.158 73.77C115.901 74.612 116.273 75.7018 116.273 77.0516C116.273 78.4138 115.901 79.5407 115.171 80.4199C114.428 81.3115 113.388 81.7449 112.05 81.7449C111.357 81.7449 110.75 81.6211 110.205 81.3734C109.66 81.1258 109.214 80.7914 108.868 80.3456C108.521 79.9122 108.261 79.4168 108.087 78.8472C107.914 78.2899 107.827 77.6832 107.827 77.0268C107.827 75.6523 108.199 74.5501 108.967 73.7328C109.734 72.9155 110.75 72.5068 112.038 72.5068ZM112.038 73.5223C111.047 73.5223 110.292 73.869 109.772 74.5625C109.251 75.256 108.979 76.0981 108.979 77.1135C108.979 78.228 109.264 79.1073 109.821 79.7636C110.378 80.4199 111.121 80.7419 112.05 80.7419C112.979 80.7419 113.722 80.4199 114.279 79.7512C114.824 79.0949 115.109 78.2156 115.109 77.1135C115.109 76.0238 114.824 75.1569 114.267 74.5006C113.71 73.8566 112.967 73.5223 112.038 73.5223ZM122.92 75.1445L120.381 77.4602L123.106 81.5344H121.768L119.576 78.1909L118.573 79.1196V81.5344H117.546V72.7174H118.573V77.9308L121.508 75.1445H122.92ZM126.766 74.9588C127.732 74.9588 128.475 75.256 129.02 75.8504C129.552 76.4324 129.824 77.2497 129.824 78.3023C129.824 79.3921 129.552 80.2342 129.02 80.8286C128.475 81.4354 127.719 81.7326 126.753 81.7326C125.775 81.7326 125.007 81.4354 124.462 80.8409C123.905 80.2465 123.633 79.4292 123.633 78.3642C123.633 77.324 123.905 76.4943 124.475 75.8752C125.032 75.2684 125.8 74.9588 126.766 74.9588ZM126.741 75.8504C126.122 75.8504 125.626 76.0733 125.267 76.5191C124.896 76.9773 124.722 77.5841 124.722 78.3395C124.722 79.132 124.896 79.7388 125.255 80.1846C125.614 80.6304 126.122 80.8409 126.766 80.8409C127.385 80.8409 127.868 80.618 128.215 80.1722C128.561 79.7264 128.747 79.1196 128.747 78.3271C128.747 77.5717 128.561 76.9649 128.202 76.5191C127.843 76.0733 127.36 75.8504 126.741 75.8504ZM132.069 75.1445V76.1352C132.589 75.3674 133.319 74.9712 134.248 74.9712C134.991 74.9712 135.536 75.1693 135.87 75.5656C136.205 75.9618 136.378 76.5315 136.378 77.2869V81.5344H135.325V77.7698C135.325 77.4602 135.313 77.2126 135.288 77.0392C135.264 76.8658 135.214 76.6677 135.14 76.4696C135.053 76.2714 134.917 76.1228 134.719 76.0238C134.52 75.9371 134.26 75.8875 133.951 75.8875C132.737 75.8875 132.13 76.6553 132.13 78.1909V81.5344H131.078V75.1445H132.069ZM143.333 75.1445L140.795 77.4602L143.519 81.5344H142.182L139.99 78.1909L138.987 79.1196V81.5344H137.959V72.7174H138.987V77.9308L141.922 75.1445H143.333ZM143.798 75.1445H144.962L146.424 80.4075L147.724 75.1445H148.876L150.225 80.4075L151.674 75.1445H152.764L150.721 81.5344H149.606L148.294 76.482L146.993 81.5344H145.854L143.798 75.1445ZM156.564 74.9588C157.529 74.9588 158.272 75.256 158.817 75.8504C159.35 76.4324 159.622 77.2497 159.622 78.3023C159.622 79.3921 159.35 80.2342 158.817 80.8286C158.272 81.4354 157.517 81.7326 156.551 81.7326C155.573 81.7326 154.805 81.4354 154.26 80.8409C153.703 80.2465 153.43 79.4292 153.43 78.3642C153.43 77.324 153.703 76.4943 154.273 75.8752C154.83 75.2684 155.598 74.9588 156.564 74.9588ZM156.539 75.8504C155.92 75.8504 155.424 76.0733 155.065 76.5191C154.694 76.9773 154.52 77.5841 154.52 78.3395C154.52 79.132 154.694 79.7388 155.053 80.1846C155.412 80.6304 155.92 80.8409 156.564 80.8409C157.183 80.8409 157.666 80.618 158.012 80.1722C158.359 79.7264 158.545 79.1196 158.545 78.3271C158.545 77.5717 158.359 76.9649 158 76.5191C157.641 76.0733 157.158 75.8504 156.539 75.8504Z" fill="black"/>
<path d="M176.162 81.5592L175.555 82.2898L174.218 81.2125C173.598 81.5716 172.88 81.7449 172.063 81.7449C170.738 81.7449 169.71 81.2991 168.967 80.4075C168.224 79.5159 167.865 78.389 167.865 77.0268C167.865 75.6646 168.249 74.5749 169.016 73.7576C169.784 72.9403 170.8 72.5192 172.088 72.5192C173.388 72.5192 174.416 72.9279 175.171 73.7452C175.926 74.5625 176.31 75.677 176.31 77.1011C176.31 78.6243 175.865 79.8007 174.998 80.6304L176.162 81.5592ZM172.967 79.0082L174.131 79.9617C174.8 79.293 175.146 78.3395 175.146 77.1135C175.146 76.0361 174.861 75.1693 174.317 74.513C173.759 73.8566 173.029 73.5223 172.112 73.5223C171.122 73.5223 170.366 73.869 169.834 74.5501C169.289 75.2312 169.029 76.0733 169.029 77.0764C169.029 78.129 169.289 79.0082 169.809 79.7017C170.329 80.4075 171.109 80.7543 172.137 80.7543C172.608 80.7543 173.004 80.68 173.338 80.5066L172.348 79.7264L172.967 79.0082ZM182.883 75.1445L182.871 81.5344H181.892V80.5314C181.348 81.3239 180.617 81.7078 179.688 81.7078C179.019 81.7078 178.487 81.522 178.115 81.1505C177.744 80.779 177.558 80.2465 177.558 79.5407V75.1445H178.611V79.2559C178.611 79.7636 178.71 80.1475 178.908 80.4075C179.106 80.6676 179.453 80.7914 179.961 80.7914C181.199 80.7914 181.83 80.0236 181.83 78.4881V75.1445H182.883ZM190.123 80.6923V81.522C189.9 81.5963 189.665 81.6459 189.405 81.6459C188.798 81.6459 188.489 81.3239 188.476 80.7047C187.869 81.3734 187.102 81.7202 186.161 81.7202C185.529 81.7202 185.034 81.5592 184.662 81.2372C184.291 80.9152 184.117 80.4694 184.117 79.9122C184.117 78.7729 184.873 78.1042 186.383 77.9184C186.483 77.8937 186.619 77.8813 186.817 77.8689C187.535 77.7822 187.969 77.6832 188.142 77.5841C188.328 77.4479 188.427 77.225 188.427 76.903C188.427 76.1971 187.944 75.8504 186.978 75.8504C186.483 75.8504 186.099 75.9495 185.851 76.1476C185.591 76.3457 185.442 76.6801 185.393 77.1507H184.365C184.377 76.4572 184.625 75.9247 185.096 75.5532C185.566 75.1693 186.21 74.9835 187.04 74.9835C187.931 74.9835 188.6 75.1817 189.046 75.6027C189.182 75.7266 189.281 75.8999 189.356 76.1228C189.417 76.3334 189.455 76.5067 189.467 76.6429C189.467 76.7792 189.479 76.9897 189.479 77.2621C189.479 77.5717 189.467 78.0423 189.455 78.6738C189.43 79.3178 189.43 79.7883 189.43 80.0979C189.43 80.3332 189.455 80.4942 189.516 80.5933C189.578 80.6923 189.69 80.7295 189.863 80.7295C189.925 80.7295 190.012 80.7171 190.123 80.6923ZM188.427 78.228C188.352 78.2776 188.266 78.3271 188.191 78.3766C188.105 78.4138 187.993 78.4509 187.869 78.4757C187.746 78.5005 187.659 78.5128 187.609 78.5252C187.56 78.5376 187.461 78.55 187.287 78.5748C187.114 78.5995 187.015 78.6119 187.015 78.6119C186.755 78.6367 186.582 78.6614 186.507 78.6738C186.433 78.6862 186.284 78.7234 186.061 78.7853C185.839 78.8348 185.69 78.9091 185.603 78.9834C185.504 79.0577 185.418 79.1568 185.331 79.3054C185.244 79.454 185.207 79.6274 185.207 79.8255C185.207 80.1475 185.318 80.4075 185.541 80.6057C185.764 80.7914 186.086 80.8905 186.483 80.8905C186.978 80.8905 187.436 80.7419 187.832 80.4447C188.229 80.1475 188.427 79.7883 188.427 79.3921V78.228ZM192.106 75.1445V76.1352C192.626 75.3674 193.357 74.9712 194.285 74.9712C195.029 74.9712 195.573 75.1693 195.908 75.5656C196.242 75.9618 196.415 76.5315 196.415 77.2869V81.5344H195.363V77.7698C195.363 77.4602 195.35 77.2126 195.326 77.0392C195.301 76.8658 195.251 76.6677 195.177 76.4696C195.09 76.2714 194.954 76.1228 194.756 76.0238C194.558 75.9371 194.298 75.8875 193.988 75.8875C192.775 75.8875 192.168 76.6553 192.168 78.1909V81.5344H191.115V75.1445H192.106ZM200.733 75.1445V76.0114H199.458V79.7388C199.458 79.9493 199.458 80.0856 199.458 80.1475C199.458 80.2218 199.482 80.3085 199.532 80.4199C199.569 80.5314 199.643 80.6057 199.742 80.6304C199.842 80.6676 199.978 80.68 200.163 80.68C200.312 80.68 200.51 80.6676 200.733 80.6428V81.5468C200.436 81.584 200.163 81.5963 199.928 81.5963C199.631 81.5963 199.383 81.5716 199.185 81.4973C198.987 81.4354 198.826 81.3611 198.727 81.2744C198.628 81.2001 198.554 81.0515 198.504 80.8409C198.455 80.6304 198.417 80.4571 198.417 80.3085C198.405 80.1599 198.405 79.9246 198.405 79.5778V79.5283V79.4664V79.4045V76.0114H197.328V75.1445H198.405V73.2499H199.458V75.1445H200.733ZM203.017 72.7174V74.0053H201.952V72.7174H203.017ZM203.017 75.1445V81.5344H201.952V75.1445H203.017ZM207.384 75.1445V76.0114H206.109V79.7388C206.109 79.9493 206.109 80.0856 206.109 80.1475C206.109 80.2218 206.134 80.3085 206.183 80.4199C206.22 80.5314 206.295 80.6057 206.394 80.6304C206.493 80.6676 206.629 80.68 206.815 80.68C206.963 80.68 207.162 80.6676 207.384 80.6428V81.5468C207.087 81.584 206.815 81.5963 206.58 81.5963C206.282 81.5963 206.035 81.5716 205.836 81.4973C205.638 81.4354 205.477 81.3611 205.378 81.2744C205.279 81.2001 205.205 81.0515 205.155 80.8409C205.106 80.6304 205.069 80.4571 205.069 80.3085C205.056 80.1599 205.056 79.9246 205.056 79.5778V79.5283V79.4664V79.4045V76.0114H203.979V75.1445H205.056V73.2499H206.109V75.1445H207.384ZM213.842 75.1445L211.105 82.3517C210.993 82.6489 210.894 82.8718 210.82 83.0328C210.746 83.1938 210.634 83.3672 210.486 83.5653C210.337 83.7635 210.164 83.8997 209.966 83.9864C209.767 84.073 209.532 84.1102 209.26 84.1102C209.049 84.1102 208.789 84.073 208.48 83.9987V83.0576C208.777 83.1567 209.012 83.1938 209.161 83.1938C209.507 83.1938 209.755 83.0204 209.904 82.6613L210.399 81.4973L207.86 75.1445H209.049L210.944 80.2342L212.739 75.1445H213.842ZM216.355 80.1599V81.5344H214.981V80.1599H216.355ZM216.355 75.1445V76.5191H214.981V75.1445H216.355Z" fill="#B9B9B9"/>
<path d="M226.679 72.9155L226.666 73.8443H223.112L222.592 76.4572C223.026 75.999 223.62 75.7637 224.375 75.7637C225.193 75.7637 225.862 76.0361 226.382 76.5686C226.889 77.1011 227.149 77.7946 227.149 78.6367C227.149 79.5283 226.865 80.2713 226.307 80.8409C225.738 81.423 225.007 81.7078 224.115 81.7078C223.273 81.7078 222.605 81.4849 222.085 81.0143C221.564 80.5561 221.304 79.937 221.28 79.1692H222.345C222.382 79.6645 222.567 80.0608 222.902 80.358C223.224 80.6676 223.632 80.8162 224.128 80.8162C224.673 80.8162 225.118 80.618 225.49 80.2218C225.849 79.8255 226.035 79.3425 226.035 78.7481C226.035 78.1413 225.849 77.646 225.502 77.2621C225.143 76.8782 224.685 76.6801 224.115 76.6801C223.385 76.6801 222.828 76.9649 222.431 77.5346L221.527 77.4726L222.345 72.9155H226.679ZM231.157 72.7545C231.678 72.7545 232.136 72.8536 232.507 73.0517C232.879 73.2499 233.176 73.4851 233.374 73.7576C233.572 74.0424 233.721 74.4139 233.845 74.8597C233.956 75.3055 234.03 75.7142 234.055 76.0733C234.08 76.4324 234.092 76.8658 234.092 77.3612C234.092 77.8318 234.068 78.2404 234.03 78.6119C233.993 78.9834 233.919 79.3797 233.795 79.776C233.671 80.1846 233.51 80.519 233.312 80.7914C233.102 81.0639 232.817 81.2744 232.47 81.4477C232.111 81.6211 231.69 81.7078 231.207 81.7078C230.687 81.7078 230.241 81.6211 229.87 81.4477C229.498 81.2744 229.201 81.0515 229.003 80.7914C228.792 80.519 228.631 80.1846 228.507 79.776C228.384 79.3673 228.309 78.9834 228.272 78.6119C228.247 78.2404 228.223 77.8194 228.223 77.3364C228.223 76.9278 228.235 76.5686 228.26 76.259C228.285 75.9618 228.322 75.6151 228.384 75.2312C228.445 74.8473 228.545 74.5254 228.668 74.2529C228.805 73.9805 228.978 73.7328 229.189 73.4851C229.387 73.2499 229.659 73.0641 229.993 72.9403C230.328 72.8164 230.712 72.7545 231.157 72.7545ZM231.157 73.6957C230.897 73.6957 230.675 73.7452 230.476 73.8443C230.278 73.9433 230.117 74.0424 229.993 74.1662C229.87 74.2901 229.758 74.4758 229.671 74.7235C229.572 74.9712 229.51 75.1693 229.473 75.3303C229.436 75.5037 229.411 75.7389 229.387 76.0485C229.362 76.3581 229.349 76.581 229.349 76.7049V77.3364C229.349 77.6336 229.349 77.8689 229.362 78.0547C229.362 78.2528 229.387 78.5005 229.424 78.7977C229.449 79.1073 229.51 79.3673 229.597 79.5654C229.671 79.7636 229.783 79.9741 229.907 80.1722C230.031 80.3704 230.192 80.5314 230.414 80.6304C230.637 80.7295 230.885 80.779 231.182 80.779C231.43 80.779 231.64 80.7419 231.839 80.6428C232.037 80.5561 232.198 80.4447 232.322 80.3208C232.445 80.197 232.544 80.0236 232.631 79.8007C232.718 79.5778 232.78 79.3797 232.829 79.2063C232.866 79.033 232.891 78.8101 232.916 78.5252C232.941 78.2404 232.953 78.0299 232.953 77.8937C232.953 77.7575 232.965 77.5593 232.965 77.2869V76.6677C232.965 76.5439 232.953 76.3334 232.928 76.0238C232.904 75.7266 232.866 75.4913 232.829 75.3179C232.792 75.1569 232.73 74.9588 232.644 74.7111C232.544 74.4758 232.445 74.2901 232.322 74.1662C232.198 74.0424 232.037 73.9433 231.839 73.8443C231.64 73.7452 231.405 73.6957 231.157 73.6957ZM238.039 72.7545C238.559 72.7545 239.017 72.8536 239.388 73.0517C239.76 73.2499 240.057 73.4851 240.255 73.7576C240.453 74.0424 240.602 74.4139 240.726 74.8597C240.837 75.3055 240.912 75.7142 240.936 76.0733C240.961 76.4324 240.973 76.8658 240.973 77.3612C240.973 77.8318 240.949 78.2404 240.912 78.6119C240.874 78.9834 240.8 79.3797 240.676 79.776C240.552 80.1846 240.391 80.519 240.193 80.7914C239.983 81.0639 239.698 81.2744 239.351 81.4477C238.992 81.6211 238.571 81.7078 238.088 81.7078C237.568 81.7078 237.122 81.6211 236.751 81.4477C236.379 81.2744 236.082 81.0515 235.884 80.7914C235.673 80.519 235.512 80.1846 235.388 79.776C235.265 79.3673 235.19 78.9834 235.153 78.6119C235.128 78.2404 235.104 77.8194 235.104 77.3364C235.104 76.9278 235.116 76.5686 235.141 76.259C235.166 75.9618 235.203 75.6151 235.265 75.2312C235.327 74.8473 235.426 74.5254 235.549 74.2529C235.686 73.9805 235.859 73.7328 236.07 73.4851C236.268 73.2499 236.54 73.0641 236.875 72.9403C237.209 72.8164 237.593 72.7545 238.039 72.7545ZM238.039 73.6957C237.779 73.6957 237.556 73.7452 237.357 73.8443C237.159 73.9433 236.998 74.0424 236.875 74.1662C236.751 74.2901 236.639 74.4758 236.553 74.7235C236.453 74.9712 236.392 75.1693 236.354 75.3303C236.317 75.5037 236.292 75.7389 236.268 76.0485C236.243 76.3581 236.231 76.581 236.231 76.7049V77.3364C236.231 77.6336 236.231 77.8689 236.243 78.0547C236.243 78.2528 236.268 78.5005 236.305 78.7977C236.33 79.1073 236.392 79.3673 236.478 79.5654C236.553 79.7636 236.664 79.9741 236.788 80.1722C236.912 80.3704 237.073 80.5314 237.296 80.6304C237.518 80.7295 237.766 80.779 238.063 80.779C238.311 80.779 238.522 80.7419 238.72 80.6428C238.918 80.5561 239.079 80.4447 239.203 80.3208C239.326 80.197 239.426 80.0236 239.512 79.8007C239.599 79.5778 239.661 79.3797 239.71 79.2063C239.747 79.033 239.772 78.8101 239.797 78.5252C239.822 78.2404 239.834 78.0299 239.834 77.8937C239.834 77.7575 239.847 77.5593 239.847 77.2869V76.6677C239.847 76.5439 239.834 76.3334 239.809 76.0238C239.785 75.7266 239.747 75.4913 239.71 75.3179C239.673 75.1569 239.611 74.9588 239.525 74.7111C239.426 74.4758 239.326 74.2901 239.203 74.1662C239.079 74.0424 238.918 73.9433 238.72 73.8443C238.522 73.7452 238.286 73.6957 238.039 73.6957Z" fill="black"/>
</g>
<defs>
<filter id="filter0_dddd_1805_6992" x="0" y="0" width="598.562" height="146.534" filterUnits="userSpaceOnUse" color-interpolation-filters="sRGB">
<feFlood flood-opacity="0" result="BackgroundImageFix"/>
<feColorMatrix in="SourceAlpha" type="matrix" values="0 0 0 0 0 0 0 0 0 0 0 0 0 0 0 0 0 0 127 0" result="hardAlpha"/>
<feOffset dy="5"/>
<feGaussianBlur stdDeviation="5"/>
<feComposite in2="hardAlpha" operator="out"/>
<feColorMatrix type="matrix" values="0 0 0 0 0 0 0 0 0 0 0 0 0 0 0 0 0 0 0.04 0"/>
<feBlend mode="normal" in2="BackgroundImageFix" result="effect1_dropShadow_1805_6992"/>
<feColorMatrix in="SourceAlpha" type="matrix" values="0 0 0 0 0 0 0 0 0 0 0 0 0 0 0 0 0 0 127 0" result="hardAlpha"/>
<feOffset dy="18"/>
<feGaussianBlur stdDeviation="8"/>
<feComposite in2="hardAlpha" operator="out"/>
<feColorMatrix type="matrix" values="0 0 0 0 0 0 0 0 0 0 0 0 0 0 0 0 0 0 0.02 0"/>
<feBlend mode="normal" in2="effect1_dropShadow_1805_6992" result="effect2_dropShadow_1805_6992"/>
<feColorMatrix in="SourceAlpha" type="matrix" values="0 0 0 0 0 0 0 0 0 0 0 0 0 0 0 0 0 0 127 0" result="hardAlpha"/>
<feOffset dy="21"/>
<feGaussianBlur stdDeviation="11"/>
<feComposite in2="hardAlpha" operator="out"/>
<feColorMatrix type="matrix" values="0 0 0 0 0 0 0 0 0 0 0 0 0 0 0 0 0 0 0.03 0"/>
<feBlend mode="normal" in2="effect2_dropShadow_1805_6992" result="effect3_dropShadow_1805_6992"/>
<feColorMatrix in="SourceAlpha" type="matrix" values="0 0 0 0 0 0 0 0 0 0 0 0 0 0 0 0 0 0 127 0" result="hardAlpha"/>
<feOffset dy="4"/>
<feGaussianBlur stdDeviation="2"/>
<feComposite in2="hardAlpha" operator="out"/>
<feColorMatrix type="matrix" values="0 0 0 0 0 0 0 0 0 0 0 0 0 0 0 0 0 0 0.02 0"/>
<feBlend mode="normal" in2="effect3_dropShadow_1805_6992" result="effect4_dropShadow_1805_6992"/>
<feBlend mode="normal" in="SourceGraphic" in2="effect4_dropShadow_1805_6992" result="shape"/>
</filter>
</defs>
</svg>
