<svg width="415" height="153" viewBox="0 0 415 153" fill="none" xmlns="http://www.w3.org/2000/svg">
<g filter="url(#filter0_dddd_1804_6952)">
<rect x="22" y="5" width="371" height="104.562" rx="12.8819" fill="white" shape-rendering="crispEdges"/>
<rect x="22.5" y="5.5" width="370" height="103.562" rx="12.3819" stroke="#F5F5F6" shape-rendering="crispEdges"/>
<path d="M40.9494 17.9982L37.2781 21.6567L41.1813 27.1701H39.1846L36.1702 22.7774L34.8563 24.0914V27.1701H33.2589V17.9982H34.8563V22.1591L38.9141 17.9982H40.9494ZM47.8486 25.0961C47.6812 25.8175 47.3205 26.3843 46.7794 26.7837C46.2384 27.1959 45.5814 27.3891 44.8343 27.3891C43.8295 27.3891 43.0308 27.0671 42.4382 26.423C41.8456 25.7789 41.5622 24.9416 41.5622 23.9239C41.5622 22.8933 41.8585 22.0302 42.464 21.3475C43.0694 20.6776 43.8424 20.3298 44.7827 20.3298C45.7489 20.3298 46.5218 20.6648 47.0886 21.3346C47.6554 22.0045 47.9388 22.9062 47.9388 24.0527V24.2073H43.0308C43.0437 24.8772 43.2111 25.4053 43.5332 25.766C43.8424 26.1267 44.2932 26.3071 44.86 26.3071C45.2594 26.3071 45.5814 26.2169 45.8391 26.0237C46.0967 25.8304 46.2899 25.5213 46.4445 25.0961H47.8486ZM46.4703 23.2283C46.4187 22.6743 46.2513 22.2364 45.9421 21.9143C45.6329 21.5923 45.2465 21.4248 44.7699 21.4248C44.2803 21.4248 43.8939 21.5794 43.5976 21.8885C43.3013 22.1977 43.121 22.6486 43.0566 23.2283H46.4703ZM50.4593 20.5231V21.5021C50.9875 20.7292 51.7218 20.3427 52.6622 20.3427C53.4093 20.3427 53.9761 20.5488 54.3497 20.961C54.7233 21.3733 54.9165 21.9658 54.9165 22.7388V27.1701H53.448V23.3056C53.448 23.0479 53.4351 22.8289 53.4093 22.6486C53.3835 22.4682 53.3191 22.2879 53.2418 22.1075C53.1646 21.9272 53.0357 21.7984 52.8554 21.7082C52.675 21.618 52.4432 21.5665 52.1598 21.5665C51.0777 21.5665 50.5366 22.2492 50.5366 23.589V27.1701H49.0681V20.5231H50.4593ZM62.3136 20.5231L59.8531 27.0413C59.8273 27.1057 59.7758 27.2346 59.7114 27.4278C59.6341 27.621 59.5955 27.7498 59.5697 27.8142C59.5439 27.8915 59.4924 28.0075 59.4151 28.1749C59.3378 28.3553 59.2863 28.4712 59.2476 28.5356L59.0544 28.8448C58.9642 28.9865 58.887 29.0896 58.8097 29.1411C58.7324 29.2055 58.6422 29.2828 58.5391 29.373C58.4361 29.4631 58.3201 29.5275 58.2171 29.5662C58.1012 29.6048 57.9723 29.6435 57.8306 29.6692C57.6889 29.695 57.5343 29.7079 57.3798 29.7079C57.0964 29.7079 56.7614 29.6821 56.3621 29.6306V28.3939C56.6713 28.4583 56.9289 28.4841 57.135 28.4841C57.2381 28.4841 57.3282 28.4712 57.4184 28.4455C57.4957 28.4197 57.573 28.3682 57.6503 28.2909C57.7147 28.2136 57.7791 28.1492 57.8306 28.0848C57.8822 28.0204 57.9208 27.9302 57.9723 27.8142C58.0239 27.6983 58.0625 27.6081 58.0883 27.5437C58.114 27.4793 58.1398 27.3763 58.1913 27.2346C58.23 27.1057 58.2557 27.0156 58.2686 26.9769L55.718 20.5231H57.3282L59.1059 25.4182L60.7806 20.5231H62.3136ZM63.0678 22.5713C63.2224 21.077 64.1886 20.3169 65.9792 20.3169C66.8036 20.3169 67.4735 20.4844 67.963 20.8065C68.4525 21.1414 68.7101 21.6438 68.7101 22.3265V25.7016C68.7101 25.8948 68.723 26.0237 68.7745 26.0881C68.8261 26.1654 68.9163 26.1911 69.058 26.1911C69.161 26.1911 69.2641 26.1911 69.3929 26.1654V27.1959C69.0064 27.299 68.6973 27.3376 68.4396 27.3376C67.8084 27.3376 67.4477 27.08 67.3575 26.5389C66.7907 27.08 66.0178 27.3376 65.0259 27.3376C64.3303 27.3376 63.7892 27.1701 63.3899 26.8094C62.9777 26.4488 62.7844 25.9721 62.7844 25.3538C62.7844 25.1734 62.7973 24.9931 62.8489 24.8256C62.8875 24.671 62.939 24.5293 62.9906 24.4005C63.0421 24.2846 63.1323 24.1686 63.2611 24.0656C63.3899 23.9625 63.493 23.8852 63.5702 23.808C63.6475 23.7435 63.7892 23.6791 63.9696 23.6147C64.1499 23.5632 64.2916 23.5117 64.3818 23.4859C64.472 23.4601 64.6266 23.4215 64.8584 23.3829C65.0774 23.3571 65.2191 23.3313 65.2964 23.3184C65.3737 23.3056 65.5283 23.2798 65.7602 23.254C66.2755 23.1896 66.6361 23.1381 66.8294 23.0866C67.0097 23.035 67.1385 22.9706 67.2158 22.8676C67.2674 22.8032 67.306 22.6486 67.306 22.3909C67.306 21.7211 66.8423 21.3861 65.9405 21.3861C65.451 21.3861 65.1032 21.4763 64.8842 21.6567C64.6523 21.837 64.5106 22.1462 64.4591 22.5713H63.0678ZM67.2931 23.8337C67.1772 23.8981 67.0484 23.9497 66.9067 24.0012C66.7521 24.0527 66.6361 24.0785 66.546 24.0914C66.4558 24.1042 66.3141 24.1171 66.1209 24.1429C65.9276 24.1686 65.7988 24.1944 65.7473 24.1944C65.5669 24.2202 65.4252 24.2459 65.3222 24.2717C65.2191 24.2975 65.0903 24.3232 64.9357 24.3748C64.7811 24.4263 64.6652 24.4907 64.5879 24.568C64.5106 24.6453 64.4333 24.7355 64.3818 24.8643C64.3174 24.9931 64.2916 25.1348 64.2916 25.3023C64.2916 25.6243 64.3947 25.8691 64.6008 26.0365C64.8069 26.2169 65.1032 26.2942 65.4897 26.2942C66.1338 26.2942 66.6361 26.1267 66.9968 25.766C67.1901 25.5728 67.2931 25.1863 67.2931 24.6195V23.8337ZM71.6944 20.5231V21.5021C72.2226 20.7292 72.9569 20.3427 73.8972 20.3427C74.6444 20.3427 75.2112 20.5488 75.5848 20.961C75.9583 21.3733 76.1516 21.9658 76.1516 22.7388V27.1701H74.683V23.3056C74.683 23.0479 74.6702 22.8289 74.6444 22.6486C74.6186 22.4682 74.5542 22.2879 74.4769 22.1075C74.3996 21.9272 74.2708 21.7984 74.0905 21.7082C73.9101 21.618 73.6782 21.5665 73.3948 21.5665C72.3128 21.5665 71.7717 22.2492 71.7717 23.589V27.1701H70.3032V20.5231H71.6944ZM82.7412 17.9982V21.4377C83.2307 20.7163 83.9263 20.3556 84.841 20.3556C85.5623 20.3556 86.1163 20.5617 86.5285 20.9482C86.9278 21.3346 87.1339 21.9143 87.1339 22.6615V27.1701H85.6525V23.1381C85.6525 22.6357 85.5623 22.2492 85.382 21.9787C85.2016 21.7211 84.8667 21.5794 84.3643 21.5794C83.7975 21.5794 83.3853 21.7726 83.1277 22.1333C82.87 22.5069 82.7412 22.9964 82.7412 23.6018V27.1701H81.2855V17.9982H82.7412ZM90.1769 17.9596V19.4023H88.7084V17.9596H90.1769ZM90.1769 20.5231V27.1701H88.7084V20.5231H90.1769ZM97.8701 20.5231V26.3972C97.8701 27.5437 97.6254 28.3939 97.1359 28.935C96.6463 29.4889 95.8348 29.7594 94.6754 29.7594C92.8462 29.7594 91.8543 29.0896 91.6997 27.7369H93.1682C93.297 28.4068 93.8123 28.7289 94.7141 28.7289C95.3195 28.7289 95.7575 28.5743 96.0409 28.2651C96.3243 27.9559 96.466 27.4664 96.466 26.7708V25.985C95.9765 26.7322 95.2809 27.1057 94.3534 27.1057C93.4645 27.1057 92.756 26.8094 92.2407 26.2169C91.7254 25.6243 91.4678 24.8127 91.4678 23.7951C91.4678 22.7645 91.7383 21.9272 92.2794 21.296C92.8204 20.6648 93.5289 20.3427 94.4307 20.3427C94.8944 20.3427 95.2937 20.4329 95.6158 20.6132C95.925 20.7936 96.2212 21.0641 96.5046 21.4506V20.5231H97.8701ZM94.6883 21.5279C94.1344 21.5279 93.6964 21.734 93.3872 22.1204C93.078 22.5198 92.9235 23.0737 92.9235 23.7693C92.9235 24.4392 93.078 24.9802 93.4001 25.3667C93.7221 25.766 94.1472 25.9592 94.6883 25.9592C95.2293 25.9592 95.6673 25.766 95.9894 25.3538C96.2985 24.9416 96.466 24.3876 96.466 23.692C96.466 23.0222 96.2985 22.494 95.9894 22.1075C95.6802 21.7211 95.2422 21.5279 94.6883 21.5279ZM100.882 17.9982V21.4377C101.371 20.7163 102.067 20.3556 102.981 20.3556C103.703 20.3556 104.257 20.5617 104.669 20.9482C105.068 21.3346 105.274 21.9143 105.274 22.6615V27.1701H103.793V23.1381C103.793 22.6357 103.703 22.2492 103.522 21.9787C103.342 21.7211 103.007 21.5794 102.505 21.5794C101.938 21.5794 101.526 21.7726 101.268 22.1333C101.01 22.5069 100.882 22.9964 100.882 23.6018V27.1701H99.4259V17.9982H100.882ZM108.317 17.9982V27.1701H106.862V17.9982H108.317ZM109.853 22.5713C110.008 21.077 110.974 20.3169 112.764 20.3169C113.589 20.3169 114.259 20.4844 114.748 20.8065C115.238 21.1414 115.495 21.6438 115.495 22.3265V25.7016C115.495 25.8948 115.508 26.0237 115.56 26.0881C115.611 26.1654 115.701 26.1911 115.843 26.1911C115.946 26.1911 116.049 26.1911 116.178 26.1654V27.1959C115.792 27.299 115.482 27.3376 115.225 27.3376C114.594 27.3376 114.233 27.08 114.143 26.5389C113.576 27.08 112.803 27.3376 111.811 27.3376C111.115 27.3376 110.574 27.1701 110.175 26.8094C109.763 26.4488 109.57 25.9721 109.57 25.3538C109.57 25.1734 109.582 24.9931 109.634 24.8256C109.673 24.671 109.724 24.5293 109.776 24.4005C109.827 24.2846 109.917 24.1686 110.046 24.0656C110.175 23.9625 110.278 23.8852 110.355 23.808C110.433 23.7435 110.574 23.6791 110.755 23.6147C110.935 23.5632 111.077 23.5117 111.167 23.4859C111.257 23.4601 111.412 23.4215 111.644 23.3829C111.863 23.3571 112.004 23.3313 112.082 23.3184C112.159 23.3056 112.313 23.2798 112.545 23.254C113.061 23.1896 113.421 23.1381 113.614 23.0866C113.795 23.035 113.924 22.9706 114.001 22.8676C114.052 22.8032 114.091 22.6486 114.091 22.3909C114.091 21.7211 113.627 21.3861 112.726 21.3861C112.236 21.3861 111.888 21.4763 111.669 21.6567C111.437 21.837 111.296 22.1462 111.244 22.5713H109.853ZM114.078 23.8337C113.962 23.8981 113.833 23.9497 113.692 24.0012C113.537 24.0527 113.421 24.0785 113.331 24.0914C113.241 24.1042 113.099 24.1171 112.906 24.1429C112.713 24.1686 112.584 24.1944 112.532 24.1944C112.352 24.2202 112.21 24.2459 112.107 24.2717C112.004 24.2975 111.875 24.3232 111.721 24.3748C111.566 24.4263 111.45 24.4907 111.373 24.568C111.296 24.6453 111.218 24.7355 111.167 24.8643C111.103 24.9931 111.077 25.1348 111.077 25.3023C111.077 25.6243 111.18 25.8691 111.386 26.0365C111.592 26.2169 111.888 26.2942 112.275 26.2942C112.919 26.2942 113.421 26.1267 113.782 25.766C113.975 25.5728 114.078 25.1863 114.078 24.6195V23.8337ZM118.48 20.5231V21.5021C119.008 20.7292 119.742 20.3427 120.682 20.3427C121.429 20.3427 121.996 20.5488 122.37 20.961C122.743 21.3733 122.937 21.9658 122.937 22.7388V27.1701H121.468V23.3056C121.468 23.0479 121.455 22.8289 121.429 22.6486C121.404 22.4682 121.339 22.2879 121.262 22.1075C121.185 21.9272 121.056 21.7984 120.876 21.7082C120.695 21.618 120.463 21.5665 120.18 21.5665C119.098 21.5665 118.557 22.2492 118.557 23.589V27.1701H117.088V20.5231H118.48ZM130.772 17.9982V27.1701H129.393V26.2555C128.968 26.9898 128.26 27.3505 127.268 27.3505C126.327 27.3505 125.58 27.0413 125.026 26.3972C124.472 25.766 124.202 24.9158 124.202 23.8337C124.202 22.7774 124.472 21.9272 125.013 21.296C125.555 20.6648 126.289 20.3427 127.216 20.3427C128.144 20.3427 128.852 20.6905 129.329 21.3861V17.9982H130.772ZM127.487 21.5279C126.92 21.5279 126.482 21.734 126.16 22.1462C125.838 22.5584 125.683 23.1123 125.683 23.808C125.683 24.5422 125.838 25.1219 126.173 25.5341C126.508 25.9592 126.959 26.1654 127.538 26.1654C128.105 26.1654 128.556 25.9592 128.878 25.547C129.2 25.1348 129.368 24.568 129.368 23.8337C129.368 23.1123 129.2 22.5455 128.865 22.1333C128.53 21.734 128.079 21.5279 127.487 21.5279ZM137.616 22.4554H136.212C136.122 21.7597 135.645 21.399 134.769 21.399C134.383 21.399 134.099 21.4763 133.893 21.6051C133.687 21.7468 133.584 21.9401 133.584 22.1719C133.584 22.2492 133.584 22.3265 133.597 22.3781C133.61 22.4425 133.636 22.494 133.674 22.5455C133.713 22.5971 133.752 22.6357 133.777 22.6615C133.803 22.7001 133.868 22.7388 133.945 22.7645C134.022 22.8032 134.074 22.8289 134.125 22.8547C134.177 22.8805 134.254 22.9062 134.37 22.932C134.473 22.9577 134.563 22.9835 134.628 22.9964C134.692 23.0222 134.795 23.0479 134.95 23.0737C135.091 23.0994 135.207 23.1252 135.285 23.1381C135.62 23.2154 135.851 23.2798 136.006 23.3184C136.161 23.3571 136.38 23.4344 136.663 23.5503C136.946 23.6663 137.165 23.7822 137.307 23.911C137.436 24.0398 137.565 24.2073 137.681 24.4263C137.797 24.6453 137.861 24.89 137.861 25.1734C137.861 25.8433 137.59 26.3843 137.075 26.7708C136.547 27.1701 135.839 27.3634 134.963 27.3634C134.009 27.3634 133.288 27.1701 132.786 26.7708C132.27 26.3843 132 25.8047 131.974 25.0446H133.378C133.455 25.8819 133.984 26.2942 134.988 26.2942C135.413 26.2942 135.761 26.2169 136.019 26.0365C136.277 25.8562 136.418 25.6243 136.418 25.328C136.418 25.1863 136.38 25.0575 136.315 24.9544C136.251 24.8514 136.148 24.7741 136.006 24.6968C135.851 24.6195 135.71 24.568 135.581 24.5293C135.452 24.4907 135.272 24.4392 135.053 24.3876L134.975 24.3748C134.95 24.3748 134.937 24.3619 134.911 24.3619C134.885 24.3619 134.86 24.349 134.834 24.3361C133.88 24.1042 133.288 23.9239 133.03 23.7951C132.412 23.5117 132.116 23.0222 132.116 22.3394C132.116 21.7211 132.348 21.2316 132.837 20.8709C133.314 20.5102 133.984 20.3298 134.834 20.3298C135.645 20.3298 136.315 20.5102 136.83 20.858C137.346 21.2187 137.616 21.7468 137.616 22.4554ZM140.921 25.4311V27.1701H139.169V25.4311H140.921ZM148.642 24.6582C148.539 25.4826 148.204 26.1267 147.663 26.6162C147.109 27.1057 146.413 27.3376 145.589 27.3376C144.584 27.3376 143.798 27.0284 143.205 26.3972C142.613 25.766 142.317 24.9416 142.317 23.911C142.317 22.816 142.613 21.9401 143.205 21.296C143.798 20.6519 144.61 20.3169 145.627 20.3169C146.477 20.3169 147.16 20.5359 147.675 20.961C148.191 21.399 148.5 21.9916 148.59 22.7516H147.134C147.044 22.3394 146.877 22.0174 146.619 21.7855C146.361 21.5665 146.027 21.4506 145.64 21.4506C145.073 21.4506 144.622 21.6696 144.3 22.0947C143.965 22.5198 143.811 23.0994 143.811 23.8337C143.811 24.5809 143.965 25.1477 144.275 25.5599C144.584 25.9721 145.022 26.1782 145.589 26.1782C146.027 26.1782 146.374 26.0494 146.658 25.7918C146.941 25.5341 147.122 25.1477 147.199 24.6582H148.642ZM152.85 20.3298C153.854 20.3298 154.666 20.6519 155.271 21.2831C155.864 21.9272 156.173 22.7774 156.173 23.8466C156.173 24.9287 155.864 25.7918 155.271 26.423C154.679 27.0671 153.867 27.3763 152.85 27.3763C151.806 27.3763 150.982 27.0671 150.376 26.423C149.758 25.7918 149.462 24.9287 149.462 23.8466C149.462 22.7774 149.758 21.9272 150.376 21.2831C150.995 20.6519 151.819 20.3298 152.85 20.3298ZM152.824 21.4892C152.231 21.4892 151.78 21.7082 151.446 22.1204C151.111 22.5455 150.943 23.1252 150.943 23.8466C150.943 24.5938 151.111 25.1863 151.446 25.5985C151.78 26.0237 152.244 26.2298 152.837 26.2298C153.404 26.2298 153.854 26.0237 154.189 25.5985C154.524 25.1734 154.692 24.5809 154.692 23.8337C154.692 23.1123 154.524 22.5326 154.189 22.1204C153.854 21.7082 153.404 21.4892 152.824 21.4892Z" fill="black"/>
<rect x="167.611" y="15.3056" width="47.0191" height="16.7292" rx="8.36458" fill="#34C759" fill-opacity="0.1"/>
<path d="M177.582 20.667H178.595L179.986 25.0185L181.408 20.667H182.39L180.504 26.1701H179.43L177.582 20.667ZM185.958 24.9257C185.858 25.3586 185.641 25.6987 185.317 25.9383C184.992 26.1856 184.598 26.3015 184.149 26.3015C183.547 26.3015 183.067 26.1083 182.712 25.7219C182.356 25.3354 182.186 24.833 182.186 24.2224C182.186 23.6041 182.364 23.0862 182.727 22.6766C183.091 22.2746 183.554 22.066 184.119 22.066C184.698 22.066 185.162 22.2669 185.502 22.6688C185.842 23.0707 186.012 23.6118 186.012 24.2997V24.3924H183.067C183.075 24.7944 183.176 25.1112 183.369 25.3277C183.554 25.5441 183.825 25.6523 184.165 25.6523C184.405 25.6523 184.598 25.5982 184.752 25.4822C184.907 25.3663 185.023 25.1808 185.116 24.9257H185.958ZM185.131 23.805C185.1 23.4727 185 23.2099 184.814 23.0166C184.629 22.8234 184.397 22.7229 184.111 22.7229C183.817 22.7229 183.585 22.8157 183.407 23.0012C183.23 23.1867 183.121 23.4572 183.083 23.805H185.131ZM188.939 22.1046V22.9471C188.784 22.9316 188.676 22.9239 188.63 22.9239C187.857 22.9239 187.478 23.4263 187.478 24.4156V26.1701H186.605V22.1819H187.432V22.978C187.71 22.3906 188.158 22.0891 188.769 22.0891L188.939 22.1046ZM190.304 20.6438V21.5095H189.423V20.6438H190.304ZM190.304 22.1819V26.1701H189.423V22.1819H190.304ZM193.722 21.4863V20.6515H194.603V21.4863H193.722ZM190.869 22.8311V22.1742H191.526V21.8418C191.526 21.3781 191.619 21.0689 191.82 20.8989C192.021 20.7365 192.292 20.6515 192.632 20.6515C192.918 20.6515 193.126 20.6747 193.25 20.7056V21.3935C193.126 21.3626 192.995 21.3471 192.84 21.3471C192.547 21.3471 192.408 21.4863 192.408 21.7645V22.1742H193.157V22.8311H192.408V26.1701H191.526V22.8311H190.869ZM193.722 26.1701V22.1742H194.603V26.1701H193.722ZM199.129 24.9257C199.029 25.3586 198.812 25.6987 198.488 25.9383C198.163 26.1856 197.769 26.3015 197.321 26.3015C196.718 26.3015 196.239 26.1083 195.883 25.7219C195.528 25.3354 195.358 24.833 195.358 24.2224C195.358 23.6041 195.535 23.0862 195.899 22.6766C196.262 22.2746 196.726 22.066 197.29 22.066C197.87 22.066 198.333 22.2669 198.673 22.6688C199.013 23.0707 199.183 23.6118 199.183 24.2997V24.3924H196.239C196.246 24.7944 196.347 25.1112 196.54 25.3277C196.726 25.5441 196.996 25.6523 197.336 25.6523C197.576 25.6523 197.769 25.5982 197.924 25.4822C198.078 25.3663 198.194 25.1808 198.287 24.9257H199.129ZM198.302 23.805C198.271 23.4727 198.171 23.2099 197.985 23.0166C197.8 22.8234 197.568 22.7229 197.282 22.7229C196.988 22.7229 196.757 22.8157 196.579 23.0012C196.401 23.1867 196.293 23.4572 196.254 23.805H198.302ZM203.633 20.667V26.1701H202.806V25.6214C202.551 26.0619 202.126 26.2784 201.531 26.2784C200.966 26.2784 200.518 26.0929 200.186 25.7064C199.853 25.3277 199.691 24.8175 199.691 24.1683C199.691 23.5345 199.853 23.0244 200.178 22.6456C200.503 22.2669 200.943 22.0737 201.5 22.0737C202.056 22.0737 202.481 22.2824 202.767 22.6997V20.667H203.633ZM201.662 22.7848C201.322 22.7848 201.059 22.9084 200.866 23.1558C200.673 23.4031 200.58 23.7355 200.58 24.1528C200.58 24.5934 200.673 24.9412 200.874 25.1885C201.075 25.4436 201.345 25.5673 201.693 25.5673C202.033 25.5673 202.303 25.4436 202.497 25.1963C202.69 24.9489 202.79 24.6089 202.79 24.1683C202.79 23.7355 202.69 23.3954 202.489 23.148C202.288 22.9084 202.017 22.7848 201.662 22.7848Z" fill="#009933"/>
<path d="M40.035 50.9905C41.1448 50.9905 42.0446 50.0908 42.0446 48.9809C42.0446 47.8711 41.1448 46.9713 40.035 46.9713C38.9251 46.9713 38.0254 47.8711 38.0254 48.9809C38.0254 50.0908 38.9251 50.9905 40.035 50.9905Z" stroke="#171717" stroke-width="0.966146"/>
<path d="M34.6378 47.8087C35.9067 42.2308 44.1704 42.2372 45.4329 47.8151C46.1736 51.0871 44.1382 53.8567 42.3541 55.57C41.0595 56.8196 39.0112 56.8196 37.7101 55.57C35.9324 53.8567 33.8971 51.0807 34.6378 47.8087Z" stroke="#171717" stroke-width="0.966146"/>
<path d="M59.832 45.7319L56.8949 48.6587L60.0175 53.0694H58.4202L56.0087 49.5553L54.9575 50.6064V53.0694H53.6796V45.7319H54.9575V49.0606L58.2037 45.7319H59.832ZM65.3514 51.4103C65.2174 51.9874 64.9288 52.4408 64.496 52.7603C64.0632 53.0901 63.5376 53.2446 62.9399 53.2446C62.136 53.2446 61.4971 52.987 61.023 52.4717C60.549 51.9564 60.3223 51.2866 60.3223 50.4724C60.3223 49.648 60.5593 48.9575 61.0436 48.4113C61.528 47.8754 62.1463 47.5972 62.8986 47.5972C63.6716 47.5972 64.2899 47.8651 64.7433 48.401C65.1968 48.9369 65.4235 49.6583 65.4235 50.5755V50.6992H61.4971C61.5074 51.2351 61.6414 51.6576 61.899 51.9461C62.1463 52.2347 62.507 52.379 62.9605 52.379C63.28 52.379 63.5376 52.3068 63.7437 52.1523C63.9498 51.9977 64.1044 51.7503 64.2281 51.4103H65.3514ZM64.2487 49.9159C64.2075 49.4728 64.0735 49.1224 63.8261 48.8648C63.5788 48.6071 63.2696 48.4732 62.8883 48.4732C62.4967 48.4732 62.1876 48.5968 61.9505 48.8442C61.7135 49.0915 61.5692 49.4522 61.5177 49.9159H64.2487ZM67.4399 47.7518V48.535C67.8625 47.9167 68.4499 47.6075 69.2022 47.6075C69.7999 47.6075 70.2534 47.7724 70.5522 48.1022C70.8511 48.4319 71.0057 48.906 71.0057 49.5243V53.0694H69.8308V49.9778C69.8308 49.7717 69.8205 49.5965 69.7999 49.4522C69.7793 49.3079 69.7278 49.1636 69.6659 49.0194C69.6041 48.8751 69.501 48.772 69.3568 48.6999C69.2125 48.6278 69.027 48.5865 68.8003 48.5865C67.9346 48.5865 67.5018 49.1327 67.5018 50.2045V53.0694H66.3269V47.7518H67.4399ZM76.9233 47.7518L74.9549 52.9664C74.9343 53.0179 74.8931 53.121 74.8416 53.2756C74.7797 53.4301 74.7488 53.5332 74.7282 53.5847C74.7076 53.6466 74.6664 53.7393 74.6046 53.8733C74.5427 54.0176 74.5015 54.1103 74.4706 54.1618L74.316 54.4092C74.2439 54.5225 74.182 54.605 74.1202 54.6462C74.0584 54.6977 73.9862 54.7596 73.9038 54.8317C73.8213 54.9038 73.7286 54.9554 73.6461 54.9863C73.5534 55.0172 73.4503 55.0481 73.337 55.0687C73.2236 55.0893 73.0999 55.0996 72.9763 55.0996C72.7496 55.0996 72.4816 55.079 72.1621 55.0378V54.0485C72.4095 54.1 72.6156 54.1206 72.7805 54.1206C72.8629 54.1206 72.9351 54.1103 73.0072 54.0897C73.069 54.0691 73.1309 54.0279 73.1927 53.966C73.2442 53.9042 73.2957 53.8527 73.337 53.8011C73.3782 53.7496 73.4091 53.6775 73.4503 53.5847C73.4916 53.492 73.5225 53.4198 73.5431 53.3683C73.5637 53.3168 73.5843 53.2343 73.6255 53.121C73.6564 53.0179 73.6771 52.9458 73.6874 52.9149L71.6469 47.7518H72.9351L74.3572 51.6679L75.6969 47.7518H76.9233ZM77.5267 49.3904C77.6504 48.1949 78.4233 47.5869 79.8558 47.5869C80.5154 47.5869 81.0512 47.7209 81.4429 47.9785C81.8345 48.2464 82.0406 48.6484 82.0406 49.1946V51.8946C82.0406 52.0492 82.0509 52.1523 82.0921 52.2038C82.1333 52.2656 82.2055 52.2862 82.3188 52.2862C82.4013 52.2862 82.4837 52.2862 82.5868 52.2656V53.0901C82.2776 53.1725 82.0303 53.2034 81.8242 53.2034C81.3192 53.2034 81.0306 52.9973 80.9585 52.5645C80.505 52.9973 79.8867 53.2034 79.0932 53.2034C78.5367 53.2034 78.1039 53.0694 77.7844 52.7809C77.4546 52.4923 77.3 52.111 77.3 51.6164C77.3 51.4721 77.3103 51.3278 77.3515 51.1938C77.3825 51.0702 77.4237 50.9568 77.4649 50.8538C77.5061 50.761 77.5783 50.6683 77.6813 50.5858C77.7844 50.5034 77.8668 50.4415 77.9287 50.3797C77.9905 50.3282 78.1039 50.2766 78.2481 50.2251C78.3924 50.1839 78.5058 50.1427 78.5779 50.1221C78.65 50.1014 78.7737 50.0705 78.9592 50.0396C79.1344 50.019 79.2478 49.9984 79.3096 49.9881C79.3714 49.9778 79.4951 49.9572 79.6806 49.9366C80.0928 49.885 80.3814 49.8438 80.536 49.8026C80.6802 49.7614 80.7833 49.7098 80.8451 49.6274C80.8864 49.5759 80.9173 49.4522 80.9173 49.2461C80.9173 48.7102 80.5463 48.4423 79.8249 48.4423C79.4333 48.4423 79.155 48.5144 78.9798 48.6587C78.7943 48.8029 78.681 49.0503 78.6397 49.3904H77.5267ZM80.907 50.4003C80.8142 50.4518 80.7112 50.4931 80.5978 50.5343C80.4741 50.5755 80.3814 50.5961 80.3092 50.6064C80.2371 50.6167 80.1237 50.627 79.9692 50.6476C79.8146 50.6683 79.7115 50.6889 79.6703 50.6889C79.526 50.7095 79.4127 50.7301 79.3302 50.7507C79.2478 50.7713 79.1447 50.7919 79.021 50.8331C78.8974 50.8744 78.8046 50.9259 78.7428 50.9877C78.681 51.0496 78.6191 51.1217 78.5779 51.2248C78.5264 51.3278 78.5058 51.4412 78.5058 51.5751C78.5058 51.8328 78.5882 52.0286 78.7531 52.1626C78.918 52.3068 79.155 52.3687 79.4642 52.3687C79.9795 52.3687 80.3814 52.2347 80.6699 51.9461C80.8245 51.7916 80.907 51.4824 80.907 51.0289V50.4003Z" fill="#B9B9B9"/>
<path d="M33.0683 70.7666H36.5412C37.2626 70.7666 37.8604 70.9315 38.3241 71.2613C38.7776 71.5911 39.0146 72.1063 39.0146 72.8071C39.0146 73.2503 38.9012 73.6316 38.6951 73.9407C38.4787 74.2499 38.1798 74.4766 37.7985 74.6106C37.9737 74.6518 38.1283 74.7136 38.2623 74.7961C38.3859 74.8785 38.489 74.9713 38.5611 75.064C38.6333 75.1671 38.6951 75.2908 38.7466 75.435C38.7879 75.5896 38.8188 75.7236 38.8394 75.8369C38.86 75.9503 38.8703 76.0946 38.8909 76.2801C38.8909 76.3316 38.9012 76.4244 38.9115 76.5583C38.9218 76.7026 38.9321 76.7954 38.9321 76.8366C38.9321 76.8778 38.9424 76.9603 38.9527 77.0633C38.9631 77.1767 38.9734 77.2591 38.9837 77.3003C38.9837 77.3416 38.994 77.4137 39.0146 77.4961C39.0352 77.5786 39.0455 77.6507 39.0661 77.6919C39.0764 77.7332 39.097 77.7847 39.1176 77.8465C39.1382 77.9084 39.1589 77.9496 39.1898 77.9908C39.2104 78.032 39.2413 78.0733 39.2825 78.1042H37.9016C37.881 78.0836 37.8604 78.0526 37.8397 78.0114C37.8191 77.9702 37.8088 77.929 37.7985 77.8878C37.7779 77.8465 37.7676 77.8053 37.7676 77.7641C37.7573 77.7229 37.747 77.6713 37.7367 77.6095C37.7264 77.5477 37.7264 77.4858 37.7264 77.4446L37.7058 77.2591L37.6852 77.0736C37.6852 77.0324 37.6749 76.9603 37.6749 76.8572C37.6646 76.7541 37.6646 76.682 37.6646 76.6408C37.6233 76.0431 37.4997 75.6411 37.2832 75.4144C37.0668 75.1877 36.6546 75.0743 36.0569 75.0743H34.3462V78.1042H33.0683V70.7666ZM34.3462 71.8178V74.1159H36.0466C36.2939 74.1159 36.5 74.1056 36.6752 74.0747C36.8401 74.0541 37.0153 74.0026 37.1905 73.9304C37.3657 73.8583 37.4997 73.7346 37.5924 73.5697C37.6852 73.4048 37.7367 73.1987 37.7367 72.9411C37.7367 72.7144 37.6955 72.5186 37.613 72.364C37.5306 72.2094 37.4069 72.096 37.2523 72.0136C37.0977 71.9414 36.9432 71.8899 36.7783 71.859C36.6134 71.8384 36.4279 71.8178 36.2115 71.8178H34.3462ZM44.9413 76.445C44.8073 77.0221 44.5188 77.4755 44.086 77.795C43.6531 78.1248 43.1275 78.2794 42.5298 78.2794C41.726 78.2794 41.087 78.0217 40.613 77.5064C40.1389 76.9912 39.9122 76.3213 39.9122 75.5072C39.9122 74.6827 40.1492 73.9923 40.6336 73.4461C41.118 72.9102 41.7363 72.6319 42.4886 72.6319C43.2615 72.6319 43.8798 72.8999 44.3333 73.4358C44.7867 73.9716 45.0135 74.693 45.0135 75.6102V75.7339H41.087C41.0973 76.2698 41.2313 76.6923 41.489 76.9809C41.7363 77.2694 42.097 77.4137 42.5504 77.4137C42.8699 77.4137 43.1275 77.3416 43.3337 77.187C43.5398 77.0324 43.6943 76.7851 43.818 76.445H44.9413ZM43.8386 74.9507C43.7974 74.5075 43.6634 74.1571 43.4161 73.8995C43.1688 73.6419 42.8596 73.5079 42.4783 73.5079C42.0867 73.5079 41.7775 73.6316 41.5405 73.8789C41.3035 74.1262 41.1592 74.4869 41.1077 74.9507H43.8386ZM50.1216 74.3323H48.9982C48.9261 73.7758 48.5448 73.4873 47.844 73.4873C47.5349 73.4873 47.3081 73.5491 47.1432 73.6522C46.9784 73.7655 46.8959 73.9201 46.8959 74.1056C46.8959 74.1674 46.8959 74.2293 46.9062 74.2705C46.9165 74.322 46.9371 74.3633 46.9681 74.4045C46.999 74.4457 47.0299 74.4766 47.0505 74.4972C47.0711 74.5281 47.1226 74.5591 47.1845 74.5797C47.2463 74.6106 47.2875 74.6312 47.3287 74.6518C47.37 74.6724 47.4318 74.693 47.5246 74.7136C47.607 74.7343 47.6791 74.7549 47.7307 74.7652C47.7822 74.7858 47.8646 74.8064 47.9883 74.827C48.1017 74.8476 48.1944 74.8682 48.2562 74.8785C48.5242 74.9404 48.7097 74.9919 48.8334 75.0228C48.957 75.0537 49.1322 75.1156 49.3589 75.2083C49.5857 75.3011 49.7609 75.3938 49.8742 75.4969C49.9773 75.5999 50.0803 75.7339 50.1731 75.9091C50.2658 76.0843 50.3174 76.2801 50.3174 76.5068C50.3174 77.0427 50.1009 77.4755 49.6887 77.7847C49.2662 78.1042 48.6994 78.2588 47.9986 78.2588C47.236 78.2588 46.6589 78.1042 46.257 77.7847C45.8447 77.4755 45.6283 77.0118 45.6077 76.4038H46.731C46.7929 77.0736 47.2154 77.4034 48.0192 77.4034C48.3593 77.4034 48.6376 77.3416 48.8437 77.1973C49.0498 77.053 49.1631 76.8675 49.1631 76.6305C49.1631 76.5171 49.1322 76.4141 49.0807 76.3316C49.0292 76.2492 48.9467 76.1873 48.8334 76.1255C48.7097 76.0637 48.5963 76.0224 48.4933 75.9915C48.3902 75.9606 48.2459 75.9194 48.0707 75.8782L48.0089 75.8679C47.9883 75.8679 47.978 75.8576 47.9574 75.8576C47.9368 75.8576 47.9162 75.8473 47.8956 75.8369C47.1329 75.6514 46.6589 75.5072 46.4528 75.4041C45.9581 75.1774 45.7211 74.7858 45.7211 74.2396C45.7211 73.7449 45.9066 73.3533 46.2982 73.0648C46.6795 72.7762 47.2154 72.6319 47.8956 72.6319C48.5448 72.6319 49.0807 72.7762 49.4929 73.0544C49.9051 73.343 50.1216 73.7655 50.1216 74.3323ZM52.3739 72.7865V73.4976C52.7243 72.9205 53.3014 72.6319 54.1052 72.6319C54.8369 72.6319 55.4243 72.8896 55.8675 73.4048C56.3003 73.9201 56.527 74.6106 56.527 75.4659C56.527 76.311 56.3106 76.9809 55.8778 77.4858C55.4449 77.9908 54.8781 78.2381 54.167 78.2381C53.4044 78.2381 52.8273 77.9599 52.4357 77.4034V80.0725H51.2712V72.7865H52.3739ZM53.8682 73.58C53.4044 73.58 53.0437 73.7449 52.7861 74.0747C52.5182 74.4045 52.3945 74.8682 52.3945 75.4453C52.3945 76.0224 52.5182 76.4759 52.7861 76.8057C53.054 77.1354 53.4147 77.3003 53.8888 77.3003C54.3319 77.3003 54.6823 77.1354 54.9503 76.8057C55.2079 76.4759 55.3419 76.0328 55.3419 75.4659C55.3419 74.8888 55.2079 74.4354 54.94 74.0953C54.672 73.7552 54.3216 73.58 53.8682 73.58ZM60.0137 72.6319C60.8175 72.6319 61.4668 72.8896 61.9511 73.3945C62.4252 73.9098 62.6725 74.59 62.6725 75.4453C62.6725 76.311 62.4252 77.0015 61.9511 77.5064C61.4771 78.0217 60.8278 78.2691 60.0137 78.2691C59.1789 78.2691 58.5194 78.0217 58.035 77.5064C57.5403 77.0015 57.3033 76.311 57.3033 75.4453C57.3033 74.59 57.5403 73.9098 58.035 73.3945C58.5297 72.8896 59.1892 72.6319 60.0137 72.6319ZM59.9931 73.5594C59.519 73.5594 59.1583 73.7346 58.8904 74.0644C58.6224 74.4045 58.4885 74.8682 58.4885 75.4453C58.4885 76.0431 58.6224 76.5171 58.8904 76.8469C59.1583 77.187 59.5293 77.3519 60.0034 77.3519C60.4568 77.3519 60.8175 77.187 61.0855 76.8469C61.3534 76.5068 61.4874 76.0328 61.4874 75.435C61.4874 74.8579 61.3534 74.3942 61.0855 74.0644C60.8175 73.7346 60.4568 73.5594 59.9931 73.5594ZM64.7828 72.7865V73.5697C65.2053 72.9514 65.7928 72.6422 66.5451 72.6422C67.1428 72.6422 67.5962 72.8071 67.8951 73.1369C68.194 73.4667 68.3485 73.9407 68.3485 74.5591V78.1042H67.1737V75.0125C67.1737 74.8064 67.1634 74.6312 67.1428 74.4869C67.1222 74.3426 67.0707 74.1984 67.0088 74.0541C66.947 73.9098 66.8439 73.8068 66.6997 73.7346C66.5554 73.6625 66.3699 73.6213 66.1432 73.6213C65.2775 73.6213 64.8447 74.1674 64.8447 75.2392V78.1042H63.6698V72.7865H64.7828ZM73.7921 74.3323H72.6688C72.5967 73.7758 72.2154 73.4873 71.5146 73.4873C71.2054 73.4873 70.9787 73.5491 70.8138 73.6522C70.6489 73.7655 70.5665 73.9201 70.5665 74.1056C70.5665 74.1674 70.5665 74.2293 70.5768 74.2705C70.5871 74.322 70.6077 74.3633 70.6386 74.4045C70.6695 74.4457 70.7005 74.4766 70.7211 74.4972C70.7417 74.5281 70.7932 74.5591 70.855 74.5797C70.9169 74.6106 70.9581 74.6312 70.9993 74.6518C71.0405 74.6724 71.1024 74.693 71.1951 74.7136C71.2776 74.7343 71.3497 74.7549 71.4012 74.7652C71.4528 74.7858 71.5352 74.8064 71.6589 74.827C71.7722 74.8476 71.865 74.8682 71.9268 74.8785C72.1948 74.9404 72.3803 74.9919 72.5039 75.0228C72.6276 75.0537 72.8028 75.1156 73.0295 75.2083C73.2562 75.3011 73.4314 75.3938 73.5448 75.4969C73.6478 75.5999 73.7509 75.7339 73.8437 75.9091C73.9364 76.0843 73.9879 76.2801 73.9879 76.5068C73.9879 77.0427 73.7715 77.4755 73.3593 77.7847C72.9368 78.1042 72.37 78.2588 71.6692 78.2588C70.9066 78.2588 70.3295 78.1042 69.9275 77.7847C69.5153 77.4755 69.2989 77.0118 69.2783 76.4038H70.4016C70.4634 77.0736 70.886 77.4034 71.6898 77.4034C72.0299 77.4034 72.3081 77.3416 72.5142 77.1973C72.7203 77.053 72.8337 76.8675 72.8337 76.6305C72.8337 76.5171 72.8028 76.4141 72.7513 76.3316C72.6997 76.2492 72.6173 76.1873 72.5039 76.1255C72.3803 76.0637 72.2669 76.0224 72.1638 75.9915C72.0608 75.9606 71.9165 75.9194 71.7413 75.8782L71.6795 75.8679C71.6589 75.8679 71.6486 75.8576 71.628 75.8576C71.6073 75.8576 71.5867 75.8473 71.5661 75.8369C70.8035 75.6514 70.3295 75.5072 70.1233 75.4041C69.6287 75.1774 69.3917 74.7858 69.3917 74.2396C69.3917 73.7449 69.5772 73.3533 69.9688 73.0648C70.3501 72.7762 70.886 72.6319 71.5661 72.6319C72.2154 72.6319 72.7513 72.7762 73.1635 73.0544C73.5757 73.343 73.7921 73.7655 73.7921 74.3323ZM79.6823 76.445C79.5483 77.0221 79.2598 77.4755 78.827 77.795C78.3941 78.1248 77.8685 78.2794 77.2708 78.2794C76.467 78.2794 75.828 78.0217 75.354 77.5064C74.8799 76.9912 74.6532 76.3213 74.6532 75.5072C74.6532 74.6827 74.8902 73.9923 75.3746 73.4461C75.859 72.9102 76.4773 72.6319 77.2296 72.6319C78.0025 72.6319 78.6208 72.8999 79.0743 73.4358C79.5277 73.9716 79.7545 74.693 79.7545 75.6102V75.7339H75.828C75.8383 76.2698 75.9723 76.6923 76.23 76.9809C76.4773 77.2694 76.838 77.4137 77.2914 77.4137C77.6109 77.4137 77.8685 77.3416 78.0746 77.187C78.2808 77.0324 78.4353 76.7851 78.559 76.445H79.6823ZM78.5796 74.9507C78.5384 74.5075 78.4044 74.1571 78.1571 73.8995C77.9098 73.6419 77.6006 73.5079 77.2193 73.5079C76.8277 73.5079 76.5185 73.6316 76.2815 73.8789C76.0445 74.1262 75.9002 74.4869 75.8486 74.9507H78.5796ZM86.1128 72.7865V73.6419H85.041V76.445C85.041 76.6099 85.041 76.7335 85.0513 76.7954C85.0513 76.8572 85.072 76.9293 85.1132 77.0118C85.1441 77.0942 85.2059 77.1458 85.2884 77.1664C85.3708 77.1973 85.4945 77.2076 85.6491 77.2076C85.8346 77.2076 85.9892 77.2076 86.1128 77.187V78.1145C85.8758 78.1454 85.6078 78.1557 85.3193 78.1557C85.1132 78.1557 84.9277 78.1454 84.7731 78.1145C84.6185 78.0836 84.4948 78.0423 84.3918 78.0011C84.2887 77.9599 84.196 77.8981 84.1342 77.795C84.062 77.6919 84.0105 77.6095 83.9693 77.5477C83.928 77.4858 83.9074 77.3622 83.8868 77.1973C83.8662 77.0324 83.8662 76.9087 83.8662 76.8263V76.3728V76.311V76.2492V76.177V73.6419H82.9799V72.7865H83.8662V71.1891H85.041V72.7865H86.1128ZM88.1534 70.7357V71.8899H86.9786V70.7357H88.1534ZM88.1534 72.7865V78.1042H86.9786V72.7865H88.1534ZM90.5568 72.7865V73.5388C90.9896 72.9411 91.5461 72.6422 92.2263 72.6422C92.5767 72.6422 92.8755 72.7247 93.1332 72.8793C93.3908 73.0441 93.5866 73.2606 93.7103 73.5491C94.1328 72.9514 94.7099 72.6422 95.4313 72.6422C95.926 72.6422 96.3485 72.7968 96.6783 73.0957C97.008 73.3945 97.1729 73.8068 97.1729 74.3323V78.1042H95.9981V74.8373C95.9981 74.4663 95.926 74.1674 95.8023 73.951C95.6683 73.7449 95.421 73.6316 95.05 73.6316C94.6687 73.6316 94.3801 73.7552 94.1843 73.9923C93.9782 74.2293 93.8855 74.5591 93.8855 74.9816V78.1042H92.7106V74.7755C92.7106 74.4045 92.6488 74.1159 92.5354 73.9201C92.4221 73.7346 92.185 73.6316 91.8347 73.6316C91.4327 73.6316 91.1339 73.7655 90.9278 74.0232C90.7217 74.2808 90.6186 74.6209 90.6186 75.0434V78.1042H89.4438V72.7865H90.5568ZM103.162 76.445C103.028 77.0221 102.739 77.4755 102.306 77.795C101.873 78.1248 101.348 78.2794 100.75 78.2794C99.9463 78.2794 99.3074 78.0217 98.8333 77.5064C98.3593 76.9912 98.1326 76.3213 98.1326 75.5072C98.1326 74.6827 98.3696 73.9923 98.854 73.4461C99.3383 72.9102 99.9566 72.6319 100.709 72.6319C101.482 72.6319 102.1 72.8999 102.554 73.4358C103.007 73.9716 103.234 74.693 103.234 75.6102V75.7339H99.3074C99.3177 76.2698 99.4517 76.6923 99.7093 76.9809C99.9566 77.2694 100.317 77.4137 100.771 77.4137C101.09 77.4137 101.348 77.3416 101.554 77.187C101.76 77.0324 101.915 76.7851 102.038 76.445H103.162ZM102.059 74.9507C102.018 74.5075 101.884 74.1571 101.636 73.8995C101.389 73.6419 101.08 73.5079 100.699 73.5079C100.307 73.5079 99.9979 73.6316 99.7608 73.8789C99.5238 74.1262 99.3795 74.4869 99.328 74.9507H102.059Z" fill="#B9B9B9"/>
<path d="M37.4687 94.2161V95.257H32.5427C32.5427 94.9375 32.5942 94.6386 32.6767 94.3707C32.7591 94.1027 32.8519 93.876 32.9549 93.6905C33.058 93.505 33.2229 93.3092 33.429 93.1134C33.6351 92.9176 33.8309 92.7527 33.9958 92.629C34.1607 92.5054 34.3977 92.3405 34.6966 92.1344C34.7172 92.1241 34.8099 92.0622 34.9954 91.9386C35.1809 91.8149 35.2943 91.7428 35.3355 91.7118C35.3767 91.6809 35.4695 91.6088 35.6137 91.4954C35.758 91.3821 35.8508 91.2893 35.892 91.2172C35.9332 91.1553 35.9951 91.0626 36.0775 90.9389C36.1599 90.8256 36.2115 90.7122 36.2424 90.5885C36.263 90.4649 36.2836 90.3412 36.2836 90.1969C36.2836 89.8259 36.1702 89.5271 35.9641 89.3106C35.758 89.0942 35.4695 88.9809 35.1191 88.9809C34.913 88.9809 34.7275 89.0221 34.5832 89.0839C34.4286 89.1458 34.3049 89.2282 34.2225 89.3313C34.1401 89.4343 34.0679 89.5683 34.0164 89.7332C33.9546 89.8981 33.9236 90.0423 33.903 90.1866C33.8824 90.3309 33.8721 90.5061 33.8721 90.6916H32.7282V90.5061C32.7282 89.7332 32.9446 89.1148 33.3774 88.6614C33.8103 88.208 34.408 87.9709 35.15 87.9709C35.8508 87.9709 36.4073 88.177 36.8401 88.5686C37.2626 88.9603 37.4791 89.4858 37.4791 90.1351C37.4791 90.403 37.4378 90.6504 37.3554 90.8771C37.2729 91.1141 37.1802 91.2996 37.0874 91.4439C36.9947 91.5882 36.8401 91.7634 36.6134 91.9489C36.3867 92.1447 36.2115 92.2786 36.1084 92.3508C35.9951 92.4332 35.7889 92.5672 35.5004 92.763C34.6347 93.3195 34.1194 93.8039 33.9546 94.2161H37.4687ZM42.6935 87.9194V90.671C43.0851 90.0939 43.6416 89.8053 44.3733 89.8053C44.9504 89.8053 45.3936 89.9702 45.7233 90.2794C46.0428 90.5885 46.2077 91.0523 46.2077 91.65V95.257H45.0226V92.0313C45.0226 91.6294 44.9504 91.3202 44.8061 91.1038C44.6619 90.8977 44.3939 90.7843 43.992 90.7843C43.5386 90.7843 43.2088 90.9389 43.0027 91.2275C42.7966 91.5263 42.6935 91.918 42.6935 92.4023V95.257H41.529V87.9194H42.6935ZM50.4455 89.8362V90.9595C50.2394 90.9389 50.0951 90.9286 50.0333 90.9286C49.0028 90.9286 48.4978 91.5985 48.4978 92.9176V95.257H47.3333V89.9393H48.436V91.0008C48.807 90.2175 49.4047 89.8156 50.2188 89.8156L50.4455 89.8362ZM55.2743 91.4851H54.151C54.0789 90.9286 53.6976 90.6401 52.9968 90.6401C52.6876 90.6401 52.4609 90.7019 52.296 90.805C52.1311 90.9183 52.0487 91.0729 52.0487 91.2584C52.0487 91.3202 52.0487 91.3821 52.059 91.4233C52.0693 91.4748 52.0899 91.516 52.1208 91.5573C52.1517 91.5985 52.1827 91.6294 52.2033 91.65C52.2239 91.6809 52.2754 91.7118 52.3372 91.7325C52.3991 91.7634 52.4403 91.784 52.4815 91.8046C52.5227 91.8252 52.5846 91.8458 52.6773 91.8664C52.7598 91.887 52.8319 91.9076 52.8834 91.918C52.935 91.9386 53.0174 91.9592 53.1411 91.9798C53.2544 92.0004 53.3472 92.021 53.409 92.0313C53.677 92.0931 53.8625 92.1447 53.9861 92.1756C54.1098 92.2065 54.285 92.2683 54.5117 92.3611C54.7384 92.4538 54.9136 92.5466 55.027 92.6496C55.1301 92.7527 55.2331 92.8867 55.3259 93.0619C55.4186 93.2371 55.4701 93.4329 55.4701 93.6596C55.4701 94.1955 55.2537 94.6283 54.8415 94.9375C54.419 95.257 53.8522 95.4115 53.1514 95.4115C52.3888 95.4115 51.8117 95.257 51.4097 94.9375C50.9975 94.6283 50.7811 94.1646 50.7605 93.5565H51.8838C51.9456 94.2264 52.3682 94.5562 53.172 94.5562C53.5121 94.5562 53.7903 94.4943 53.9964 94.3501C54.2026 94.2058 54.3159 94.0203 54.3159 93.7833C54.3159 93.6699 54.285 93.5668 54.2335 93.4844C54.1819 93.402 54.0995 93.3401 53.9861 93.2783C53.8625 93.2165 53.7491 93.1752 53.6461 93.1443C53.543 93.1134 53.3987 93.0722 53.2235 93.031L53.1617 93.0206C53.1411 93.0206 53.1308 93.0103 53.1102 93.0103C53.0896 93.0103 53.0689 93 53.0483 92.9897C52.2857 92.8042 51.8117 92.66 51.6056 92.5569C51.1109 92.3302 50.8739 91.9386 50.8739 91.3924C50.8739 90.8977 51.0594 90.5061 51.451 90.2175C51.8323 89.929 52.3682 89.7847 53.0483 89.7847C53.6976 89.7847 54.2335 89.929 54.6457 90.2072C55.0579 90.4958 55.2743 90.9183 55.2743 91.4851Z" fill="black"/>
<path d="M191.732 70.7666V75.9297C191.732 76.7026 191.536 77.29 191.155 77.6816C190.774 78.0836 190.217 78.2794 189.475 78.2794C188.641 78.2794 188.043 78.0733 187.682 77.6507C187.322 77.2385 187.146 76.6202 187.146 75.806V75.5278H188.373V75.9297C188.373 76.3522 188.445 76.6717 188.599 76.8984C188.744 77.1251 189.022 77.2282 189.434 77.2282C189.62 77.2282 189.774 77.2076 189.908 77.1458C190.032 77.0839 190.135 77.0221 190.207 76.9396C190.269 76.8572 190.32 76.7438 190.362 76.5996C190.403 76.4553 190.423 76.3316 190.434 76.2183C190.434 76.1049 190.444 75.9503 190.444 75.7545V70.7666H191.732ZM195.505 72.6319C196.309 72.6319 196.958 72.8896 197.443 73.3945C197.917 73.9098 198.164 74.59 198.164 75.4453C198.164 76.311 197.917 77.0015 197.443 77.5064C196.969 78.0217 196.319 78.2691 195.505 78.2691C194.67 78.2691 194.011 78.0217 193.527 77.5064C193.032 77.0015 192.795 76.311 192.795 75.4453C192.795 74.59 193.032 73.9098 193.527 73.3945C194.021 72.8896 194.681 72.6319 195.505 72.6319ZM195.485 73.5594C195.011 73.5594 194.65 73.7346 194.382 74.0644C194.114 74.4045 193.98 74.8682 193.98 75.4453C193.98 76.0431 194.114 76.5171 194.382 76.8469C194.65 77.187 195.021 77.3519 195.495 77.3519C195.948 77.3519 196.309 77.187 196.577 76.8469C196.845 76.5068 196.979 76.0328 196.979 75.435C196.979 74.8579 196.845 74.3942 196.577 74.0644C196.309 73.7346 195.948 73.5594 195.485 73.5594ZM200.357 70.7357V71.8899H199.182V70.7357H200.357ZM200.357 72.7865V78.1042H199.182V72.7865H200.357ZM202.76 72.7865V73.5697C203.183 72.9514 203.77 72.6422 204.522 72.6422C205.12 72.6422 205.574 72.8071 205.872 73.1369C206.171 73.4667 206.326 73.9407 206.326 74.5591V78.1042H205.151V75.0125C205.151 74.8064 205.141 74.6312 205.12 74.4869C205.1 74.3426 205.048 74.1984 204.986 74.0541C204.924 73.9098 204.821 73.8068 204.677 73.7346C204.533 73.6625 204.347 73.6213 204.121 73.6213C203.255 73.6213 202.822 74.1674 202.822 75.2392V78.1042H201.647V72.7865H202.76ZM212.316 76.445C212.182 77.0221 211.893 77.4755 211.46 77.795C211.028 78.1248 210.502 78.2794 209.904 78.2794C209.1 78.2794 208.461 78.0217 207.987 77.5064C207.513 76.9912 207.287 76.3213 207.287 75.5072C207.287 74.6827 207.524 73.9923 208.008 73.4461C208.492 72.9102 209.111 72.6319 209.863 72.6319C210.636 72.6319 211.254 72.8999 211.708 73.4358C212.161 73.9716 212.388 74.693 212.388 75.6102V75.7339H208.461C208.472 76.2698 208.606 76.6923 208.863 76.9809C209.111 77.2694 209.471 77.4137 209.925 77.4137C210.244 77.4137 210.502 77.3416 210.708 77.187C210.914 77.0324 211.069 76.7851 211.192 76.445H212.316ZM211.213 74.9507C211.172 74.5075 211.038 74.1571 210.79 73.8995C210.543 73.6419 210.234 73.5079 209.853 73.5079C209.461 73.5079 209.152 73.6316 208.915 73.8789C208.678 74.1262 208.534 74.4869 208.482 74.9507H211.213ZM218.32 70.7666V78.1042H217.218V77.3725C216.878 77.9599 216.311 78.2484 215.517 78.2484C214.765 78.2484 214.167 78.0011 213.724 77.4858C213.281 76.9809 213.065 76.3007 213.065 75.435C213.065 74.59 213.281 73.9098 213.714 73.4048C214.147 72.8999 214.734 72.6422 215.476 72.6422C216.218 72.6422 216.785 72.9205 217.166 73.477V70.7666H218.32ZM215.692 73.5903C215.239 73.5903 214.889 73.7552 214.631 74.085C214.373 74.4148 214.25 74.8579 214.25 75.4144C214.25 76.0018 214.373 76.4656 214.641 76.7954C214.909 77.1354 215.27 77.3003 215.734 77.3003C216.187 77.3003 216.548 77.1354 216.805 76.8057C217.063 76.4759 217.197 76.0224 217.197 75.435C217.197 74.8579 217.063 74.4045 216.795 74.0747C216.527 73.7552 216.167 73.5903 215.692 73.5903Z" fill="#B9B9B9"/>
<path d="M192.052 94.2161V95.257H187.126C187.126 94.9375 187.177 94.6386 187.26 94.3707C187.342 94.1027 187.435 93.876 187.538 93.6905C187.641 93.505 187.806 93.3092 188.012 93.1134C188.218 92.9176 188.414 92.7527 188.579 92.629C188.744 92.5054 188.981 92.3405 189.28 92.1344C189.3 92.1241 189.393 92.0622 189.578 91.9386C189.764 91.8149 189.877 91.7428 189.919 91.7118C189.96 91.6809 190.052 91.6088 190.197 91.4954C190.341 91.3821 190.434 91.2893 190.475 91.2172C190.516 91.1553 190.578 91.0626 190.661 90.9389C190.743 90.8256 190.794 90.7122 190.825 90.5885C190.846 90.4649 190.867 90.3412 190.867 90.1969C190.867 89.8259 190.753 89.5271 190.547 89.3106C190.341 89.0942 190.052 88.9809 189.702 88.9809C189.496 88.9809 189.31 89.0221 189.166 89.0839C189.012 89.1458 188.888 89.2282 188.806 89.3313C188.723 89.4343 188.651 89.5683 188.599 89.7332C188.538 89.8981 188.507 90.0423 188.486 90.1866C188.465 90.3309 188.455 90.5061 188.455 90.6916H187.311V90.5061C187.311 89.7332 187.528 89.1148 187.96 88.6614C188.393 88.208 188.991 87.9709 189.733 87.9709C190.434 87.9709 190.99 88.177 191.423 88.5686C191.846 88.9603 192.062 89.4858 192.062 90.1351C192.062 90.403 192.021 90.6504 191.938 90.8771C191.856 91.1141 191.763 91.2996 191.67 91.4439C191.578 91.5882 191.423 91.7634 191.196 91.9489C190.97 92.1447 190.794 92.2786 190.691 92.3508C190.578 92.4332 190.372 92.5672 190.083 92.763C189.218 93.3195 188.702 93.8039 188.538 94.2161H192.052ZM195.459 87.9812C197.129 87.9812 197.974 89.2282 197.974 91.7221C197.974 92.9279 197.758 93.8451 197.345 94.4634C196.923 95.0921 196.304 95.4012 195.501 95.4012C193.821 95.4012 192.986 94.1749 192.986 91.7015C192.986 90.4855 193.192 89.5683 193.615 88.9293C194.027 88.3007 194.645 87.9812 195.459 87.9812ZM195.47 88.9706C195.264 88.9706 195.078 89.0118 194.934 89.0942C194.779 89.1767 194.656 89.29 194.563 89.4549C194.47 89.6198 194.398 89.7744 194.346 89.9393C194.285 90.1042 194.243 90.3 194.223 90.5473C194.202 90.7946 194.182 91.0008 194.182 91.1656C194.171 91.3305 194.171 91.5263 194.171 91.7737C194.171 92.7012 194.274 93.3813 194.48 93.7936C194.687 94.2161 195.027 94.4222 195.49 94.4222C195.666 94.4222 195.82 94.3913 195.964 94.3191C196.109 94.247 196.222 94.1543 196.315 94.0512C196.397 93.9481 196.48 93.8142 196.542 93.639C196.603 93.4741 196.645 93.3195 196.675 93.1752C196.706 93.031 196.727 92.8558 196.748 92.6496C196.768 92.4435 196.779 92.2786 196.779 92.1653C196.779 92.0519 196.789 91.9076 196.789 91.7221C196.789 91.4954 196.779 91.3099 196.779 91.1863C196.779 91.0626 196.768 90.8668 196.748 90.6091C196.727 90.3515 196.686 90.1454 196.624 89.9805C196.562 89.8259 196.49 89.661 196.397 89.4858C196.304 89.321 196.181 89.187 196.026 89.1045C195.861 89.0221 195.676 88.9706 195.47 88.9706ZM203.505 94.2161V95.257H198.579C198.579 94.9375 198.63 94.6386 198.713 94.3707C198.795 94.1027 198.888 93.876 198.991 93.6905C199.094 93.505 199.259 93.3092 199.465 93.1134C199.671 92.9176 199.867 92.7527 200.032 92.629C200.197 92.5054 200.434 92.3405 200.732 92.1344C200.753 92.1241 200.846 92.0622 201.031 91.9386C201.217 91.8149 201.33 91.7428 201.371 91.7118C201.413 91.6809 201.505 91.6088 201.65 91.4954C201.794 91.3821 201.887 91.2893 201.928 91.2172C201.969 91.1553 202.031 91.0626 202.113 90.9389C202.196 90.8256 202.247 90.7122 202.278 90.5885C202.299 90.4649 202.319 90.3412 202.319 90.1969C202.319 89.8259 202.206 89.5271 202 89.3106C201.794 89.0942 201.505 88.9809 201.155 88.9809C200.949 88.9809 200.763 89.0221 200.619 89.0839C200.464 89.1458 200.341 89.2282 200.258 89.3313C200.176 89.4343 200.104 89.5683 200.052 89.7332C199.99 89.8981 199.959 90.0423 199.939 90.1866C199.918 90.3309 199.908 90.5061 199.908 90.6916H198.764V90.5061C198.764 89.7332 198.98 89.1148 199.413 88.6614C199.846 88.208 200.444 87.9709 201.186 87.9709C201.887 87.9709 202.443 88.177 202.876 88.5686C203.298 88.9603 203.515 89.4858 203.515 90.1351C203.515 90.403 203.474 90.6504 203.391 90.8771C203.309 91.1141 203.216 91.2996 203.123 91.4439C203.031 91.5882 202.876 91.7634 202.649 91.9489C202.423 92.1447 202.247 92.2786 202.144 92.3508C202.031 92.4332 201.825 92.5672 201.536 92.763C200.671 93.3195 200.155 93.8039 199.99 94.2161H203.505ZM209.447 92.5569V93.5462H208.53V95.257H207.397L207.386 93.5462H204.326V92.3817L207.417 87.9812H208.53V92.5569H209.447ZM207.407 92.5569V89.4343L205.294 92.5569H207.407Z" fill="black"/>
<path d="M342.235 69.7666H345.708C346.43 69.7666 347.027 69.9315 347.491 70.2613C347.945 70.5911 348.182 71.1063 348.182 71.8071C348.182 72.2502 348.068 72.6316 347.862 72.9407C347.646 73.2499 347.347 73.4766 346.966 73.6106C347.141 73.6518 347.295 73.7136 347.429 73.7961C347.553 73.8785 347.656 73.9713 347.728 74.064C347.8 74.1671 347.862 74.2907 347.914 74.435C347.955 74.5896 347.986 74.7236 348.006 74.8369C348.027 74.9503 348.037 75.0946 348.058 75.2801C348.058 75.3316 348.068 75.4244 348.079 75.5583C348.089 75.7026 348.099 75.7954 348.099 75.8366C348.099 75.8778 348.109 75.9602 348.12 76.0633C348.13 76.1767 348.14 76.2591 348.151 76.3003C348.151 76.3416 348.161 76.4137 348.182 76.4961C348.202 76.5786 348.212 76.6507 348.233 76.6919C348.243 76.7332 348.264 76.7847 348.285 76.8465C348.305 76.9084 348.326 76.9496 348.357 76.9908C348.377 77.032 348.408 77.0732 348.45 77.1042H347.069C347.048 77.0836 347.027 77.0526 347.007 77.0114C346.986 76.9702 346.976 76.929 346.966 76.8877C346.945 76.8465 346.935 76.8053 346.935 76.7641C346.924 76.7229 346.914 76.6713 346.904 76.6095C346.893 76.5477 346.893 76.4858 346.893 76.4446L346.873 76.2591L346.852 76.0736C346.852 76.0324 346.842 75.9602 346.842 75.8572C346.832 75.7541 346.832 75.682 346.832 75.6408C346.79 75.0431 346.667 74.6411 346.45 74.4144C346.234 74.1877 345.822 74.0743 345.224 74.0743H343.513V77.1042H342.235V69.7666ZM343.513 70.8178V73.1159H345.214C345.461 73.1159 345.667 73.1056 345.842 73.0747C346.007 73.0541 346.182 73.0026 346.357 72.9304C346.533 72.8583 346.667 72.7346 346.759 72.5697C346.852 72.4048 346.904 72.1987 346.904 71.9411C346.904 71.7144 346.862 71.5186 346.78 71.364C346.698 71.2094 346.574 71.096 346.419 71.0136C346.265 70.9414 346.11 70.8899 345.945 70.859C345.78 70.8384 345.595 70.8178 345.378 70.8178H343.513ZM349.296 73.4251C349.419 72.2296 350.192 71.6216 351.625 71.6216C352.284 71.6216 352.82 71.7556 353.212 72.0132C353.603 72.2812 353.809 72.6831 353.809 73.2293V75.9293C353.809 76.0839 353.82 76.187 353.861 76.2385C353.902 76.3003 353.974 76.3209 354.088 76.3209C354.17 76.3209 354.253 76.3209 354.356 76.3003V77.1248C354.046 77.2072 353.799 77.2381 353.593 77.2381C353.088 77.2381 352.8 77.032 352.727 76.5992C352.274 77.032 351.656 77.2381 350.862 77.2381C350.306 77.2381 349.873 77.1042 349.553 76.8156C349.223 76.5271 349.069 76.1457 349.069 75.6511C349.069 75.5068 349.079 75.3625 349.12 75.2286C349.151 75.1049 349.193 74.9915 349.234 74.8885C349.275 74.7957 349.347 74.703 349.45 74.6205C349.553 74.5381 349.636 74.4762 349.698 74.4144C349.759 74.3629 349.873 74.3114 350.017 74.2598C350.161 74.2186 350.275 74.1774 350.347 74.1568C350.419 74.1362 350.543 74.1052 350.728 74.0743C350.903 74.0537 351.017 74.0331 351.078 74.0228C351.14 74.0125 351.264 73.9919 351.449 73.9713C351.862 73.9197 352.15 73.8785 352.305 73.8373C352.449 73.7961 352.552 73.7446 352.614 73.6621C352.655 73.6106 352.686 73.4869 352.686 73.2808C352.686 72.7449 352.315 72.477 351.594 72.477C351.202 72.477 350.924 72.5491 350.749 72.6934C350.563 72.8377 350.45 73.085 350.409 73.4251H349.296ZM352.676 74.435C352.583 74.4866 352.48 74.5278 352.367 74.569C352.243 74.6102 352.15 74.6308 352.078 74.6411C352.006 74.6514 351.893 74.6617 351.738 74.6824C351.583 74.703 351.48 74.7236 351.439 74.7236C351.295 74.7442 351.182 74.7648 351.099 74.7854C351.017 74.806 350.914 74.8266 350.79 74.8679C350.666 74.9091 350.574 74.9606 350.512 75.0224C350.45 75.0843 350.388 75.1564 350.347 75.2595C350.295 75.3625 350.275 75.4759 350.275 75.6099C350.275 75.8675 350.357 76.0633 350.522 76.1973C350.687 76.3416 350.924 76.4034 351.233 76.4034C351.748 76.4034 352.15 76.2694 352.439 75.9809C352.593 75.8263 352.676 75.5171 352.676 75.0637V74.435ZM357.671 71.7865V72.6419H356.599V75.445C356.599 75.6099 356.599 75.7335 356.609 75.7954C356.609 75.8572 356.63 75.9293 356.671 76.0118C356.702 76.0942 356.764 76.1457 356.846 76.1664C356.929 76.1973 357.052 76.2076 357.207 76.2076C357.392 76.2076 357.547 76.2076 357.671 76.187V77.1145C357.434 77.1454 357.166 77.1557 356.877 77.1557C356.671 77.1557 356.485 77.1454 356.331 77.1145C356.176 77.0836 356.053 77.0423 355.95 77.0011C355.846 76.9599 355.754 76.8981 355.692 76.795C355.62 76.6919 355.568 76.6095 355.527 76.5477C355.486 76.4858 355.465 76.3622 355.445 76.1973C355.424 76.0324 355.424 75.9087 355.424 75.8263V75.3728V75.311V75.2492V75.177V72.6419H354.538V71.7865H355.424V70.1891H356.599V71.7865H357.671ZM359.711 69.7357V70.8899H358.536V69.7357H359.711ZM359.711 71.7865V77.1042H358.536V71.7865H359.711ZM362.115 71.7865V72.5697C362.537 71.9514 363.124 71.6422 363.877 71.6422C364.474 71.6422 364.928 71.8071 365.227 72.1369C365.526 72.4667 365.68 72.9407 365.68 73.5591V77.1042H364.505V74.0125C364.505 73.8064 364.495 73.6312 364.474 73.4869C364.454 73.3426 364.402 73.1984 364.341 73.0541C364.279 72.9098 364.176 72.8067 364.031 72.7346C363.887 72.6625 363.702 72.6212 363.475 72.6212C362.609 72.6212 362.176 73.1674 362.176 74.2392V77.1042H361.002V71.7865H362.115ZM371.783 71.7865V76.4858C371.783 77.403 371.588 78.0832 371.196 78.516C370.804 78.9592 370.155 79.1756 369.228 79.1756C367.764 79.1756 366.971 78.6397 366.847 77.5576H368.022C368.125 78.0935 368.537 78.3511 369.259 78.3511C369.743 78.3511 370.093 78.2275 370.32 77.9801C370.547 77.7328 370.66 77.3412 370.66 76.7847V76.1561C370.268 76.7538 369.712 77.0526 368.97 77.0526C368.259 77.0526 367.692 76.8156 367.28 76.3416C366.868 75.8675 366.662 75.2182 366.662 74.4041C366.662 73.5797 366.878 72.9098 367.311 72.4048C367.744 71.8999 368.31 71.6422 369.032 71.6422C369.403 71.6422 369.722 71.7144 369.98 71.8586C370.227 72.0029 370.464 72.2193 370.691 72.5285V71.7865H371.783ZM369.238 72.5903C368.795 72.5903 368.444 72.7552 368.197 73.0644C367.95 73.3839 367.826 73.827 367.826 74.3835C367.826 74.9194 367.95 75.3522 368.207 75.6614C368.465 75.9809 368.805 76.1354 369.238 76.1354C369.671 76.1354 370.021 75.9809 370.279 75.6511C370.526 75.3213 370.66 74.8782 370.66 74.3217C370.66 73.7858 370.526 73.3632 370.279 73.0541C370.031 72.7449 369.681 72.5903 369.238 72.5903ZM377.233 73.3323H376.109C376.037 72.7758 375.656 72.4873 374.955 72.4873C374.646 72.4873 374.419 72.5491 374.254 72.6522C374.089 72.7655 374.007 72.9201 374.007 73.1056C374.007 73.1674 374.007 73.2293 374.017 73.2705C374.028 73.322 374.048 73.3632 374.079 73.4045C374.11 73.4457 374.141 73.4766 374.162 73.4972C374.182 73.5281 374.234 73.5591 374.296 73.5797C374.357 73.6106 374.399 73.6312 374.44 73.6518C374.481 73.6724 374.543 73.693 374.636 73.7136C374.718 73.7342 374.79 73.7549 374.842 73.7652C374.893 73.7858 374.976 73.8064 375.099 73.827C375.213 73.8476 375.306 73.8682 375.367 73.8785C375.635 73.9404 375.821 73.9919 375.944 74.0228C376.068 74.0537 376.243 74.1156 376.47 74.2083C376.697 74.3011 376.872 74.3938 376.985 74.4969C377.088 74.5999 377.191 74.7339 377.284 74.9091C377.377 75.0843 377.428 75.2801 377.428 75.5068C377.428 76.0427 377.212 76.4755 376.8 76.7847C376.377 77.1042 375.811 77.2587 375.11 77.2587C374.347 77.2587 373.77 77.1042 373.368 76.7847C372.956 76.4755 372.739 76.0118 372.719 75.4037H373.842C373.904 76.0736 374.327 76.4034 375.13 76.4034C375.47 76.4034 375.749 76.3416 375.955 76.1973C376.161 76.053 376.274 75.8675 376.274 75.6305C376.274 75.5171 376.243 75.4141 376.192 75.3316C376.14 75.2492 376.058 75.1873 375.944 75.1255C375.821 75.0637 375.707 75.0224 375.604 74.9915C375.501 74.9606 375.357 74.9194 375.182 74.8782L375.12 74.8679C375.099 74.8679 375.089 74.8576 375.069 74.8576C375.048 74.8576 375.027 74.8472 375.007 74.8369C374.244 74.6514 373.77 74.5072 373.564 74.4041C373.069 74.1774 372.832 73.7858 372.832 73.2396C372.832 72.7449 373.018 72.3533 373.409 72.0647C373.791 71.7762 374.327 71.6319 375.007 71.6319C375.656 71.6319 376.192 71.7762 376.604 72.0544C377.016 72.343 377.233 72.7655 377.233 73.3323Z" fill="#B9B9B9"/>
<path d="M347.913 94.565L345.927 96.0813C345.829 96.1618 345.722 96.1999 345.605 96.1956C345.489 96.1913 345.386 96.1577 345.297 96.0947C345.207 96.0317 345.138 95.9467 345.089 95.8397C345.04 95.7327 345.038 95.6164 345.082 95.4908L345.847 93.0084L343.901 91.6263C343.794 91.5547 343.727 91.4608 343.7 91.3445C343.673 91.2282 343.678 91.1208 343.713 91.0224C343.749 90.924 343.812 90.8367 343.901 90.7605C343.991 90.6843 344.098 90.6463 344.223 90.6467H346.625L347.403 88.0703C347.448 87.9451 347.518 87.8488 347.612 87.7815C347.706 87.7143 347.806 87.6808 347.913 87.6812C348.02 87.6815 348.121 87.7152 348.216 87.7821C348.31 87.849 348.379 87.9451 348.423 88.0703L349.202 90.6467H351.603C351.729 90.6467 351.836 90.6848 351.926 90.761C352.015 90.8372 352.078 90.9244 352.113 91.0224C352.149 91.1205 352.154 91.2278 352.127 91.3445C352.1 91.4611 352.033 91.5551 351.926 91.6263L349.98 93.0084L350.745 95.4908C350.789 95.6161 350.787 95.7324 350.738 95.8397C350.689 95.9471 350.62 96.0321 350.53 96.0947C350.44 96.1573 350.337 96.1909 350.221 96.1956C350.105 96.2003 349.998 96.1621 349.899 96.0813L347.913 94.565Z" fill="#FFCC00"/>
<path d="M362.983 92.2194V93.3324H361.951V95.2569H360.675L360.664 93.3324H357.221V92.0223L360.699 87.0718H361.951V92.2194H362.983ZM360.687 92.2194V88.7065L358.31 92.2194H360.687ZM365.773 93.6918V95.2569H364.196V93.6918H365.773ZM372.13 87.1877V88.3355H368.895L368.524 90.4223C368.884 90.0398 369.394 89.8427 370.055 89.8427C370.797 89.8427 371.411 90.0861 371.875 90.5731C372.339 91.06 372.57 91.7093 372.57 92.4976C372.57 93.3556 372.292 94.0628 371.759 94.5961C371.214 95.141 370.518 95.4077 369.672 95.4077C368.86 95.4077 368.211 95.1874 367.713 94.7468C367.214 94.3063 366.947 93.7034 366.924 92.9498H368.234C368.258 93.3672 368.408 93.7034 368.687 93.9468C368.953 94.2019 369.289 94.3178 369.707 94.3178C370.182 94.3178 370.553 94.1671 370.82 93.8657C371.075 93.5643 371.214 93.1237 371.214 92.5672C371.214 92.0339 371.075 91.6165 370.808 91.3151C370.53 91.0136 370.159 90.8629 369.684 90.8629C369.104 90.8629 368.652 91.1064 368.327 91.5933L367.168 91.5585L367.945 87.1877H372.13Z" fill="black"/>
</g>
<defs>
<filter id="filter0_dddd_1804_6952" x="0" y="0" width="415" height="152.562" filterUnits="userSpaceOnUse" color-interpolation-filters="sRGB">
<feFlood flood-opacity="0" result="BackgroundImageFix"/>
<feColorMatrix in="SourceAlpha" type="matrix" values="0 0 0 0 0 0 0 0 0 0 0 0 0 0 0 0 0 0 127 0" result="hardAlpha"/>
<feOffset dy="5"/>
<feGaussianBlur stdDeviation="5"/>
<feComposite in2="hardAlpha" operator="out"/>
<feColorMatrix type="matrix" values="0 0 0 0 0 0 0 0 0 0 0 0 0 0 0 0 0 0 0.04 0"/>
<feBlend mode="normal" in2="BackgroundImageFix" result="effect1_dropShadow_1804_6952"/>
<feColorMatrix in="SourceAlpha" type="matrix" values="0 0 0 0 0 0 0 0 0 0 0 0 0 0 0 0 0 0 127 0" result="hardAlpha"/>
<feOffset dy="18"/>
<feGaussianBlur stdDeviation="8"/>
<feComposite in2="hardAlpha" operator="out"/>
<feColorMatrix type="matrix" values="0 0 0 0 0 0 0 0 0 0 0 0 0 0 0 0 0 0 0.02 0"/>
<feBlend mode="normal" in2="effect1_dropShadow_1804_6952" result="effect2_dropShadow_1804_6952"/>
<feColorMatrix in="SourceAlpha" type="matrix" values="0 0 0 0 0 0 0 0 0 0 0 0 0 0 0 0 0 0 127 0" result="hardAlpha"/>
<feOffset dy="21"/>
<feGaussianBlur stdDeviation="11"/>
<feComposite in2="hardAlpha" operator="out"/>
<feColorMatrix type="matrix" values="0 0 0 0 0 0 0 0 0 0 0 0 0 0 0 0 0 0 0.03 0"/>
<feBlend mode="normal" in2="effect2_dropShadow_1804_6952" result="effect3_dropShadow_1804_6952"/>
<feColorMatrix in="SourceAlpha" type="matrix" values="0 0 0 0 0 0 0 0 0 0 0 0 0 0 0 0 0 0 127 0" result="hardAlpha"/>
<feOffset dy="4"/>
<feGaussianBlur stdDeviation="2"/>
<feComposite in2="hardAlpha" operator="out"/>
<feColorMatrix type="matrix" values="0 0 0 0 0 0 0 0 0 0 0 0 0 0 0 0 0 0 0.02 0"/>
<feBlend mode="normal" in2="effect3_dropShadow_1804_6952" result="effect4_dropShadow_1804_6952"/>
<feBlend mode="normal" in="SourceGraphic" in2="effect4_dropShadow_1804_6952" result="shape"/>
</filter>
</defs>
</svg>
