<svg width="40" height="40" viewBox="0 0 40 40" fill="none" xmlns="http://www.w3.org/2000/svg">
<path d="M29.2963 7.38665L25.963 5.63665C23.0363 4.10165 21.573 3.33331 19.9997 3.33331C18.4263 3.33331 16.963 4.09998 14.0363 5.63665L13.5013 5.91831L28.373 14.4166L35.0663 11.0666C33.9897 9.84665 32.253 8.93498 29.2963 7.38331M36.2463 13.2733L29.583 16.6066V21.6666C29.583 21.9982 29.4513 22.3161 29.2169 22.5505C28.9825 22.7849 28.6645 22.9166 28.333 22.9166C28.0015 22.9166 27.6835 22.7849 27.4491 22.5505C27.2147 22.3161 27.083 21.9982 27.083 21.6666V17.8566L21.2497 20.7733V36.5066C22.4463 36.2083 23.808 35.495 25.963 34.3633L29.2963 32.6133C32.8813 30.7316 34.6747 29.7916 35.6713 28.1C36.6663 26.41 36.6663 24.305 36.6663 20.1V19.905C36.6663 16.75 36.6663 14.7766 36.2463 13.2733ZM18.7497 36.5066V20.7733L3.75301 13.2733C3.33301 14.7766 3.33301 16.75 3.33301 19.9016V20.0966C3.33301 24.305 3.33301 26.41 4.32801 28.1C5.32467 29.7916 7.11801 30.7333 10.703 32.615L14.0363 34.3633C16.1913 35.495 17.553 36.2083 18.7497 36.5066ZM4.93301 11.0683L19.9997 18.6016L25.6847 15.76L10.8747 7.29665L10.703 7.38665C7.74801 8.93665 6.00967 9.84831 4.93301 11.07" fill="#009933"/>
</svg>
