<svg width="40" height="40" viewBox="0 0 40 40" fill="none" xmlns="http://www.w3.org/2000/svg">
<path d="M20.0003 2.91669C16.6216 2.91669 13.3187 3.91861 10.5093 5.79575C7.7 7.67289 5.51039 10.3409 4.21739 13.4625C2.92439 16.5841 2.58609 20.019 3.24525 23.3328C3.90442 26.6467 5.53144 29.6906 7.92059 32.0798C10.3097 34.4689 13.3537 36.0959 16.6675 36.7551C19.9814 37.4143 23.4163 37.076 26.5378 35.783C29.6594 34.49 32.3275 32.3004 34.2046 29.491C36.0817 26.6817 37.0837 23.3788 37.0837 20C37.0793 15.4706 35.278 11.1279 32.0752 7.92515C28.8724 4.72236 24.5298 2.9211 20.0003 2.91669ZM21.2503 29.5834V30.9C21.2503 31.2315 21.1186 31.5495 20.8842 31.7839C20.6498 32.0183 20.3319 32.15 20.0003 32.15C19.6688 32.15 19.3509 32.0183 19.1164 31.7839C18.882 31.5495 18.7503 31.2315 18.7503 30.9V29.5834C17.6642 29.421 16.6468 28.9527 15.817 28.2334C15.2247 27.7368 14.737 27.1275 14.3822 26.4408C14.0274 25.7541 13.8126 25.0038 13.7503 24.2334C13.7292 23.9871 13.7816 23.7401 13.9009 23.5236C14.0201 23.3071 14.2008 23.1309 14.4202 23.0171C14.6396 22.9033 14.8878 22.8571 15.1335 22.8843C15.3791 22.9115 15.6112 23.0109 15.8003 23.17C16.0555 23.3824 16.2171 23.6864 16.2503 24.0167C16.2822 24.4624 16.4034 24.8972 16.6067 25.2952C16.81 25.6932 17.0912 26.0462 17.4337 26.3334C18.1224 26.9221 19.0126 27.2208 19.917 27.1667C22.517 27.1667 23.7503 26.1667 23.7503 24.1334C23.7503 22.7834 22.567 21.3334 20.0003 21.3334C14.567 21.3334 13.7503 18 13.7503 16.0834C13.7948 14.8881 14.2055 13.7354 14.927 12.7814C15.6484 11.8274 16.6457 11.1183 17.7837 10.75C18.1003 10.6522 18.4226 10.58 18.7503 10.5334V9.23335C18.7503 8.90183 18.882 8.58389 19.1164 8.34947C19.3509 8.11505 19.6688 7.98335 20.0003 7.98335C20.3319 7.98335 20.6498 8.11505 20.8842 8.34947C21.1186 8.58389 21.2503 8.90183 21.2503 9.23335V10.5834C22.5588 10.8016 23.7584 11.4461 24.6627 12.4167C25.5669 13.3872 26.1251 14.6294 26.2503 15.95C26.264 16.2688 26.1553 16.5808 25.9464 16.822C25.7375 17.0633 25.4442 17.2154 25.1267 17.2474C24.8092 17.2794 24.4915 17.1887 24.2387 16.994C23.9859 16.7992 23.8171 16.5152 23.767 16.2C23.6744 15.2955 23.2398 14.4605 22.552 13.8658C21.8643 13.271 20.9754 12.9613 20.067 13H19.767C19.361 12.9968 18.9567 13.053 18.567 13.1667C18.1405 13.3058 17.7466 13.5295 17.4086 13.8245C17.0707 14.1195 16.7958 14.4796 16.6003 14.8834C16.3999 15.2828 16.2863 15.7202 16.267 16.1667C16.267 17.5334 16.717 18.8667 20.017 18.8667C24.117 18.8667 26.267 21.5334 26.267 24.1667C26.2892 24.8529 26.1748 25.5367 25.9306 26.1784C25.6863 26.8201 25.3169 27.4068 24.844 27.9046C24.3711 28.4023 23.8039 28.8012 23.1756 29.0779C22.5472 29.3547 21.8701 29.5038 21.1837 29.5167L21.2503 29.5834Z" fill="#009933"/>
</svg>
