<svg width="40" height="40" viewBox="0 0 40 40" fill="none" xmlns="http://www.w3.org/2000/svg">
<path fill-rule="evenodd" clip-rule="evenodd" d="M3.33301 13.3333C3.33301 12.0072 3.85979 10.7355 4.79747 9.79778C5.73516 8.8601 7.00693 8.33331 8.33301 8.33331H31.6663C32.9924 8.33331 34.2642 8.8601 35.2019 9.79778C36.1396 10.7355 36.6663 12.0072 36.6663 13.3333V26.6666C36.6663 27.9927 36.1396 29.2645 35.2019 30.2022C34.2642 31.1399 32.9924 31.6666 31.6663 31.6666H8.33301C7.00693 31.6666 5.73516 31.1399 4.79747 30.2022C3.85979 29.2645 3.33301 27.9927 3.33301 26.6666V13.3333ZM18.333 20C18.333 19.558 18.5086 19.134 18.8212 18.8215C19.1337 18.5089 19.5576 18.3333 19.9997 18.3333C20.4417 18.3333 20.8656 18.5089 21.1782 18.8215C21.4907 19.134 21.6663 19.558 21.6663 20C21.6663 20.442 21.4907 20.8659 21.1782 21.1785C20.8656 21.4911 20.4417 21.6666 19.9997 21.6666C19.5576 21.6666 19.1337 21.4911 18.8212 21.1785C18.5086 20.8659 18.333 20.442 18.333 20ZM19.9997 15C18.6736 15 17.4018 15.5268 16.4641 16.4644C15.5265 17.4021 14.9997 18.6739 14.9997 20C14.9997 21.3261 15.5265 22.5978 16.4641 23.5355C17.4018 24.4732 18.6736 25 19.9997 25C21.3258 25 22.5975 24.4732 23.5352 23.5355C24.4729 22.5978 24.9997 21.3261 24.9997 20C24.9997 18.6739 24.4729 17.4021 23.5352 16.4644C22.5975 15.5268 21.3258 15 19.9997 15Z" fill="#009933"/>
</svg>
