<svg width="32" height="32" viewBox="0 0 32 32" fill="none" xmlns="http://www.w3.org/2000/svg">
<path d="M14.6666 8.00003H18.6666L23.0533 3.60003C23.1773 3.47505 23.3247 3.37586 23.4872 3.30817C23.6497 3.24048 23.824 3.20563 24 3.20563C24.176 3.20563 24.3503 3.24048 24.5127 3.30817C24.6752 3.37586 24.8227 3.47505 24.9466 3.60003L28.3866 7.05336C28.635 7.30317 28.7744 7.64111 28.7744 7.99336C28.7744 8.34561 28.635 8.68354 28.3866 8.93336L25.3333 12H14.6666V14.6667C14.6666 15.0203 14.5262 15.3595 14.2761 15.6095C14.0261 15.8595 13.6869 16 13.3333 16C12.9797 16 12.6405 15.8595 12.3905 15.6095C12.1405 15.3595 12 15.0203 12 14.6667V10.6667C12 9.95945 12.2809 9.28117 12.781 8.78107C13.2811 8.28098 13.9594 8.00003 14.6666 8.00003ZM6.66664 14.6667V20L3.61331 23.0534C3.36497 23.3032 3.22559 23.6411 3.22559 23.9934C3.22559 24.3456 3.36497 24.6835 3.61331 24.9334L7.05331 28.3867C7.17726 28.5117 7.32473 28.6109 7.48721 28.6785C7.64969 28.7462 7.82396 28.7811 7.99998 28.7811C8.17599 28.7811 8.35027 28.7462 8.51275 28.6785C8.67522 28.6109 8.82269 28.5117 8.94664 28.3867L14.6666 22.6667H20C20.3536 22.6667 20.6927 22.5262 20.9428 22.2762C21.1928 22.0261 21.3333 21.687 21.3333 21.3334V20H22.6666C23.0203 20 23.3594 19.8596 23.6095 19.6095C23.8595 19.3595 24 19.0203 24 18.6667V17.3334H25.3333C25.6869 17.3334 26.0261 17.1929 26.2761 16.9428C26.5262 16.6928 26.6666 16.3536 26.6666 16V14.6667H17.3333V16C17.3333 16.7073 17.0524 17.3855 16.5523 17.8856C16.0522 18.3857 15.3739 18.6667 14.6666 18.6667H12C11.2927 18.6667 10.6145 18.3857 10.1144 17.8856C9.61426 17.3855 9.33331 16.7073 9.33331 16V12L6.66664 14.6667Z" fill="#009933"/>
</svg>
