<svg width="32" height="32" viewBox="0 0 32 32" fill="none" xmlns="http://www.w3.org/2000/svg">
<path fill-rule="evenodd" clip-rule="evenodd" d="M4.6185 4.61863C2.6665 6.57329 2.6665 9.71463 2.6665 16C2.6665 22.2853 2.6665 25.428 4.6185 27.38C6.57317 29.3333 9.7145 29.3333 15.9998 29.3333C22.2852 29.3333 25.4278 29.3333 27.3798 27.38C29.3332 25.4293 29.3332 22.2853 29.3332 16C29.3332 9.71463 29.3332 6.57196 27.3798 4.61863C25.4292 2.66663 22.2852 2.66663 15.9998 2.66663C9.7145 2.66663 6.57184 2.66663 4.6185 4.61863ZM23.4345 13.9733C23.5968 13.7688 23.6726 13.5089 23.6459 13.2493C23.6191 12.9896 23.4919 12.7506 23.2913 12.5835C23.0908 12.4164 22.8328 12.3343 22.5726 12.3548C22.3123 12.3753 22.0704 12.4968 21.8985 12.6933L19.5025 15.568C19.0092 16.1613 18.7038 16.5226 18.4545 16.748C18.3893 16.8112 18.3162 16.8659 18.2372 16.9106L18.2225 16.9173L18.2118 16.912L18.2078 16.9106C18.1283 16.866 18.0548 16.8113 17.9892 16.748C17.7398 16.5213 17.4358 16.1613 16.9412 15.568L16.5518 15.1013C16.1145 14.5746 15.7185 14.1013 15.3505 13.768C14.9492 13.4053 14.4438 13.0826 13.7772 13.0826C13.1105 13.0826 12.6065 13.4053 12.2038 13.768C11.8358 14.1013 11.4412 14.5746 11.0038 15.1013L8.56384 18.0266C8.47979 18.1276 8.41645 18.2441 8.37743 18.3695C8.33841 18.4949 8.32448 18.6268 8.33643 18.7576C8.36056 19.0218 8.48864 19.2656 8.6925 19.4353C8.89637 19.605 9.15931 19.6868 9.42348 19.6627C9.68766 19.6386 9.93143 19.5105 10.1012 19.3066L12.4972 16.432C12.9905 15.8386 13.2958 15.4773 13.5452 15.252C13.6104 15.1887 13.6834 15.134 13.7625 15.0893L13.7718 15.0853L13.7772 15.0826L13.7918 15.0893C13.8714 15.1339 13.9449 15.1886 14.0105 15.252C14.2598 15.4786 14.5638 15.8386 15.0585 16.432L15.4478 16.8986C15.8865 17.4253 16.2812 17.8986 16.6492 18.232C17.0505 18.5946 17.5558 18.9173 18.2225 18.9173C18.8892 18.9173 19.3932 18.5946 19.7958 18.232C20.1638 17.8986 20.5585 17.4253 20.9958 16.8986L23.4345 13.9733Z" fill="#009933"/>
</svg>
