<svg width="32" height="32" viewBox="0 0 32 32" fill="none" xmlns="http://www.w3.org/2000/svg">
<g clip-path="url(#clip0_2022_6814)">
<path fill-rule="evenodd" clip-rule="evenodd" d="M5.04301 3.23798C6.71367 3.11665 9.21701 2.99998 12.6663 2.99998C16.1157 2.99998 18.6197 3.11665 20.2897 3.23798C21.2837 3.31065 22.023 4.04931 22.095 5.04331C22.2163 6.71398 22.333 9.21731 22.333 12.6666C22.333 16.116 22.2163 18.62 22.095 20.29C22.0223 21.284 21.2837 22.0233 20.289 22.0953C18.619 22.2166 16.1157 22.3333 12.6663 22.3333C9.21701 22.3333 6.71301 22.2166 5.04301 22.0953C4.04901 22.0226 3.30967 21.284 3.23767 20.2893C3.11634 18.62 2.99967 16.1166 2.99967 12.6666C2.99967 9.21665 3.11634 6.71331 3.23767 5.04331C3.31034 4.04931 4.04901 3.30998 5.04301 3.23798ZM12.6663 0.333313C9.15701 0.333313 6.58901 0.45198 4.84967 0.578646C2.53501 0.746646 0.746341 2.53531 0.578341 4.84998C0.451674 6.58931 0.333008 9.15731 0.333008 12.6666C0.333008 16.176 0.451674 18.744 0.578341 20.4833C0.746341 22.798 2.53501 24.5866 4.84967 24.7546C6.58901 24.8813 9.15701 25 12.6663 25C16.1757 25 18.7437 24.8813 20.483 24.7546C22.7977 24.5866 24.5863 22.798 24.7543 20.4833C24.881 18.744 24.9997 16.176 24.9997 12.6666C24.9997 9.15731 24.881 6.58931 24.7543 4.84998C24.5863 2.53531 22.7977 0.746646 20.483 0.578646C18.7437 0.45198 16.1757 0.333313 12.6663 0.333313ZM19.333 6.99998C19.749 6.99998 20.1521 7.00154 20.5423 7.00465C20.5797 7.78131 20.6123 8.66865 20.6343 9.67265C20.2006 9.66871 19.7668 9.66671 19.333 9.66665C15.8837 9.66665 13.3797 9.78331 11.7103 9.90531C10.7157 9.97731 9.97701 10.716 9.90501 11.71C9.78301 13.3806 9.66634 15.884 9.66634 19.3333C9.66634 19.7831 9.66834 20.2169 9.67234 20.6346C8.78265 20.6155 7.89324 20.5848 7.00434 20.5426C7.00123 20.1524 6.99967 19.7493 6.99967 19.3333C6.99967 15.824 7.11834 13.256 7.24501 11.5166C7.41301 9.20198 9.20167 7.41331 11.5163 7.24531C13.2557 7.11865 15.8237 6.99998 19.333 6.99998ZM7.24501 27.15L7.20501 26.558C8.18104 26.5994 9.15757 26.6283 10.1343 26.6446C11.8211 26.6743 13.5082 26.6743 15.195 26.6446C17.5837 26.6046 19.4397 26.51 20.813 26.41C23.8383 26.19 26.1903 23.838 26.4103 20.8133C26.543 18.988 26.6663 16.3106 26.6663 12.6666C26.6659 11.6675 26.6575 10.7395 26.641 9.88265H26.6403C26.6203 8.89554 26.5928 8.00287 26.5577 7.20465C26.7643 7.21798 26.9617 7.23154 27.1497 7.24531C29.4643 7.41331 31.253 9.20198 31.421 11.5166C31.5477 13.256 31.6663 15.824 31.6663 19.3333C31.6663 22.8426 31.5477 25.4106 31.421 27.15C31.253 29.4646 29.4643 31.2533 27.1497 31.4213C25.4103 31.548 22.8423 31.6666 19.333 31.6666C15.8237 31.6666 13.2557 31.548 11.5163 31.4213C9.20167 31.2533 7.41301 29.4646 7.24501 27.15Z" fill="#009933"/>
</g>
<defs>
<clipPath id="clip0_2022_6814">
<rect width="32" height="32" fill="white"/>
</clipPath>
</defs>
</svg>
