<svg width="32" height="32" viewBox="0 0 32 32" fill="none" xmlns="http://www.w3.org/2000/svg">
<path fill-rule="evenodd" clip-rule="evenodd" d="M8.6665 13C8.66632 12.0606 8.91425 11.1379 9.3852 10.3251C9.85616 9.5123 10.5334 8.83832 11.3485 8.37133C11.3392 7.78511 11.3341 7.10578 11.3332 6.33333C11.3332 4.63267 11.3625 3.39667 11.3932 2.57C11.4218 1.77 11.9625 1.112 12.7598 1.04667C13.0998 1.01933 13.5118 1 13.9998 1C14.4878 1 14.8998 1.01933 15.2398 1.04667C16.0372 1.112 16.5778 1.77 16.6065 2.57C16.6372 3.39667 16.6665 4.63267 16.6665 6.33333C16.6661 7.10578 16.6609 7.78511 16.6512 8.37133C17.4641 8.83709 18.14 9.50878 18.6108 10.3188C19.0816 11.1288 19.3308 12.0485 19.3332 12.9854C19.3355 13.9223 19.0911 14.8433 18.6244 15.6557C18.1576 16.4681 17.4852 17.1432 16.6746 17.6131C15.8641 18.0829 14.944 18.331 14.0071 18.3323C13.0702 18.3336 12.1495 18.088 11.3377 17.6204C10.5258 17.1527 9.85153 16.4794 9.3826 15.6683C8.91367 14.8572 8.66669 13.9369 8.6665 13ZM18.6632 7.34C18.6654 7.02444 18.6665 6.68889 18.6665 6.33333C18.6665 4.61 18.6372 3.34933 18.6058 2.49667C18.5954 2.22099 18.5545 1.94732 18.4838 1.68067C23.3825 3.35 26.9258 7.904 27.0365 13.296L29.6232 16.9027C30.0852 17.5473 30.0365 18.4893 29.2865 18.9487C28.7178 19.2953 27.8872 19.7 26.7725 19.9953L26.3885 24.5487C26.3622 24.8616 26.2729 25.1661 26.1261 25.4437C25.9793 25.7214 25.7779 25.9665 25.5341 26.1645C25.2902 26.3624 25.0089 26.5091 24.707 26.5958C24.4052 26.6824 24.0889 26.7072 23.7772 26.6687L22.0972 26.4607V28.4053C22.0972 29.41 21.4432 30.3187 20.4178 30.5087C19.1838 30.7387 17.1618 31 14.3525 31C11.5432 31 9.52184 30.7387 8.28717 30.5087C7.2625 30.318 6.60717 29.41 6.60717 28.4053V23.5C3.6045 21.2053 1.6665 17.6047 1.6665 13.5553C1.6665 8.33933 4.87984 3.86867 9.45117 1.972C9.42006 2.14533 9.40095 2.32022 9.39384 2.49667C9.3625 3.34933 9.33317 4.61 9.33317 6.33333C9.33317 6.68889 9.33428 7.02444 9.3365 7.34C8.50076 8.02742 7.82783 8.89158 7.36615 9.87028C6.90446 10.849 6.66552 11.9179 6.6665 13C6.6665 16.9107 9.72784 20.1067 13.5845 20.322C15.7632 22.3447 18.9332 23.6667 21.9998 23.6667C22.2651 23.6667 22.5194 23.5613 22.7069 23.3738C22.8945 23.1862 22.9998 22.9319 22.9998 22.6667C22.9998 22.4015 22.8945 22.1471 22.7069 21.9596C22.5194 21.772 22.2651 21.6667 21.9998 21.6667C20.0518 21.6667 18.0205 21.0113 16.3585 19.946C19.2518 18.964 21.3332 16.2247 21.3332 13C21.3342 11.9179 21.0952 10.849 20.6335 9.87028C20.1718 8.89158 19.4989 8.02742 18.6632 7.34Z" fill="#009933"/>
</svg>
