<svg width="32" height="32" viewBox="0 0 32 32" fill="none" xmlns="http://www.w3.org/2000/svg">
<g clip-path="url(#clip0_1969_6740)">
<path d="M14.5776 13.6888H17.4221V18.3111H14.5776V13.6888Z" fill="#009933"/>
<path d="M18.6667 18.6667C18.6667 18.9024 18.5731 19.1285 18.4064 19.2952C18.2397 19.4619 18.0136 19.5556 17.7778 19.5556H14.2223C13.9865 19.5556 13.7604 19.4619 13.5937 19.2952C13.427 19.1285 13.3334 18.9024 13.3334 18.6667V16.8889H1.77783V24.8889C1.77783 25.3604 1.96513 25.8126 2.29853 26.146C2.63193 26.4794 3.08411 26.6667 3.55561 26.6667H28.4445C28.916 26.6667 29.3682 26.4794 29.7016 26.146C30.035 25.8126 30.2223 25.3604 30.2223 24.8889V16.8889H18.6667V18.6667Z" fill="#009933"/>
<path d="M29.9645 11.0044L26.329 7.36888C26.1634 7.20466 25.9399 7.11208 25.7067 7.1111H21.2623V5.37776C21.2743 4.9107 21.102 4.45767 20.7827 4.11666C20.4633 3.77565 20.0225 3.57408 19.5556 3.55554H12.3023C12.0742 3.56452 11.8501 3.61918 11.6435 3.71629C11.4369 3.8134 11.2518 3.95099 11.0993 4.1209C10.9468 4.29081 10.8299 4.4896 10.7556 4.70549C10.6813 4.92138 10.6511 5.14998 10.6667 5.37776V7.1111H6.2934C6.17642 7.11042 6.06045 7.13284 5.95215 7.17708C5.84385 7.22131 5.74535 7.28649 5.66229 7.36888L2.03562 11.0044C1.95324 11.0875 1.88806 11.186 1.84383 11.2943C1.79959 11.4026 1.77717 11.5186 1.77785 11.6355V15.1111H13.3334V13.3333C13.3334 13.0976 13.4271 12.8715 13.5938 12.7048C13.7605 12.5381 13.9865 12.4444 14.2223 12.4444H17.7778C18.0136 12.4444 18.2397 12.5381 18.4064 12.7048C18.5731 12.8715 18.6667 13.0976 18.6667 13.3333V15.1111H30.2223V11.6267C30.2213 11.3935 30.1287 11.17 29.9645 11.0044ZM19.5556 7.1111H12.4445V5.33332H19.5556V7.1111Z" fill="#009933"/>
</g>
<defs>
<clipPath id="clip0_1969_6740">
<rect width="32" height="32" fill="white"/>
</clipPath>
</defs>
</svg>
