<svg width="32" height="32" viewBox="0 0 32 32" fill="none" xmlns="http://www.w3.org/2000/svg">
<path d="M13.3333 7.33332C13.3331 6.31205 13.5936 5.30764 14.0901 4.41518C14.5866 3.52273 15.3027 2.77178 16.1706 2.23344C17.0384 1.6951 18.0293 1.38719 19.0494 1.33887C20.0696 1.29055 21.0851 1.50342 22 1.95732C22.9148 1.50396 23.9301 1.29153 24.9499 1.34011C25.9697 1.3887 26.9602 1.69671 27.8277 2.23499C28.6952 2.77326 29.4111 3.524 29.9074 4.41615C30.4038 5.30831 30.6643 6.31237 30.6643 7.33332C30.6643 8.35426 30.4038 9.35832 29.9074 10.2505C29.4111 11.1426 28.6952 11.8934 27.8277 12.4316C26.9602 12.9699 25.9697 13.2779 24.9499 13.3265C23.9301 13.3751 22.9148 13.1627 22 12.7093C21.0851 13.1632 20.0696 13.3761 19.0494 13.3278C18.0293 13.2794 17.0384 12.9715 16.1706 12.4332C15.3027 11.8949 14.5866 11.1439 14.0901 10.2514C13.5936 9.359 13.3331 8.35458 13.3333 7.33332ZM24.3333 10.6506C24.4427 10.6613 24.5538 10.6666 24.6667 10.6666C25.1178 10.6657 25.5641 10.5731 25.9785 10.3946C26.3928 10.216 26.7666 9.95524 27.0772 9.62798C27.3878 9.30073 27.6288 8.91382 27.7854 8.49071C27.9421 8.06759 28.0112 7.61708 27.9886 7.16647C27.966 6.71585 27.8522 6.27451 27.654 5.86918C27.4558 5.46385 27.1774 5.10297 26.8357 4.80841C26.4939 4.51385 26.0959 4.29173 25.6658 4.15552C25.2357 4.01931 24.7824 3.97184 24.3333 4.01598C24.9856 4.99936 25.3335 6.15326 25.3333 7.33332C25.3335 8.51337 24.9856 9.66727 24.3333 10.6506ZM11.2467 17.6666C11.0277 17.6661 10.8109 17.7087 10.6084 17.7919C10.4059 17.8752 10.2218 17.9976 10.0667 18.152L7.33333 20.8853V26H14.836L22.5733 24.0666L27.2827 22.056C27.4431 21.9693 27.5658 21.8264 27.6274 21.6548C27.6889 21.4832 27.685 21.2949 27.6162 21.126C27.5475 20.9571 27.4188 20.8196 27.2549 20.7397C27.091 20.6599 26.9033 20.6433 26.728 20.6933L26.7013 20.7L18.152 22.6666H13.3333V20H17.5C17.8094 20 18.1062 19.8771 18.325 19.6583C18.5438 19.4395 18.6667 19.1427 18.6667 18.8333C18.6667 18.5239 18.5438 18.2272 18.325 18.0084C18.1062 17.7896 17.8094 17.6666 17.5 17.6666H11.2467ZM21.316 19.2027L26.052 18.1133C26.5564 17.9807 27.0845 17.9654 27.5957 18.0687C28.107 18.1719 28.5878 18.3909 29.0012 18.7089C29.4146 19.0269 29.7496 19.4355 29.9805 19.9031C30.2114 20.3707 30.3321 20.8851 30.3333 21.4067C30.3328 22.0398 30.1562 22.6603 29.8232 23.1988C29.4903 23.7373 29.0141 24.1726 28.448 24.456L28.412 24.4747L23.4253 26.6013L15.164 28.6666H0V19H5.448L8.184 16.264C8.58712 15.8622 9.06542 15.5438 9.59161 15.3269C10.1178 15.1101 10.6815 14.999 11.2507 15H17.5C18.0346 14.9999 18.5633 15.1117 19.0521 15.328C19.5409 15.5444 19.9791 15.8607 20.3385 16.2564C20.6978 16.6522 20.9705 17.1188 21.1388 17.6262C21.3071 18.1336 21.3675 18.6706 21.316 19.2027ZM4.66667 21.6666H2.66667V26H4.66667V21.6666Z" fill="#009933"/>
</svg>
