<svg width="40" height="40" viewBox="0 0 40 40" fill="none" xmlns="http://www.w3.org/2000/svg">
<path fill-rule="evenodd" clip-rule="evenodd" d="M3.33366 3.33331C2.89163 3.33331 2.46771 3.50891 2.15515 3.82147C1.84259 4.13403 1.66699 4.55795 1.66699 4.99998V28.3333C1.66699 30.59 3.16199 32.4966 5.21533 33.12C5.521 34.1283 6.1374 35.0143 6.97653 35.6515C7.81567 36.2887 8.83466 36.6445 9.88804 36.6682C10.9414 36.6918 11.9754 36.3821 12.8423 35.7832C13.7091 35.1843 14.3647 34.3269 14.7153 33.3333H25.2853C25.636 34.3269 26.2915 35.1843 27.1584 35.7832C28.0253 36.3821 29.0592 36.6918 30.1126 36.6682C31.166 36.6445 32.185 36.2887 33.0241 35.6515C33.8633 35.0143 34.4797 34.1283 34.7853 33.12C35.8121 32.8085 36.7114 32.1749 37.3504 31.3129C37.9894 30.451 38.3341 29.4063 38.3337 28.3333V21.6666C38.3337 20.5723 38.1181 19.4887 37.6993 18.4776C37.2805 17.4666 36.6667 16.5479 35.8929 15.7741C35.1191 15.0003 34.2004 14.3864 33.1894 13.9677C32.1783 13.5489 31.0947 13.3333 30.0003 13.3333H23.3337V4.99998C23.3337 4.55795 23.1581 4.13403 22.8455 3.82147C22.5329 3.50891 22.109 3.33331 21.667 3.33331H3.33366ZM25.2853 30H23.3337V16.6666H30.0003C31.3264 16.6666 32.5982 17.1934 33.5359 18.1311C34.4735 19.0688 35.0003 20.3406 35.0003 21.6666V28.3333C35.0002 28.7753 34.8246 29.1992 34.512 29.5116C34.0859 28.6191 33.4046 27.8729 32.5544 27.3675C31.7042 26.8622 30.7232 26.6203 29.7355 26.6726C28.7478 26.7249 27.7978 27.0689 27.0056 27.6612C26.2135 28.2535 25.6148 29.0674 25.2853 30ZM8.82199 30.4883C8.97574 30.3291 9.15964 30.2022 9.36298 30.1148C9.56632 30.0275 9.78502 29.9815 10.0063 29.9796C10.2276 29.9776 10.4471 30.0198 10.6519 30.1036C10.8567 30.1874 11.0428 30.3112 11.1993 30.4677C11.3558 30.6241 11.4796 30.8102 11.5634 31.0151C11.6472 31.2199 11.6893 31.4394 11.6874 31.6606C11.6855 31.8819 11.6395 32.1006 11.5522 32.304C11.4648 32.5073 11.3378 32.6912 11.1787 32.845C10.8643 33.1486 10.4433 33.3166 10.0063 33.3128C9.56933 33.309 9.15131 33.1337 8.84229 32.8247C8.53328 32.5157 8.358 32.0976 8.3542 31.6606C8.3504 31.2237 8.51839 30.8027 8.82199 30.4883ZM28.3337 31.6666C28.3337 31.2246 28.5093 30.8007 28.8218 30.4881C29.1344 30.1756 29.5583 30 30.0003 30C30.4424 30 30.8663 30.1756 31.1788 30.4881C31.4914 30.8007 31.667 31.2246 31.667 31.6666C31.667 32.1087 31.4914 32.5326 31.1788 32.8452C30.8663 33.1577 30.4424 33.3333 30.0003 33.3333C29.5583 33.3333 29.1344 33.1577 28.8218 32.8452C28.5093 32.5326 28.3337 32.1087 28.3337 31.6666Z" fill="#009933"/>
</svg>
